<?xml version="1.0" encoding="UTF-8"?>
<svg id="Capa_2" data-name="Capa 2" xmlns="http://www.w3.org/2000/svg" xmlns:xlink="http://www.w3.org/1999/xlink" viewBox="0 0 355.92 65.59">
  <defs>
    <style>
      .cls-1 {
        fill: url(#Degradado_sin_nombre_3);
      }

      .cls-1, .cls-2, .cls-3 {
        stroke-width: 0px;
      }

      .cls-2 {
        fill: none;
      }

      .cls-4 {
        clip-path: url(#clippath);
      }

      .cls-3 {
        fill: #1d1d1b;
      }
    </style>
    <clipPath id="clippath">
      <path class="cls-2" d="M6.74,40.7c-2.1-.75-4.21-1.3-6.3-1.65.63,3.39,1.8,6.73,3.56,9.91,5.13,9.29,14.09,15.12,23.82,16.64-.35-10.17-8.6-20.42-21.08-24.89ZM7.93,30.38c16.47-1.44,29.15-14.27,30.68-29.88-7.18-1.27-14.82-.19-21.69,3.61C6.92,9.64.92,19.58,0,30.16c2.57.37,5.22.47,7.93.23ZM32.91,40.61c-.42,9.16,2.47,17.71,7.61,24.48,2.84-.68,5.64-1.74,8.32-3.22,15.95-8.82,21.73-28.89,12.92-44.84-1.9-3.44-4.32-6.4-7.11-8.84-12.29,5.74-21.06,17.93-21.73,32.42Z"/>
    </clipPath>
    <linearGradient id="Degradado_sin_nombre_3" data-name="Degradado sin nombre 3" x1="-1215.11" y1="8556" x2="-1214.92" y2="8556" gradientTransform="translate(418981.43 2950222.93) scale(344.81 -344.81)" gradientUnits="userSpaceOnUse">
      <stop offset="0" stop-color="#dda10e"/>
      <stop offset="1" stop-color="#f3d900"/>
    </linearGradient>
  </defs>
  <g id="Capa_1-2" data-name="Capa 1">
    <g id="g10">
      <g id="g12">
        <g id="g14">
          <g class="cls-4">
            <g id="g16">
              <path id="path28" class="cls-1" d="M6.74,40.7c-2.1-.75-4.21-1.3-6.3-1.65.63,3.39,1.8,6.73,3.56,9.91,5.13,9.29,14.09,15.12,23.82,16.64-.35-10.17-8.6-20.42-21.08-24.89ZM7.93,30.38c16.47-1.44,29.15-14.27,30.68-29.88-7.18-1.27-14.82-.19-21.69,3.61C6.92,9.64.92,19.58,0,30.16c2.57.37,5.22.47,7.93.23ZM32.91,40.61c-.42,9.16,2.47,17.71,7.61,24.48,2.84-.68,5.64-1.74,8.32-3.22,15.95-8.82,21.73-28.89,12.92-44.84-1.9-3.44-4.32-6.4-7.11-8.84-12.29,5.74-21.06,17.93-21.73,32.42"/>
            </g>
          </g>
        </g>
        <path id="path30" class="cls-3" d="M174.73,59.76h9.51V4.79h-9.51v54.97"/>
        <path id="path32" class="cls-3" d="M212.95,19.85c-4.73,0-9.27,1.79-12.19,6.56v-5.72h-8.56v39.07h9.16v-20.7c0-1.62.14-3.17.43-4.3,1.05-4.21,4.06-6.66,8.48-6.66s7.2,2.29,8.04,6.86c.2,1.09.3,2.65.3,4.1v20.7h9.16v-23.12c0-2.59-.26-4.94-.86-6.94-1.99-6.64-7.29-9.85-13.95-9.85"/>
        <path id="path34" class="cls-3" d="M258.37,50.81c-.99.23-2.65.32-3.72.32h-10.53v-15.5h11.33c1.02,0,2.18.1,3,.29,4.45.99,6.16,4.5,6.16,7.45,0,3.9-2.51,6.56-6.23,7.44h0ZM244.11,13.42h8.45c1.93,0,3.97.27,5.29.87,2.29,1.06,3.53,3.03,3.53,6s-1.32,5.02-3.65,6.07c-1.17.53-2.88.8-4.85.8h-8.76v-13.74ZM265.51,30.38c3.72-2.86,5.28-6.13,5.28-10.81,0-7-4.34-12.26-10.96-14.04-1.72-.46-4.51-.73-7.75-.73h-17.38v54.97h19.46c3.79,0,6.33-.36,8.83-1.24,6.52-2.3,11.02-7.37,11.02-14.8,0-6.2-2.95-10.62-8.51-13.35"/>
        <path id="path36" class="cls-3" d="M346.1,20.69l-9.78,27.91-9.93-27.91h-9.92l15.52,39.07h8.45l15.49-39.07h-9.83"/>
        <path id="path38" class="cls-3" d="M286.49,37.15c.66-5.62,5.22-9.32,10.76-9.32,5.82,0,10.25,3.85,10.9,9.32h-21.65ZM297.17,19.85c-11.12,0-19.76,8.95-19.76,20.65,0,10.8,8.51,20.1,20.15,20.1,8.51,0,15.09-4.89,18.46-12.82h-9.32c-2.1,3.14-4.91,4.84-8.99,4.84-6.07,0-10.04-3.57-11.25-9.07h30.49c.23-1.3.29-2.39.28-3.71-.1-10.5-8.15-19.99-20.07-19.99"/>
        <path id="path40" class="cls-3" d="M150.59,51.13h-11.32v-15.8c1.44-.06,2.84-.09,4.2-.08,10.3.13,16.29,3.13,16.29,8.46,0,4.8-4.29,7.41-9.17,7.41h0ZM139.27,13.42h8.07c1.84,0,3.39.21,4.45.56,3.07,1,4.74,3.31,4.74,7.04,0,3.45-1.74,5.72-4.49,6.76-2.62-.45-5.56-.69-8.83-.69-1.23,0-2.58.02-3.94.06v-13.72ZM88.3,47.28l12.21-31.61,7.11,18.95c-7.35,3.37-13.9,7.7-19.32,12.66ZM160.58,30.46c3.96-2.9,5.36-7.23,5.36-10.89,0-7-4.34-12.26-10.95-14.05-1.72-.46-4.51-.73-7.75-.73h-17.38v23.2c-4.85.73-9.54,1.88-14.02,3.38l-10.85-26.58h-8.73l-22.43,54.97h9.15c7.91-8.36,17.35-14.36,27.19-18.35l6.88,18.35h10.38l-8.69-21.29c3.72-1.06,7.44-1.85,11.12-2.38v23.67h4.72s0,.01,0,.01h16.59c11.72,0,18.01-6.88,18.01-16.05,0-5.56-2.75-10.29-8.6-13.27"/>
      </g>
    </g>
  </g>
</svg>