<?xml version="1.0" encoding="UTF-8"?>
<svg id="Capa_2" data-name="Capa 2" xmlns="http://www.w3.org/2000/svg" viewBox="0 0 393.42 61.74">
  <defs>
    <style>
      .cls-1 {
        fill: #1c1554;
        stroke-width: 0px;
      }
    </style>
  </defs>
  <g id="Capa_1-2" data-name="Capa 1">
    <g>
      <path class="cls-1" d="M299.04,38.08c4.78,7.7,9.36,15.07,14.39,23.16-3.74,0-6.84.05-9.94-.05-.52-.02-1.22-.52-1.49-1-5.27-9.45-10.49-18.92-15.97-28.83,1.39-.19,2.21-.34,3.05-.42,6.09-.6,9.75-4.43,9.75-10.21,0-6.04-3.29-9.86-9.42-10.45-3.15-.3-6.34-.05-9.93-.05-.09,1.5-.23,2.85-.24,4.2-.02,13.94,0,27.89-.01,41.83q0,5.01-4.92,5.01c-1.38,0-2.76,0-4.39,0V.98c9.24.37,18.75-1.62,27.77,2.11,12.54,5.19,14.96,24.1,4.38,32.73-.88.72-1.82,1.36-3.03,2.26Z"/>
      <path class="cls-1" d="M204.12,36.68v15.47c10.34.3,20.25.68,26.99-8.7,4.42-6.15,4.59-17.75.4-24.1-6.62-10.06-16.72-9.83-27.45-9.12v12.5c-3.16-1.29-5.77-2.19-8.19-3.46-.74-.39-1.33-1.77-1.36-2.71-.13-4.98-.06-10.73-.06-16.4,20.52,0,27.11-1.92,38.68,7.47,10.47,8.5,12.99,20.01,9.97,32.52-2.84,11.74-11.24,18.7-22.93,20.29-8.25,1.12-16.77.22-25.7.22,0-6.05-.06-12.39.08-18.73.02-.73.96-1.73,1.72-2.09,2.28-1.08,4.68-1.91,7.85-3.16Z"/>
      <path class="cls-1" d="M374.05,2.93c-1.21,2.73-2.34,5.25-3.43,7.71-13.1-2.47-21.59.87-26.43,10.23-4.41,8.52-2.72,19.37,4.04,25.83,6.73,6.44,16.8,7.92,24.4,3.59,9.41-5.36,12.59-14.77,9.41-28.31,2.6-1.14,5.25-2.31,7.86-3.46,6.6,9.16,3.55,25.67-6.32,34.95-10.96,10.3-28.67,11.1-40.08,1.8-12.16-9.92-14.96-26.98-6.65-40.44,7.72-12.49,23.89-17.82,37.19-11.89Z"/>
      <path class="cls-1" d="M0,61.44C23.87,40.67,46.94,20.61,70.48.13v61.05h-10.24V23.13c-3.23,2.74-5.74,4.81-8.19,6.94-10.7,9.32-21.46,18.57-32.03,28.04-2.65,2.37-5.23,3.72-8.85,3.38-3.29-.31-6.64-.06-11.17-.06Z"/>
      <path class="cls-1" d="M156.36,1.71h9.02v59.9h-9.02V1.71Z"/>
      <path class="cls-1" d="M94.85,27.36h32.29v8.77h-23.11c0,6.62.04,12.72-.01,18.82-.06,7.28.86,6.23-6.3,6.32-.87.01-1.75-.09-2.87-.15V27.36Z"/>
      <path class="cls-1" d="M94.69,9.83V1.23h35.94v8.6h-35.94Z"/>
    </g>
  </g>
</svg>