<?xml version="1.0" encoding="UTF-8"?>
<svg id="Capa_2" data-name="Capa 2" xmlns="http://www.w3.org/2000/svg" viewBox="0 0 292.01 111.37">
  <defs>
    <style>
      .cls-1 {
        fill: #0a843c;
      }

      .cls-1, .cls-2, .cls-3, .cls-4 {
        stroke-width: 0px;
      }

      .cls-2 {
        fill: #fff;
      }

      .cls-3 {
        fill: #fdc428;
      }

      .cls-4 {
        fill: #77b829;
      }
    </style>
  </defs>
  <g id="Capa_1-2" data-name="Capa 1">
    <g>
      <path class="cls-4" d="M232.5,111.37c-.05-.43-.4-.27-.63-.3-.68-.09-1.35-.16-2.02-.34,1.43-.45,2.9-.58,4.31-.99,4.49-1.32,8.4-3.59,11.66-6.92,3.3-3.38,5.45-7.43,6.63-11.97.7-2.69.92-5.39.59-8.22-.4-3.45-1.23-6.81-1.65-10.23-.56-4.57-.83-9.16.4-13.7,2.23-8.26,8.57-14.33,17.4-15.49,4.25-.56,8.3,0,12.01,2.26,3.91,2.38,6.71,5.75,8.64,9.85,1.08,2.29,1.71,4.71,2.04,7.23.25,1.9.13,3.76.03,5.65-.11,1.91-.29,3.8-.85,5.61-.71,2.31-1.2,4.68-2.41,6.87-1,1.8-1.66,3.81-2.75,5.6-4.74,7.79-11.19,13.8-19.15,18.24-6.24,3.48-12.95,5.53-20.02,6.52-.46.06-1.03-.22-1.38.34h-1.62c-.05-.19-.11-.04-.16,0h-9.26c-.05-.12-.11-.16-.16,0h-1.62Z"/>
      <path class="cls-2" d="M234.13,111.37c.05-.16.11-.12.16,0h-.16Z"/>
      <path class="cls-2" d="M243.55,111.37c.05-.04.11-.19.16,0h-.16Z"/>
      <path class="cls-1" d="M235.68.19c3.34-.24,6.68-.18,10.02-.18.24,0,.48.04.72.07-.05.56.37.48.71.5,1.48.08,2.97,0,4.44.31,5.44,1.14,10.59,3.07,15.43,5.79,5.36,3,10.06,6.82,14.12,11.41,4.26,4.81,7.59,10.2,10.11,16.1.27.62.69,1.19.7,1.99-.57-.32-.82-.81-1.16-1.22-3-3.67-6.74-6.31-11.14-8.04-3.1-1.22-6.33-1.74-9.67-1.65-6.26.17-11.67,2.49-16.42,6.46-1.97,1.65-3.88,3.37-5.92,4.93-2.99,2.28-6.07,4.47-9.71,5.65-7.28,2.35-14.29,2.1-20.59-2.66-4.06-3.07-6.93-7.06-7.63-12.25-.4-2.96-.16-5.93.73-8.8,1.28-4.1,3.48-7.66,6.63-10.58,3.74-3.46,8.31-5.37,13.15-6.74,1.66-.47,3.33-.7,5.04-.67.2,0,.79.21.43-.43Z"/>
      <path class="cls-3" d="M196.11,19.68c-.25.66-.45,1.34-.77,1.96-.86,1.64-1.07,3.44-1.33,5.22-.21,1.46-.41,2.92-.3,4.39.22,3,.64,5.97,1.83,8.77,1.73,4.09,4.31,7.56,7.62,10.5,1.65,1.47,3.56,2.55,5.55,3.49,2.83,1.32,5.79,2.29,8.74,3.32,4.25,1.49,8.26,3.46,11.62,6.52,2.44,2.22,4.52,4.75,5.74,7.83.73,1.84,1.27,3.75,1.48,5.76.63,6.03-1.07,11.31-4.98,15.88-2.23,2.6-5.2,4.13-8.46,5.06-3.89,1.11-7.83,1.16-11.81.41-4.82-.91-8.76-3.43-12.43-6.5-2.92-2.45-5.31-5.37-7.41-8.53-.69-1.03-1.34-2.09-1.93-3.18-1.32-2.44-2.48-4.95-3.45-7.55-.27-.72-.54-1.44-.73-2.18-.76-2.9-1.46-5.8-1.84-8.79-.46-3.66-.22-7.32-.24-10.97,0-1.22.33-2.46.51-3.69.23-1.56.54-3.1.88-4.63.54-2.41,1.26-4.76,2.18-7.05,1.86-4.63,4.16-9.03,7.04-13.12.73-1.04,1.53-2.03,2.29-3.04.07.04.14.08.21.11Z"/>
      <path class="cls-1" d="M104.62,74.48c0-4.67.01-9.33-.01-14,0-.65.17-1.02.8-1.28,5.6-2.32,11.35-3.95,17.48-3.66,2.69.13,5.34.56,7.62,2.17.38.27.72.23,1.14.06,4.11-1.69,8.4-2.47,12.84-2.23,2.31.13,4.59.6,6.5,2.03,1.52,1.13,2.57,2.55,3.21,4.46.74,2.22.82,4.4.82,6.65,0,6.61,0,13.22,0,19.83,0,1.02,0,1.02-1.05,1.01-2.38,0-4.77-.03-7.15.02-.77.02-.96-.24-.96-.97.02-6.58.01-13.16.02-19.74,0-.92-.13-1.83-.35-2.71-.51-2.09-1.94-3.2-4.02-3.43-2.36-.26-4.62.17-6.76,1.23-.51.25-.68.63-.54,1.11.18.61.14,1.23.14,1.84,0,7.18,0,14.35,0,21.53,0,1.12,0,1.11-1.14,1.11-2.27,0-4.55-.02-6.82.02-.79.02-1.01-.25-1-1.02.03-6.47.01-12.95.02-19.42,0-1.09-.13-2.16-.42-3.19-.55-1.93-2.07-3.12-4.09-3.26-2.03-.14-3.99.12-5.89.87-.82.32-1.16.79-1.15,1.69.03,7.74.03,15.48.03,23.22,0,1.05-.04,1.09-1.1,1.09-2.41,0-4.82-.02-7.23.02-.74.01-.97-.24-.96-.98.03-4.69.02-9.39.02-14.08Z"/>
      <path class="cls-1" d="M96.17,69.93c0,3.67,0,7.34,0,11.01,0,1.31.71,2.27,1.71,2.25.66-.01,1.34-.13,1.98-.3.84-.23.85-.25.86.63,0,1.46-.02,2.91,0,4.37.01.72-.28,1.17-.98,1.36-1.69.47-3.38,1.03-5.14,1.05-2.5.02-4.95-.24-6.62-2.49-.31-.42-.59-.48-1.05-.08-1.63,1.41-3.59,2.17-5.71,2.37-3.72.35-7.25-.23-10.22-2.72-1.36-1.14-2.24-2.6-3.07-4.18-1.24-2.37-1.74-4.9-1.94-7.44-.28-3.53.07-7.04,1.36-10.42,1.31-3.42,3.47-6.07,6.77-7.73,2.45-1.24,5.07-1.74,7.81-1.95,4.61-.35,8.97.59,13.28,2.09.74.26.97.66.96,1.43-.04,3.59-.02,7.17-.02,10.76ZM86.89,71.86s.02,0,.03,0c0-2.48-.01-4.96,0-7.44,0-.65-.2-1.09-.83-1.32-2.82-1.02-6.92-.56-8.84,2.77-.77,1.33-1.22,2.75-1.47,4.25-.52,3.1-.59,6.18.74,9.12.96,2.13,2.47,3.69,4.95,3.92,1.64.15,3.23-.07,4.73-.85.6-.31.92-.71.87-1.4-.07-.83-.16-1.66-.17-2.5-.02-2.18,0-4.37,0-6.55Z"/>
      <path class="cls-1" d="M49.83,55.85c2.92-.13,5.64.3,8.14,1.72,2.72,1.54,4.11,3.9,4.24,6.99.08,1.86.04,3.72-.75,5.47-1.19,2.62-3.19,4.42-5.8,5.49-3.96,1.62-8.08,2.12-12.33,1.39-.8-.14-.89-.05-.69.78.49,2.02,1.79,3.35,3.68,4.12,2.89,1.18,5.88,1.31,8.93.86,1.34-.2,2.68-.41,3.97-.83.71-.23.95.01,1.08.71.28,1.53.63,3.04.97,4.55.24,1.07.18,1.19-.87,1.46-2.77.74-5.6,1.2-8.45,1.45-3.36.29-6.72.13-9.95-.93-4.57-1.5-7.47-4.69-8.71-9.25-1.53-5.62-1.14-11.13,1.69-16.3,2.18-3.98,5.72-6.21,10.1-7.22,1.59-.37,3.2-.56,4.75-.45ZM44.9,71.86c1.26.11,2.47-.19,3.63-.66,2.08-.84,3.77-2.08,4.32-4.44.53-2.25-1.07-4.37-3.38-4.24-2.47.14-4.54,1.15-5.91,3.31-.98,1.54-1.4,3.25-1.62,5.03-.05.44.14.64.54.75.79.21,1.59.33,2.41.25Z"/>
      <path class="cls-1" d="M0,53.82c0-2.53.02-5.07.03-7.6,1.24.14,2.49.05,3.73.05,9.99,0,19.98,0,29.97,0,.3,0,.6.01.89,0,.43,0,.64.17.64.63,0,2.08-.01,4.15,0,6.23,0,.68-.45.61-.89.61-3.76,0-7.53,0-11.29,0-1.18,0-1.17,0-1.17,1.17,0,11.19,0,22.39,0,33.58,0,1.01-.03,1.03-1.06,1.03-2.57,0-5.14-.03-7.72.02-.79.01-1.01-.23-1.01-1.01.02-11.19.01-22.39.01-33.58,0-1.21,0-1.21-1.2-1.21-3.33,0-6.66,0-9.99,0-.32,0-.64.04-.97.07Z"/>
      <path class="cls-1" d="M56.14,22.02c1.7,0,1.68,0,2.26,1.64,1.22,3.39,2.46,6.77,3.7,10.16,1.11,3.03,2.26,6.04,3.3,9.09.37,1.09.7,2.19,1.19,3.23.27.56.17.83-.53.84-2.13.05-2.12.07-2.82-1.98-.44-1.3-.91-2.58-1.36-3.88-.21-.61-.57-.85-1.27-.84-3.03.05-6.06.05-9.09.01-.76,0-1.14.3-1.36.98-.5,1.51-1.05,3-1.54,4.51-.27.85-.68,1.27-1.68,1.2-1.72-.12-1.71-.05-1.1-1.71.99-2.72,1.95-5.45,2.94-8.17,1.75-4.81,3.52-9.61,5.27-14.42.17-.47.44-.71.96-.67.38.03.76,0,1.14,0ZM56.06,38.07s0,0,0,0c1.24,0,2.49-.03,3.73.01.81.03.93-.08.67-.88-.06-.18-.13-.35-.19-.53-1.25-3.76-2.77-7.43-3.85-11.25-.05-.17,0-.43-.24-.47-.3-.06-.34.24-.41.42-.5,1.38-.99,2.78-1.47,4.17-.9,2.59-1.79,5.19-2.71,7.78-.22.61-.02.78.57.77,1.3-.02,2.6,0,3.89,0Z"/>
      <path class="cls-1" d="M99.78,36.91c0,2.4,0,4.8,0,7.2,0,.76.13,1.35,1.12,1.23.57-.07.48.39.47.72-.02.48.16,1.13-.61,1.19-1.11.08-2.24.16-3.08-.82-.34-.39-.66-.24-1.07-.05-2.64,1.24-5.37,1.4-8.11.37-1.66-.62-2.81-1.88-3.35-3.53-1.18-3.59-1.32-7.23.18-10.75,1.24-2.91,3.67-4.27,6.79-4.47,2.31-.15,4.59.12,6.84.65.62.15.84.44.84,1.05-.02,2.4,0,4.8,0,7.2h0ZM97.15,37.4s0,0,0,0c0-1.97-.01-3.94,0-5.91,0-.61-.23-.92-.85-1.07-1.23-.3-2.47-.42-3.71-.29-2,.22-3.62,1.12-4.51,3-1.33,2.81-1.47,5.71-.49,8.65.45,1.35,1.26,2.45,2.68,2.97,2.23.81,4.36.5,6.42-.58.39-.2.48-.53.47-.94-.02-1.94,0-3.88,0-5.83Z"/>
      <path class="cls-1" d="M155.03,36.66c0,2.21,0,4.42,0,6.63,0,.4.05.81.1,1.2.08.54.34.89.97.84.41-.04.82.05.75.58-.07.52.12,1.28-.71,1.33-1.09.06-2.24.26-3.06-.8-.28-.37-.65-.25-1.03-.07-1.99.92-4.06,1.26-6.24.9-3.19-.52-5.1-2.2-5.74-5.34-.56-2.77-.63-5.57.11-8.33.88-3.25,3.85-5.5,7.22-5.62,2.32-.08,4.58.16,6.84.66.6.13.79.39.79.98-.02,2.34,0,4.69-.01,7.04ZM152.4,37.44s0,0,0,0c0-1.97-.02-3.94,0-5.9,0-.65-.24-.95-.88-1.12-1.09-.3-2.19-.38-3.3-.28-2,.17-3.7.91-4.69,2.8-1.56,3.01-1.55,6.11-.48,9.24.51,1.49,1.66,2.4,3.12,2.79,1.97.53,3.91.24,5.74-.7.45-.23.49-.58.49-1-.01-1.94,0-3.88,0-5.82Z"/>
      <path class="cls-1" d="M104.94,38.11c0-2.62.02-5.23-.02-7.85,0-.57.19-.8.7-.98,2.43-.89,4.93-1.47,7.51-1.56,1.96-.07,3.83.31,5.24,1.88,1.06,1.19,1.29,2.67,1.32,4.15.07,4.18.04,8.36.07,12.54,0,.49-.18.67-.67.66-2.21-.05-1.96.27-1.96-1.84,0-3.59-.01-7.17,0-10.76.01-3.48-1.84-4.35-4.54-4.37-1.43-.01-2.85.29-4.2.8-.72.26-1.04.66-1.03,1.5.06,4.64.03,9.28.06,13.92,0,.62-.24.78-.82.77-1.89-.03-1.66.12-1.66-1.65,0-2.4,0-4.8,0-7.2Z"/>
      <path class="cls-1" d="M130.4,46.95c-1.65,0-3.3.02-4.95-.01-.5-.01-1.19.35-1.46-.31-.31-.77-.44-1.61.15-2.39.69-.9,1.34-1.83,2-2.75,2.52-3.44,5.03-6.88,7.55-10.32.13-.18.31-.35.2-.57-.12-.25-.38-.15-.58-.15-2.6,0-5.2,0-7.8,0-1,0-1.1-.13-.9-1.07.27-1.24.27-1.24,1.53-1.23,3.28.01,6.55.03,9.83.01.66,0,.91.14,1.05.85.2,1.04-.08,1.8-.7,2.6-3.19,4.12-6.22,8.36-9.24,12.61-.1.15-.31.29-.2.49.13.23.39.13.59.14,2.84,0,5.69,0,8.53,0,.97,0,.93.02.98,1.28.04.8-.34.86-.98.85-1.87-.03-3.74-.01-5.6-.01h0Z"/>
      <path class="cls-1" d="M70.01,34.4c0-3.85.01-7.71-.01-11.56,0-.64.21-.84.84-.83,1.52.01,1.64.09,1.64,1.64,0,7.47,0,14.93.02,22.4,0,.68-.15.96-.91.93-1.66-.07-1.58.18-1.58-1.58,0-3.67,0-7.33,0-11h0Z"/>
      <path class="cls-1" d="M78.12,37.48c0-2.8.02-5.61-.01-8.41,0-.72.23-.93.93-.92,1.53.03,1.54,0,1.54,1.55,0,5.39,0,10.79,0,16.18q0,1.13-1.1,1.1c-.08,0-.16,0-.24,0q-1.1-.01-1.1-1.15c0-2.78,0-5.56,0-8.33,0,0,0,0,0,0Z"/>
      <path class="cls-1" d="M80.57,23.83c0,.11,0,.22,0,.32,0,1.46,0,1.42-1.48,1.45-.75.01-1.03-.24-.98-.98.04-.67,0-1.34-.01-2.02,0-.4.16-.56.57-.6,1.9-.17,1.9-.18,1.9,1.82Z"/>
      <path class="cls-2" d="M248.27.13c.11-.01.23-.02.34-.03-.1.13-.22.14-.34.03Z"/>
    </g>
  </g>
</svg>