<?xml version="1.0" encoding="UTF-8"?>
<svg id="Capa_2" data-name="Capa 2" xmlns="http://www.w3.org/2000/svg" viewBox="0 0 191.76 109.62">
  <defs>
    <style>
      .cls-1 {
        fill: #1450c9;
        stroke-width: 0px;
      }
    </style>
  </defs>
  <g id="Capa_1-2" data-name="Capa 1">
    <g>
      <path class="cls-1" d="M150.25,18.42c1.41-.1,2.63.35,3.69,1.28,0,.05.02.07.07.06.2.16.39.34.55.54-.01.05.01.06.06.06.51.64.98,1.3,1.17,2.13.08.33.22.65.29.99.05.21-.21.39-.03.6.01.06,0,.13.08.15-.09.89-.52,1.66-.93,2.42-2.9,5.3-6.33,10.3-9.28,15.57-.44.79-.83,1.61-1.16,2.45-.08.21-.17.52.02.72.19.21.47.15.71.08.69-.18,1.26-.61,1.8-1.04,1.26-1,2.34-2.18,3.46-3.34,2.13-2.2,4.04-4.58,5.95-6.96.81-1.01,1.44-2.15,2.22-3.19.8-1.06,1.6-2.11,2.49-3.08,1.84-2.03,3.89-3.83,6.33-5.11,2.3-1.21,4.74-1.84,7.34-1.59,2.62.25,4.59,1.61,5.9,3.89.04.08.08.16.13.23.01.02.04.02.1.05.29-.64.58-1.28.87-1.92.19-.42.42-.84.76-1.16.72-.68,1.57-.7,2.39-.31,1.62.78,2.59,2.1,2.93,3.88.12.63-.13,1.19-.38,1.73-.96,2.09-2.07,4.1-3.2,6.1-1.56,2.75-3.14,5.49-4.68,8.24-.88,1.57-1.6,3.22-2.07,4.96-.24.89-.35,1.78-.23,2.69.15,1.08,1.12,1.89,2.33,1.51.63-.2,1.23-.45,1.79-.79,1.14-.7,2.15-1.56,3.11-2.5,1.18-1.17,2.32-2.38,3.42-3.64.39-.45.9-.79,1.55-.82.43-.01.77.12,1.05.45.87,1.04,1.15,2.2.73,3.52-.11.35-.3.64-.5.93-.57.83-1.21,1.61-1.9,2.35-.05,0-.07.02-.06.06-1.26,1.33-2.55,2.65-4.02,3.75-.07.05-.15.09-.23.13-.1,0-.14.04-.16.13-.14.1-.27.22-.45.25-.11.03-.14.11-.16.21-.05.03-.09.07-.14.1-.05-.02-.07.01-.08.05-.03,0-.05,0-.07.03-.1.01-.25-.06-.25.13-.09.08-.19.17-.28.25-.05-.02-.06.01-.08.05-.53.42-1.15.69-1.73,1.01-.11-.02-.2,0-.23.12-.02,0-.05,0-.07.02-.05,0-.07.02-.07.06-1.32.67-2.69,1.18-4.16,1.4-1.79.26-3.52.14-5.07-.91-1.25-.84-2.1-1.98-2.42-3.46-.05-.23-.06-.46-.06-.7.01-1,.12-1.99.3-2.97.1-.54.3-1.05.41-1.61-.3.14-.55.32-.78.54-1.32,1.29-2.71,2.49-4.21,3.58-.65.47-1.29.95-1.97,1.38-1.36.86-2.79,1.56-4.4,1.82-.64.1-1.26-.06-1.84-.27-.86-.3-1.68-.72-2.37-1.36-.6-.55-1.07-1.19-1.41-1.93-.69-1.5-.84-3.09-.86-4.72,0-.8.11-1.59.17-2.38.03-.04.06-.1,0-.12-.09-.03-.07.07-.09.12-1.11,1.15-2.21,2.33-3.35,3.46-1.33,1.32-2.74,2.56-4.34,3.55-1.03.64-2.12,1.17-3.33,1.36-1.22.2-2.37-.13-3.4-.81-1.38-.91-2.02-2.27-2.31-3.86-.21-1.17.18-2.18.62-3.19,1.05-2.43,2.44-4.68,3.8-6.94,2.03-3.37,4.21-6.66,6.14-10.1.53-.94,1.02-1.89,1.28-2.95.06-.25,0-.44-.14-.62.01-.04,0-.06-.05-.06-1.12.43-2.21.92-3.26,1.54-1.58.93-3.01,2.06-4.4,3.23-1.28,1.09-2.48,2.26-3.62,3.5-2.32,2.55-4.46,5.24-6.43,8.07-1.28,1.83-2.49,3.71-3.6,5.65-.49.86-.84,1.81-1.09,2.79-.15.58-.31,1.15-.47,1.72-.29,1-1.15,1.48-2.17,1.24-1.79-.43-2.88-1.59-3.48-3.28-.03-.08,0-.14,0-.21.02-.11-.07-.16-.14-.23-.08-.59-.26-1.16-.23-1.76,0-.12,0-.25.08-.35.04,0,.07-.03.06-.08-.08-.29.05-.58.14-.82.39-1.01.81-2.02,1.29-3,.09-.18.29-.32.24-.56.04-.06.08-.13.12-.19.02-.05.05-.1.07-.15,0-.03,0-.06,0-.1-.02.01-.04.03-.07.04-.04.04-.07.08-.11.11-.05.07-.11.14-.16.2-.33.38-.67.76-1,1.14-.04,0-.07.02-.06.06-1.35,1.59-2.83,3.04-4.33,4.47-.03.02-.06.04-.08.06-1.13,1.08-2.37,2.02-3.72,2.81-.83.49-1.71.88-2.64,1.13-1.67.44-3.15.09-4.47-1-1.21-.99-1.91-2.25-1.97-3.83-.01-.37.03-.73.15-1.08.57-1.71,1.33-3.33,2.22-4.89.06,0,.07-.04.05-.09.25-.64.66-1.2.94-1.86-.18-.05-.23.08-.3.15-.63.62-1.23,1.26-1.87,1.86-.74.69-1.48,1.37-2.23,2.04-1.42,1.28-2.92,2.46-4.48,3.57-.56.4-1.1.82-1.72,1.14-.05-.01-.07.03-.09.06-.91.62-1.88,1.14-2.87,1.64-1.1.56-2.22,1.05-3.39,1.41-.32.1-.65.18-.98.27-.03-.06-.05-.08-.08,0-1.61.45-3.24.49-4.76-.19-1.66-.73-2.69-2.08-3.04-3.89-.11-.56-.13-1.11.17-1.64.38-.67.9-.89,1.83-.7,1.89.38,3.69.09,5.44-.67,1.37-.6,2.61-1.4,3.72-2.39.64-.57,1.23-1.2,1.85-1.8.05,0,.07-.01.06-.06,1.04-1.22,1.99-2.51,2.73-3.93.57-1.09,1.11-2.19,1.54-3.36.28-.77.55-1.54.83-2.31.09-.25.27-.6.09-.92-.05-.1.03-.13.06-.19.07-.17.21-.31.08-.55-.09-.16.13-.33.17-.53.1-.48.18-.97.09-1.42-.09-.39.03-.81-.13-1.16-.2-.46-.27-1.04-.71-1.33-.43-.29-.89-.56-1.5-.33-1.23.46-2.22,1.26-3.2,2.08-.75.63-1.48,1.29-2.14,2.01-2.1,2.29-4.05,4.69-5.88,7.2-1.01,1.39-1.99,2.8-2.93,4.25-1.55,2.4-3.06,4.82-4.36,7.37-.99,1.93-1.94,3.88-2.88,5.84-.07.05-.13.11-.1.21-.98,1.94-1.92,3.89-2.85,5.86-1.12,2.35-2.23,4.7-3.21,7.11-.35.85-.66,1.72-1.03,2.56-.37.85-1.86,1.49-2.68,1.19-1.7-.61-3.14-1.55-3.86-3.3-.46-1.12-.61-2.28-.15-3.46.51-1.3,1.14-2.54,1.8-3.77.8-1.51,1.61-3.02,2.46-4.5.62-1.07,1.23-2.15,1.86-3.23.54-.92,1.06-1.84,1.57-2.77.39-.71.77-1.44,1.18-2.15.34-.59.66-1.2,1-1.78.23-.39.44-.82.66-1.22.27-.51.51-1.05.82-1.55.04-.07.11-.14.07-.27-.16-.02-.22.12-.29.21-.54.64-1.07,1.3-1.63,1.94-.69.78-1.41,1.54-2.12,2.31-.77.84-1.61,1.61-2.43,2.4-.29.28-.59.53-.89.79-.05,0-.08.01-.07.06-1.95,1.69-3.99,3.23-6.43,4.17-.05,0-.07.02-.07.06-.61.25-1.25.41-1.89.56-.8.18-1.58.25-2.37.07-.86-.2-1.61-.63-2.28-1.21-.67-.58-1.23-1.24-1.57-2.07.01-.11-.08-.15-.14-.21-.23-.46-.34-.96-.47-1.46.12-.1-.03-.11-.05-.16-.07-.7-.1-1.4-.03-2.1,0-.07.04-.16-.04-.2-.11-.06-.15.05-.21.11-.32.38-.64.78-.96,1.16-.95,1.11-1.94,2.17-3,3.17-.35.33-.66.71-1.07.99-.05,0-.07,0-.07.06-.69.65-1.43,1.22-2.21,1.76-1.41.97-2.89,1.83-4.56,2.29-1.06.29-2.12.41-3.21.2-.23-.04-.43-.08-.62-.28-.16-.18-.48-.15-.72-.24-.74-.29-1.27-.82-1.79-1.37,0-.05,0-.07-.06-.06-.17-.15-.29-.34-.41-.54.24-.3-.05-.27-.2-.32-.67-1.04-.71-2.19-.58-3.37.08-.79.26-1.55.51-2.3.21-.63.31-1.29.64-1.88.15-.26.19-.61.32-.9.06-.03.09-.08.08-.15.07-.17.27-.39.11-.5-.16-.12-.31.14-.43.27-1.47,1.63-3,3.19-4.61,4.69-.55.51-1.06,1.05-1.64,1.53-.05,0-.07,0-.07.06-.18.16-.36.31-.53.47-.05,0-.08.01-.07.06-1.05.93-2.15,1.79-3.3,2.59-.9.62-1.82,1.24-2.79,1.76-1.81.97-3.69,1.77-5.74,2.05-1.99.27-3.92.04-5.76-.78-2.17-.97-3.6-2.67-4.6-4.78-.36-.76-.66-1.53-.88-2.34.05-.03.08-.05,0-.07-.2-.65-.31-1.31-.41-1.99-.09-.6-.22-1.2-.2-1.81.02-.01.04-.02.05-.04-.02-.01-.04-.02-.05-.03-.07-.99.01-1.98.02-2.96.07-.07.15-.14.22-.21.03-.2-.27-.34-.09-.56,0,0,.02-.01.03-.02,0,0-.02,0-.03,0,.01-.23,0-.47.19-.65.02-.02.04-.07.03-.1-.21-.7.17-1.32.26-1.98.11-.73.35-1.42.52-2.14.03-.05.19-.04.07-.15.44-1.5,1-2.95,1.67-4.36.45-.95.92-1.89,1.44-2.81.5-.86.98-1.73,1.52-2.57.77-1.2,1.6-2.36,2.49-3.47,1.05-1.29,2.15-2.53,3.33-3.7.59-.58,1.22-1.13,1.84-1.67.65-.57,1.29-1.16,1.97-1.7.78-.61,1.57-1.21,2.4-1.75.74-.48,1.46-.99,2.22-1.43.82-.48,1.66-.93,2.5-1.37.96-.5,1.92-.99,2.92-1.41.96-.4,1.92-.83,2.93-1.11.85-.24,1.68-.55,2.54-.77,1.3-.34,2.62-.6,3.97-.77,1.44-.18,2.88-.35,4.33-.31,1.95.06,3.89.27,5.79.77,1.81.47,3.52,1.15,5.03,2.28.83.62,1.58,1.31,2.14,2.2.38.6.75,1.2.88,1.9.26,1.49-.49,2.99-1.96,3.36-.62.16-1.23,0-1.69-.45-.59-.59-1.27-1.04-2.01-1.42-.27-.13-.52-.29-.77-.46-.39-.26-.86-.2-1.29-.35-.85-.3-1.74-.45-2.63-.63-1.46-.29-2.92-.33-4.4-.31-1.14.02-2.28.15-3.4.36-2.17.41-4.27,1.1-6.28,2.01-1.1.5-2.17,1.05-3.21,1.67-1.01.61-1.99,1.27-2.94,1.97-1.27.94-2.46,1.98-3.6,3.07-2.2,2.11-4.02,4.51-5.6,7.09-.97,1.57-1.72,3.26-2.38,4.98-.05.14-.07.3-.23.37-.02,0-.03.01-.05.02.02,0,.03.01.05.02.05.16-.03.29-.08.43-.27.76-.5,1.53-.72,2.3-.02.07-.01.12,0,.18-.08,0-.12.05-.11.13-.08.53-.15,1.06-.23,1.59-.08.02-.09.08-.08.15.01.13.02.26.04.4-.09.02-.14.05-.03.13-.07.78-.07,1.57-.01,2.35-.14.11,0,.15.05.21.04.36.07.72.11,1.08-.02.12.08.15.14.21,0,.06,0,.12,0,.19-.02,0-.03.01-.05.02.02,0,.03.02.05.03.26.45.39.97.69,1.41.91,1.38,2.2,2.04,3.83,1.98,1.03-.04,2.02-.35,2.96-.77.14-.06.27-.15.43-.13,0,0-.01,0-.01,0,.65-.42,1.36-.73,2.01-1.15.8-.52,1.57-1.07,2.31-1.67.75-.6,1.46-1.25,2.17-1.9.73-.67,1.43-1.38,2.12-2.09.32-.33.67-.63.95-.99.05,0,.07-.01.06-.06.16-.18.31-.36.47-.54.05,0,.07-.02.06-.07,1.88-2.19,3.66-4.46,5.31-6.82.3-.43.6-.85.9-1.28.05,0,.06-.02.06-.07.03-.03.06-.05.09-.08.09-.05.18-.12.22-.22-.02-.39.23-.69.46-.91.4-.38.61-.87.88-1.31,1.28-2.05,2.49-4.15,3.69-6.26.41-.71.78-1.43,1.32-2.07,1.11-1.33,2.61-1.2,3.76-.19,1.12.99,1.88,2.19,2.17,3.67.15.79.1,1.57-.21,2.32-.48,1.16-1.09,2.25-1.7,3.35-.58,1.05-1.17,2.1-1.76,3.15-.62,1.11-1.25,2.23-1.81,3.37-1.1,2.23-2.15,4.49-2.9,6.86-.21.67-.37,1.36-.33,2.08-.02,0-.03.02-.05.02l.05.02c.12.4.21.82.6,1.08.01.04.03.07.08.05.44.31.93.36,1.46.32.53-.03.95-.32,1.38-.56,1.01-.54,1.88-1.28,2.7-2.08.84-.81,1.65-1.63,2.48-2.45.05,0,.07,0,.06-.06.2-.29.46-.52.7-.77.05,0,.07,0,.06-.06.16-.18.31-.36.47-.54.04,0,.07-.02.06-.07,1.41-1.66,2.79-3.35,4.15-5.06.41-.52.6-1.13.85-1.72.91-2.12,1.8-4.24,2.7-6.36.49-1.15.94-2.31,1.5-3.42.32-.64.48-1.34.87-1.95.26-.41.36-.92.56-1.37.18-.4.34-.8.53-1.2.25-.52.46-1.08.71-1.61.58-1.24,1.14-2.48,1.8-3.68.34-.61.69-1.23,1.03-1.84.41-.74.81-1.49,1.21-2.25.12-.23.29-.43.44-.64.48-.64.75-1.41,1.24-2.05.61-.8,1.14-1.66,1.8-2.42.33-.38.6-.8.96-1.15.42-.4.75-.89,1.19-1.27,1.11-.97,2.23-1.95,3.63-2.47.57-.21,1.15-.44,1.77-.48,1.07-.07,2.13-.1,3.14.36.1.05.22.04.26.17.02.04.07.11.09.11.65-.09,1.07.35,1.49.7,1.36,1.11,2.02,2.6,2.13,4.33-.1.06-.07.11.02.14,0,.29-.02.58-.02.86-.01,0-.02,0-.03,0,.01.01.02.02.03.03,0,.29,0,.57-.16.83-.12.19.04.43-.04.67-.17.53-.26,1.09-.46,1.62-.13.34-.19.75-.32,1.11-.4,1.1-.93,2.13-1.5,3.15-.3.53-.61,1.04-.91,1.56-.11.18-.17.41-.42.48-.22.06-.02.26-.1.42-.22.39-.48.76-.72,1.13-.39.61-.79,1.22-1.21,1.82-.72,1.02-1.39,2.08-2.2,3.03-.49.57-.9,1.2-1.37,1.79-.87,1.11-1.78,2.18-2.69,3.26-.84,1-1.71,1.97-2.6,2.92-1.65,1.79-3.36,3.52-5.1,5.23-1.18,1.16-2.36,2.31-3.55,3.47-.15.15-.37.22-.47.42-.1.05-.13.13-.15.23-.04.01-.07.03-.05.08,0,.06.01.12.09.13-.06.31-.24.58-.26.91,0,0,0-.01,0-.01-.05.44-.2.87-.19,1.33-.05.07-.19.11-.06.22,0,.5.02,1,.01,1.5,0,.24.2.39.23.62-.03.02-.07.04-.07.06.01.08.09.06.14.08.2.28.31.63.67.77.01.04.03.07.08.05.83.5,1.59.16,2.34-.2,1.44-.69,2.75-1.6,3.99-2.59.88-.7,1.73-1.43,2.54-2.21.76-.73,1.52-1.47,2.25-2.23.27-.28.59-.53.83-.85.05,0,.07-.01.06-.06,1.39-1.57,2.72-3.2,3.95-4.89.52-.72,1.02-1.45,1.52-2.18,1.23-1.77,2.26-3.66,3.31-5.53.49-.87.79-1.82,1.16-2.74.5-1.29.9-2.61,1.36-3.92.19-.52.32-1.06.49-1.59.38-1.24,1.24-1.6,2.39-1.42.62.1,1.12.44,1.58.83,1.53,1.26,2.42,2.85,2.47,4.86.02.6-.26,1.14-.47,1.68-.57,1.46-1.15,2.92-1.82,4.35-.18.37-.46.73-.45,1.2.3-.15.45-.45.64-.67.62-.71,1.24-1.42,1.85-2.14.96-1.12,2-2.15,3.03-3.19,1.21-1.22,2.5-2.35,3.95-3.27.88-.55,1.79-1.03,2.83-1.26,1.08-.23,2.02.14,2.92.64,1.94,1.07,2.98,2.79,3.46,4.9.28,1.24.34,2.5.2,3.76-.17,1.55-.44,3.08-.93,4.58-.66,2.03-1.46,3.99-2.43,5.88-.1.2-.21.4-.31.6-.08.05-.19.09-.17.2,0,.04.13.04.17-.05.27-.08.37-.34.57-.5,1.11-.93,2.1-1.98,3.12-3,.58-.58,1.12-1.2,1.68-1.8.05,0,.07,0,.06-.06.44-.53.89-1.05,1.33-1.58,1.71-2.07,3.3-4.23,4.61-6.57.6-1.06,1.07-2.18,1.43-3.36.18-.61.38-1.21.59-1.81.32-.9,1-1.01,1.68-.86.43.09.79.32,1.17.5.85.41,1.58.99,2.14,1.76.67.93,1.01,1.99.92,3.14-.06.78-.38,1.5-.74,2.19-.51.97-1.02,1.94-1.56,2.9-.61,1.11-1.26,2.2-1.87,3.31-.41.74-.8,1.5-1.21,2.24-.61,1.09-1.21,2.18-1.82,3.26-.52.92-1.03,1.85-1.48,2.82-.31.67-.62,1.34-.85,2.04-.13.39-.16.79-.06,1.18.12.51.43.66.92.49.11-.04.22-.05.33-.07.05,0,.07-.02.07-.06,1.27-.63,2.33-1.55,3.41-2.43.04,0,.07,0,.07-.06,1.07-1,2.1-2.04,3.13-3.09.25-.26.49-.52.74-.78.05,0,.07,0,.06-.06.93-1.1,1.87-2.18,2.73-3.33,1.04-1.38,2.02-2.79,2.97-4.22,1.25-1.9,2.38-3.86,3.43-5.87.82-1.56,1.47-3.18,1.93-4.88.08-.31.25-.6.46-.86.46-.59,1.09-.63,1.71-.45,1.17.33,2.2.93,3.02,1.85.87.98,1.14,2.15.85,3.41-.29,1.23-.81,2.38-1.36,3.51-.36.74-.69,1.5-1.06,2.3.28-.07.41-.29.56-.44.92-.91,1.78-1.88,2.75-2.73,1.18-1.03,2.37-2.05,3.63-2.99,1.38-1.04,2.8-1.99,4.3-2.85,1.01-.58,2.06-1.09,3.19-1.45.37-.12.74-.2,1.11-.33.04.05.06,0,.08-.02ZM170.14,48.6s.05-.06.02-.07c-.05-.02-.08.02-.1.07,0,.03,0,.09,0,.09.06.01.06-.04.08-.08ZM71.98,41.59c-.08.1-.16.19-.23.29-.05.08-.06.18.09.13.05,0,.1,0,.08-.08.04-.1.07-.19.11-.29.05-.03.08-.08.04-.12-.05-.04-.07.04-.1.06ZM62.41,29.91c.07-.07.14-.14.21-.21.73-.8,1.41-1.65,2.2-2.4.11-.11.31-.06.35-.24.11-.54.64-.77.9-1.21.16-.25.34-.57.71-.64.08-.01.08-.08.09-.15.01-.2.14-.34.24-.5.25-.4.61-.71.89-1.09,1.08-1.44,2.2-2.86,3.21-4.36.41-.61.82-1.21,1.21-1.82.91-1.43,1.83-2.86,2.64-4.35.33-.61.82-1.15.9-1.89,0-.06.04-.14.08-.16.24-.12.21-.32.21-.53,0-.65.07-1.31-.23-1.92-.05-.1-.07-.26-.18-.27-.47-.05-.99-.18-1.4.08-.82.52-1.46,1.26-1.99,2.05-.45.66-.87,1.36-1.26,2.07-.69,1.25-1.41,2.49-2.07,3.75-.75,1.43-1.47,2.88-2.19,4.32-.9,1.79-1.83,3.57-2.66,5.4-.36.79-.84,1.51-1.14,2.34-.2.56-.51,1.07-.78,1.61-.09.07-.19.15-.08.26.05.04.11-.06.14-.12ZM159.73,44.94c0,1.17.12,1.61.48,2.33.54,1.09,1.22,1.36,2.34,1.11.94-.2,1.77-.66,2.56-1.18,2.23-1.45,4.08-3.31,5.81-5.31,3.08-3.58,5.59-7.54,7.84-11.68.11-.2.07-.36,0-.54-.44-1.23-1.35-1.99-2.54-2.41-1.87-.67-3.68-.36-5.37.52-1.75.91-3.26,2.15-4.57,3.64-1.34,1.53-2.54,3.15-3.62,4.87-1.03,1.64-1.89,3.36-2.44,5.23-.33,1.12-.52,2.25-.5,3.41ZM49.1,47.04s-.02-.04-.04-.06c-.02.02-.04.03-.05.05-.02.05,0,.06.05.06.01,0,.02-.03.04-.05ZM31.09,44.84s-.02-.02-.02-.02c0,0-.02.01-.02.02.01,0,.02.02.03.02,0,0,0-.01.01-.02Z"/>
      <path class="cls-1" d="M81.18,107.1c.47.35.94.71,1.5,1.13-.86-.07-1.58-.24-2.31-.38-.95-.18-1.89-.36-2.83-.58-.5-.11-.98-.26-1.4-.6-2.26-1.81-4.55-3.59-6.83-5.38-.09-.07-.17-.15-.25-.22,0-.04-.01-.05-.05-.03-2.39-1.87-4.77-3.74-7.16-5.6-.1-.08-.18-.18-.31-.2-.12,0-.17.05-.14.17-.27.81-.53,1.62-.82,2.42-.12.33-.1.57.21.75,0,.04,0,.06.06.05.94.73,1.89,1.45,2.83,2.18.5.39,1,.78,1.5,1.18,0,.04,0,.06.06.05,1.36,1.04,2.71,2.08,4.09,3.13-.24.16-.37-.02-.52-.07-1.3-.42-2.61-.81-3.89-1.28-1.07-.4-2.15-.74-3.2-1.19-.32-.14-.66-.29-1.02-.34-.04-.05-.03-.16-.15-.13-.73-.19-1.41-.5-2.11-.78-1.24-.5-2.48-1.01-3.72-1.52-.03-.07-.05-.15-.15-.15h0s-.02-.03-.03-.05c-.01.02-.02.03-.03.05-.77-.27-1.5-.63-2.25-.96-1.93-.85-3.83-1.75-5.73-2.66-.52-.25-1.05-.5-1.63-.78,1.04-.45,2.01-.86,2.96-1.3.25-.11.4.13.6.07.01.08.06.11.14.1.42.04.8.27,1.22.28.02.08.06.12.14.08.43.02.81.24,1.22.3.02.08.06.12.14.08.14-.04.25.14.39.07.01.08.06.11.14.1.42.03.79.29,1.22.28.02.08.06.12.14.08.49.19.83-.04,1.2-.34,2.12-1.74,4.25-3.46,6.38-5.2.16-.13.31-.12.49-.08.31.06.62.15.95.11.01.09.07.1.14.09.67-.02,1.32.21,1.99.18.05.07.1.15.21.12.52-.05,1,.19,1.52.14.01.09.07.09.14.09.53.09.96-.11,1.39-.39,3.97-2.51,7.92-5.03,11.93-7.48.86-.52,1.38-1.16,1.75-2.07,1.03-2.58,2.14-5.13,3.22-7.7.09-.21.21-.36.39-.48,1.75-1.18,3.5-2.36,5.26-3.54.19-.13.34-.28.44-.5.71-1.48,1.45-2.96,2.15-4.45.18-.37.41-.68.71-.96,1.04-.95,2.07-1.9,3.1-2.86.17-.15.31-.2.54-.14,2.11.59,4.22,1.17,6.33,1.74.19.05.33.15.46.29.66.69,1.35,1.36,2.02,2.04,1.48,1.5,2.95,3,4.42,4.5.17.17.31.36.42.57,1.77,3.28,3.53,6.56,5.3,9.85.14.26.32.47.57.63,1.25.85,2.49,1.71,3.74,2.56.32.22.52.53.78.81.82.85,1.66,1.68,2.45,2.55.69.76,1.47,1.43,2.11,2.24.24.3.48.38.87.24,1.27-.45,2.56-.84,3.84-1.27.23-.08.4-.03.59.11,2.05,1.51,4.12,2.99,6.14,4.54.74.57,1.59.84,2.44,1.11,1.23.4,2.44.84,3.67,1.19,1.07.31,2.1.75,3.18,1.03.74.19,1.44.47,2.24.71-.61.3-1.16.56-1.7.82-.78.37-1.57.7-2.32,1.11-.38.2-.72.2-1.1.07-2.32-.83-4.65-1.65-6.98-2.47-.15-.05-.27-.13-.39-.22-1.52-1.08-3.04-2.15-4.56-3.24-.26-.19-.37-.22-.54.12-.72,1.48-1.47,2.95-2.2,4.43-.14.28-.26.32-.47.1-.46-.48-.92-.96-1.38-1.44-.77-.8-1.56-1.6-2.33-2.4-1.23-1.28-2.45-2.56-3.67-3.83-.76-.79-1.55-1.54-2.27-2.35-1.09-1.22-2.51-2-3.8-2.96-.62-.47-1.24-.96-1.92-1.34-.62-.35-.8-.94-1.06-1.5-1.02-2.24-2.03-4.5-3.04-6.74-.4-.89-.8-1.79-1.2-2.69-.09-.21-.2-.4-.38-.56-.84-.73-1.51-1.61-2.31-2.38-.91-.88-1.74-1.84-2.6-2.77-.35-.37-.73-.65-1.24-.78-.93-.24-1.83-.54-2.75-.81-.14-.04-.28-.12-.43-.06-.01.19.12.31.2.44,1.34,2.09,2.67,4.18,4.03,6.26.16.25.18.45.07.73-.6,1.47-1.17,2.95-1.75,4.42-.09.22-.11.42-.05.66.46,1.91.9,3.82,1.35,5.72.04.19.05.33-.13.46-.81.58-1.6,1.18-2.4,1.78-.07,0-.1.05-.13.1.04.02.08.04.12.05.92.74,1.84,1.49,2.78,2.21.26.2.39.42.39.76.01.96.06,1.91.09,2.87,0,.12.04.25-.04.37-.18-.05-.3-.18-.43-.29-1.61-1.22-3.21-2.43-4.8-3.67-.3-.23-.49-.22-.77.01-.54.44-1.11.86-1.68,1.27-.18.13-.23.22-.02.38,3.67,2.87,7.32,5.76,11.01,8.61.59.46,1,.99,1.33,1.64.82,1.6,1.66,3.2,2.5,4.8.09.17.17.33.28.54-.19-.01-.28-.13-.37-.2-5.57-4.42-11.13-8.83-16.7-13.25-.72-.57-.46-.48-1.12.07-.45.38-.87.78-1.33,1.15-.22.17-.26.25,0,.45,1.15.89,2.27,1.8,3.4,2.7,0,.05.02.06.06.06,2.17,1.7,4.34,3.39,6.51,5.09,3.52,2.77,7.03,5.54,10.54,8.31.08.06.15.13.26.23-.47.16-.94.19-1.38.28-.7.13-1.41.23-2.12.37-.26.05-.45-.01-.66-.17-6.04-4.71-12.09-9.41-18.14-14.11-.33-.26-.68-.5-1.01-.75-.05-.05-.09-.06-.12.02-.6.58-1.2,1.16-1.82,1.73-.21.19-.18.29.03.45.88.68,1.76,1.37,2.63,2.06,0,.04,0,.06.06.05,1.02.73,1.99,1.52,2.97,2.29,0,.04,0,.06.06.05,1.02.73,1.99,1.52,2.97,2.29,0,.04.01.07.06.05,1.04.8,2.08,1.59,3.12,2.39,1.64,1.26,3.27,2.53,4.9,3.8.11.08.21.17.36.29-.3.05-.54.12-.78.12-1.11-.02-2.2.17-3.3.16-.23,0-.4-.05-.59-.19-5.39-4.27-10.79-8.53-16.19-12.8-.21-.17-.43-.28-.7-.34-.48-.11-.94-.29-1.41-.43-.03-.07-.08-.09-.15-.05-.38-.18-.82-.15-1.21-.33-.38-.18-.81-.24-1.22-.36-.58-.17-1.18-.23-1.75-.48-.44-.2-.94-.23-1.45-.3,6.49,5.07,12.98,10.14,19.47,15.2,0,.02-.02.05-.02.07-.49-.03-.99-.02-1.48-.09-.82-.12-1.66-.11-2.48-.2-.31-.04-.62-.06-.94-.08-.08,0-.14-.03-.2-.08-3.53-2.77-7.05-5.54-10.58-8.31-.03-.02-.05-.06-.07-.09,0-.04-.01-.05-.05-.03-2.97-2.32-5.93-4.63-8.89-6.95-.25-.2-.42-.2-.69-.03-.67.42-1.37.8-2.06,1.2q-.4.23-.05.5c2.29,1.79,4.59,3.59,6.88,5.38.1.08.19.16.29.24,0,.04,0,.06.06.05,1.17.86,2.3,1.76,3.43,2.67,0,.04,0,.06.05.05.23.13.43.3.62.48,0,.05.02.06.06.06,1.17.85,2.3,1.75,3.42,2.66,0,.04,0,.06.05.05ZM97.97,63.48s.04.06.05.09c.01-.02.02-.03.04-.05-.03-.01-.07-.02-.1-.03,0,0-.01-.01-.02-.02,0,0,.02,0,.03.01Z"/>
      <path class="cls-1" d="M119.46,9.97c.04-1.74.28-3.08.84-4.33.24-.55.6-1.04,1.08-1.43.54-.45,1.18-.37,1.77-.28,2.02.31,3.74,1.23,5.14,2.73,1.07,1.14,1.23,2.35.5,3.75-.9,1.72-2.38,2.8-4.12,3.55-.77.33-1.57.55-2.41.52-1-.03-1.78-.41-2.21-1.37-.5-1.12-.58-2.31-.59-3.14Z"/>
      <path class="cls-1" d="M29.98,54.02c.15.05.44.02.2.32-.12-.07-.18-.18-.2-.32Z"/>
      <path class="cls-1" d="M34.51,31.95c-.04.11-.12.17-.22.22.02-.12.09-.2.22-.22Z"/>
      <path class="cls-1" d="M9.87,46.15c-.06-.06-.16-.1-.14-.21.08.05.13.12.14.21Z"/>
      <path class="cls-1" d="M101.52,38.08c-.04.09-.17.09-.17.05-.01-.1.1-.15.17-.2,0,.05,0,.1,0,.15Z"/>
      <path class="cls-1" d="M120.07,42.54l.16-.2s.06.06.1.09c-.04.06-.08.13-.12.19-.04-.03-.09-.05-.13-.08Z"/>
      <path class="cls-1" d="M58.04,44.8c-.06-.01-.13,0-.14-.08,0-.02.05-.04.07-.06l.07.14Z"/>
      <path class="cls-1" d="M118.62,49.19c.07.06.15.11.14.23-.08-.05-.13-.13-.14-.23Z"/>
      <path class="cls-1" d="M49.64,51.02c.07.06.16.1.14.21-.08-.05-.13-.12-.14-.21Z"/>
      <path class="cls-1" d="M74.21,53.2c-.04-.1.03-.16.1-.21-.03.07-.06.14-.1.21Z"/>
      <path class="cls-1" d="M58.18,39.89c.02-.1.05-.19.15-.23-.01.1-.06.19-.15.23Z"/>
      <path class="cls-1" d="M53.2,95.45c-.08.03-.12,0-.14-.08.07,0,.11.03.14.08Z"/>
      <path class="cls-1" d="M51.84,95.08c-.08.01-.13-.01-.14-.1.07,0,.11.04.14.1Z"/>
      <path class="cls-1" d="M64.54,90.32c-.11.02-.15-.05-.21-.12.08.01.15.06.21.12Z"/>
      <path class="cls-1" d="M62.35,90.02c-.07,0-.13,0-.14-.09.07,0,.11.03.14.09Z"/>
      <path class="cls-1" d="M79.97,95.81c.07-.03.12-.01.15.05-.07.03-.11,0-.15-.05Z"/>
      <path class="cls-1" d="M82.19,5.85c-.1-.03-.12-.07-.02-.14,0,.05.01.09.02.14Z"/>
      <path class="cls-1" d="M30.95,45.41c.01.07-.02.12-.08.15-.02-.07.02-.12.08-.15Z"/>
      <path class="cls-1" d="M48.58,94.18c-.08.01-.13-.01-.14-.1.07,0,.11.04.14.1Z"/>
      <path class="cls-1" d="M9.57,41.78c-.01-.07,0-.13.08-.15.02.07-.02.12-.08.15Z"/>
      <path class="cls-1" d="M54.56,99.71c.1,0,.12.08.15.15-.05-.05-.1-.1-.15-.15Z"/>
      <path class="cls-1" d="M58.22,40.1c-.07-.01-.08-.07-.09-.13.06.02.09.06.09.13Z"/>
      <path class="cls-1" d="M9.58,42.31c-.11-.07-.06-.1.03-.13-.01.04-.02.08-.03.13Z"/>
      <path class="cls-1" d="M61.39,95.4c-.02-.12.03-.17.14-.17-.05.06-.1.11-.14.17Z"/>
      <path class="cls-1" d="M57.73,42.54c-.14-.11,0-.15.06-.22-.02.07-.04.15-.06.22Z"/>
      <path class="cls-1" d="M9.88,40.04c0-.08.03-.12.11-.13,0,.07-.05.11-.11.13Z"/>
      <path class="cls-1" d="M49.95,94.54c-.08.03-.12,0-.14-.08.07,0,.11.03.14.08Z"/>
      <path class="cls-1" d="M60.53,102.16c.12-.04.11.07.15.13-.05-.04-.1-.08-.15-.13Z"/>
      <path class="cls-1" d="M51.31,94.92c-.08.03-.12,0-.14-.08.07,0,.11.03.14.08Z"/>
      <path class="cls-1" d="M49.12,49.41c.03.05.18.06.05.16-.02-.05-.04-.11-.05-.16Z"/>
      <path class="cls-1" d="M9.62,44.87c-.05-.06-.2-.1-.05-.21.02.07.04.14.05.21Z"/>
      <path class="cls-1" d="M66.21,90.55c-.07,0-.13,0-.14-.09.07-.01.11.02.14.09Z"/>
      <path class="cls-1" d="M99.32,84.15s-.08-.04-.12-.05c.03-.05.06-.1.13-.1,0,.05,0,.1,0,.15Z"/>
      <path class="cls-1" d="M38.75,47.2s-.06-.01-.08-.05c.03.02.05.03.08.05Z"/>
      <path class="cls-1" d="M81.18,107.1s-.06,0-.05-.05c.02.01.04.03.05.05Z"/>
      <path class="cls-1" d="M38.07,46.07l-.05-.02s.03-.02.05-.02c0,.02,0,.03,0,.05Z"/>
      <path class="cls-1" d="M118.53,47s-.02.07-.06.08l.06-.08Z"/>
      <path class="cls-1" d="M58.79,45.62c-.05.02-.07-.01-.08-.05l.08.05Z"/>
      <path class="cls-1" d="M94.47,48.3s.04-.08.09-.06c-.03.02-.06.04-.09.06Z"/>
      <path class="cls-1" d="M114.6,48.28s.06-.04.08-.06c-.03.02-.06.04-.08.06Z"/>
      <path class="cls-1" d="M17.76,48.89s.01,0,.01,0c0,0-.01,0-.01,0Z"/>
      <path class="cls-1" d="M112.56,44.2s-.02.07-.07.06c.02-.02.05-.04.07-.06Z"/>
      <path class="cls-1" d="M64.39,49.65c0-.05.02-.07.07-.06-.02.02-.05.04-.07.06Z"/>
      <path class="cls-1" d="M119.01,43.75s.01-.07.06-.06c-.02.02-.04.04-.06.06Z"/>
      <path class="cls-1" d="M24.31,51.46c0-.05.02-.07.07-.06-.02.02-.05.04-.07.06Z"/>
      <path class="cls-1" d="M87.16,51.61c.02-.09.05-.06.08,0-.03,0-.05,0-.08,0Z"/>
      <path class="cls-1" d="M23.7,51.99c0-.05.02-.07.07-.06l-.07.06Z"/>
      <path class="cls-1" d="M43.75,52.6c0-.05.03-.07.07-.06-.02.02-.05.04-.07.06Z"/>
      <path class="cls-1" d="M57.89,53.88s.03-.07.07-.06c-.02.02-.05.04-.07.06Z"/>
      <path class="cls-1" d="M46.83,42.39c.01.05-.01.07-.06.06.02-.02.04-.04.06-.06Z"/>
      <path class="cls-1" d="M30.59,54.87c.05,0,.07.02.06.06-.02-.02-.04-.04-.06-.06Z"/>
      <path class="cls-1" d="M116.04,41.71c0,.05-.03.06-.07.06.02-.02.05-.04.07-.06Z"/>
      <path class="cls-1" d="M47.59,41.56c0,.05-.01.07-.06.06.02-.02.04-.04.06-.06Z"/>
      <path class="cls-1" d="M104.22,41.33s0,.08-.05.09c.02-.03.03-.06.05-.09Z"/>
      <path class="cls-1" d="M27.39,41.03s-.01.07-.06.06c.02-.02.04-.04.06-.06Z"/>
      <path class="cls-1" d="M57.97,40.99s0,.01,0,.01c0,0,0-.01,0-.01Z"/>
      <path class="cls-1" d="M48.12,40.95s-.02.07-.06.07c.02-.02.04-.04.06-.07Z"/>
      <path class="cls-1" d="M27.93,40.42s-.02.07-.06.07c.02-.02.04-.04.06-.07Z"/>
      <path class="cls-1" d="M87.76,93.89c.03-.07.08-.07.12-.02-.04,0-.08.01-.12.02Z"/>
      <path class="cls-1" d="M92.44,40.27s-.02.07-.06.06c.02-.02.04-.04.06-.06Z"/>
      <path class="cls-1" d="M119.96,37.78c.01.05-.01.07-.06.06.02-.02.04-.04.06-.06Z"/>
      <path class="cls-1" d="M93.89,94.63s-.07-.01-.06-.06c.02.02.04.04.06.06Z"/>
      <path class="cls-1" d="M70.81,37.47s-.02.07-.06.06c.02-.02.04-.04.06-.06Z"/>
      <path class="cls-1" d="M10.77,37s-.03-.01-.05-.02c.02,0,.03-.01.05-.02,0,.01,0,.03,0,.04Z"/>
      <path class="cls-1" d="M106.96,32.71c0,.05-.01.07-.06.06.02-.02.04-.04.06-.06Z"/>
      <path class="cls-1" d="M34.2,32.26s0,.07-.06.07c.02-.02.04-.04.06-.07Z"/>
      <path class="cls-1" d="M88.66,98.17s-.06,0-.06-.05c.02.01.04.03.06.05Z"/>
      <path class="cls-1" d="M60.83,98.63s-.06,0-.06-.05c.02.01.04.03.06.05Z"/>
      <path class="cls-1" d="M54.49,99.71s.02-.03.03-.05c.01.02.02.03.03.05-.02,0-.04,0-.07,0Z"/>
      <path class="cls-1" d="M91.69,100.52s-.06,0-.06-.05c.02.01.04.03.06.05Z"/>
      <path class="cls-1" d="M78,100.74s.05-.01.05.03c-.02,0-.03-.02-.05-.03Z"/>
      <path class="cls-1" d="M69,101.04s.05-.01.05.03c-.02,0-.03-.02-.05-.03Z"/>
      <path class="cls-1" d="M73.54,101.12s-.06,0-.06-.05c.02.01.04.03.06.05Z"/>
      <path class="cls-1" d="M65.22,102.03s-.06,0-.06-.05c.02.01.04.03.06.05Z"/>
      <path class="cls-1" d="M82.17,6.75s-.02-.02-.03-.03c.01,0,.02,0,.03,0v.04Z"/>
      <path class="cls-1" d="M94.71,102.86s-.06,0-.06-.05c.02.02.04.03.06.05Z"/>
      <path class="cls-1" d="M77.02,103.84s-.06,0-.05-.05c.02.01.04.03.05.05Z"/>
      <path class="cls-1" d="M77.7,104.39s-.07-.01-.06-.06c.02.02.04.04.06.06Z"/>
      <path class="cls-1" d="M9.87,46.39s-.03-.02-.05-.03c.02,0,.03-.01.05-.02,0,.02,0,.03,0,.05Z"/>
      <path class="cls-1" d="M62.35,29.77s.04.09.06.13c-.03.06-.1.17-.14.12-.1-.1,0-.19.08-.26Z"/>
      <path class="cls-1" d="M71.85,42.02c-.16.04-.14-.05-.09-.13.06-.1.15-.19.23-.29.02.02.04.03.06.05-.04.1-.07.19-.11.29-.03.03-.06.05-.08.08Z"/>
      <path class="cls-1" d="M120.23,42.34s.07-.08.11-.11l.06.05c-.02.05-.05.1-.07.15-.03-.03-.06-.06-.1-.09Z"/>
      <path class="cls-1" d="M71.98,41.59s.05-.11.1-.06c.04.03,0,.09-.04.12-.02-.02-.04-.03-.06-.05Z"/>
      <path class="cls-1" d="M49.1,47.04s-.02.05-.04.05c-.04,0-.07-.01-.05-.06,0-.02.03-.04.05-.05.01.02.02.04.04.06Z"/>
      <path class="cls-1" d="M31.09,44.84s0,.02-.01.02c-.01,0-.02-.02-.03-.02,0,0,.01-.02.02-.02,0,0,.02.01.02.02Z"/>
      <path class="cls-1" d="M120.34,42.22s.04-.03.07-.04c0,.03,0,.06,0,.1-.02-.02-.04-.04-.06-.05Z"/>
      <path class="cls-1" d="M71.85,42.02s.06-.05.08-.08c.02.07-.03.08-.08.08Z"/>
      <path class="cls-1" d="M97.97,63.48s-.02,0-.03-.01c0,0,.01.01.02.02h0Z"/>
      <path class="cls-1" d="M97.96,63.49s.07.02.1.03c-.01.02-.02.03-.04.05-.02-.03-.04-.06-.05-.09,0,0,0,0,0,0Z"/>
    </g>
  </g>
</svg>