<?xml version="1.0" encoding="UTF-8"?>
<svg id="Capa_2" data-name="Capa 2" xmlns="http://www.w3.org/2000/svg" viewBox="0 0 222.1 76.24">
  <defs>
    <style>
      .cls-1 {
        fill: #ed1b2e;
        stroke-width: 0px;
      }
    </style>
  </defs>
  <g id="Capa_1-2" data-name="Capa 1">
    <g>
      <path class="cls-1" d="M110.94.01C142.91.01,174.89.02,206.86,0c2.69,0,5.29.38,7.65,1.62,4.91,2.58,7.45,6.83,7.49,12.29.12,16.05.11,32.1.06,48.15-.02,7.64-5.41,13.12-12.41,14.1-1.21.17-2.36.01-3.54.02-63.46.01-126.92,0-190.38.05-2.95,0-5.76-.2-8.33-1.74C2.86,71.77.12,67.88.1,62.49.03,45.78-.12,29.06.17,12.34.26,7.25,3.56,3.55,8.19,1.28,10.43.18,12.83,0,15.28,0c31.89,0,63.77,0,95.66,0ZM70.54,26.11c-.05-.84,0-1.7-.16-2.51-.63-3.23-2.61-5.46-5.45-6.95-2.59-1.36-5.3-1.55-8.11-.6-2.54.86-5.01.79-7.45-.57-.65-.36-1.43-.69-2.28-.81-.89-.12-1.77.12-2.55-.02-1.79-.31-3.18.34-4.64,1.16-1.71.97-2.86,2.4-3.7,4.1-.25.51-.57.75-1.13.69-.26-.03-.53.04-.61-.34-.11-.55.1-.93.48-1.3.68-.64,1.34-1.3,1.99-1.97.83-.86.65-1.98.35-2.88-.29-.89-1.2-1.3-2.25-1.24-1.57.09-2.72,1.22-2.68,2.9.05,2.09-.09,4.11-1.22,5.96-1.02,1.66-2.71,2.53-4.14,3.71-3.14,2.59-5.44,5.74-6.31,9.78-.18.85-.41,1.54-1.37,1.36-.98-.19-.9-.99-.77-1.8.24-1.5.89-2.92.73-4.5-.14-1.43-1.11-2.48-2.69-2.73-1.21-.19-3.21.87-3.36,2.01-.19,1.38-.21,2.79.12,4.19.49,2.04,2.14,3.17,3.48,4.53,2.12,2.14,2.27,4.94-.48,6.95-1.52,1.11-2.42,2.77-2.63,4.62-.44,3.83.87,6.84,4.49,8.64,1.86.93,3.75.94,5.64.34,1.82-.58,3.15-1.92,4.42-3.3,1.58-1.72,3.7-1.78,5.39-.17.64.62,1.21,1.31,1.88,1.88,1.43,1.22,2.93,1.97,4.99,1.57,3.22-.63,5.91-5,4.54-7.97-1.23-2.65-2.48-4.15-6.32-4.08-1.25.03-2.48.03-3.57-.63-.69-.42-1.43-.67-2.2-.72-1.41-.08-2.03-1.01-2.18-2.16-.2-1.48-.28-3.45,1.14-4.06,2.14-.92,3.32-2.55,4.36-4.31,1.2-2.04,1.61-4.36-.75-6.26-.83-.67-1.33-1.62-1.88-2.53-.28-.47-.27-.82-.04-1.33,1.05-2.32,3.52-2.2,5.27-.37.26.27.42.57.81.47.45-.11.58-.52.65-.9.05-.3,0-.62,0-.93,0-.8.66-.98,1.04-.63.75.69,1.08.19,1.6-.23,2.34-1.89,4.21-2.09,6.33-.87.59.34,1.19,1.67,2.11.16.23-.38,1.19-.04,1.44.69.08.24.05.52.04.79-.02.48.13.9.58,1.08.44.18.75-.12,1.04-.41.22-.22.48-.4.68-.64.79-.9,1.85-.64,2.7-.36.79.26.97,1.14.89,2.02-.06.69-.4,1.24-.68,1.83-1.03,2.17-1.33,4.42-.65,6.74.29.99.91,1.85,1.85,2.28,2.23,1.04,4.43.75,6.51-.45,3.42-1.98,4.99-4.97,4.73-8.93ZM90.25,58.85c.49,0,.98,0,1.47,0,1.73-.02,1.94-.27,1.72-1.97-.33-2.55-.89-5.07-1.47-7.56-.7-3-1.27-6.03-1.99-9.02-.98-4.08-1.8-8.2-2.69-12.3-.32-1.46-3.36-3.95-4.83-3.9-.54.02-1.02.26-1.32.74-.27.44-.53.9-.75,1.37-1.01,2.22-1.93,4.48-3.03,6.65-.98,1.94-1.83,3.94-2.81,5.88-1.76,3.49-3.27,7.11-4.92,10.67-1.17,2.52-2.47,4.98-3.46,7.57-.45,1.19-.18,1.74,1.04,1.82,1.46.09,2.93.03,4.4.01.61,0,.98-.32,1.29-.92.67-1.31,1.21-2.66,1.67-4.06.22-.68.63-.95,1.38-.94,2.53.05,5.07.02,7.6.02q2.03,0,2.48,1.98c.06.25.13.5.2.75.94,3.36.17,3.22,4.01,3.21ZM212.47,47.47s.03,0,.04,0c0-2.53.1-5.07-.03-7.6-.16-3.24-1.27-6.05-4.63-7.24-5.01-1.77-9.82-.84-14.46,1.38-.7.33-.92.99-.44,1.78.37.6.6,1.28.87,1.93.55,1.35,1.17,1.61,2.56,1.03,2.3-.96,4.62-1.78,7.18-1.62,1.24.08,2.51.86,2.96,1.99.46,1.16-.04,2.25-1.19,2.49-2.29.47-4.63.69-6.89,1.38-1.52.46-2.95,1.03-4.13,2.05-3.11,2.71-3.52,6.11-2.42,9.9,1.03,3.55,5.32,5.14,7.88,4.79,2.2-.3,4.47-.87,6.07-2.75.42-.5.91-.86,1.06.31.07.58.05,1.52,1.08,1.52,1.29,0,2.58.01,3.86-.02.62-.01.92-.29.9-1.01-.02-.88-.21-1.74-.25-2.6-.1-2.57-.04-5.15-.04-7.72ZM124.12,54.09s.02,0,.02,0c0-4.4.01-8.8,0-13.19,0-2.03-.16-2.16-2.14-2.43-.39-.05-.81-.06-1.14-.24-1.25-.68-1.81-.03-2.03,1.07-.17.83-.71.66-1.05.39-1.09-.84-2.42-.95-3.67-1.29-2.79-.77-6.25.57-7.81,3-2.27,3.51-2.34,7.35-1.49,11.25.44,2.02,1.42,3.89,3.04,5.26,2.96,2.49,6.25,2.29,9.48.7,1.17-.58,1.2-.29,1.19.72-.02,2.66.02,5.33,0,8,0,.94.33,1.37,1.32,1.31,1.02-.06,2.04-.04,3.06,0,.87.03,1.25-.24,1.24-1.21-.05-4.44-.02-8.88-.02-13.33ZM157.55,40.9c-.52,0-.79,0-1.06,0-3.52-.01-6.04,1.49-7.64,4.7-1.02,2.04-1.09,4.15-.95,6.29.21,3.1,1.79,5.62,4.62,6.85,2.44,1.06,5.03,1.39,7.65.79,1.87-.42,3.74-.89,5.33-2.1.56-.43.6-.89.46-1.37-.58-1.97-2.93-2.63-4.74-1.58-1.75,1.01-3.68,1.37-5.69.62-.83-.31-1.24-1.04-1.84-1.59-.27-.25-.68-.44-.56-.91.15-.57.65-.49,1.08-.51,3.52-.18,7.04-.37,10.56-.55,1.71-.09,2.18-.6,2.04-2.29-.05-.56-.18-1.12-.28-1.68-.46-2.68-1.42-4.97-4.22-6.08-1.65-.66-3.33-.57-4.77-.61ZM139.82,57.67c.34.7.72,1.3,1.44,1.32,1.14.03,2.28.16,3.41-.22.49-.16.6-.3.62-.84.21-4.8.03-9.59.08-14.39.02-2.21-.03-2.23-2.3-2.23-.49,0-.98.04-1.47,0-1.24-.12-1.72.39-1.72,1.67,0,2.69.13,5.38-.23,8.07-.26,1.99-1.99,3.61-3.89,3.72-1.44.08-3.32-1.95-3.33-3.55-.01-2.29.05-4.58.06-6.87q.01-3.33-2.98-4.51c-1.64-.65-2.4-.14-2.41,1.63-.02,3.64-.17,7.29.03,10.92.13,2.37,1.07,4.65,3.11,6.05,2.91,2.01,6.31,1.79,9.58-.75ZM95.76,44.93c0,3.29-.02,6.58,0,9.87.03,4.74-.43,3.99,4.05,4.04,1.83.02,1.87-.03,1.88-1.82.02-7.69.02-15.38.02-23.08,0-.76-.11-1.67-.81-1.96-1.18-.49-2.16-1.38-3.51-1.55-1.04-.13-1.91.44-1.73,1.47.05.29.11.58.11.88,0,4.05,0,8.09,0,12.14ZM174.77,40.66c-.44-.52.18-1.64-.85-1.55-.44.04-.8,0-1.21-.05-2.48-.29-3.63.75-3.63,3.23,0,4.26,0,8.53,0,12.79q0,3.82,3.85,3.76c1.62-.02,1.84-.23,1.85-1.85.02-2.89.07-5.78,0-8.66-.04-1.66.79-2.8,2.05-3.61.85-.55,1.91-.84,2.96-.89.73-.03,1.12-.36,1.24-1.08.27-1.55.13-3.1.09-4.65,0-.19,0-.56-.35-.57-1.36-.03-2.65.19-3.89.87-.97.53-1.18,1.71-2.11,2.25ZM189.22,47.83c0-1.02.03-2.04,0-3.06-.09-2.73.21-5.47-.2-8.2-.13-.83-.58-1.06-1.25-.93-.97.19-1.92.5-2.88.74-1.18.28-1.61,1.01-1.58,2.22.06,2.44.02,4.88.02,7.32,0,3.77.02,7.54-.01,11.31-.01,1.19.46,1.71,1.66,1.64.88-.05,1.78-.03,2.66,0,1.11.04,1.67-.26,1.63-1.57-.1-3.15-.03-6.3-.03-9.45ZM183.41,30.49c0,.53-.07,1.08.02,1.6.11.68.5,1.1,1.15.51,1.61-1.47,3.63-2.03,5.64-2.64,2.26-.68,3.14-2.27,2.59-4.32-.57-2.16-2.61-2.64-4.73-2.19-2.51.53-4.87,4-4.68,7.05ZM53.68,11.07c.02-1.48-1.05-2.67-2.45-2.73-1.21-.05-2.6,1.35-2.61,2.64-.01,1.23,1.29,2.68,2.41,2.69,1.55.01,2.63-1.04,2.65-2.6ZM25.78,18.22c-1.66,0-2.13.55-2.26,2.13-.12,1.49,1.05,2.32,2.18,2.37,1.18.05,2.66-1.37,2.63-2.4-.04-1.1-1.25-2.11-2.55-2.11ZM32.59,58.81c.02-1.27-.55-1.9-1.75-1.95-1.12-.04-1.91.68-1.98,1.8-.06.97.94,1.93,2.03,1.97,1.1.03,1.67-.58,1.69-1.82ZM14.55,43.04c.86-.01,1.46-.37,1.49-1.28.03-.86-.91-1.74-1.78-1.65-.96.09-1.14.85-1.14,1.63,0,.91.54,1.33,1.43,1.3ZM63.93,14.18c.98.19,1.28-.35,1.26-1.2-.02-.78-.24-1.4-1.17-1.44-1.04-.05-1.45.73-1.47,1.49-.02.7.47,1.32,1.38,1.15ZM45.13,11.8c.21-1.21-.83-1.2-1.43-1.27-.72-.08-.98.61-.96,1.3.01.68.28,1.36,1.01,1.25.62-.09,1.64-.14,1.39-1.28ZM22.75,27.53c.62.13,1.07-.32.97-.83-.11-.52-.12-1.36-1.14-1.32-.84.04-1.11.57-1.14,1.17-.04.77.53,1.04,1.31.97Z"/>
      <path class="cls-1" d="M82.67,36.19c.65,3.3,1.31,6.6,1.95,9.9.14.71,0,1.2-.91,1.17-1.73-.04-3.46-.02-5.18,0-.7,0-.99-.16-.64-.93,1.53-3.39,3.02-6.79,4.52-10.19.09.02.18.04.26.06Z"/>
      <path class="cls-1" d="M205.23,46.75c1.93.01,1.89,0,1.4,2.01-.72,2.97-2.62,4.75-5.51,5.55-1.36.38-2.9-.22-3.6-1.39-.59-.98-.24-2.64.58-3.66,1.1-1.36,4.58-2.59,7.13-2.51Z"/>
      <path class="cls-1" d="M114.11,54.51c-2.12.09-3.48-1.6-4.02-3.39-.7-2.31-.67-4.61,1.31-6.54,1.66-1.62,5.26-1.24,6.32.89,1.11,2.23,1.14,4.5.07,6.79-.75,1.59-2.03,2.2-3.67,2.25Z"/>
      <path class="cls-1" d="M159.11,48.1c-1.45.43-3.32.17-5.16.29-1.18.08-1.14-.36-.71-1.21,1.02-2.04,3.16-2.57,5.46-2.21.88.14,1.84.35,2.38,1.21.28.44.65.96.37,1.46-.23.43-.79.49-1.3.45-.22-.02-.44,0-1.04,0Z"/>
    </g>
  </g>
</svg>