<?xml version="1.0" encoding="UTF-8"?>
<svg id="Capa_2" data-name="Capa 2" xmlns="http://www.w3.org/2000/svg" viewBox="0 0 491.92 119.99">
  <defs>
    <style>
      .cls-1 {
        fill: #ce132e;
      }

      .cls-1, .cls-2, .cls-3, .cls-4 {
        stroke-width: 0px;
      }

      .cls-2 {
        fill: #005eaa;
      }

      .cls-3 {
        fill: #57aadd;
      }

      .cls-4 {
        fill: #59a7da;
      }
    </style>
  </defs>
  <g id="Capa_1-2" data-name="Capa 1">
    <g>
      <g>
        <path class="cls-1" d="M54.54,2.83c-3.59,0-6.25,4.37-6.09,9.68.16,5.31,2.81,9.37,6.09,9.37s5.94-4.06,6.09-9.37c.31-5.15-2.5-9.68-6.09-9.68"/>
        <path class="cls-1" d="M106.4,54.7c0-3.59-4.37-6.25-9.68-6.09-5.31.16-9.37,2.81-9.37,6.09s4.06,5.94,9.22,6.09c5.31.16,9.84-2.5,9.84-6.09"/>
        <path class="cls-1" d="M54.54,106.4c3.59,0,6.25-4.37,6.09-9.68-.16-5.31-2.81-9.37-6.09-9.37s-5.94,4.06-6.09,9.37c-.16,5.31,2.5,9.68,6.09,9.68"/>
        <path class="cls-1" d="M2.83,54.7c0,3.59,4.37,6.25,9.68,6.09,5.31-.16,9.37-2.81,9.37-6.09s-4.06-5.94-9.22-6.09c-5.47-.31-9.84,2.5-9.84,6.09"/>
        <path class="cls-1" d="M88.59,20.8c-2.34-2.34-6.56-1.87-9.53,1.25-2.97,3.12-3.91,7.65-1.72,10,2.19,2.19,6.72,1.41,9.84-1.56,3.28-2.97,3.75-7.19,1.41-9.68"/>
        <path class="cls-1" d="M88.59,88.59c2.34-2.34,1.87-6.56-1.25-9.53-3.12-2.97-7.65-3.91-10-1.72-2.19,2.19-1.41,6.72,1.56,9.84,2.97,3.12,7.19,3.75,9.68,1.41"/>
        <path class="cls-1" d="M20.8,88.59c2.34,2.34,6.56,1.87,9.53-1.25,2.97-3.12,3.91-7.65,1.72-10-2.19-2.19-6.72-1.41-9.84,1.56-3.12,2.97-3.75,7.19-1.41,9.68"/>
        <path class="cls-1" d="M20.8,20.8c-2.34,2.34-1.87,6.56,1.25,9.53,3.12,2.97,7.65,3.91,10,1.72,2.19-2.19,1.41-6.72-1.56-9.84-2.97-3.28-7.19-3.75-9.68-1.41"/>
        <path class="cls-1" d="M54.7,32.36c-1.56,0-2.81,1.56-2.81,3.44s1.25,3.28,2.81,3.28,2.81-1.41,2.81-3.28c0-1.72-1.25-3.44-2.81-3.44"/>
        <path class="cls-2" d="M68.29,21.74c-2.34-.94-5.15.94-6.4,3.91-1.09,2.97-.31,6.09,1.87,6.87,2.19.94,4.84-.62,6.25-3.59,1.41-2.81.62-6.09-1.72-7.19"/>
        <path class="cls-2" d="M87.66,41.11c-.94-2.34-4.22-3.12-7.19-1.72-2.97,1.25-4.53,4.06-3.59,6.25.94,2.19,3.91,2.97,6.87,1.87,2.97-1.25,4.84-4.06,3.91-6.4"/>
        <path class="cls-2" d="M87.66,68.29c.94-2.34-.94-5.15-3.91-6.4-2.97-1.09-6.09-.31-7.03,1.87-.94,2.19.62,4.84,3.59,6.25,2.97,1.41,6.25.62,7.34-1.72"/>
        <path class="cls-2" d="M68.29,87.5c2.34-.94,3.12-4.22,1.72-7.19-1.25-2.97-4.06-4.53-6.25-3.59-2.19.94-2.97,3.91-1.87,6.87,1.25,3.12,4.22,5,6.4,3.91"/>
        <path class="cls-2" d="M41.11,87.66c2.34.94,5.15-.94,6.4-3.91,1.09-2.97.31-6.09-1.87-6.87-2.19-.94-4.84.62-6.25,3.59-1.41,2.81-.62,6.09,1.72,7.19"/>
        <path class="cls-2" d="M21.89,68.29c.94,2.34,4.22,3.12,7.19,1.72,2.97-1.25,4.53-4.06,3.59-6.25-.94-2.19-3.91-2.97-6.87-1.87-3.12,1.25-5,4.06-3.91,6.4"/>
        <path class="cls-2" d="M21.74,41.11c-.94,2.34.94,5.15,3.91,6.4,2.97,1.09,6.09.31,7.03-1.87.94-2.19-.62-4.84-3.59-6.25-2.97-1.41-6.25-.62-7.34,1.72"/>
        <path class="cls-2" d="M41.11,21.74c-2.34.94-3.12,4.22-1.72,7.19,1.25,2.97,4.06,4.53,6.25,3.59,2.19-.94,2.97-3.91,1.87-6.87-1.25-2.97-4.06-4.84-6.4-3.91"/>
        <path class="cls-1" d="M77.03,54.7c0-1.56-1.56-2.81-3.44-2.81s-3.28,1.25-3.28,2.81,1.41,2.81,3.28,2.81c1.72,0,3.44-1.25,3.44-2.81"/>
        <path class="cls-1" d="M54.7,77.03c1.56,0,2.81-1.56,2.81-3.44s-1.25-3.28-2.81-3.28-2.81,1.41-2.81,3.28c0,1.72,1.25,3.44,2.81,3.44"/>
        <path class="cls-1" d="M32.36,54.7c0,1.56,1.56,2.81,3.44,2.81s3.28-1.25,3.28-2.81-1.41-2.81-3.28-2.81c-1.72,0-3.44,1.25-3.44,2.81"/>
        <path class="cls-1" d="M38.92,38.92c-1.09,1.09-.94,3.12.47,4.53,1.41,1.25,3.28,1.41,4.37.31,1.09-1.09.94-2.97-.31-4.37-1.41-1.41-3.44-1.56-4.53-.47"/>
        <path class="cls-1" d="M70.47,38.92c-1.09-1.09-3.12-.94-4.53.47-1.25,1.41-1.41,3.28-.31,4.37,1.09,1.09,2.97.94,4.37-.31,1.41-1.41,1.56-3.44.47-4.53"/>
        <path class="cls-1" d="M70.47,70.47c1.09-1.09.94-3.12-.47-4.53-1.41-1.25-3.28-1.41-4.37-.31-1.09,1.09-.94,2.97.31,4.37,1.41,1.25,3.44,1.56,4.53.47"/>
        <path class="cls-1" d="M38.92,70.47c1.09,1.09,3.12.94,4.53-.47,1.25-1.41,1.41-3.28.31-4.37-1.09-1.09-2.97-.94-4.37.31-1.25,1.41-1.56,3.44-.47,4.53"/>
        <path class="cls-2" d="M77.19.18c-1.87-.78-4.37,1.09-5.47,3.91-1.09,2.81-.47,5.62,1.25,6.4,1.72.78,4.06-.78,5.31-3.59,1.25-2.81.78-5.94-1.09-6.72"/>
        <path class="cls-2" d="M109.21,32.05c-.78-1.87-3.91-2.34-6.56-1.09-2.81,1.25-4.37,3.59-3.59,5.31.78,1.72,3.44,2.34,6.4,1.25,2.66-1.09,4.53-3.59,3.75-5.47"/>
        <path class="cls-2" d="M109.21,77.19c.78-1.87-1.09-4.37-3.91-5.47-2.81-1.09-5.62-.47-6.4,1.25s.78,4.06,3.59,5.31c2.81,1.25,5.94.78,6.72-1.09"/>
        <path class="cls-2" d="M77.35,109.21c1.87-.78,2.34-3.75,1.09-6.56-1.25-2.81-3.59-4.37-5.31-3.59-1.72.78-2.34,3.44-1.25,6.25,1.09,2.81,3.59,4.69,5.47,3.91"/>
        <path class="cls-2" d="M32.2,109.21c1.87.78,4.37-1.09,5.47-3.91,1.09-2.81.47-5.62-1.25-6.4-1.72-.78-4.06.78-5.31,3.59-1.25,2.81-.78,5.94,1.09,6.72"/>
        <path class="cls-2" d="M.18,77.35c.78,1.87,3.75,2.34,6.56,1.09,2.81-1.25,4.37-3.59,3.59-5.31-.78-1.72-3.44-2.34-6.4-1.25-2.66.94-4.53,3.44-3.75,5.47"/>
        <path class="cls-2" d="M.18,32.2c-.78,1.87,1.09,4.37,3.91,5.47,2.81,1.09,5.62.47,6.4-1.25.78-1.72-.78-4.06-3.59-5.31-2.81-1.25-5.94-.78-6.72,1.09"/>
        <path class="cls-2" d="M32.05.18c-1.87.78-2.34,3.75-1.09,6.56,1.25,2.81,3.59,4.37,5.31,3.59s2.34-3.44,1.25-6.4c-.94-2.66-3.44-4.53-5.47-3.75"/>
        <g>
          <path class="cls-2" d="M153.73,55.32c-.78-.78-1.72-1.41-2.66-1.72-.31-.16-.62-.31-.94-.31.16-.16.31-.16.47-.31.78-.47,1.41-1.09,1.87-1.72.47-.62.94-1.56,1.25-2.5.31-.94.47-1.87.47-2.97,0-1.72-.31-3.28-.94-4.37-.62-1.25-1.56-2.19-2.66-2.97s-2.5-1.25-4.06-1.72c-1.56-.31-3.28-.47-5.15-.47-1.56,0-2.97,0-4.37.16-1.56.16-2.66.16-3.44.47l-.47.16v35.62h.47c1.25.16,2.66.31,4.06.47,1.41.16,2.81.16,4.06.16,2.03,0,3.91-.16,5.62-.47,1.72-.31,3.28-.94,4.69-1.87,1.41-.78,2.5-2.03,3.28-3.28.78-1.41,1.25-3.12,1.25-5,0-1.56-.31-2.97-.78-4.22-.62-1.41-1.25-2.34-2.03-3.12M139.05,56.41h3.44c1.09,0,2.19.16,3.12.31.94.16,1.72.47,2.34.94.62.47,1.09,1.09,1.56,1.72.31.78.62,1.72.62,2.81s-.16,2.03-.62,2.66c-.47.62-.94,1.25-1.56,1.72-.78.47-1.56.78-2.5.94-1.56.31-3.44.31-5.15.16h-1.09v-11.25h-.16ZM146.7,49.85c-1.09.78-2.66,1.25-4.69,1.25h-2.97v-9.84h2.81c2.03,0,3.59.47,4.69,1.25,1.09.78,1.56,2.03,1.56,3.59,0,1.72-.47,2.97-1.41,3.75"/>
          <path class="cls-2" d="M168.73,46.1c-1.25,0-2.5.16-3.91.31-1.41.16-2.66.47-3.75.78l-.47.16v.47c0,1.56.31,2.97.94,4.06l.31.47.47-.16c.94-.31,1.87-.47,2.81-.62.94-.16,2.03-.31,3.12-.31,1.72,0,2.97.31,3.91.94.78.62,1.25,1.87,1.25,3.44v.31c-.31,0-.62,0-1.09-.16h-2.5c-1.41,0-2.81.16-4.06.47-1.25.31-2.5.94-3.44,1.56-1.09.78-1.87,1.72-2.5,2.81-.62,1.09-.94,2.5-.94,3.91,0,1.56.31,2.81.78,3.91.47,1.09,1.25,2.03,2.19,2.66.94.62,2.03,1.25,3.44,1.56,1.25.31,2.81.47,4.37.47,1.72,0,3.44-.16,5-.47,1.56-.31,2.97-.47,4.06-.78l.47-.16v-15.93c0-3.44-.94-5.94-2.66-7.5-1.87-1.41-4.37-2.19-7.81-2.19M173.41,60.79v6.87c-.47.16-.94.16-1.56.31-1.41.16-2.66.16-4.06,0-.62,0-1.09-.16-1.56-.47s-.78-.62-1.09-1.09-.47-1.09-.47-1.87c0-1.25.47-2.34,1.25-2.97.94-.62,2.34-.94,4.22-.94.47,0,1.09,0,1.87.16h1.41"/>
          <path class="cls-2" d="M196.22,46.1c-1.09,0-2.03.16-2.97.47-.94.31-1.72.62-2.34,1.09-.62.47-1.25.94-1.87,1.56-.16.16-.16.31-.31.31v-.47c-.16-.78-.16-1.56-.31-2.03l-.16-.31h-.31c-.31,0-.62-.16-1.09-.16h-2.19c-.31,0-.78.16-1.09.16l-.47.16v25.62l.47.16c.31,0,.78.16,1.25.16h2.5c.47,0,.78-.16,1.25-.16l.47-.16v-12.97c0-1.41.16-2.66.47-3.75.31-.94.78-1.87,1.41-2.5.47-.62,1.25-1.09,1.87-1.41.78-.31,1.56-.47,2.34-.47,1.41,0,2.34.47,2.81,1.41.62.94.94,2.5.94,4.69v14.84l.47.16c.31,0,.78.16,1.25.16h2.5c.47,0,.94-.16,1.25-.16l.47-.16v-16.09c0-3.28-.78-5.78-2.19-7.5-1.09-1.87-3.44-2.66-6.4-2.66"/>
          <path class="cls-2" d="M228.4,69.22c-.16-.78-.47-1.25-.78-1.87l-.31-.47-.47.16c-.78.31-1.56.47-2.34.62-.78.16-1.72.16-2.66.16-2.19,0-4.06-.62-5.31-2.03-1.25-1.25-1.87-3.44-1.87-6.4,0-2.5.62-4.69,1.72-6.09,1.09-1.56,2.81-2.19,5-2.19,1.87,0,3.75.31,5.15.78l.47.16.16-.47c.31-.62.47-1.25.62-2.03.16-.78.16-1.41.16-2.03v-.47l-.31-.16c-.94-.31-2.03-.62-3.12-.78-1.09-.16-2.34-.31-3.59-.31-2.03,0-3.91.31-5.47,1.09-1.56.78-2.97,1.72-4.06,2.97-1.09,1.25-1.87,2.66-2.34,4.37-.47,1.56-.78,3.44-.78,5.31,0,4.06,1.09,7.34,3.28,9.84,2.19,2.5,5.47,3.75,9.68,3.75,2.5,0,4.84-.31,6.72-1.09l.47-.16v-.47c.31-.78.31-1.56,0-2.19"/>
          <path class="cls-2" d="M251.99,50.01c-1.09-1.25-2.34-2.19-3.75-2.97-1.56-.78-3.28-1.09-5.31-1.09s-3.91.47-5.47,1.25c-1.56.78-2.81,1.72-3.75,2.97-.94,1.25-1.72,2.66-2.19,4.37-.47,1.56-.78,3.44-.78,5.31s.31,3.59.78,5.31c.47,1.72,1.25,3.12,2.19,4.37,1.09,1.25,2.34,2.19,3.75,2.81,1.56.62,3.28,1.09,5.31,1.09s3.75-.31,5.31-1.09c1.56-.62,2.81-1.72,3.75-2.81.94-1.25,1.72-2.66,2.19-4.37.47-1.56.78-3.44.78-5.31s-.31-3.59-.78-5.31c-.31-1.87-1.09-3.28-2.03-4.53M242.77,68.13c-2.03,0-3.44-.78-4.37-2.19-.94-1.56-1.41-3.59-1.41-6.4,0-2.66.47-4.84,1.41-6.4.94-1.41,2.34-2.19,4.37-2.19s3.44.62,4.37,2.19c.94,1.56,1.56,3.59,1.56,6.4,0,2.66-.47,4.84-1.56,6.4-.78,1.56-2.34,2.19-4.37,2.19"/>
          <path class="cls-2" d="M293.07,66.57l-.31-.47-.47.16c-.94.47-1.87.78-2.97.94-1.09.16-2.19.31-3.59.31-1.72,0-3.12-.31-4.53-.78-1.25-.47-2.5-1.25-3.44-2.34-.94-1.09-1.72-2.34-2.19-3.91-.47-1.56-.78-3.59-.78-5.78,0-4.37.94-7.65,2.81-9.84,1.87-2.19,4.37-3.28,7.65-3.28h2.03c.62,0,1.25.16,1.72.16.47.16.94.16,1.41.31.47.16.94.31,1.41.47l.47.16.16-.47c.31-.78.47-1.41.78-2.03.16-.62.31-1.41.47-2.19v-.47l-.47-.16c-1.09-.31-2.19-.62-3.59-.94-1.41-.31-2.97-.47-4.84-.47-2.5,0-4.84.47-6.87,1.41-2.03.94-3.91,2.19-5.31,3.75-1.41,1.56-2.5,3.59-3.28,5.94-.78,2.34-1.09,4.84-1.09,7.65s.31,5.31,1.09,7.5c.78,2.19,1.87,4.22,3.28,5.78,1.41,1.56,3.28,2.81,5.31,3.59,2.03.78,4.37,1.25,7.03,1.25,1.72,0,3.28-.16,4.69-.47,1.41-.31,2.81-.62,4.22-1.25l.47-.16v-.47c0-1.09-.47-2.5-1.25-3.91"/>
          <path class="cls-2" d="M306.81,46.1c-1.25,0-2.5.16-3.91.31-1.41.16-2.66.47-3.75.78l-.47.16v.47c0,1.56.31,2.97.94,4.06l.16.47.47-.16c.94-.31,1.87-.47,2.81-.62.94-.16,2.03-.31,3.12-.31,1.72,0,2.97.31,3.91.94.78.62,1.25,1.87,1.25,3.44v.31c-.31,0-.62,0-1.09-.16h-2.5c-1.41,0-2.81.16-4.06.47s-2.5.94-3.44,1.56c-1.09.78-1.87,1.72-2.5,2.81-.62,1.09-.94,2.5-.94,3.91,0,1.56.31,2.81.78,3.91.47,1.09,1.25,2.03,2.19,2.66.94.62,2.03,1.25,3.44,1.56,1.25.31,2.81.47,4.37.47,1.72,0,3.44-.16,5-.47,1.56-.31,2.97-.47,4.06-.78l.47-.16v-15.93c0-3.44-.94-5.94-2.66-7.5-1.72-1.41-4.37-2.19-7.65-2.19M311.34,60.79v6.87c-.47.16-.94.16-1.56.31-1.41.16-2.66.16-4.06,0-.62,0-1.09-.16-1.56-.47s-.78-.62-1.09-1.09-.47-1.09-.47-1.87c0-1.25.47-2.34,1.25-2.97.94-.62,2.34-.94,4.22-.94.47,0,1.09,0,1.87.16h1.41"/>
          <path class="cls-2" d="M321.65,47.04c0,.31-.16.62-.16.94v2.19c0,.31.16.62.16.94l.16.47h2.97v21.4c0,.94-.16,1.56-.31,2.03-.16.47-.47.78-.78.94s-.62.31-.94.47c-1.56.16-2.81,0-3.75-.31l-.47-.16-.16.47c-.31.62-.47,1.25-.62,1.87-.16.62-.16,1.41-.31,2.03v.47l.47.16c1.25.47,2.81.62,4.53.62,1.09,0,2.19-.16,3.12-.47.94-.31,1.87-.78,2.66-1.41.78-.62,1.41-1.56,1.72-2.5.47-1.09.62-2.34.62-3.91v-26.71h-8.75l-.16.47Z"/>
          <path class="cls-2" d="M323.69,41.89v.47h.47c.47,0,.78.16,1.41.16h2.5c.47,0,.94-.16,1.25-.16h.47v-.47c0-.47.16-.94.16-1.25v-2.5c0-.47-.16-.78-.16-1.25v-.47h-.47c-.31,0-.78-.16-1.25-.16h-2.5c-.47,0-.94.16-1.41.16h-.47v.47c0,.47-.16.78-.16,1.25v2.5c0,.31,0,.78.16,1.25"/>
          <path class="cls-2" d="M344.77,46.1c-1.25,0-2.5.16-3.91.31-1.41.16-2.66.47-3.75.78l-.47.16v.47c0,1.56.31,2.97.94,4.06l.16.47.47-.16c.94-.31,1.87-.47,2.81-.62.94-.16,2.03-.31,3.12-.31,1.72,0,2.97.31,3.91.94.78.62,1.25,1.87,1.25,3.44v.31c-.31,0-.62,0-1.09-.16h-2.5c-1.41,0-2.81.16-4.06.47s-2.5.94-3.44,1.56c-1.09.78-1.87,1.72-2.5,2.81-.62,1.09-.94,2.5-.94,3.91,0,1.56.31,2.81.78,3.91.47,1.09,1.25,2.03,2.19,2.66.94.62,2.03,1.25,3.44,1.56,1.25.31,2.81.47,4.37.47,1.72,0,3.44-.16,5-.47,1.56-.31,2.97-.47,4.06-.78l.47-.16v-15.93c0-3.44-.94-5.94-2.66-7.5-1.72-1.41-4.37-2.19-7.65-2.19M349.3,60.79v6.87c-.47.16-.94.16-1.56.31-1.41.16-2.66.16-4.06,0-.62,0-1.09-.16-1.56-.47s-.78-.62-1.09-1.09c-.31-.47-.47-1.09-.47-1.87,0-1.25.47-2.34,1.25-2.97.94-.62,2.34-.94,4.22-.94.47,0,1.09,0,1.87.16h1.41"/>
          <path class="cls-2" d="M389.76,55.16c-.78-.78-1.72-1.56-2.66-2.03-.94-.62-2.19-1.09-3.44-1.72l-2.66-1.09c-.62-.31-1.25-.47-1.87-.78-.62-.31-1.09-.62-1.41-.94-.47-.31-.78-.78-.94-1.25-.31-.47-.31-.94-.31-1.56,0-1.41.47-2.5,1.41-3.28.94-.78,2.5-1.09,4.37-1.09,1.41,0,2.66.16,3.75.31,1.09.31,2.03.47,2.97.78l.47.16.16-.47c.62-1.41.94-2.81,1.09-4.22v-.47l-.47-.16c-1.09-.47-2.34-.78-3.75-.94-1.41-.31-2.97-.47-4.53-.47-3.75,0-6.72.94-8.75,2.66-2.19,1.72-3.12,4.22-3.12,7.34,0,1.25.16,2.34.47,3.28s.78,1.72,1.41,2.5c.62.78,1.25,1.41,2.19,1.87.78.47,1.72.94,2.66,1.25l2.81,1.09c1.09.47,2.03.94,2.81,1.25.78.31,1.41.78,1.87,1.25s.78.94,1.09,1.41c.31.62.31,1.25.31,2.03,0,1.72-.62,2.97-1.72,3.91-1.25.94-3.12,1.41-5.47,1.41-1.56,0-2.97-.16-4.06-.47-1.09-.31-2.19-.62-3.28-.94l-.62-.16-.16.47c-.31.62-.47,1.41-.78,2.19s-.47,1.56-.47,2.34v.47l.47.16c.62.16,1.41.47,2.03.62.62.16,1.41.31,2.03.47.78.16,1.41.16,2.34.31.78,0,1.72.16,2.81.16,4.22,0,7.65-.94,10-2.97,2.34-2.03,3.59-4.84,3.59-8.28,0-1.41-.16-2.66-.62-3.75-.78-.94-1.25-1.87-2.03-2.66"/>
          <path class="cls-2" d="M415.69,50.01c-1.09-1.25-2.34-2.19-3.75-2.97-1.56-.78-3.28-1.09-5.31-1.09s-3.75.31-5.31,1.09-2.81,1.72-3.75,2.97c-.94,1.25-1.72,2.66-2.19,4.37-.47,1.56-.78,3.44-.78,5.31s.31,3.59.78,5.31c.47,1.72,1.25,3.12,2.19,4.37,1.09,1.25,2.34,2.19,3.75,2.81,1.56.62,3.28,1.09,5.31,1.09s3.75-.31,5.31-1.09c1.56-.62,2.81-1.72,3.75-2.81.94-1.25,1.72-2.66,2.19-4.37.47-1.56.78-3.44.78-5.31s-.31-3.59-.78-5.31c-.47-1.72-1.25-3.12-2.19-4.37M406.48,68.13c-2.03,0-3.44-.78-4.37-2.19-.94-1.56-1.41-3.59-1.41-6.4,0-2.66.47-4.84,1.41-6.4.94-1.41,2.34-2.19,4.37-2.19s3.44.62,4.37,2.19c.94,1.56,1.56,3.59,1.56,6.4,0,2.66-.47,4.84-1.56,6.4-.94,1.56-2.34,2.19-4.37,2.19"/>
          <path class="cls-2" d="M441,69.22c-.16-.78-.47-1.25-.78-1.87l-.31-.47-.47.16c-.78.31-1.56.47-2.34.62-.78.16-1.72.16-2.66.16-2.19,0-4.06-.62-5.31-2.03-1.25-1.25-1.87-3.44-1.87-6.4,0-2.5.62-4.69,1.72-6.09,1.09-1.56,2.81-2.19,5-2.19,1.87,0,3.75.31,5.15.78l.47.16.16-.47c.31-.62.47-1.25.62-2.03s.16-1.41.16-2.03v-.47l-.31-.16c-.94-.31-2.03-.62-3.12-.78-1.09-.16-2.34-.31-3.59-.31-2.03,0-3.91.31-5.47,1.09-1.56.78-2.97,1.72-4.06,2.97-1.09,1.25-1.87,2.66-2.34,4.22-.47,1.56-.78,3.44-.78,5.31,0,4.06,1.09,7.34,3.28,9.84,2.19,2.5,5.47,3.75,9.68,3.75,2.5,0,4.84-.31,6.72-1.09l.31-.16v-.47c.47-.62.47-1.41.16-2.03"/>
          <path class="cls-2" d="M446.15,41.89v.47h.47c.47,0,.94.16,1.41.16h2.66c.47,0,.94-.16,1.41-.16h.47v-.47c0-.47.16-.78.16-1.41v-2.5c0-.47,0-.94-.16-1.25v-.47h-.47c-.47,0-.94-.16-1.41-.16h-2.5c-.47,0-.94.16-1.41.16h-.47v.47c0,.31-.16.78-.16,1.25v2.5c-.16.62,0,.94,0,1.41"/>
          <path class="cls-2" d="M444.12,47.04c0,.31-.16.62-.16.94v2.19c0,.31.16.62.16.94l.16.47h2.97v20.93l.47.16c.31,0,.78.16,1.25.16h2.5c.47,0,.78-.16,1.25-.16l.47-.16v-25.93h-8.9l-.16.47Z"/>
          <path class="cls-2" d="M466.15,46.1c-1.25,0-2.5.16-3.91.31-1.41.16-2.66.47-3.75.78l-.47.16v.47c0,1.56.31,2.97.94,4.06l.31.47.47-.16c.94-.31,1.87-.47,2.81-.62.94-.16,2.03-.31,3.12-.31,1.72,0,2.97.31,3.91.94.78.62,1.25,1.87,1.25,3.44v.31c-.31,0-.62,0-1.09-.16h-2.5c-1.41,0-2.81.16-4.06.47-1.25.31-2.5.94-3.44,1.56-1.09.78-1.87,1.72-2.5,2.81-.62,1.09-.94,2.5-.94,3.91,0,1.56.31,2.81.78,3.91.47,1.09,1.25,2.03,2.19,2.66.94.62,2.03,1.25,3.44,1.56,1.25.31,2.81.47,4.37.47,1.72,0,3.44-.16,5-.47,1.56-.31,2.97-.47,4.06-.78l.47-.16v-15.93c0-3.44-.94-5.94-2.66-7.5-1.87-1.41-4.37-2.19-7.81-2.19M470.83,60.79v6.87c-.47.16-.94.16-1.56.31-1.41.16-2.66.16-4.06,0-.62,0-1.09-.16-1.56-.47-.47-.31-.78-.62-1.09-1.09s-.47-1.09-.47-1.87c0-1.25.47-2.34,1.25-2.97.94-.62,2.34-.94,4.22-.94.47,0,1.09,0,1.87.16h1.41"/>
          <path class="cls-2" d="M491.45,68.13l-.16-.62-.62.16c-.16,0-.47.16-.78.16h-2.03c-.31,0-.47-.16-.62-.31-.16-.16-.31-.47-.47-.94-.16-.47-.16-1.09-.16-1.87v-28.59l-.47-.16c-.31,0-.78-.16-1.25-.16h-2.5c-.47,0-.94.16-1.25.16l-.47.16v29.37c0,1.41.16,2.5.62,3.44.31.94.94,1.72,1.56,2.34.62.62,1.41.94,2.34,1.25.78.31,1.72.31,2.81.31h1.87c.62,0,1.25-.16,1.72-.31l.31-.16v-.47c0-1.41-.16-2.66-.47-3.75"/>
        </g>
        <g>
          <path class="cls-2" d="M133.42,100.78c.47.16.94.31,1.41.47.47.16,1.09.16,1.87.16,1.09,0,2.03-.31,2.66-.78.62-.47.78-1.09.78-1.87,0-.47,0-.78-.16-1.09-.16-.31-.31-.47-.47-.78-.31-.16-.47-.47-.94-.62-.31-.16-.78-.31-1.25-.62l-1.25-.47c-.47-.16-.78-.31-1.09-.62-.31-.16-.62-.47-.94-.78s-.47-.62-.62-1.09c-.16-.31-.16-.78-.16-1.41,0-1.25.47-2.34,1.25-2.97.94-.78,2.03-1.09,3.75-1.09.62,0,1.25,0,1.87.16.62.16,1.09.31,1.56.47,0,.62-.16,1.25-.47,1.72-.31-.16-.78-.31-1.25-.31-.47-.16-1.09-.16-1.72-.16-.94,0-1.56.16-2.03.47-.47.31-.78.94-.78,1.56,0,.31,0,.62.16.78s.31.47.47.62c.16.16.47.31.62.47.31.16.62.31.78.31l1.25.47c.62.16,1.09.47,1.56.78.47.31.78.47,1.09.94.31.31.62.78.78,1.25s.31.94.31,1.56c0,1.41-.47,2.66-1.56,3.44-.94.78-2.34,1.25-4.22,1.25h-1.25c-.31,0-.62,0-.94-.16-.31,0-.62-.16-.94-.16s-.62-.16-.94-.31c0-.31.16-.62.16-.94.47,0,.47-.31.62-.62Z"/>
          <path class="cls-2" d="M145.76,92.19h1.87v5.94c0,.62,0,1.25.16,1.72.16.47.31.78.62,1.09.31.31.62.47.94.47.31.16.78.16,1.25.16.78,0,1.41,0,1.87-.16v-9.22h1.87v10.47c-.47.16-1.09.31-1.72.47-.62.16-1.41.16-2.19.16-.62,0-1.41,0-2.03-.16-.62-.16-1.09-.31-1.56-.78-.47-.31-.78-.94-1.09-1.56-.31-.62-.47-1.56-.47-2.66v-5.94h.47Z"/>
          <path class="cls-2" d="M164.35,87.5h1.87v5.94c.31-.47.62-.78,1.25-1.09.47-.31,1.25-.47,1.87-.47s1.25.16,1.87.31c.62.16,1.09.47,1.41.94.47.47.78.94.94,1.72.16.62.31,1.56.31,2.5,0,1.87-.47,3.28-1.56,4.37-1.09,1.09-2.5,1.56-4.53,1.56-.62,0-1.25,0-1.87-.16-.62-.16-1.25-.31-1.72-.47v-15.15h.16ZM166.38,101.4c.31.16.47.16.78.16h.94c.47,0,.94-.16,1.41-.31.47-.16.78-.47,1.09-.78s.62-.78.78-1.25c.16-.47.31-1.09.31-1.87,0-1.25-.16-2.03-.62-2.81-.47-.62-1.09-.94-2.03-.94-.31,0-.62,0-.94.16-.31.16-.62.31-.94.47-.31.16-.47.47-.62.94-.16.31-.31.78-.31,1.41v4.84h.16Z"/>
          <path class="cls-2" d="M182.79,95.93c0-.78-.16-1.41-.62-1.72-.47-.31-1.09-.47-1.87-.47-.47,0-.94,0-1.41.16-.47,0-.78.16-1.25.31-.31-.47-.47-1.09-.47-1.72.47-.16.94-.31,1.56-.31.62-.16,1.09-.16,1.72-.16,1.41,0,2.5.31,3.28.94.78.62,1.09,1.72,1.09,3.12v6.87c-.47.16-1.09.16-1.87.31-.78.16-1.41.16-2.19.16-.62,0-1.25,0-1.87-.16-.62-.16-1.09-.31-1.41-.62-.31-.31-.62-.62-.94-1.09-.16-.47-.31-.94-.31-1.56s.16-1.09.31-1.56c.31-.47.62-.78.94-1.09.47-.31.94-.47,1.41-.62.62-.16,1.09-.16,1.72-.16h1.87v-.62h.31ZM182.79,97.96c-.16,0-.47,0-.78-.16h-.78c-.94,0-1.56.16-2.03.47-.47.31-.62.78-.62,1.41,0,.47,0,.78.16.94.16.31.31.47.62.62.16.16.47.16.78.16h1.72c.31,0,.62-.16.94-.16,0,0,0-3.28,0-3.28Z"/>
          <path class="cls-2" d="M188.25,92.19h1.87c0,.16.16.47.16.78v.94c.16-.31.31-.47.47-.78.16-.31.47-.47.78-.62.31-.16.62-.31.94-.47.31-.16.78-.16,1.25-.16,1.25,0,2.19.31,2.81,1.09s.94,1.72.94,3.12v6.87h-1.87v-6.25c0-.94-.16-1.72-.47-2.19-.31-.47-.78-.78-1.56-.78-.47,0-.78,0-1.09.16-.31.16-.62.31-.94.62-.31.31-.47.62-.62,1.09-.16.47-.31,1.09-.31,1.72v5.47h-1.87v-10.62h-.47Z"/>
          <path class="cls-2" d="M208.72,101.25c.16.16.16.47.31.78.16.31.16.62.16.94-.78.31-1.72.47-2.81.47-1.87,0-3.12-.47-4.06-1.56-.94-1.09-1.41-2.34-1.41-4.22,0-.78.16-1.56.31-2.19.16-.62.62-1.25.94-1.87.47-.47.94-.94,1.72-1.25.62-.31,1.41-.47,2.34-.47.62,0,1.09,0,1.56.16.47,0,.94.16,1.25.31,0,.31,0,.47-.16.78,0,.31-.16.62-.31.78-.62-.31-1.56-.31-2.34-.31-1.09,0-1.87.31-2.5,1.09-.47.78-.78,1.72-.78,2.81,0,1.41.31,2.34.94,2.97.62.62,1.41.94,2.5.94.47,0,.78,0,1.25-.16.47.16.78.16,1.09,0Z"/>
          <path class="cls-2" d="M216.37,103.43c-.78,0-1.56-.16-2.19-.47-.62-.31-1.09-.62-1.56-1.25-.47-.47-.78-1.09-.94-1.87-.16-.62-.31-1.41-.31-2.19s.16-1.56.31-2.19c.16-.62.47-1.25.94-1.87.47-.47.94-.94,1.56-1.25.62-.31,1.41-.47,2.19-.47s1.56.16,2.19.47c.62.31,1.09.62,1.56,1.25.47.47.78,1.09.94,1.87.16.62.31,1.41.31,2.19s-.16,1.56-.31,2.19c-.16.62-.47,1.25-.94,1.87-.47.47-.94.94-1.56,1.25-.62.31-1.25.47-2.19.47ZM216.37,101.71c.94,0,1.72-.31,2.19-1.09.47-.78.62-1.72.62-2.97s-.16-2.19-.62-2.97c-.47-.62-1.25-1.09-2.19-1.09s-1.72.31-2.19,1.09c-.47.62-.62,1.72-.62,2.97s.16,2.19.62,2.97c.47.78,1.25,1.09,2.19,1.09Z"/>
          <path class="cls-2" d="M236.21,95.93c0-.78-.16-1.41-.62-1.72-.47-.31-1.09-.47-1.87-.47-.47,0-.94,0-1.41.16-.47,0-.78.16-1.25.31-.31-.47-.47-1.09-.47-1.72.47-.16.94-.31,1.56-.31.62-.16,1.09-.16,1.72-.16,1.41,0,2.5.31,3.28.94.78.62,1.09,1.72,1.09,3.12v6.87c-.47.16-1.09.16-1.87.31s-1.41.16-2.19.16c-.62,0-1.25,0-1.87-.16s-1.09-.31-1.41-.62c-.31-.31-.62-.62-.94-1.09-.16-.47-.31-.94-.31-1.56s.16-1.09.31-1.56c.31-.47.62-.78.94-1.09.47-.31.94-.47,1.41-.62.62-.16,1.09-.16,1.72-.16h1.87v-.62h.31ZM236.21,97.96c-.16,0-.47,0-.78-.16h-.78c-.94,0-1.56.16-2.03.47-.47.31-.62.78-.62,1.41,0,.47,0,.78.16.94.16.31.31.47.62.62.16.16.47.16.78.16h1.72c.31,0,.62-.16.94-.16v-3.28h0Z"/>
          <path class="cls-2" d="M242.14,92.19h1.87c0,.16.16.47.16.78v.94c.16-.31.31-.47.47-.78.16-.16.47-.47.62-.62.31-.16.62-.31.94-.47s.78-.16,1.09-.16c.78,0,1.56.16,2.03.47.47.31.78.78,1.09,1.41.16-.31.31-.47.47-.78s.47-.47.62-.62c.31-.16.47-.31.94-.47.31-.16.62-.16,1.09-.16,1.25,0,2.19.31,2.81,1.09.62.78.78,1.72.78,3.12v6.87h-1.87v-6.25c0-.94-.16-1.72-.47-2.19s-.78-.78-1.41-.78c-.78,0-1.25.31-1.72.78s-.62,1.25-.62,2.34v6.09h-1.87v-6.4c0-.94-.16-1.72-.47-2.19s-.78-.78-1.41-.78c-.31,0-.62.16-.94.16s-.62.31-.78.62c-.16.31-.47.78-.62,1.25-.16.47-.16,1.09-.16,1.72v5.62h-1.87v-10.62h-.78Z"/>
          <path class="cls-2" d="M261.51,93.9h-1.41v-1.87h3.44v10.93h-1.87v-9.06h-.16ZM261.05,89.84v-2.03h2.5v2.03h-2.5Z"/>
          <path class="cls-2" d="M273.39,101.71c1.25,0,2.19.31,2.81.78.62.47.78,1.25.78,2.03,0,.62-.16,1.09-.47,1.56-.31.47-.78.78-1.25,1.25-.47.31-1.09.62-1.87.78-.78.16-1.56.31-2.34.31-1.41,0-2.5-.16-3.28-.62-.78-.47-1.09-1.09-1.09-2.19,0-.62.16-1.09.47-1.56.31-.47.78-.78,1.25-1.09-.31-.16-.47-.47-.78-.62-.16-.31-.31-.62-.31-1.09s.16-.94.31-1.41c.16-.31.62-.78.94-1.09-.47-.31-.78-.78-1.09-1.25s-.47-1.09-.47-1.72c0-.47.16-1.09.31-1.56.16-.47.47-.94.78-1.25.31-.31.78-.62,1.41-.78.62-.16,1.25-.31,1.87-.31s1.25.16,1.72.31c.47.16.94.47,1.25.62.31-.16.62-.47,1.09-.62.47-.16.94-.16,1.56-.16,0,.31.16.62.16.94v.94h-1.87c.16.31.31.47.31.78.16.31.16.62.16.94,0,.62-.16,1.09-.31,1.56-.16.47-.47.94-.94,1.25-.31.31-.78.62-1.41.78-.47.16-1.09.31-1.72.31s-1.09,0-1.56-.16c-.16.16-.47.31-.62.47-.16.16-.31.47-.31.78s.16.47.31.62c.16.16.62.31,1.25.31l2.97.16ZM270.57,103.43c-.62,0-1.09.16-1.41.47-.31.31-.47.78-.47,1.25,0,.31,0,.62.16.78.16.16.31.31.47.47.16.16.47.16.78.31h1.09c1.09,0,2.03-.16,2.66-.62.62-.31.94-.78.94-1.41,0-.47-.16-.78-.47-.94-.31-.16-.78-.31-1.41-.31h-2.34ZM271.51,98.12c.78,0,1.25-.16,1.72-.62.31-.47.62-.94.62-1.56s-.16-1.25-.62-1.72c-.31-.47-.94-.62-1.72-.62s-1.25.16-1.72.62c-.31.47-.47.94-.47,1.72,0,.62.16,1.25.47,1.56.47.31.94.62,1.72.62Z"/>
          <path class="cls-2" d="M284.16,103.43c-.78,0-1.56-.16-2.19-.47-.62-.31-1.09-.62-1.56-1.25-.47-.47-.78-1.09-.94-1.87-.16-.62-.31-1.41-.31-2.19s.16-1.56.31-2.19c.16-.62.47-1.25.94-1.87.47-.47.94-.94,1.56-1.25.62-.31,1.41-.47,2.19-.47s1.56.16,2.19.47c.62.31,1.09.62,1.56,1.25.47.47.78,1.09.94,1.87.16.62.31,1.41.31,2.19s-.16,1.56-.31,2.19c-.16.62-.47,1.25-.94,1.87-.47.47-.94.94-1.56,1.25-.62.31-1.41.47-2.19.47ZM284.16,101.71c.94,0,1.72-.31,2.19-1.09.47-.78.62-1.72.62-2.97s-.16-2.19-.62-2.97c-.47-.62-1.25-1.09-2.19-1.09s-1.72.31-2.19,1.09c-.47.62-.62,1.72-.62,2.97s.16,2.19.62,2.97c.47.78,1.25,1.09,2.19,1.09Z"/>
          <path class="cls-2" d="M292.13,103.12v-2.5h2.5v2.5h-2.5Z"/>
        </g>
      </g>
      <g>
        <path class="cls-4" d="M141.55,119.99c-.47,0-.94-.47-.94-.94,0-.62.31-1.09.94-1.09s67.79-4.37,94.66-3.91c26.87.47,38.11.94,38.27.94.62,0,.94.47.94,1.09s-.47.94-1.09.94c-.16,0-11.4-.47-38.27-.94-26.71-.47-93.72,3.91-94.51,3.91h0Z"/>
        <path class="cls-4" d="M286.82,117.33q-.16,0,0,0l-6.72-.31c-.62,0-.94-.47-.94-1.09s.47-.94,1.09-.94l6.72.31c.62,0,.94.47.94,1.09-.16.47-.62.94-1.09.94Z"/>
        <path class="cls-4" d="M292.44,117.65q-.16,0,0,0l-2.03-.16c-.62,0-.94-.47-.94-1.09s.47-.94,1.09-.94l2.03.16c.62,0,.94.47.94,1.09-.16.47-.62.94-1.09.94Z"/>
      </g>
      <g>
        <path class="cls-3" d="M141.55,119.99c-.47,0-.94-.47-.94-.94,0-.62.31-1.09.94-1.09s67.79-4.37,94.66-3.91c26.87.47,38.11.94,38.27.94.62,0,.94.47.94,1.09s-.47.94-1.09.94c-.16,0-11.4-.47-38.27-.94-26.71-.47-93.72,3.91-94.51,3.91h0Z"/>
        <path class="cls-3" d="M286.82,117.33q-.16,0,0,0l-6.72-.31c-.62,0-.94-.47-.94-1.09s.47-.94,1.09-.94l6.72.31c.62,0,.94.47.94,1.09-.16.47-.62.94-1.09.94Z"/>
        <path class="cls-3" d="M292.44,117.65q-.16,0,0,0l-2.03-.16c-.62,0-.94-.47-.94-1.09s.47-.94,1.09-.94l2.03.16c.62,0,.94.47.94,1.09-.16.47-.62.94-1.09.94Z"/>
      </g>
    </g>
  </g>
</svg>