<?xml version="1.0" encoding="UTF-8"?>
<svg id="Capa_2" data-name="Capa 2" xmlns="http://www.w3.org/2000/svg" viewBox="0 0 226.1 210.48">
  <defs>
    <style>
      .cls-1 {
        fill: #7e8f9f;
      }

      .cls-1, .cls-2 {
        stroke-width: 0px;
      }

      .cls-2 {
        fill: #48586b;
      }
    </style>
  </defs>
  <g id="Capa_1-2" data-name="Capa 1">
    <g>
      <path class="cls-1" d="M58.7,120.54s-.07-.49-.18-.93c-1.55-7.03-9.52-52.57,34.99-89.49,0,0,30.64-24.16,52.37-12.95-4.38-3.31-11.42-8.56-14.7-11.12C123.68.17,118.33.08,118.33.08c-12.01-.74-21.1,4.05-21.1,4.05-38.22,16.67-42.97,59.98-42.97,59.98-4.42,28.06.45,45.84,3.86,55.24l.59,1.2"/>
      <path class="cls-2" d="M146.19,139.44l.04-.04-.04.04Z"/>
      <path class="cls-2" d="M146.19,139.48v-.04s0,.04,0,.04Z"/>
      <path class="cls-2" d="M133.19,19.37c-.63,3.39-2.37,10.27-15.79,18.68-2.25,1.42-3.05,1.61-4.62,2.68-1.31.9-4.1,3.47-.86,6.77,1.52,1.56,14.2,10.06,21.86,15.66.87-.75,1.96-1.74,2.46-2.2l.32-.3c2.93-2.76,6.34-6.95,9.59-12.73,3.62-6.54,5.7-14.11,2.53-20.55,0,0-3.02-7.74-15.49-8.01"/>
      <path class="cls-1" d="M132.08,65.12c-7.18-4.63-11.04-6.73-23.97-13.44,0,0-3.67-1.68-3.97-3.83l-.03-.18c-.02,1.18-.5,19.32-2.82,33.5-.08.6-.37,1.97-.1,3.91.42,2.9,2.2,4.76,3.01,5.65,1.24,1.35,7.85,7.01,23.49,18.09,6.93,4.93,18.22,14.67,18.99,25.57.01.15.06,2.02-.19,3.16-.14.93-.43,1.87-.45,1.89l-.06.23.04.05.14-.25.18-.31c.46-.89,8.79-19.89,10.33-24.05.93-2.48,7.75-14.53-4.94-32.05,0,0-5.6-8.33-19.67-17.94"/>
      <path class="cls-2" d="M137.74,124.02c-.39-.6-.78-1.26-1.23-1.91,0,0-20.16,17.28-48.41,4.07,0,0-22.04-9.52-25.26-35.21-.21,1.09-.39,2.2-.56,3.33-6.08,39.5,22.93,61.19,50.81,60.54,21.18-.5,34.67-15.06,24.64-30.81"/>
      <polygon class="cls-2" points="39.54 195.82 51.26 195.82 51.26 190.65 39.54 190.65 39.54 181.96 53.89 181.96 53.89 176.77 33.56 176.77 33.56 209.9 54.64 209.9 54.64 204.72 39.54 204.72 39.54 195.82"/>
      <path class="cls-2" d="M185.61,195.92v-.1c3.45-1.41,5.54-5.1,5.54-9.04,0-4.41-2.09-7.57-5.37-9.04-1.42-.68-3.06-.96-6.61-.96h-11.26v33.14h5.97v-12.37h6.39l6.55,12.37h6.66l-6.77-12.37c-.64-1.17-1.09-1.63-1.09-1.63M179.9,192.3h-6.02v-10.34h5.2c4.67,0,6.01,1.96,6.01,5.14s-1.99,5.2-5.19,5.2"/>
      <path class="cls-2" d="M18.56,192.5v-.1c2.5-1.35,3.98-4,3.98-7.08,0-5.45-4.22-8.54-10.12-8.54H0v33.14h12.54c6.06,0,11.34-2.99,11.34-9.62,0-3.37-1.7-6.72-5.32-7.8M5.9,181.91h6.42c2.79,0,4.19,1.74,4.19,4.13s-1.49,4.28-4.08,4.28h-6.53v-8.41ZM13.03,204.83h-7.14v-9.66h7.14c3,0,4.77,2.02,4.77,4.8s-1.72,4.86-4.77,4.86"/>
      <polygon class="cls-2" points="70.65 176.78 64.69 176.78 64.69 209.92 85.51 209.92 85.51 204.72 70.65 204.72 70.65 176.78"/>
      <path class="cls-2" d="M215.65,176.78h-13.33v33.14h5.97v-11.45h7.36c6.16,0,10.45-4.48,10.45-10.91s-4.29-10.79-10.45-10.79M214.54,193.25h-6.25v-11.3h6.36c3.37,0,5.4,2.19,5.4,5.61s-2.02,5.68-5.5,5.68"/>
      <path class="cls-2" d="M107.05,204.96c-6.85,0-11.06-5.55-11.06-11.84s4.07-11.39,11.01-11.39c5.21,0,8.98,3.5,8.98,3.5l2.85-4.5s-4.11-4.51-12.11-4.51c-9.68,0-16.88,7.36-16.88,16.99s6.93,17.26,16.97,17.26c8.38,0,12.91-5.37,12.91-5.37l-3.15-4.33s-3.84,4.19-9.52,4.19"/>
      <path class="cls-2" d="M142.37,176.23c-9.67,0-17,7.4-17,16.9s7.32,17.35,17,17.35,16.98-7.59,16.98-17.35-7.31-16.9-16.98-16.9M142.37,204.96c-6.02,0-10.83-5.04-10.83-11.84s4.81-11.39,10.83-11.39,10.82,4.84,10.82,11.39-4.82,11.84-10.82,11.84"/>
    </g>
  </g>
</svg>