<?xml version="1.0" encoding="UTF-8"?>
<svg id="Capa_2" data-name="Capa 2" xmlns="http://www.w3.org/2000/svg" viewBox="0 0 579.82 79.64">
  <defs>
    <style>
      .cls-1 {
        fill: #be2bbb;
      }

      .cls-1, .cls-2 {
        fill-rule: evenodd;
        stroke-width: 0px;
      }

      .cls-2 {
        fill: #595454;
      }
    </style>
  </defs>
  <g id="Capa_1-2" data-name="Capa 1">
    <g id="Page-1">
      <g id="Home">
        <g id="homepage">
          <g id="Nav-_-header" data-name="Nav-/-header">
            <g id="Group">
              <path id="Fill-3" class="cls-2" d="M579.82,32.16v-9.04h-1.91l-2.23,7h-.06l-2.21-7h-2v9.04h1.14v-7.78h.06l2.45,7.78h1.08l2.47-7.78h.06v7.78h1.15ZM567.89,32.16v-8h2.43v-1.03h-6v1.03h2.4v8h1.18ZM91.12,43.94v-.22c4.66-1.6,7.54-4.39,7.54-9.38v-.77c0-5.73-4.66-10.44-14.16-10.44h-13.14v44.72h14.1c9.23,0,15.57-4.64,15.57-12.07v-.45c0-5.8-3.41-10.04-9.9-11.38h0ZM77.1,28.17h6.57c6.26,0,9.46,2.37,9.46,6.62v.45c0,5.13-4.43,6.77-10.26,6.77h-5.77v-13.84ZM95.13,55.26c0,5.53-4.36,7.6-10.72,7.6h-7.31v-16.12h7.41c6.26,0,10.62,2.08,10.62,7.82v.7ZM119.82,33.99h1.66v5.24h-1.34c-5.37,0-8.88,2.68-8.88,9.78v18.85h-5.36v-33.86h5.36v6.07h.26c.96-3.06,3.45-6.07,8.31-6.07h0ZM126.26,33.99h5.37v33.86h-5.37v-33.86ZM132.21,26.39c0,2.62-1.19,3.84-3.27,3.84s-3.28-1.23-3.28-3.84,1.19-3.92,3.28-3.92,3.27,1.3,3.27,3.92h0ZM161.39,58.52c0,6.52-4.86,9.97-11.95,9.97s-11.88-3.07-12.27-9.97h5.37c.19,4.15,3.26,5.5,6.9,5.5s6.58-1.6,6.58-5.11c0-8.24-18.46-2.55-18.46-15.91,0-5.56,4.09-9.65,11.56-9.65,6.84,0,11.37,3.39,11.89,9.97h-5.37c-.32-3.96-3.07-5.5-6.52-5.5-3.9,0-6.32,1.79-6.32,5.18,0,7.98,18.59,3.06,18.59,15.52h0ZM173.78,33.99h7.28v4.73h-7.28v18.72c0,4.92,1.28,5.94,4.54,5.94.89,0,1.92-.13,2.75-.19v4.6c-1.02.19-2.36.32-3.32.32-6.65,0-9.33-2.62-9.33-9.84v-19.55h-5.69v-4.73h5.69v-10.86h5.37v10.86ZM196.91,33.35c-8.37,0-12.84,5.75-12.84,15.08v4.98c0,9.33,4.47,15.08,12.84,15.08s12.84-5.75,12.84-15.08v-4.98c0-9.33-4.47-15.08-12.84-15.08h0ZM204.33,53.09c0,8.05-2.81,10.67-7.41,10.67s-7.41-2.62-7.41-10.67v-4.35c0-8.05,2.81-10.67,7.41-10.67s7.41,2.62,7.41,10.67v4.35ZM215.43,23.12h5.37v44.72h-5.37V23.12ZM272.56,23.12h9.11v44.72h-5.69V29.32h-.32l-11.44,31.12h-6.97l-11.31-31.12h-.32v38.53h-5.62V23.12h9.55l11.27,31.07h.32l11.4-31.07ZM307.77,33.99h5.43l-15.01,44.72h-5.56l3.77-10.61-10.99-34.12h5.69l8.11,26.39h.26l8.3-26.39ZM327.62,33.35c-8.37,0-12.84,6.01-12.84,15.08v4.98c0,9.33,4.47,15.08,12.84,15.08,6.71,0,10.67-3.71,12.01-10.03h-5.49c-.96,3.9-3.13,5.3-6.52,5.3-4.6,0-7.41-2.62-7.41-10.67v-.45h19.61v-4.22c0-9.07-3.83-15.08-12.2-15.08h0ZM327.62,38.08c4.35,0,6.7,2.56,6.77,10.35h-14.17c.07-7.79,2.87-10.35,7.4-10.35h0ZM359.72,33.99h1.66v5.24h-1.34c-5.37,0-8.88,2.68-8.88,9.78v18.85h-5.37v-33.86h5.37v6.07h.26c.96-3.06,3.45-6.07,8.31-6.07h0ZM388.47,58.52c0,6.52-4.85,9.97-11.95,9.97s-11.88-3.07-12.27-9.97h5.37c.19,4.15,3.26,5.5,6.9,5.5s6.58-1.6,6.58-5.11c0-8.24-18.46-2.55-18.46-15.91,0-5.56,4.09-9.65,11.56-9.65,6.84,0,11.38,3.39,11.88,9.97h-5.37c-.32-3.96-3.06-5.5-6.52-5.5-3.9,0-6.32,1.79-6.32,5.18,0,7.98,18.59,3.06,18.59,15.52h0ZM431.13,56.03c0,7.99-5.49,12.46-13.93,12.46-7.92,0-14.44-3.83-15.27-12.39h5.94c.7,5.05,4.28,7.41,9.26,7.41,5.69,0,8.24-3.39,8.24-7.15,0-12.72-22.75-5.37-22.75-22.04,0-7.16,5.69-11.82,13.61-11.82s14.05,3.77,14.44,12.59h-5.94c-.51-5.43-3.96-7.6-8.56-7.6-5.43,0-7.8,3.2-7.8,6.58,0,11.25,22.75,4.6,22.75,21.98h0ZM455.38,38.08h-.26c-1.45-2.99-4.21-4.73-7.72-4.73-8.37,0-12.2,5.75-12.2,15.08v4.98c0,9.33,3.83,15.08,12.2,15.08,3.52,0,6.28-1.74,7.72-4.73h.26v14.95h5.37v-44.72h-5.37v4.09ZM448.03,63.76c-4.6,0-7.41-2.62-7.41-10.67v-4.35c0-8.05,2.81-10.67,7.41-10.67s7.41,2.62,7.41,10.67v4.35c0,8.05-2.81,10.67-7.41,10.67h0ZM485.39,33.99h5.37v33.86h-5.37v-4.35h-.25c-1.28,2.75-4.03,4.98-8.31,4.98-6.32,0-10.22-3.58-10.22-11.57v-22.94h5.43v22.17c0,5.43,2.24,7.79,6.26,7.79s7.09-2.62,7.09-9.2v-20.76ZM497.65,33.99h5.36v33.86h-5.36v-33.86ZM523.57,33.35c-3.57,0-6.29,1.74-7.73,4.73h-.26v-14.95h-5.37v44.72h5.37v-4.09h.26c1.44,2.99,4.16,4.73,7.73,4.73,8.37,0,12.2-5.75,12.2-15.08v-4.98c0-9.33-3.83-15.08-12.2-15.08h0ZM530.34,53.09c0,8.05-2.81,10.67-7.41,10.67s-7.41-2.62-7.41-10.67v-4.35c0-8.05,2.81-10.67,7.41-10.67s7.41,2.62,7.41,10.67v4.35ZM554.39,33.35c-3.57,0-6.3,1.74-7.73,4.73h-.26v-14.95h-5.36v44.72h5.36v-4.09h.26c1.44,2.99,4.16,4.73,7.73,4.73,8.37,0,12.2-5.75,12.2-15.08v-4.98c0-9.33-3.83-15.08-12.2-15.08h0ZM561.16,53.09c0,8.05-2.81,10.67-7.41,10.67s-7.41-2.62-7.41-10.67v-4.35c0-8.05,2.81-10.67,7.41-10.67s7.41,2.62,7.41,10.67v4.35ZM503.61,26.39c0,2.62-1.19,3.84-3.27,3.84s-3.27-1.23-3.27-3.84,1.19-3.92,3.27-3.92,3.27,1.3,3.27,3.92h0Z"/>
              <path id="Fill-1" class="cls-1" d="M22.07,77.61c-.6,1.24-1.87,2.03-3.24,2.03-.55,0-1.07-.12-1.57-.36C5.97,73.8,0,64.16,0,51.37v-14.44c0-1.99,1.62-3.6,3.6-3.6s3.6,1.61,3.6,3.6v14.44c0,9.97,4.44,17.18,13.2,21.43,1.78.87,2.53,3.02,1.67,4.81h0ZM11.42,44.15c0,2.04,1.65,3.69,3.69,3.69s3.69-1.65,3.69-3.69V14.7c0-2.04-1.65-3.69-3.69-3.69s-3.69,1.65-3.69,3.69v29.46ZM22.85,43.3c0,2.04,1.65,3.69,3.69,3.69s3.69-1.65,3.69-3.69V3.69c0-2.04-1.65-3.69-3.69-3.69s-3.69,1.65-3.69,3.69v39.61ZM34.28,46.02c0,2.04,1.65,3.69,3.69,3.69s3.69-1.65,3.69-3.69V10.47c0-2.04-1.65-3.69-3.69-3.69s-3.69,1.65-3.69,3.69v35.55ZM45.71,50.73c0,1.98,1.6,3.58,3.58,3.58s3.58-1.6,3.58-3.58v-24.03c0-1.98-1.6-3.58-3.58-3.58s-3.58,1.6-3.58,3.58v24.03Z"/>
            </g>
          </g>
        </g>
      </g>
    </g>
  </g>
</svg>