<?xml version="1.0" encoding="UTF-8"?>
<svg id="Capa_2" data-name="Capa 2" xmlns="http://www.w3.org/2000/svg" viewBox="0 0 199.97 99.88">
  <defs>
    <style>
      .cls-1 {
        fill: #e20613;
        stroke-width: 0px;
      }
    </style>
  </defs>
  <g id="Capa_1-2" data-name="Capa 1">
    <g>
      <path class="cls-1" d="M199.96,88.34v-.77c-2.06-.43-4.08-.91-6.12-1.26-2.25-.38-4.52-.68-6.79-.95-1.33-.16-2.68-.24-4.02-.28-3.01-.09-6.02-.21-9.03-.16-4.58.08-9.15.32-13.7.8-3.26.34-6.52.69-9.77,1.11-2.77.35-5.53.76-8.28,1.2-5.32.86-10.63,1.75-15.94,2.65-4.8.82-9.59,1.7-14.39,2.54-4.14.72-8.28,1.46-12.43,2.14-4.14.67-8.28,1.31-12.43,1.9-3.33.47-6.67.9-10.02,1.25-3.58.37-7.17.68-10.77.93-2.9.2-5.81.26-8.72.37-4.76.17-9.51-.02-14.25-.33-4.31-.28-8.59-.77-12.85-1.44-5.81-.92-11.54-2.22-17.11-4.1-3.86-1.3-7.66-2.77-11.49-4.16-.61-.22-1.23-.43-1.84-.64,0-8.29,0-16.58,0-24.86,2.46,1.49,4.93,2.96,7.39,4.47,4.94,3.02,10.03,5.77,15.29,8.21,2.54,1.18,5.1,2.35,7.72,3.35,3.97,1.51,7.96,2.97,12,4.27,5.44,1.75,10.99,3.11,16.6,4.15,3.68.68,7.39,1.23,11.1,1.74,2.69.37,5.39.63,8.1.85,2.37.2,4.74.32,7.12.4,3.17.11,6.35.25,9.52.22,3.48-.03,6.96-.22,10.45-.38,2.06-.09,4.13-.23,6.19-.39,1.65-.13,3.29-.31,4.93-.5,2.57-.29,5.13-.58,7.69-.92,1.78-.23,3.57-.49,5.34-.8,4.01-.69,8.03-1.37,12.03-2.13,3.2-.61,6.39-1.3,9.57-2.02,3.64-.82,7.27-1.71,10.9-2.57,4.26-1.01,8.51-2.06,12.79-3,3.26-.71,6.54-1.32,9.82-1.86,2.33-.38,4.68-.67,7.03-.83,2.65-.18,5.31-.19,7.96-.25.33,0,.44-.1.43-.43"/>
      <path class="cls-1" d="M156.35,35.58c.66-.46,1.34-.9,1.98-1.39,4.23-3.3,8.09-7,11.69-10.97,1.81-1.99,3.51-4.07,5.24-6.14.33-.39.68-.62,1.19-.64.48-.02.95-.09,1.55-.16-.13.24-.18.38-.26.48-2.04,2.69-4.11,5.35-6.48,7.75-2.9,2.95-5.8,5.91-8.83,8.72-2.44,2.26-5.12,4.24-7.9,6.07-.27.17-.51.46-.64.75-.83,1.93-1.68,3.85-2.4,5.82-.45,1.23-.72,2.53-.99,3.81-.11.53-.09,1.13,0,1.67.16.86.86,1.21,1.63.83.53-.26,1.02-.64,1.46-1.05,1.67-1.53,2.9-3.42,4.16-5.28,2.16-3.22,4.32-6.43,6.82-9.4,1.89-2.24,3.89-4.38,6.34-6.04,1.19-.81,2.47-1.42,3.9-1.74,1.91-.42,3.36.2,4.46,1.77.03.05.07.09.16.18.26-.39.47-.77.75-1.11.13-.16.37-.32.56-.33,1.76-.02,3.52,0,5.27,0,.1,0,.2.03.36.05-.07.18-.11.33-.19.46-1.4,2.38-2.81,4.76-4.22,7.14-1.26,2.14-2.52,4.28-3.79,6.42-1.31,2.21-2.65,4.41-3.93,6.64-.29.5-.47,1.08-.59,1.65-.1.45.16.62.62.49,1.04-.3,1.85-.97,2.63-1.67,1.72-1.57,3.14-3.42,4.54-5.27.47-.62.92-1.26,1.36-1.92.2-.31.44-.43.81-.42.5.03,1,0,1.62,0-.11.25-.16.45-.26.6-2.64,3.86-5.46,7.59-8.94,10.75-1.41,1.29-2.92,2.46-4.71,3.19-.82.33-1.65.57-2.54.43-1.33-.2-2.15-1.04-2.3-2.37-.07-.64-.07-1.28-.1-1.96-.13.11-.27.23-.4.35-1.36,1.28-2.8,2.46-4.48,3.3-1.05.52-2.13.85-3.33.56-1.3-.32-2.18-1.07-2.53-2.39-.22-.84-.34-1.68-.16-2.54.02-.1.02-.21.02-.31,0-.05-.02-.11.06-.05-.48.4-.99.78-1.44,1.22-1.23,1.22-2.45,2.44-3.98,3.3-1.05.59-2.13,1.02-3.37.81-1.67-.28-2.69-1.23-3.08-2.89-.38-1.63-.26-3.26.16-4.83.61-2.31,1.37-4.58,2.07-6.87.08-.26.17-.52.28-.84-.64.09-1.19.17-1.74.25-.13.02-.27.07-.39.05-.79-.13-1.15.32-1.5.94-1.53,2.67-3.13,5.3-5.29,7.53-1.9,1.97-3.86,3.89-6.23,5.3-1.43.86-2.93,1.62-4.7,1.44-1.37-.14-2.41-.8-3.02-2.03-.69-1.4-.68-2.89-.42-4.39.72-4.15,2.53-7.82,4.96-11.22,1.7-2.38,3.6-4.58,5.72-6.58,2.01-1.9,4.14-3.64,6.77-4.61,1.45-.54,2.95-.78,4.42.02,1.01.55,1.56,1.43,1.7,2.55.2,1.62-.02,3.2-.57,4.72-.49,1.36-1.06,2.69-1.59,4.04-.05.12-.09.24-.13.37.06.04.1.09.12.09.9-.22,1.81-.41,2.69-.68.21-.06.39-.35.51-.58,2.21-4.43,4.62-8.76,7.27-12.95,2.77-4.39,6.02-8.41,9.49-12.26,2.81-3.12,5.76-6.11,8.98-8.81,1.83-1.53,3.73-2.96,5.92-3.95,1.34-.6,2.7-.93,4.17-.52.84.24,1.3.77,1.37,1.64.12,1.44-.29,2.78-.82,4.09-.2.49-.4.98-.63,1.47-.06.12-.16.27-.28.31-.7.21-1.42.39-2.25.61.09-.26.14-.43.21-.59.55-1.24,1.11-2.48,1.64-3.73.13-.31.17-.66.21-.99.06-.61-.21-.85-.75-.6-.73.33-1.47.71-2.11,1.19-2.43,1.8-4.56,3.94-6.58,6.19-1.88,2.1-3.74,4.24-5.46,6.47-1.61,2.08-3.07,4.27-4.53,6.46-2.5,3.74-4.76,7.62-6.87,11.59-.08.15-.13.31-.19.46.03.02.06.05.09.07ZM162.96,51.15c-.04.65.7,1.18,1.82.71.22-.09.44-.2.61-.35.53-.47,1.11-.9,1.55-1.45.94-1.15,1.91-2.31,2.7-3.57,2.83-4.54,5.6-9.12,8.38-13.69.33-.55.03-1.07-.62-1.12-1.02-.09-1.82.42-2.57,1.01-1.84,1.44-3.32,3.23-4.79,5.03-2.28,2.78-4.12,5.85-5.75,9.03-.62,1.21-1.22,2.44-1.31,4.4ZM136.07,37.88c-.4.57-.74,1.08-1.1,1.58-1.71,2.36-3.27,4.81-4.3,7.57-.38,1.01-.67,2.05-.62,3.15.05,1.22.99,1.96,2.17,1.69,1.13-.27,2.01-.98,2.84-1.73,2.35-2.1,4.08-4.69,5.68-7.37.31-.52.29-.54-.24-.83-1.4-.75-2.7-1.64-3.65-2.95-.24-.33-.47-.67-.78-1.1ZM144.55,33.8c-.02-.27-.03-.59-.08-.89-.16-.96-.93-2-2.33-1.54-1.49.5-2.64,1.44-3.41,2.79-.49.86-.62,1.81-.32,2.78.47,1.52,1.56,2.46,2.97,3.08.69.3.83.26,1.18-.42.3-.57.6-1.15.87-1.74.59-1.28,1.03-2.61,1.11-4.07Z"/>
      <path class="cls-1" d="M91.05,15.93c.22-1.08.96-1.05,1.73-1.03,1.42.03,2.84,0,4.25,0,.16,0,.32.09.49.13-.06.14-.1.3-.17.43-1.3,2.18-2.61,4.36-3.92,6.54-2.1,3.5-4.2,7-6.29,10.5-.67,1.12-1.34,2.23-1.95,3.38-.2.38-.24.87-.29,1.31-.04.4.25.54.58.39.57-.27,1.2-.5,1.65-.92,1.47-1.37,2.89-2.79,4.27-4.25.92-.98,1.72-2.07,2.58-3.1.11-.13.27-.27.42-.28.56-.04,1.12-.05,1.68-.02.29.01.2.23.09.39-.32.45-.63.89-.96,1.33-2.3,3.08-4.77,6.03-7.56,8.68-1.34,1.28-2.77,2.45-4.42,3.31-.82.43-1.68.71-2.62.75-1.79.06-2.94-1.03-2.98-2.83,0-.42,0-.85,0-1.38-.56.53-1.02,1-1.51,1.44-1.26,1.12-2.64,2.04-4.28,2.53-1.02.31-2.05.3-3.06.05-1.1-.28-1.81-1.28-1.97-2.63-.15-1.35.12-2.65.47-3.94.03-.1.05-.19,0-.36-.14.13-.29.25-.43.38-2.08,2.02-4.26,3.93-6.81,5.35-1.44.81-2.96,1.42-4.63,1.53-2.82.19-5.68-1.64-5.99-5.12-.19-2.1.27-4.1,1.08-6.01.73-1.72,1.63-3.38,2.45-5.06.06-.11.1-.24.18-.44-.2.04-.32.05-.44.08-.53.12-1.06.26-1.6.36-.4.07-.69.26-.92.61-1.19,1.85-2.34,3.74-3.63,5.52-2.65,3.65-5.78,6.8-9.76,9.01-1.08.6-2.23,1.07-3.49.99-2.06-.12-3.57-1.38-4.05-3.42-.4-1.66-.2-3.32.22-4.96.82-3.17,2.35-5.98,4.19-8.65,2.46-3.58,5.28-6.83,8.78-9.43,1.57-1.17,3.23-2.18,5.15-2.68.9-.24,1.81-.28,2.72-.09,1.95.41,3.04,1.77,3.13,3.8.09,2.06-.5,3.97-1.24,5.86-.16.4-.31.81-.47,1.22.04.05.08.09.12.14.78-.36,1.59-.67,2.33-1.08,2.01-1.12,3.64-2.71,5.31-4.26,1.78-1.65,3.55-3.3,5.7-4.48,1.47-.81,3.01-1.38,4.73-1.22,1.54.14,2.78.78,3.52,2.19.44.85.51,1.78.3,2.68-.47,2.08-1.41,3.92-3.08,5.31-.66.55-1.42.8-2.27.44-.78-.33-1.18-1.03-.99-1.86.39-1.71,1.27-3.05,2.99-3.67.31-.11.66-.13,1-.17.25-.03.35-.15.38-.39.15-1.17-.73-1.92-1.91-1.5-.73.26-1.43.65-2.06,1.1-1.92,1.35-3.53,3.06-4.98,4.89-2.45,3.09-4.35,6.5-5.71,10.21-.39,1.06-.62,2.16-.51,3.3.16,1.69,1.59,2.72,3.24,2.28,1.17-.32,2.19-.96,3.14-1.69,2.62-2.01,4.8-4.46,6.86-7.03,2.23-2.79,4.38-5.66,6.68-8.39,1.88-2.23,3.94-4.29,6.4-5.91,1.13-.74,2.32-1.33,3.64-1.67,1.63-.41,2.96.09,4.13,1.2.08.08.17.16.35.33ZM74.27,36.53c0,.95.47,1.39,1.3,1.26.34-.05.71-.18.97-.38.62-.48,1.26-.96,1.74-1.56,1.18-1.48,2.38-2.95,3.37-4.55,2.66-4.26,5.21-8.58,7.8-12.88.39-.65.08-1.19-.68-1.2-.22,0-.44.03-.65.11-1.18.43-2.18,1.13-2.99,2.07-1.24,1.44-2.45,2.91-3.65,4.39-2.46,3.04-4.66,6.25-6.32,9.81-.46.97-.79,1.97-.9,2.93ZM42.7,23.56c-.08.1-.19.22-.28.35-.54.78-1.06,1.57-1.6,2.34-1.43,2.02-2.67,4.15-3.51,6.49-.4,1.11-.73,2.22-.52,3.42.19,1.09,1.15,1.71,2.19,1.37.46-.15.91-.36,1.31-.62,1.56-1.03,2.86-2.35,3.98-3.82,1.3-1.73,2.45-3.58,3.69-5.36.21-.31.14-.44-.15-.56-.11-.05-.22-.08-.33-.12-1.1-.39-2.2-.82-3.07-1.63-.6-.56-1.11-1.21-1.71-1.86ZM51.26,19.56c-.06-.39-.09-.79-.18-1.18-.24-1.04-1.06-1.57-2.09-1.27-1.75.5-3,1.62-3.74,3.28-.59,1.32-.36,2.43.68,3.44.8.78,1.77,1.25,2.88,1.47.43.09.65-.08.8-.42.2-.44.4-.89.59-1.34.54-1.27,1.02-2.55,1.07-3.97Z"/>
      <path class="cls-1" d="M108.19,46.56c.05-.47.09-.95.16-1.42.42-2.62,1.37-5.07,2.48-7.46,1.51-3.25,3.79-5.79,6.86-7.63,1.27-.76,2.64-1.31,4.13-1.5,2.21-.29,4.02,1.01,4.5,3.2.34,1.54.21,3.06-.12,4.57-.59,2.7-1.67,5.2-3.04,7.59-1.72,3.02-3.85,5.72-6.37,8.09-2.66,2.5-5.66,4.46-9.27,5.32-1.79.42-3.6.55-5.4.06-2.88-.79-4.7-2.73-5.7-5.48-1.06-2.9-.94-5.87-.4-8.84.56-3.11,1.69-6.03,3.04-8.86,1.5-3.18,3.34-6.15,5.32-9.05,1.81-2.65,3.78-5.18,5.86-7.62,2.59-3.04,5.43-5.81,8.52-8.32,4.14-3.37,8.6-6.19,13.64-8.02,2.06-.75,4.17-1.09,6.35-.83,1.15.14,2.2.56,3.11,1.29.19.15.32.19.55.09,2.02-.84,4.13-1.27,6.32-1.38,1.76-.09,3.5-.04,5.23.38,2.48.6,4.73,1.73,6.92,2.99,2.37,1.37,4.74,2.72,7.11,4.08.11.06.22.14.37.24-1.53,1.6-3.03,3.17-4.58,4.79-1.34-.8-2.72-1.59-4.07-2.43-2.42-1.51-4.78-3.11-7.24-4.54-1.65-.96-3.42-1.81-5.35-2.04-1.13-.13-2.29.03-3.43.07-.35.01-.35.26-.35.54-.02,1.06.01,2.13-.12,3.18-.22,1.71-.84,3.33-1.6,4.87-1.6,3.23-3.6,6.18-6.3,8.6-1.1.99-2.31,1.79-3.72,2.27-.85.29-1.73.4-2.62.23-1.49-.29-2.35-1.39-2.41-2.91-.08-2.08.68-3.91,1.6-5.7,2.23-4.33,5.64-7.58,9.5-10.42.7-.52,1.42-1.01,2.12-1.52,0,0,0-.03.03-.11-.13-.03-.26-.06-.39-.07-1.33-.12-2.57.19-3.79.7-2.05.85-3.88,2.07-5.67,3.35-2.79,2.01-5.35,4.29-7.76,6.73-2.65,2.68-5.07,5.57-7.29,8.63-2.17,2.98-4.18,6.06-5.96,9.28-1.89,3.41-3.35,6.98-4.3,10.76-.44,1.78-.89,3.57-.75,5.43.12,1.65.51,3.21,1.87,4.3,1.64,1.31,3.48,1.41,5.39.67,2.1-.81,3.78-2.22,5.37-3.77,1.77-1.73,3.36-3.63,4.68-5.72,1.6-2.55,2.82-5.27,3.27-8.27.08-.55.09-1.13.04-1.68-.14-1.42-1.13-1.97-2.51-1.45-1.24.47-2.14,1.35-2.91,2.38-1.37,1.84-2.22,3.93-2.78,6.14-.11.44-.31.69-.74.89-1.85.85-3.5,2.02-5.03,3.36-.68.59-1.31,1.23-1.97,1.85-.07.07-.16.12-.23.18-.05-.02-.1-.03-.15-.05ZM129.98,21.65c1.03-.01,1.86-.53,2.64-1.12,2.32-1.77,4.34-3.83,5.84-6.36,1.58-2.66,2.73-5.47,2.88-8.61.01-.25-.06-.5-.09-.76-.24.09-.5.14-.72.27-2.32,1.3-4.39,2.94-6.22,4.87-2.08,2.2-3.92,4.57-5.16,7.37-.42.96-.76,1.93-.65,2.99.1.93.56,1.34,1.49,1.34Z"/>
      <path class="cls-1" d="M90.91,59.13c-.12-.08-.24-.15-.36-.23-2.08-1.45-4.37-2.45-6.79-3.18-2.49-.74-5.03-1.03-7.61-.94-2.77.1-5.06,1.26-6.9,3.33-.17.2-.31.42-.52.7-.16-.26-.27-.47-.4-.67-1.4-2.05-3.26-3.52-5.57-4.43-3.26-1.29-6.66-1.46-10.11-1.21-4.53.33-8.93,1.32-13.31,2.43-3.36.85-6.72,1.72-10.14,2.28-2.57.43-5.16.67-7.76.35-3.92-.48-7.2-2.14-9.54-5.4-1.43-1.99-2.19-4.25-2.41-6.68-.35-3.93.23-7.75,1.37-11.51,1.14-3.76,2.84-7.26,4.93-10.58,2.98-4.73,6.57-8.95,10.7-12.71,2.68-2.44,5.52-4.69,8.63-6.56,2.77-1.67,5.68-3.02,8.86-3.73,1.74-.39,3.51-.58,5.26-.14,2.33.59,3.86,3.13,3.31,5.48-.47,2.03-1.44,3.81-2.97,5.25-.34.32-.75.58-1.17.78-1.41.65-2.62-.11-2.69-1.67-.03-.76.17-1.47.57-2.11.8-1.27,1.81-2.26,3.43-2.34.52-.03.67-.21.71-.73.09-1.15-.54-1.9-1.69-2.01-1.27-.12-2.43.3-3.56.77-2.69,1.12-5.01,2.82-7.19,4.72-3.22,2.8-6.11,5.92-8.76,9.27-2.14,2.72-4.1,5.56-5.83,8.57-1.61,2.82-3.03,5.72-4.07,8.8-.92,2.74-1.7,5.52-1.66,8.45.03,2.17.37,4.27,1.52,6.16,1.3,2.14,3.2,3.48,5.59,4.14,2.59.72,5.21.72,7.86.39,3.05-.38,6.04-1.05,9.03-1.75,2.89-.68,5.76-1.42,8.64-2.13,4.04-1,8.12-1.85,12.26-2.25,3.41-.33,6.84-.47,10.24.13,3.7.65,7.12,1.99,10.25,4.08,2.48,1.66,4.88,3.44,7,5.56.36.36.65.77.98,1.16-.05.05-.09.09-.14.14Z"/>
      <path class="cls-1" d="M197.73.21c-.08.18-.13.37-.23.54-1.47,2.44-3.14,4.72-5.17,6.73-2.84,2.83-6.03,5.16-9.79,6.64-3.56,1.41-7.23,1.89-11.03,1.3-.16-.02-.31-.14-.46-.21.07-.15.11-.34.22-.46,1.26-1.43,2.52-2.86,3.8-4.27.13-.14.39-.23.58-.22,2.51.16,4.96-.17,7.33-.94,1.68-.55,3.31-1.26,4.9-2.03,3.57-1.73,6.68-4.11,9.46-6.93.08-.09.18-.16.28-.23.03.02.07.05.1.07Z"/>
      <path class="cls-1" d="M107.56,15.02c-.86,1.39-1.67,2.7-2.47,4-.04.06-.09.12-.12.19-.3.88-.91,1.09-1.8,1.03-1.32-.08-2.65-.02-3.98-.02-.17,0-.34-.04-.59-.08.29-.48.53-.9.78-1.31.74-1.21,1.47-2.42,2.23-3.62.09-.14.31-.29.47-.29,1.61-.02,3.22,0,4.82,0,.2,0,.39.05.66.09Z"/>
      <path class="cls-1" d="M183.68,55.63c0,1.15-.74,1.92-1.87,1.92-1.18,0-2.02-.87-2.01-2.08,0-.95.93-1.91,1.82-1.94,1.18-.04,2.31,1,2.07,2.1ZM183.34,55.61c.08-.95-.75-1.61-1.54-1.66-.81-.05-1.61.8-1.63,1.67-.02.8.63,1.46,1.46,1.48.96.02,1.7-.62,1.72-1.49Z"/>
      <path class="cls-1" d="M183.34,55.61c-.02.87-.76,1.51-1.72,1.49-.82-.02-1.47-.68-1.46-1.48.02-.87.82-1.72,1.63-1.67.8.05,1.62.72,1.54,1.66ZM182.38,56.68c.07,0,.14-.01.21-.02,0-.22,0-.44,0-.65,0-.13-.06-.26-.05-.39.12-1.03.12-1.03-.89-1.14-.04,0-.09,0-.13-.02-.42-.13-.59.1-.61.46-.02.45-.02.91.02,1.37.01.13.17.26.25.39.09-.13.18-.26.27-.38.1-.14.2-.29.3-.43.15.12.32.22.43.37.1.12.13.3.2.45Z"/>
      <path class="cls-1" d="M182.38,56.68c-.06-.15-.1-.33-.2-.45-.12-.15-.29-.25-.43-.37-.1.14-.2.29-.3.43-.09.13-.18.26-.27.38-.09-.13-.24-.25-.25-.39-.04-.45-.04-.91-.02-1.37.02-.36.2-.59.61-.46.04.01.09.02.13.02,1.01.11,1.01.11.89,1.14-.01.13.04.26.05.39,0,.22,0,.44,0,.65-.07,0-.14.01-.21.02ZM181.77,54.68c-.15.22-.3.34-.29.46,0,.1.22.3.28.28.15-.04.26-.2.39-.31-.1-.11-.2-.22-.38-.43Z"/>
      <path class="cls-1" d="M181.77,54.68c.18.2.28.31.38.43-.13.11-.24.26-.39.31-.07.02-.28-.17-.28-.28,0-.11.14-.24.29-.46Z"/>
    </g>
  </g>
</svg>