<?xml version="1.0" encoding="UTF-8"?>
<svg id="Capa_2" data-name="Capa 2" xmlns="http://www.w3.org/2000/svg" viewBox="0 0 324.97 165.79">
  <defs>
    <style>
      .cls-1 {
        fill: #243588;
      }

      .cls-1, .cls-2, .cls-3 {
        stroke-width: 0px;
      }

      .cls-2 {
        fill: #fff;
      }

      .cls-3 {
        fill: #e42313;
      }
    </style>
  </defs>
  <g id="Capa_1-2" data-name="Capa 1">
    <g>
      <path class="cls-2" d="M.16,144.38l-.16-83.97C123.58,14.38,268.57,18,268.57,18l9.03-13.8c1.75-2.67,4.39-4.2,7.25-4.2s5.51,1.53,7.25,4.2l30.76,46.99c2.8,4.28,2.8,10.73,0,15.01l-30.76,46.99c-1.74,2.67-4.39,4.2-7.25,4.2-2.86,0-5.51-1.53-7.25-4.2,0,0-3.22-4.91-7.56-11.55,0,0-143.29-4.64-269.88,42.74Z"/>
      <path class="cls-1" d="M267.47,96.99c-130.42-.74-225.95,27.13-262.59,40.68l-.15-74.06c36.51-13.49,131.72-40.84,261.16-40.98-8.62,13.17-18.68,28.56-18.68,28.56-1.38,2.11-2.07,4.76-2.07,7.41s.69,5.3,2.07,7.41c0,0,11.35,17.35,20.26,30.97Z"/>
      <g>
        <path class="cls-2" d="M83.42,97.08l-6.09,1.35c-.31-.03-7.54-.26-7.55-11.66-.02-6.54-.03-17.86-.02-23.51,0-2.7-1.51-4.29-1.51-4.29l9.54-2.21.04,27.84c0,10.34,5.6,12.48,5.6,12.48Z"/>
        <path class="cls-2" d="M95.12,88.37c-.34,1.38-1.02,2.2-2.05,2.42-1.09.24-1.78-.22-2.08-1.38-.31-1.16-.98-4.15-.97-8.97-.02-4.93.63-8.05.93-9.37.28-1.31.97-2.1,2.08-2.35,1.15-.25,1.86.19,2.13,1.33.28,1.14.68,4.19.69,9.15.02,4.72-.41,7.79-.72,9.17M101.34,65.8c-1.7-2.2-4.53-2.83-8.48-1.89-3.7.88-6.47,2.82-8.25,5.81-1.77,2.98-2.66,7.19-2.66,12.6s.93,9.02,2.76,11.25c1.84,2.23,4.56,2.9,8.19,2.05,3.72-.87,6.48-2.79,8.3-5.75,1.81-2.96,2.68-7.2,2.68-12.73s-.85-9.15-2.55-11.33Z"/>
        <path class="cls-2" d="M57.93,96.87c-.34,1.38-1.02,2.19-2.05,2.42-1.09.24-1.78-.22-2.08-1.38-.31-1.16-.98-4.15-.98-8.97-.02-4.94.63-8.05.93-9.37.28-1.31.97-2.1,2.08-2.35,1.15-.25,1.86.18,2.13,1.33.28,1.14.68,4.19.69,9.14.02,4.73-.41,7.79-.72,9.18M64.15,74.3c-1.7-2.19-4.53-2.82-8.48-1.89-3.7.88-6.47,2.82-8.25,5.82-1.78,2.98-2.66,7.19-2.66,12.6,0,5.26.93,9.02,2.76,11.25,1.84,2.23,4.56,2.89,8.19,2.05,3.72-.88,6.49-2.8,8.3-5.75,1.81-2.96,2.68-7.21,2.68-12.73s-.84-9.15-2.55-11.33Z"/>
        <path class="cls-2" d="M129.36,63.32v25.33s-8.06,1.27-8.06,1.27l-.02-23.2c0-.57-.1-1.59-.94-2.01-.9-.44-2.87-.16-4.22.61l.02,25.44-8.06,1.43s.01-14.34,0-18.9c-.01-9.59-4.59-11.07-4.59-11.07l11.01-1.97.72,1.59c2.13-1.73,5.39-2.98,8.67-2.98,2.42,0,3.6,1.33,3.98,1.81,2.69-3.25,8.22-4.88,11.94-3.04,2.34,1.16,2.72,3.57,2.72,5.26,0,0,.01,10.89.03,16.13.02,6.57,2.1,7.33,2.1,7.33l-10.16,1.48-.03-23.21c0-1.17-.63-1.86-1.32-2.11-.69-.25-2.45-.11-3.78.81Z"/>
        <path class="cls-2" d="M193.22,51.58l-.58-1.37-6.51.68.04,30.82,8.06-.68-.05-25.86c2.09-.85,3.65-.73,4.43-.33.5.26,1.03.87,1.03,2.08l.06,23.66,10.48-.68s-2.48-1.66-2.48-6.89c.02-2.33,0-17.09,0-17.09,0-3.61-1.8-5.85-4.69-6.44-2.87-.58-6.48-.04-9.79,2.09Z"/>
        <path class="cls-2" d="M181.23,82.17l-8.05.79s-.04-21.32-.04-22.67c0-6.52-2.44-7.83-2.44-7.83l10.49-1.07.05,30.78Z"/>
        <path class="cls-2" d="M182.59,40.86c-3.66,3.18-5.55,7.74-5.55,7.74,0,0-1.74-4.58-5.56-6.8,3.92-3.42,5.49-7.45,5.49-7.45,0,0,1.94,4.12,5.61,6.51Z"/>
        <path class="cls-2" d="M168.7,66.54c.02,6.07-.21,10.43-3.01,14.4-3.15,4.1-10.51,5.46-14.6,4.03-3.99-1.18-3.78-5.06-3.93-6.71,0,0,.12-25.73.13-28.14,0-3.49-2.1-5.36-2.1-5.36l10.07-1.3v12.01c.56-.53,6.2-4.49,10.61-1.43,2.42,1.66,2.83,4.72,2.84,12.51M160.07,59.4c-1.98-1.64-4.88.68-4.91.7-.01.02.01,19.9.01,19.9,1.79.62,3.62-.03,4.51-1.34,1.6-2.59,1.72-5.8,1.71-10.41,0-6.02-.31-8.01-1.33-8.85Z"/>
        <path class="cls-2" d="M235.38,71.77v-17.64c0-5.28,0-7.47,0-7.47,0,0-1.59,1.33-3.37,1.78-2.31.58-2.83-.87-6.57-.72-9.55.38-13.42,8.76-13.42,18.45,0,4.43,1.39,8.16,3.39,10.63,1.77,2.19,7.58,5.45,12.13-.99.09,1.27.25,2.4.58,3.16l9.81-.34s-2.64-1.76-2.56-6.87M222.98,73.14c-1.72-.4-2.81-4.21-2.81-9.18s1.81-9.7,3.87-10.94c1.21-.73,2.98-.25,3.39.29v7.34c0,1.21.04,8.1.04,10.68-.96,1.13-2.46,2.27-4.49,1.8Z"/>
        <path class="cls-2" d="M44.13,104.56s-1.3-2.99-1.56-5.74c-2.18,2.26-3.68,3.56-6.35,4.06-4.82.89-6.22-3.69-6.7-6.92-.26-1.75-.27-.72-.47-7.41-.18-5.8.75-9.66.75-9.66,0,0,.66-4.5,3.91-6.23,4.88-2.61,10.34,3.46,10.34,3.46-.21-.17-.03-7.67-.03-7.67,0,0-4.83-3.44-10.13-2.81-12.36,1.46-15.61,14.23-15.61,24.88,0,7.33,2.09,13.16,4.79,16.3,2.54,2.95,12.38,7.12,21.06-2.25Z"/>
      </g>
      <path class="cls-3" d="M318.88,53.7c1.8,2.75,1.8,7.25,0,10l-30.75,46.99c-1.8,2.75-4.75,2.75-6.55,0l-30.75-46.99c-1.8-2.75-1.8-7.25,0-10l30.75-46.99c1.8-2.75,4.75-2.75,6.55,0l30.75,46.99Z"/>
      <path class="cls-2" d="M290.24,59.23c-.63-.51-1.91-1.6-2.76-2.57l-.06-.06-.07-.06c-.91-.81-2.09-2.57-2.87-3.75-.23-.33-.4-.58-.54-.8-.19-.28.05-.44.13-.52.35-.25.65-.66.69-1.21v-.12c0-.54-.26-.99-.64-1.37.28-.08.67-.16.92-.36.62-.5.63-1.18.68-1.55.06-.4.2-.72.33-.79.32-.18.77-.32.92-.66.25-.58-.18-1.03-.55-1.7-.06-.12-.17-.56-.17-.56.9-.37,1.86-1.15,1.86-2.28,0-.48-.01-2.98-2.86-3.94-.91-.31-1.74-.68-2.31-.97,3.77-3.53,9.06-5.72,14.69-5.72.32,0,.65,0,.97.02-3.53-1.57-7.36-2.53-11.48-2.53-15.52,0-28.09,12.33-28.09,27.54,0,13.74,10.27,25.13,23.69,27.2,0,0-.36.62-.36,1.39,0,1.13.61,2.05.98,2.73.24.4.3.76.27,1.26-.05.99.43,1.92.43,1.92.29.59.48,1.12.78,1.55.49.76,1.37,1.07,2.11.86.69-.2,1.13-.81,1.13-1.55v-.03c0-.56.05-3.56.9-5.34.27-.56.79-1.49,1.45-2.63,10.29-1.17,18.88-7.78,22.68-16.84-3.9,3.97-9.38,6.45-15.45,6.45-.29,0-.48-.01-.78-.02,1.91-3.8-.2-5.45-.66-5.62,3.38-7.69-4.99-7.4-5.97-7.35ZM277.83,43.98s0,0,0,0h0Z"/>
      <path class="cls-1" d="M294.3,67.31c2.6.84,2,3.41.92,4.94-1.05,1.53-6.41,10.28-7.54,12.61-.96,2.01-1.03,5.16-1.03,5.92,0,.44-.48.41-.74,0-.27-.39-.44-.9-.68-1.42-.59-.97.02-1.97-.78-3.32-.09-.16-.24-.39-.35-.58-.88-1.53-.04-2.51.47-2.53.51-.01,1.16-.23,1.31-.36,1.71-1.48,2.79-7.4,2.79-7.4-1.43.67-3.86,6.69-3.86,6.69-.76.51-.83-1.44-1.05-2.32-.21-.89.57-1.57.46-2.59.01-.54-.18-1.63-.17-2.39.01-.77.47-.73.71-.77.24-.04,1.23.15,1.43.19.48.02.54-.39.54-.39.37-1.17,1.59-2.69,1.59-2.69-.84-.44-2.43-.04-2.43-.04-12.54,6.75-18.35-7.94-18.35-7.94,1.71.4,2.95.61,5.11,0,2.13-.61,3.75-2.41,3.75-2.41-.36-2.4-1.25-6.18-.87-7.97.02-1.5,1.2-2.91,1.66-3.93.33-.66-.04-1.12-.04-1.12-.07-.1-.1-.18-.07-.3.04-.13.1-.31.16-.43.08-.19.12-.25.25-.2.04,0,.43.15.43.15.31-.8-.38-1.64-1.07-2.47-.68-.81-1.03-3.14-1.03-3.14-.72.13-.82-.35-.82-.35-.57.84.06,2.69.25,3.56.06.28.13.64.14,1.01,0,1.14-.87,2.06-1.95,2.06s-1.95-.92-1.95-2.06c0-.12,0-.25.02-.36.35.47.89.68,1.34.49.38-.16.59-.57.59-1.03,0-.87-.18-2.15-.29-3.3-.14-1.75,1.8-1.49,1.8-1.49.2-.94,1.83-.8,1.83-.8.83-1.07,1.92-1.97,3.47-2.11,1.51-.18,2.61.76,2.61.76,4.06.56,4.08,2.7,4.03,3.57-.04.87-1.15,1.13-1.15,1.13-.32.47-.8.51-.8.51,0,0,.09.7.11.77.02.06.05.29.11.41.12.22.51.77.56.82.1.11.07.36-.17.42-.19.05-.24.09-.31.09-.06.01-.16.05-.13.2.03.15.04.23.04.27,0,.05.04.1-.11.11-.15.02-.49.05-.49.05,0,0,.26.26.3.31.05.05.1.05.01.11-.06.04-.18.16-.22.37-.05.28-.02.64-.3.87-.47.39-1.46.06-2.45-.03-.73-.08-.22.97-.22.97.27.14,1.56.79,1.61,1.73.04.7-.58.48-.91,1.24-.15.34-.14.73,0,.97.37.55,2.47,3.92,4.03,5.32,1.26,1.43,3.32,3.05,3.32,3.05,6.54-.32,5.79,2.99,5.52,4.09-.27,1.07-.93,2.47-.93,2.47M287.03,61.45c-.35-.38-1.23-1.28-1.76-1.73-.7-.59-1.76-1.67-1.76-1.67,0,0-.28,1.9-.98,2.57,0,0,.65,1.68.61,2.41,0,0,.5-.43,2.38-1.06.83-.31,1.62-.41,1.5-.52Z"/>
      <g>
        <path class="cls-2" d="M17,116.18c-3.39,0-6.17,2.71-6.17,6.07s2.78,6.08,6.17,6.08,6.21-2.73,6.21-6.08-2.76-6.07-6.21-6.07M17,127.64c-3.02,0-5.48-2.41-5.48-5.38s2.46-5.39,5.48-5.39,5.51,2.41,5.51,5.39-2.46,5.38-5.51,5.38Z"/>
        <path class="cls-2" d="M20.11,120.65c0-.96-.72-2.19-2.57-2.19h-3.17v7.43h1.61v-3.08h1.23l1.43,3.08h1.7l-1.59-3.39c.82-.32,1.36-1.06,1.36-1.86M16.7,121.56h-.72v-1.82h.61c.79,0,1.87-.09,1.87.93,0,.92-1.06.89-1.76.89Z"/>
      </g>
      <g>
        <path class="cls-1" d="M40.35,143.58l.04,2.3-6.12,1.54-.1,6.42,5.69-1.37v2.03s-5.66,1.44-5.66,1.44v6.81s6.58-1.56,6.58-1.56l.04,2.14-10.09,2.46-.02-19.93,9.64-2.28Z"/>
        <path class="cls-1" d="M46.84,142.03l.32,19.78-3,.63-.32-19.78,3.01-.62Z"/>
        <path class="cls-1" d="M63.59,145c-.55-.08-1.37-.19-2.29.02-1.31.3-1.96,1.18-1.76,2.08.13.59.51.97,1.83,1.85l.55.37c1.39.95,2.68,1.83,3.06,3.48.44,1.96-.52,4.68-4.13,5.5-2.01.46-3.48-.03-4.01-.17l.44-1.8c.6.18,1.72.46,3.04.16,1.43-.32,2.04-1.37,1.79-2.43-.2-.87-.85-1.3-2.14-2.19l-.59-.4c-1.95-1.32-2.49-2.14-2.72-3.14-.5-2.18,1.19-4.45,4.07-5.11.34-.08,1.57-.36,3.17-.04l-.32,1.83Z"/>
        <path class="cls-1" d="M78.05,153.78l-2.92.61-.02-4.15c-.38,1.27-1.38,4.74-4.19,5.32-1.77.37-3.33-.65-3.88-3.29-.86-4.1.89-11.14,6.73-12.36,1.41-.29,2.74-.22,4.18.09l.1,13.78ZM73.67,141.75c-3.12.65-4.01,6.75-3.37,9.84.07.34.35,1.68,1.53,1.44,1.26-.27,1.93-2.28,2.1-2.99.4-1.58.89-4.29.92-8.33-.21-.05-.63-.08-1.19.04Z"/>
        <path class="cls-1" d="M84.46,131.13l.17,10.56c.71-2.39,2.03-4.55,4.1-5.01,2.05-.44,3.44,1.1,3.88,3.09.96,4.39-.72,11.31-6.58,12.59-2.1.46-3.75.17-4.37.04l-.39-20.58,3.19-.7ZM85.98,150.55c3.61-.79,3.76-7.9,3.32-9.91-.12-.53-.47-1.63-1.48-1.4-.95.21-1.63,1.53-2.01,2.61-1.01,2.89-1.09,7.19-1.08,8.75.4.06.78.06,1.25-.04Z"/>
        <path class="cls-1" d="M100.85,134.51c3.07-.61,5.11,1.12,5.69,4.04.75,3.77-.59,9.97-5.74,10.99-2.84.57-5.16-1.08-5.78-4.23-1.02-5.15,1.75-10,5.83-10.81ZM100.74,147.8c2.84-.57,2.68-7.55,2.28-9.57-.19-.98-.8-2.24-2.09-1.98-2.67.53-2.96,6.58-2.36,9.59.06.31.46,2.31,2.17,1.97Z"/>
        <path class="cls-1" d="M112.73,132.83l-.08,5.29c.44-2.21,1.56-5.85,3.73-6.25.25-.04.46-.02.64-.03l-.05,2.93c-.29.02-.38-.02-.78.05-2.46.45-3.65,7.34-3.57,12.43l-3.1.56.23-14.44,2.99-.54Z"/>
        <path class="cls-1" d="M135.15,141.61c-1.87,1.57-3.37,2.53-5.22,2.82-2.32.37-4.45-.78-4.92-3.78-.69-4.42,2.52-10.76,7.14-11.48,2.24-.36,3.16.92,3.35,2.11.57,3.66-3.77,5.38-7.1,6.16-.34,2.84.13,5.12,2.09,4.81.74-.11,1.69-.5,3.48-2.05l1.18,1.41ZM132.92,131.88c-.12-.76-.59-1.01-1.13-.92-1.05.16-2.5,1.81-3.2,4.94,2.21-.52,4.68-1.78,4.33-4.02Z"/>
        <path class="cls-1" d="M145.02,129.68c-.54-.12-1.35-.3-2.28-.17-1.34.19-2.06,1.01-1.93,1.92.08.59.43,1.01,1.67,1.99l.52.42c1.31,1.06,2.52,2.05,2.75,3.72.28,1.99-.91,4.62-4.57,5.14-2.04.29-3.46-.32-3.98-.51l.59-1.76c.59.24,1.68.6,3.01.42,1.45-.21,2.15-1.2,1.99-2.28-.13-.88-.74-1.37-1.95-2.36l-.56-.44c-1.83-1.48-2.3-2.34-2.45-3.36-.31-2.22,1.56-4.33,4.49-4.75.34-.04,1.59-.22,3.16.22l-.47,1.8Z"/>
        <path class="cls-1" d="M159.5,125.75l-.11,14.4-3.19.38.11-14.4,3.19-.39ZM160.14,121.74l-2.18,2.06-2.13-2.39,2.19-2.04,2.12,2.37Z"/>
        <path class="cls-1" d="M166.47,124.78l-.12,4.14c.39-1.09,1.55-4.57,4.52-4.88,3.29-.34,3.31,2.97,3.27,4.39l-.27,9.93-3.2.42.25-9.98c.04-1.45-.13-2.42-1.12-2.32-1.44.15-2.46,3.12-2.62,3.84-.6,2.54-.79,5.11-.9,8.83l-3.11.4.34-14.45,2.97-.31Z"/>
        <path class="cls-1" d="M184.42,117.91c-.24-.04-.65-.11-1.1-.08-1.42.12-1.72,1.37-1.79,3.31l-.09,2.01,2.39-.21-.06,1.8-2.39.21-.39,9.15c-.21,4.74-.4,8.9-4.83,9.28-.74.07-1.18-.01-1.56-.07l.1-1.75c.3.03.65.09,1.07.05,1.84-.16,2.16-2.01,2.25-6.76l.2-9.63-2.1.18.06-1.8,2.05-.18.1-1.8c.05-1.48-.05-5.15,4.26-5.52.91-.08,1.35-.03,2,.09l-.17,1.72Z"/>
        <path class="cls-1" d="M189.72,122.35l-.51,14.25-3.21.4.51-14.41,3.21-.24ZM190.49,118.38l-2.24,1.96-2.07-2.48,2.25-1.93,2.06,2.45Z"/>
        <path class="cls-1" d="M196.68,121.72l-.17,4.12c.4-1.07,1.6-4.49,4.59-4.66,3.3-.19,3.29,3.1,3.23,4.52l-.39,9.8-3.22.27.36-9.85c.05-1.45-.1-2.42-1.1-2.37-1.45.08-2.5,3-2.67,3.7-.63,2.49-.85,5.05-1,8.76l-3.13.26.5-14.38,2.99-.17Z"/>
        <path class="cls-1" d="M211.41,120.76l-.34,14.26-3.22.21.34-14.35,3.22-.12ZM212.21,116.82l-2.25,1.87-2.08-2.54,2.25-1.85,2.07,2.52Z"/>
        <path class="cls-1" d="M219.57,116.51l-.12,3.77,2.46-.06-.05,1.79-2.48.07-.27,8.7c-.04,1.82.27,1.95.84,1.94.51-.01,1.02-.23,1.57-.53l.94,1.68c-.51.21-1.84.85-3.47.9-1.71.05-3.23-.84-3.14-3.37l.3-9.22-2.02.05.05-1.79,2.23-.06.12-3.78,3.06-.08Z"/>
        <path class="cls-1" d="M229.79,119.69c3.12-.03,5.16,2.05,5.71,5.03.71,3.85-.75,9.69-5.98,9.73-2.89.02-5.22-2.02-5.81-5.23-.97-5.25,1.93-9.49,6.08-9.53ZM229.48,132.73c2.89-.03,2.83-6.92,2.45-8.99-.18-1-.77-2.35-2.09-2.33-2.72.02-3.1,5.92-2.54,8.98.06.31.43,2.35,2.18,2.34Z"/>
      </g>
    </g>
  </g>
</svg>