<?xml version="1.0" encoding="UTF-8"?>
<svg id="Capa_2" data-name="Capa 2" xmlns="http://www.w3.org/2000/svg" viewBox="0 0 458.56 108.55">
  <defs>
    <style>
      .cls-1 {
        fill: #b31f24;
      }

      .cls-1, .cls-2, .cls-3 {
        stroke-width: 0px;
      }

      .cls-2 {
        fill: #0a9748;
      }

      .cls-3 {
        fill: #005696;
      }
    </style>
  </defs>
  <g id="Capa_1-2" data-name="Capa 1">
    <g>
      <path class="cls-2" d="M0,30.38c.12-1.21.22-2.42.36-3.62.7-6.23,3.02-11.75,7.15-16.5C12.48,4.54,18.89,1.65,26.25.46c6.53-1.05,12.81.03,19.04,1.85,1.25.37,2.52.84,3.89.39,1.11-.37,2.02-.98,2.47-2.08.33-.83.97-.6,1.54-.58.62.01.47.55.49.91.11,1.88.22,3.76.26,5.64.01.71.19.95.94.93,4.57-.13,9.08.33,13.34,2.04,9.5,3.82,16.25,10.32,19.21,20.33,1.02,3.45,1.11,7.02.87,10.57-.28,4.1-1.31,8.03-3.09,11.76-2.99,6.27-7.81,10.62-14.1,13.4-4.5,1.99-9.26,2.98-14.16,3.26-1.3.08-2.59.15-3.89.18-.66.02-.96.3-.95.96.03,5.33,0,10.67.08,16,.03,2.36.12,4.72.37,7.07.31,2.78.76,5.55,1.28,8.31.28,1.49,1.27,2.52,2.72,3.09,2.35.93,4.81,1.23,7.3,1.4,1.55.11,1.99.66,1.55,2.15-.04.15-.27.3-.44.35-.22.06-.47.03-.71.03-12.26,0-24.52,0-36.78,0-.19,0-.41.06-.55-.02-.23-.14-.56-.37-.56-.56,0-1.81-.33-1.84,1.54-2.05,1.95-.22,3.9-.71,5.78-1.3,1.95-.62,3.1-2.1,3.33-4.16.36-3.23.81-6.47.93-9.72.24-6.6.31-13.21.42-19.81.03-1.67-.03-3.34-.08-5.01-.02-.62.2-.84.83-.83,2.78.02,5.57.1,8.35-.02,4.93-.22,9.84-.71,14.52-2.39,4.92-1.76,8.39-5.19,10.66-9.83,2.78-5.68,3.47-11.73,2.92-17.96-.46-5.22-1.99-10.08-5-14.39-3.41-4.88-7.97-7.99-14.01-8.66-.75-.08-1.51-.15-2.19-.22,0,1.58-.01,3.06,0,4.53.01,1.09.06,2.17.11,3.26.02.45-.19.6-.61.63-1.15.08-1.17.03-1.62-1.02-.88-2.07-1.84-4.1-2.74-6.16-.31-.72-.75-.85-1.5-.67-5.28,1.26-9.85,3.81-13.79,7.53-.36.34-.73.69-1.32,1.25-.39-.51-.8-.94-1.08-1.44-.11-.2-.02-.64.14-.84,1.53-1.97,3.43-3.54,5.43-4.99,2.61-1.9,5.44-3.38,8.53-4.36.15-.05.3-.1.45-.17.04-.02.06-.08.22-.29-1.18-.91-2.29-1.95-3.56-2.69-5.15-3.01-10.65-3.42-16.24-1.6-3.65,1.19-6.32,3.83-8.6,6.82-2.93,3.84-4.45,8.26-5.15,13-.47,3.19-.62,6.39-.43,9.59.35,6.04,2.02,11.62,6.05,16.31,2.82,3.28,6.09,5.91,10.44,6.87,3.49.77,6.99.64,10.48-.1,5.22-1.1,9.55-3.82,13.43-7.36,1.17-1.06.9-1.21,2.12.07.14.15.28.32.49.57-.52.6-1.01,1.22-1.56,1.77-4.42,4.45-9.64,7.5-15.81,8.81-3.37.72-6.78.76-10.21.46-3.69-.33-7.27-1.11-10.69-2.54-5.65-2.36-10.02-6.18-13.13-11.45C1.58,42.87.32,38.08.17,32.98.15,32.59.06,32.2,0,31.82c0-.48,0-.96,0-1.43Z"/>
      <path class="cls-3" d="M458.56,88.98c-.09.29-.2.59-.28.88-.77,2.91-2.78,4.71-5.5,5.59-5.82,1.9-11.23,1.05-16.17-2.86.92-1.07,1.79-2.08,2.63-3.06,1.1.56,2.1,1.25,3.21,1.61,2.99.96,6.03,1.22,8.99-.14,1.52-.7,2.15-2,1.82-3.34-.21-.88-.81-1.45-1.58-1.77-1.64-.68-3.29-1.33-4.97-1.87-2.1-.68-4.13-1.45-6.07-2.53-4.26-2.36-4.18-9-.47-11.73,2.75-2.02,5.87-2.42,9.15-2.21,2.6.17,4.97,1,7.08,2.54.4.29.76.64,1.21,1.02-.93,1.08-1.83,2.12-2.72,3.15-2.91-2.29-6.14-2.73-9.59-1.89-.64.16-1.27.54-1.81.95-1.22.95-1.35,2.59-.2,3.59.82.71,1.81,1.3,2.82,1.7,2.61,1.03,5.3,1.85,7.9,2.89,2.19.87,3.64,2.5,4.3,4.8.09.3.17.6.26.9v1.75Z"/>
      <path class="cls-3" d="M130.26,81.57c2.42,2.54,4.89,5.12,7.43,7.79-.82.74-1.56,1.49-2.37,2.15-3.65,2.97-7.84,4.66-12.5,5.28-4.83.64-9.56.33-14.2-1.23-4.72-1.59-8.51-4.46-11.48-8.43-2.55-3.41-3.93-7.28-4.48-11.49-.6-4.62-.29-9.15,1.26-13.56,2.29-6.54,6.7-11.17,13-13.94,4.89-2.15,10.05-2.63,15.34-1.99,4.72.57,8.96,2.28,12.74,5.13.78.59,1.52,1.24,2.23,1.92.15.14.22.64.11.76-2.36,2.51-4.75,5-7.04,7.38-.58-.51-1.1-.99-1.64-1.45-1.94-1.64-4.26-2.44-6.72-2.86-3.39-.57-6.69-.26-9.65,1.62-3.19,2.01-5.09,4.99-5.85,8.65-.95,4.56-.65,8.99,1.9,13.03,2.82,4.46,7.04,6.16,12.18,5.75,2.45-.2,4.82-.83,6.91-2.16.99-.63,1.83-1.49,2.83-2.33Z"/>
      <path class="cls-3" d="M161.79,97.28c-4.57-.15-8.8-1.2-12.54-3.86-4.22-3-6.66-7.1-7.33-12.23-.49-3.78-.13-7.48,1.54-10.94,2.68-5.53,7.2-8.76,13.15-10.03,4.25-.91,8.52-.81,12.62.64,6.77,2.4,11.09,7.04,12.27,14.28.65,3.97.29,7.85-1.49,11.48-2.55,5.23-6.8,8.45-12.42,9.79-1.89.45-3.86.59-5.79.87ZM169.01,77.97c.04-1.16-.28-2.69-.97-4.16-2.11-4.44-8.02-5.38-11.37-1.78-2.91,3.11-2.93,9.48-.05,12.63,2.58,2.81,6.86,3.09,9.71.56,2.02-1.79,2.69-4.18,2.69-7.25Z"/>
      <path class="cls-3" d="M202.17,85.53c1.84,2.43,3.65,4.8,5.49,7.23-1.78,1.88-3.78,3.31-6.29,3.88-4.28.98-8.28.5-11.75-2.42-2.33-1.96-3.52-4.53-3.76-7.54-.08-1.06-.09-2.12-.1-3.18,0-12.42,0-24.83,0-37.25,0-1.62-.08-1.33,1.38-1.34,3.21-.01,6.42,0,9.63,0,.29,0,.57,0,.95,0v1.09c0,12.79,0,25.58,0,38.37,0,1.6.88,2.54,2.35,2.41.49-.04.96-.37,1.41-.62.24-.13.43-.37.69-.61Z"/>
      <path class="cls-3" d="M217.08,94.73c0,.5,0,.81,0,1.12,0,3.9-.02,7.8.02,11.7,0,.75-.17,1.03-.97.99-1.22-.07-2.44-.05-3.66,0-.61.02-.79-.2-.77-.78.03-.87,0-1.75,0-2.63,0-11.99,0-23.99,0-35.98,0-1.42.03-1.13,1.17-1.15,1.06-.01,2.12,0,3.18,0q1.02,0,1.02,1.06c0,1.24,0,2.49,0,3.93.55-.69.94-1.26,1.4-1.76,2.74-2.93,6.19-3.96,10.09-3.63,6.41.54,10.11,6.02,10.54,11.78.23,3.05,0,6.05-1.34,8.86-2.3,4.85-6.23,7.44-11.5,8.03-3.13.35-6.19.04-9.2-1.53ZM216.9,84.77l.18.02c0,1.51.03,3.02-.01,4.53-.02.67.13,1.1.82,1.3,1.11.32,2.2.78,3.33,1.03,4.64.99,9.03-.85,11.03-4.81,1.67-3.32,1.66-6.8.22-10.22-.84-1.98-2.28-3.45-4.33-4.21-4.59-1.69-9.47.88-10.58,5.75-.49,2.14-.45,4.4-.65,6.61Z"/>
      <path class="cls-3" d="M431.15,92.34c-1.84,1.79-4.01,2.96-6.49,3.52-4.4.99-8.74.8-12.74-1.4-4.08-2.25-6.44-5.79-7.02-10.47-.37-3-.21-5.95,1.11-8.71,2.13-4.45,5.66-7.01,10.6-7.61,3.36-.41,6.58.02,9.49,1.81,3.68,2.27,5.74,5.64,6.29,9.91.18,1.38.16,2.79.24,4.3h-22.21c.02,1.99.72,3.57,2,4.89,2.55,2.65,5.78,3.4,9.3,3.21,2.26-.12,4.4-.66,6.21-2.13.13-.1.53-.07.65.06.86.83,1.67,1.7,2.57,2.62ZM426.99,79.69c.27-3.64-2.98-7.26-6.64-7.62-5.96-.58-9.55,3.26-9.82,7.62h16.46Z"/>
      <path class="cls-3" d="M248.89,83.68c.13,3.38,2.36,6.24,5.88,7.38,4.2,1.35,8.25,1.11,12.02-1.62.88.99,1.77,2,2.69,3.05-1.63,1.59-3.78,2.8-6.27,3.35-5.06,1.1-9.93.75-14.29-2.35-3.39-2.42-5.17-5.82-5.59-9.94-.35-3.43.11-6.72,1.96-9.71,2.04-3.29,4.95-5.32,8.77-6.01,3.69-.67,7.26-.34,10.52,1.63,3.92,2.37,5.91,5.97,6.37,10.45.13,1.22.02,2.47.02,3.78h-22.07ZM249.05,79.68h16.45c-.02-4.59-3.69-7.75-8.13-7.67-4.91.08-8.26,3.85-8.32,7.67Z"/>
      <path class="cls-3" d="M355.29,67.49c3.17.1,5.97.62,8.52,2.18,3.27,2,5.36,4.85,6.19,8.58.9,4,.56,7.89-1.62,11.43-2.49,4.04-6.22,6.16-10.93,6.6-3.03.28-5.99.03-8.77-1.3-4.66-2.22-7.27-5.94-7.9-11.04-.42-3.4.07-6.68,1.87-9.65,2.39-3.93,5.99-6.02,10.51-6.62.79-.1,1.58-.14,2.13-.19ZM364.67,81.96c.13-5.65-3.85-10.35-9.89-9.9-2.47.19-4.54,1.16-6.12,3.1-2.17,2.66-2.59,5.75-2.05,9,1.17,6.99,8.18,9.27,13.28,6.59,3.49-1.83,4.73-5.03,4.78-8.8Z"/>
      <path class="cls-3" d="M280.64,72.85c1.22-1.99,2.92-3.43,5.04-4.35,5.04-2.18,12.15-.95,14.78,5.17.5,1.17.85,2.5.87,3.76.09,6.05.04,12.1.04,18.15,0,.08-.02.16-.04.3h-5.31c0-.3,0-.61,0-.92,0-5.09,0-10.19,0-15.28,0-1.72-.29-3.38-1.31-4.83-1.7-2.39-4.11-3.13-6.9-2.87-3.86.37-6.46,3.63-7.1,7.24-.21,1.17-.24,2.37-.25,3.56-.03,4.01,0,8.01-.01,12.02,0,1.08,0,1.09-1.11,1.09-1.06,0-2.12,0-3.18,0-1.07,0-1.07,0-1.07-1.05,0-4.11,0-8.22,0-12.34,0-4.51.02-9.02-.02-13.53,0-.75.18-1.03.97-.98,1.22.07,2.44.05,3.66,0,.62-.02.78.21.76.78-.03,1.34,0,2.69,0,4.03.07.02.13.04.2.05Z"/>
      <path class="cls-3" d="M400.66,95.9h-5.29v-.97c0-5.07,0-10.13,0-15.2,0-1.7-.25-3.34-1.24-4.77-1.7-2.47-4.14-3.25-7-2.98-3.84.37-6.44,3.67-7.09,7.26-.15.86-.23,1.74-.24,2.61-.02,4.32,0,8.65-.01,12.97,0,1.06,0,1.06-1.06,1.06-1.11,0-2.23-.04-3.34.01-.78.04-.99-.26-.98-1.01.03-5.68.01-11.36.01-17.03,0-2.94.02-5.89-.01-8.83,0-.75.13-1.1,1-1.04,1.21.09,2.44.05,3.66.01.56-.02.75.17.74.72-.03,1.11,0,2.23,0,3.34,0,.25.03.51.05.94.43-.59.73-1.04,1.08-1.46,3.86-4.56,11.05-5.41,15.82-1.82,2.53,1.9,3.87,4.56,3.93,7.66.12,6.07.04,12.15.04,18.23,0,.08-.03.15-.06.3Z"/>
      <path class="cls-3" d="M305.28,92.69c1.05-1.2,1.93-2.21,2.85-3.26,1.45,1.11,3,1.91,4.76,2.19,2.45.39,4.91.56,7.24-.57.53-.26,1.05-.65,1.42-1.11.98-1.19.75-2.84-.54-3.68-.83-.54-1.77-.96-2.71-1.3-2.41-.89-4.87-1.63-7.25-2.59-1.52-.61-2.96-1.48-3.86-2.95-2.19-3.57-.86-8.34,2.84-10.37,2.39-1.31,4.96-1.65,7.61-1.51,3.13.16,5.97,1.12,8.34,3.26.08.07.16.14.23.22.03.04.05.09.1.2-.86,1-1.74,2.01-2.66,3.08-1.46-1.23-3.11-1.97-4.96-2.17-1.96-.21-3.93-.32-5.74.71-2.09,1.19-2.24,3.24-.3,4.65.65.48,1.4.86,2.16,1.14,1.59.58,3.23,1.01,4.82,1.61,1.38.52,2.78,1.06,4.06,1.78,4.34,2.46,4.84,8.34,1.06,11.59-1.81,1.55-3.96,2.33-6.28,2.62-3.13.4-6.21.14-9.1-1.19-1.38-.63-2.65-1.51-4.1-2.36Z"/>
      <path class="cls-1" d="M53.85,39c-4.63,0-8.31-3.63-8.32-8.23-.01-4.59,3.67-8.3,8.26-8.32,4.62-.02,8.39,3.71,8.39,8.29,0,4.55-3.73,8.24-8.33,8.25Z"/>
      <path class="cls-3" d="M336.64,68.04c.02.31.04.6.04.88,0,8.7,0,17.4.02,26.09,0,.75-.22.95-.94.92-1.43-.05-2.85-.02-4.36-.02v-27.88h5.24Z"/>
      <path class="cls-3" d="M336.62,56.82v5.39c-1.64,0-3.23.02-4.81-.02-.17,0-.46-.33-.47-.52-.04-1.43-.04-2.86,0-4.28,0-.19.29-.53.45-.54,1.58-.04,3.17-.02,4.82-.02Z"/>
    </g>
  </g>
</svg>