<?xml version="1.0" encoding="UTF-8"?>
<svg id="Capa_2" data-name="Capa 2" xmlns="http://www.w3.org/2000/svg" viewBox="0 0 392.8 74.4">
  <defs>
    <style>
      .cls-1 {
        fill: #ffcf00;
      }

      .cls-1, .cls-2 {
        stroke-width: 0px;
      }

      .cls-2 {
        fill: #0067b0;
      }
    </style>
  </defs>
  <g id="Capa_1-2" data-name="Capa 1">
    <g>
      <g>
        <path class="cls-1" d="M14.6,47.47c-2.25-2.34-4.41-4.45-6.54-6.58-1.89-1.89-3.78-3.79-5.75-5.6-.72-.66-1.22-1.53-2.07-2.07-.36-.23-.28-.48.04-.79,4.51-4.27,8.95-8.62,13.31-13.04.29-.29.54-.64,1.01-.83v28.91Z"/>
        <path class="cls-1" d="M53.2,74.38c-5.37,0-10.75-.02-16.12.02-.99,0-1.24-.29-1.24-1.29.05-9.98.03-19.96.03-29.94,0-.75,0-1.49,0-2.24,0-.24-.04-.52.23-.61.23-.08.46.09.62.25.82.82,1.61,1.66,2.43,2.48,6.7,6.64,13.4,13.29,20.13,19.92,3.61,3.56,7.27,7.08,10.91,10.62.16.15.46.31.3.57-.15.25-.49.18-.75.18-5.07.02-10.13.05-15.2.07-.44,0-.89,0-1.34,0,0,0,0,0,0,0Z"/>
        <path class="cls-1" d="M35.91,34.34c0-1.26,0-2.34,0-3.43,0-9.95.01-19.9-.01-29.85,0-.79.21-1.02,1.03-1.02,11.03.02,22.06,0,33.08,0,.21,0,.52-.15.62.16.08.26-.16.41-.34.57-3.32,2.89-6.31,6.11-9.44,9.19-4.11,4.03-8.24,8.05-12.34,12.11-3.73,3.69-7.42,7.42-11.13,11.14-.4.4-.78.82-1.48,1.14Z"/>
        <path class="cls-1" d="M25.12,19.17c2.53,0,5.07.03,7.6-.02.76-.01,1.05.21,1.04.97-.09,5.02-.1,10.05,0,15.07.01.59-.19.91-.91.9-5-.03-10,0-15,0-1.31,0-1.28,0-1.28-1.29.02-4.86.03-9.71,0-14.57,0-.83.16-1.14,1.06-1.12,2.5.06,5,.02,7.5.02,0,.01,0,.02,0,.03Z"/>
        <path class="cls-1" d="M33.62,72.67c-4.71-4.97-9.48-9.51-14.11-14.18-.36-.36-.69-.77-1.1-1.06-1.52-1.08-1.92-2.51-1.87-4.33.12-4.14.04-8.28.05-12.42,0-.19-.11-.44.11-.55.28-.13.42.13.58.29,5.35,5.25,10.74,10.46,15.94,15.85.22.23.4.46.4.79,0,5.12,0,10.23,0,15.6Z"/>
        <path class="cls-1" d="M25.91,16.94c-2.26,0-4.52,0-6.78,0-.23,0-.54.15-.66-.1-.16-.33.21-.46.39-.62,3.77-3.51,7.38-7.18,11.03-10.81,1.04-1.03,2.04-2.1,3.09-3.13.17-.17.36-.5.67-.33.23.13.11.43.12.66,0,4.21,0,8.42,0,12.63,0,.33-.17.67-.12.98.11.73-.31.75-.85.74-2.3-.02-4.59,0-6.89,0,0,0,0-.01,0-.02Z"/>
        <path class="cls-1" d="M18.5,38.37c.84,0,1.68,0,2.53,0,3.94,0,7.87.03,11.81-.01.78,0,1.01.23.98.98-.15,4.44-.19,8.89-.06,13.33,0,.23.05.5-.19.65-.29.18-.44-.08-.6-.23-4.91-4.77-9.81-9.54-14.71-14.31.08-.14.17-.27.25-.41Z"/>
      </g>
      <g>
        <path class="cls-2" d="M330.19,31.43c.15-1.39-.28-2.76-.13-4.09.24-2.13.12-4.26.14-6.38.01-1.35.16-2.72-.18-4.06-.1-.39.12-.55.51-.55,2.6,0,5.21,0,7.81.02.54,0,.77.3.77.92-.03,10.02-.04,20.04-.02,30.06,0,.86.23,1.72.45,2.56.08.32.4.67.81.69.71.04,1.36.46,2.12.27.41-.1.54.26.54.65-.01,2.21-.01,4.41,0,6.62,0,.41-.11.64-.58.63-2.3-.05-4.64.24-6.89-.43-1.73-.51-3.24-1.44-4-3.15-.33-.75-.63-.6-.94-.14-1.19,1.74-2.99,2.61-4.9,3.17-2.63.77-5.36.82-8.03.3-4.26-.83-7.28-3.38-9.55-6.98-1.29-2.05-1.87-4.24-2.18-6.62-.25-1.91-.17-3.76.27-5.56,1.23-4.95,4.06-8.66,8.87-10.81,2.85-1.27,5.73-1.18,8.71-.83,1.63.19,2.91,1.03,4.32,1.66.58.26.74.83,1.11,1.25.29.32.45.75.97.8ZM322.59,35.52c-4.03-.29-7.85,3.45-7.78,7.53.06,3.75,3.36,7.61,7.82,7.57,4.31-.03,8.14-3.44,8.05-8.06-.06-2.93-3.85-7.36-8.09-7.05Z"/>
        <path class="cls-2" d="M228.9,37.36c0-6.76,0-13.52-.01-20.27,0-.58.14-.74.73-.74,2.53.03,5.07.02,7.6-.01.63,0,.73.23.72.78-.1,4.3.1,8.61-.1,12.91-.02.34,0,.81.39.96.41.16.42-.33.59-.54,1.18-1.5,2.84-2.2,4.62-2.65,2.4-.6,4.83-.37,7.24-.09.66.08,1.26.51,1.92.74,2.57.87,4.56,2.51,6.12,4.71.52.73,1.1,1.43,1.6,2.18,1.05,1.57,1.19,3.43,1.63,5.18.39,1.54.25,3.12.04,4.71-.76,5.76-3.93,10.05-9.2,12.43-2.73,1.23-5.72,1.47-8.74.81-2.21-.49-4.12-1.43-5.61-3.16-.11-.13-.27-.29-.42-.15-.13.12-.24.38-.2.53.16.6.05,1.21.08,1.81.03.54-.14.76-.77.75-2.46-.04-4.93-.01-7.39.01-.63,0-.95.02-.94-.87.07-6.68.04-13.35.04-20.03.02,0,.03,0,.05,0ZM245.42,35.52c-4.63,0-7.78,3.19-7.94,7.71-.14,3.99,3.83,7.51,7.89,7.4,4.34-.12,7.76-3.2,7.8-7.5.04-4.17-4.1-7.86-7.74-7.61Z"/>
        <path class="cls-2" d="M80.28,37.19c.04,5.19,2.3,9.17,6.87,11.69,2.3,1.27,4.83,1.94,7.56,1.55,1.36-.2,2.71-.18,4.02-.8,1.83-.86,3.49-1.96,5.02-3.23.7-.58,1.15-.6,1.82,0,1.56,1.41,3.16,2.76,4.78,4.1.65.54.29.91-.1,1.32-1.95,2.04-4.3,3.51-6.8,4.8-4.06,2.08-8.43,2.55-12.79,2.06-8.7-.99-14.72-5.87-18.38-13.64-.59-1.26-.86-2.7-.95-4.19-.07-1.25-.59-2.53-.5-3.81.37-4.98,1.74-9.59,5.11-13.49,3.22-3.73,7.2-6.24,12.02-7.22,2.48-.5,5.03-.73,7.64-.45,2.69.28,5.23.95,7.7,1.93,1.57.62,2.92,1.67,4.26,2.67,1,.75,1.88,1.64,2.78,2.51.42.4.37.5-.07.86-1.64,1.32-3.09,2.86-4.82,4.07-.23.16-.19.41-.45.56-.37.22-.55.36-.92,0-1.69-1.72-3.68-3.02-6-3.67-2.03-.57-4.08-.84-6.26-.57-2.78.34-5.07,1.51-7.09,3.27-2.32,2.01-4.14,4.34-4.25,7.59-.01.37-.29.68-.23,1.07.05.33.01.68.01,1.02Z"/>
        <path class="cls-2" d="M375.71,59.12c-3.5.13-6.68-.78-9.52-2.64-3.52-2.3-6.12-5.39-7.12-9.52-.58-2.39-.52-4.85,0-7.32.46-2.14,1.25-4.16,2.51-5.83,1.34-1.78,3.03-3.34,5.13-4.44,3.02-1.59,6.16-2.44,9.57-2.21,2.33.16,4.7.33,6.84,1.3,1.44.65,2.73,1.66,3.98,2.64,2.14,1.67,3.66,3.9,4.66,6.33.96,2.33,1.27,4.91.88,7.45-.33,2.2-.93,4.37-2.15,6.28-1.35,2.11-3.14,3.78-5.26,5.14-2.23,1.44-4.67,2.3-7.25,2.78-.75.14-1.56.02-2.27.02ZM375.82,35.32c-5.35-.26-8.12,4.19-8.14,7.83-.02,3.8,3.39,7.94,8.07,7.83,4.51-.1,7.77-3.24,7.87-7.94.07-3.52-3.05-8.01-7.8-7.72Z"/>
        <path class="cls-2" d="M144.86,43.2c.19,7.03-4.75,12.63-10.84,14.8-1.99.71-3.98,1.14-6.1,1.19-2.57.05-4.93-.67-7.27-1.6-5.87-2.35-10.39-9.06-9.72-16.06.37-3.87,2.1-7.15,4.97-9.82,1.84-1.71,3.91-3,6.34-3.82.78-.26,1.56-.37,2.3-.47,4.54-.61,8.98-.27,12.87,2.41,2.72,1.87,5.18,4.06,6.4,7.26.76,1.99,1.11,4.06,1.06,6.12ZM127.83,35.32c-4.36-.23-7.89,3.87-7.88,7.67,0,4.75,3.65,7.98,7.82,7.97,4.73-.02,7.78-3.23,8.01-7.54.25-4.66-3.46-8.36-7.95-8.1Z"/>
        <path class="cls-2" d="M222.3,38.56c0,3.09,0,6.18,0,9.27,0,2.25.74,3.03,2.98,2.98.61-.01.75.13.74.7-.03,2-.05,4.01,0,6.01.02.69-.34.9-.86,1-1.95.36-3.9.36-5.85-.02-2.05-.4-3.7-1.32-4.64-3.28-.25-.52-.65-.48-.95-.04-1.91,2.79-4.79,3.42-7.92,3.58-2.76.14-5.4-.2-7.73-1.82-2.65-1.85-4.14-4.39-4.55-7.56-.89-6.89-.19-13.81-.42-20.71-.02-.5.09-.72.67-.72,2.57.03,5.13.04,7.7,0,.74-.01.91.23.9.92-.02,5.77-.01,11.54,0,17.32,0,2.1,1.66,3.95,3.68,4.49,1.86.49,3.51.1,4.96-.93,1.68-1.19,2.2-3.03,2.21-5,.02-5.3.03-10.59,0-15.89,0-.72.21-.93.89-.92,2.53.01,5.07,0,7.6-.04.63,0,.61.33.61.78-.01,3.29,0,6.59,0,9.88,0,0-.01,0-.02,0Z"/>
        <path class="cls-2" d="M275.66,58.96c-2.5.25-4.93-.19-7.23-1.06-2.02-.76-3.87-1.87-5.36-3.48-.41-.45-.57-.83,0-1.42,1.4-1.43,2.88-2.78,4.05-4.42.32-.45.78-.27,1.14.04,2.54,2.24,5.56,2.94,8.86,2.8,1.04-.04,1.98-.34,2.82-.98.56-.43.87-.96.73-1.65-.14-.66-.53-1.03-1.24-1.28-2.43-.87-4.98-1.35-7.41-2.2-3.37-1.17-5.99-3.18-7.09-6.64-.93-2.9.49-7.26,3.25-9.07,1.94-1.28,3.9-2.08,6.26-2.29,2.96-.26,5.82-.17,8.57.92,1.43.57,2.86,1.27,3.88,2.53.17.21.29.48.11.64-.59.5-.7,1.29-1.34,1.81-.76.62-1.21,1.58-1.7,2.45-.25.44-.79.67-1.02,1.17-.08.18-.25.09-.38-.08-1.01-1.32-2.62-1.4-4.03-1.79-1.11-.31-2.31-.42-3.48-.06-.76.24-1.4.58-1.53,1.42-.14.89.34,1.43,1.11,1.83,1.12.58,2.36.72,3.55.99,2.1.47,4.02,1.36,5.98,2.16,1.01.41,1.87,1.03,2.62,1.79,2.14,2.18,2.93,4.81,2.31,7.76-.51,2.43-1.74,4.52-3.88,5.9-1.65,1.06-3.55,1.57-5.47,2-1.35.31-2.71.15-4.06.2Z"/>
        <path class="cls-2" d="M176.97,58.94c-3.28.33-6.28-.76-9.19-2.24-1.17-.59-2.11-1.48-3.02-2.39-.45-.45-.47-.83-.02-1.29,1.38-1.43,2.74-2.89,4.11-4.34.52-.55.87-.29,1.36.12,2.94,2.4,6.34,3.1,10.01,2.38.81-.16,1.81-.38,2.02-1.54.31-1.69-.47-2.14-2.37-2.69-2.53-.74-5.18-1.12-7.55-2.28-1.79-.88-3.61-1.79-4.67-3.71-1.52-2.73-1.62-5.46-.29-8.2,1.46-3,4.15-4.65,7.27-5.29,1.97-.4,4.07-.44,6.17-.17,2.16.28,4.14.86,6,1.92.24.13.47.28.68.45q1.41,1.11.41,2.56c-.9,1.3-1.82,2.6-2.71,3.91-.37.55-.65.69-1.27.23-2.01-1.46-4.35-1.73-6.76-1.65-.26,0-.53.14-.77.26-.77.37-1.48.89-1.31,1.82.15.81.89,1.34,1.63,1.55,2.75.76,5.54,1.38,8.19,2.47,2.25.93,4.16,2.31,5.31,4.46.95,1.75.91,3.75.56,5.62-.86,4.54-4.06,6.7-8.36,7.65-1.78.39-3.56.51-5.43.4Z"/>
        <path class="cls-2" d="M147.29,33.46c0-5.4.01-10.8-.02-16.2,0-.71.18-.95.9-.94,2.46.04,4.93.04,7.4.02.56,0,.77.12.77.72-.04,10.29-.06,20.57-.06,30.86,0,1.32,1.01,2.29,2.5,2.67.83.21,1.67.23,2.52.2.62-.02.89,0,.84.86-.14,2.13-.05,4.27-.05,6.41,0,.45.06.93-.63.91-2.67-.07-5.36.16-8-.59-2.27-.65-3.88-1.96-4.9-4.03-.94-1.9-1.3-3.91-1.28-6.03.04-4.96.01-9.91.01-14.87h0Z"/>
        <path class="cls-2" d="M344.46,27.95c2.01,0,3.88,0,5.76,0,.86,0,1.72.08,2.56-.02.84-.09,1.1.1,1.09.99-.03,6.28,0,12.55.04,18.83,0,.6,0,1.24.18,1.8.16.47.21,1.08,1.2.93,1.24-.19,1.79.59,1.79,1.87,0,1.87,0,3.73.02,5.6,0,.42-.07.82-.53.8-2.36-.07-4.74.27-7.07-.41-3.36-.98-4.64-4.31-4.66-6.54-.06-6.75.01-13.5,0-20.25,0-1.17.26-2.37-.37-3.6Z"/>
        <path class="cls-2" d="M292.6,39.8c-.06-3.17.12-6.94-.14-10.7-.06-.81.03-1.28,1.14-1.21,2.28.15,4.58.12,6.87.06.88-.02.98.32.97,1.05-.03,5.57-.02,11.13-.02,16.7,0,1.06-.02,2.12.05,3.18.07,1.08.83,1.78,2.2,1.9.76.07.89.38.88,1.03-.02,2.1,0,4.21,0,6.31,0,.3.1.67-.38.65-2.23-.11-4.49.24-6.7-.35-2.74-.72-4.16-2.63-4.66-5.25-.51-2.67-.15-5.39-.22-8.09-.04-1.56,0-3.12,0-5.28Z"/>
        <path class="cls-2" d="M297.23,25.33c-3.41,0-5.52-2.06-5.43-5.24.09-3.11,2.17-4.93,5.16-4.88,3.19.05,4.91,2.16,5.06,5.07.07,1.34-.51,2.57-1.48,3.52-.97.95-1.95,2-3.32,1.54Z"/>
        <path class="cls-2" d="M349.28,25.33c-3.41.04-5.01-2.27-5.05-5.29-.03-2.38,1.93-4.82,4.79-4.72,3.02.11,5.79,2.24,5.52,4.67-.28,2.61-1.82,5.45-5.26,5.34Z"/>
      </g>
    </g>
  </g>
</svg>