<?xml version="1.0" encoding="UTF-8"?>
<svg id="Capa_2" data-name="Capa 2" xmlns="http://www.w3.org/2000/svg" viewBox="0 0 220.15 202">
  <defs>
    <style>
      .cls-1 {
        fill: #fff;
      }

      .cls-1, .cls-2, .cls-3 {
        stroke-width: 0px;
      }

      .cls-2 {
        fill: #ffcb00;
      }

      .cls-3 {
        fill: #00852a;
      }
    </style>
  </defs>
  <g id="Capa_1-2" data-name="Capa 1">
    <g>
      <polygon class="cls-3" points="119.56 48.02 167.57 48.02 167.57 96.04 119.56 96.04 119.56 144.05 71.54 144.05 71.54 96.04 23.52 96.04 23.52 48.02 71.54 48.02 71.54 0 119.56 0 119.56 48.02"/>
      <polygon class="cls-3" points="161.06 202 0 202 0 161.96 201.1 161.88 161.06 202"/>
      <polygon class="cls-2" points="180.03 202 161.06 201.92 201.1 161.88 220.15 161.88 180.03 202"/>
      <g>
        <polygon class="cls-1" points="96.36 168.96 92.94 184.91 89.44 168.96 83.18 168.96 89.61 191.91 95.95 191.91 102.55 168.96 96.36 168.96"/>
        <polygon class="cls-1" points="66.09 175.22 66.09 178.89 71.62 178.89 64.78 191.91 78.86 191.91 78.86 188.33 72.35 188.33 79.68 175.31 66.09 175.22"/>
        <path class="cls-1" d="M33.37,172.7c.81,0,1.71.33,2.28.57l.16-5.21c-.65-.16-1.38-.24-2.36-.24-5.62,0-11.72,3.58-11.72,12.61,0,6.84,3.5,11.96,10.99,11.96,1.22,0,2.2-.08,3.09-.33l-.16-5.37c-.57.33-1.3.65-2.28.57-3.17-.08-5.53-1.87-5.53-7.08.08-5.37,2.69-7.49,5.53-7.49Z"/>
        <path class="cls-1" d="M43.05,177.67h-.16l-.33-2.44h-4.88c.08,1.55.16,3.34.16,5.05v11.64h5.62v-8.46c0-.65.08-1.3.24-1.71.57-1.71,2.2-2.36,3.42-2.36h1.22v-4.39c-.33-.08-.57-.08-1.22-.08-1.46.08-3.17,1.06-4.07,2.77Z"/>
        <path class="cls-1" d="M58.92,177.34v9.2c-.08,1.14-.98,1.79-2.03,1.79-1.14,0-2.03-.65-2.03-1.79v-11.39h-5.37s-.08,10.58-.08,10.66c0,4.23,3.34,6.59,7.49,6.59s7.49-2.36,7.49-6.59v-10.74h-5.37l-.08,2.28Z"/>
        <path class="cls-1" d="M145.93,168.39h-5.7v8.3h-.08c-.57-.98-1.71-1.71-3.5-1.71-3.5,0-6.76,2.85-6.76,8.63,0,4.64,2.03,8.63,6.51,8.63,1.87,0,3.58-.98,4.31-2.12h.16l.33,1.87h4.88c-.08-1.55-.16-3.34-.16-4.96v-18.64ZM140.23,186.05c0,.41-.08.81-.16,1.06-.41,1.14-1.22,1.47-1.95,1.47-1.55,0-2.6-1.71-2.6-4.8,0-2.69.73-4.96,2.69-4.96,1.14,0,1.79.9,1.95,1.95.08.33.08.65.08.98v4.31Z"/>
        <path class="cls-1" d="M109.71,174.98c-4.72,0-8.38,3.34-8.38,8.95,0,5.21,3.17,8.38,8.95,8.38,2.12,0,4.07-.57,5.78-1.55l.24-3.5c-1.14.81-3.42,1.47-4.96,1.47-2.44,0-4.39-.98-4.39-3.58h9.93c.08-.49.16-1.14.16-2.28-.16-5.05-2.77-7.89-7.32-7.89ZM106.78,182.06c.08-1.71.81-3.83,2.6-3.83s2.36,1.71,2.36,3.83h-4.96Z"/>
        <path class="cls-1" d="M156.18,174.98c-4.72,0-8.38,3.34-8.38,8.95,0,5.21,3.17,8.38,8.95,8.38,2.12,0,4.07-.57,5.78-1.55l.24-3.5c-1.14.81-3.42,1.47-4.96,1.47-2.44,0-4.39-.98-4.39-3.58h9.93c.08-.49.16-1.14.16-2.28-.16-5.13-2.77-7.89-7.32-7.89ZM153.25,182.06c.08-1.71.81-3.83,2.6-3.83s2.36,1.71,2.36,3.83h-4.96Z"/>
        <path class="cls-1" d="M124.11,177.67h-.16l-.33-2.44h-4.88c.08,1.55.16,3.34.16,5.05v11.64h5.62v-8.46c0-.65.08-1.3.24-1.71.57-1.71,2.2-2.36,3.42-2.36h1.22v-4.39c-.33-.08-.57-.08-1.22-.08-1.47.08-3.17,1.06-4.07,2.77Z"/>
        <path class="cls-1" d="M171,177.91c-.22-.4-.53-.71-.93-.92-.4-.21-.8-.32-1.22-.32s-.82.11-1.22.32c-.4.21-.71.52-.93.92-.22.4-.33.81-.33,1.25s.11.84.33,1.24c.22.4.53.7.92.92.39.22.81.33,1.24.33s.84-.11,1.24-.33c.39-.22.7-.53.92-.92.22-.4.33-.81.33-1.24s-.11-.85-.33-1.25ZM170.65,180.19c-.18.33-.44.58-.77.77-.33.18-.67.28-1.03.28s-.7-.09-1.03-.28c-.33-.18-.59-.44-.77-.77-.18-.33-.28-.67-.28-1.03s.09-.71.28-1.04c.19-.33.45-.59.78-.77.33-.18.67-.27,1.02-.27s.69.09,1.02.27.59.43.78.77c.19.33.28.68.28,1.04s-.09.7-.27,1.03Z"/>
        <path class="cls-1" d="M169.29,179.48c-.06-.06-.13-.1-.23-.14.23-.02.42-.1.56-.24.14-.15.21-.32.21-.51,0-.14-.04-.27-.13-.39-.08-.12-.2-.21-.34-.26-.14-.05-.37-.07-.68-.07h-.92v2.68h.43v-1.14h.25c.15,0,.27.03.35.09.11.08.26.29.45.62l.24.42h.53l-.33-.52c-.16-.25-.29-.43-.4-.53ZM168.72,179.03h-.52v-.81h.49c.21,0,.36.02.43.05.08.03.14.08.18.14.04.06.07.13.07.21,0,.12-.05.22-.14.3s-.26.11-.51.11Z"/>
      </g>
    </g>
  </g>
</svg>