<?xml version="1.0" encoding="UTF-8"?>
<svg id="Capa_2" data-name="Capa 2" xmlns="http://www.w3.org/2000/svg" viewBox="0 0 244.21 244.21">
  <defs>
    <style>
      .cls-1 {
        fill: #ec1c24;
      }

      .cls-1, .cls-2, .cls-3, .cls-4, .cls-5 {
        stroke-width: 0px;
      }

      .cls-2 {
        fill: #d0d2d3;
      }

      .cls-2, .cls-3, .cls-4, .cls-5 {
        fill-rule: evenodd;
      }

      .cls-3 {
        fill: #fff;
      }

      .cls-4 {
        fill: #e6e7e8;
      }

      .cls-5 {
        fill: #bbbdbf;
      }
    </style>
  </defs>
  <g id="Capa_1-2" data-name="Capa 1">
    <g>
      <rect class="cls-1" y="0" width="244.21" height="244.21"/>
      <g>
        <g>
          <path class="cls-3" d="M87.97,22.48h40.12c4.12,0,4.74,2.86,3.32,5.26l-39.1,68.2h-28.85l-8.74-15.46,33.25-58Z"/>
          <path class="cls-3" d="M87.8,140.66l-20.06-34.74c-2.06-3.57.1-5.54,2.89-5.5l78.61-.24,14.42,24.98-9.02,15.3-66.86.2Z"/>
          <path class="cls-4" d="M131.77,24.09c.57,1.03.38,2.4-.36,3.65l-39.1,68.2-4.45-7.29,33.82-58.99,10.09-5.57Z"/>
          <path class="cls-4" d="M87.8,140.66l-20.06-34.74c-.99-1.72-1-3.06-.44-3.99l9.86,5.95,14.75,25.55-4.12,7.23Z"/>
          <polygon class="cls-5" points="67.36 88.65 63.46 95.94 92.31 95.94 87.86 88.65 67.36 88.65"/>
          <polygon class="cls-4" points="155.41 125.43 163.67 125.16 149.25 100.18 145.16 107.67 155.41 125.43"/>
          <polygon class="cls-2" points="54.72 80.48 62.89 80.74 67.36 88.65 63.46 95.94 54.72 80.48"/>
          <polygon class="cls-5" points="154.66 140.45 150.8 133.25 155.41 125.43 163.67 125.16 154.66 140.45"/>
          <polygon class="cls-4" points="87.97 22.48 92.18 29.66 62.89 80.74 54.72 80.48 87.97 22.48"/>
          <polygon class="cls-2" points="87.8 140.66 91.92 133.43 150.8 133.25 154.66 140.45 87.8 140.66"/>
          <path class="cls-3" d="M189.49,80.82l-20.06,34.74c-2.06,3.57-4.85,2.68-6.21.24l-39.51-67.96,14.42-24.98,17.75.16,33.6,57.8Z"/>
          <path class="cls-2" d="M166.19,117.94c-1.18-.02-2.27-.87-2.98-2.13l-39.51-67.96,8.54-.21,34.18,58.78-.22,11.52Z"/>
          <path class="cls-5" d="M189.49,80.82l-20.06,34.74c-.99,1.72-2.15,2.4-3.24,2.38l.22-11.52,14.75-25.55,8.32-.05Z"/>
          <polygon class="cls-4" points="142.49 29.88 138.13 22.86 123.7 47.84 132.24 47.64 142.49 29.88"/>
          <polygon class="cls-4" points="189.49 80.82 181.17 80.87 151.57 29.96 155.88 23.02 189.49 80.82"/>
        </g>
        <g>
          <g>
            <path class="cls-3" d="M159.24,207.48l.02-5.2c0-1.82.37-2.72,2.23-2.74,2.87-.03,9.5,0,12.84-.04,2.34-.02,2.67.73,2.65,3.11-.01,1.71.01,3.78.01,4.9l-17.76-.04h0ZM159.41,210.96h22.86s.06-9.46.06-9.46c0-3.81-2.41-5.32-6.22-5.32h-16.43c-3.62,0-5.77,2.44-5.77,5.98v13.52c0,3.66,1.76,5.95,5.33,5.95h21.76c1.15,0,1.15-1.57,1.47-3.88-.92.15-1.4.42-2.77.45l-19.13.05c-1.19.01-1.22-1.29-1.22-1.91l.07-5.39Z"/>
            <path class="cls-3" d="M74.14,207.52c0-9.08-1.77-7.92,8.95-7.92,9.54,0,8.69-1.56,8.67,7.92h-17.63ZM74.14,210.96l23-.09c.17-2.18.24-8.26-.03-10.32-.4-3.08-2.66-4.37-6.03-4.37h-16.65c-3.65,0-5.74,2.61-5.74,6.21v13.08c0,3.63,1.66,6.17,5.29,6.17,6.35,0,16.72.2,22.59-.03l.63-3.85c-6.48.87-14.53.44-21.22.44-1.69,0-1.85-.44-1.85-2.07v-5.17Z"/>
            <path class="cls-3" d="M105.26,196.19h-5.73c.4.98.43,1.89.44,2.88.01,6.12.18,12.41,0,18.5-.07,2.43-.13,2.52-.42,4.07l6.34-.03c-.27-1.34-.38-2.52-.48-4.11-.19-3.1-.39-11.68,0-15.91.14-1.55.19-1.77,1.38-1.86,3.21-.23,11.51-.22,13.82-.13,1.73.07,2.19.85,2.25,2.55.2,5.43.33,11.03-.11,16.35-.09,1.06-.4,2.08-.52,3.13h6.63c-.14-.99-.46-1.9-.54-2.83-.41-4.84.98-18.4-1.01-20.89-1.08-1.35-3.74-1.74-6.51-1.83-2.34-.07-12.66-.11-13.76.3-1.03.38-1.29,1.05-1.78,1.44v-1.63Z"/>
            <path class="cls-3" d="M46.75,216.23c-.3-3.35-.09-10.38-.09-12.61,0-1.56.09-3.66,1.59-3.99,2.18-.48,15.8.08,18.57.42l-.22-3.79c-4.43-.61-14.41-.27-19.24-.06-5.11.22-6.02,1.4-6.17,6.69-.11,3.93-.34,9.42,0,13.2.31,3.43,1.63,5.57,6.61,5.55,3.19,0,17.14.17,19.02-.06l.45-3.83c-2,.28-12.08.73-17.23.52-2.26-.09-3.11.06-3.3-2.04Z"/>
            <path class="cls-3" d="M152.26,217.78c-3.49.25-7.19.57-10.68.48-1.65-.05-2.46-.47-2.45-2.56-.12-4.95-.17-11.28,0-16.09h12.05s.02-3.42.02-3.42h-12l-.06-6.11-5.55.95-.02,5.15-3.78.08.06,3.38h3.72c0,18.28-1.84,21.85,6.66,22.01,3.8.07,7.89.16,11.66-.03l.38-3.83Z"/>
            <path class="cls-3" d="M191.81,196.35c-.79.26-1.4,1.43-1.82,2.02l-.26-2.13-5.02-.02c.22.99.34,1.97.4,2.91.21,3.37.26,11.45.03,17.32-.08,2.14-.31,3.98-.43,5.2h6.35c-.14-1.92-.41-2.94-.41-5.06,0-2.73-.19-10.8.06-14.44.11-1.64.35-1.75,1.51-1.81,3.12-.17,7.88.04,10.81.64l.18-4.78c-2.28-.25-9.64-.36-11.38.17Z"/>
          </g>
          <path class="cls-3" d="M51.15,164.62h2.11c5.9,0,8.19,1.53,8.19,7.25,0,5.19-2.81,7.41-7.95,7.41h-2.34v-14.66h0ZM54.61,185.69c10.81,0,17.87-3.97,17.87-14.32,0-9.05-6.74-13.17-17.59-13.17h-14.78v27.49h14.5ZM101.63,185.69v-6.41h-17.08v-4.31h13.9v-6.41h-13.9v-3.93h16.42v-6.41h-27.46v27.49h28.12ZM114.13,164.62h5.15c2.57,0,4.44.92,4.44,2.86s-1.82,2.6-5.24,2.6h-4.35v-5.46h0ZM117.5,176.11c5.15,0,5.9,1.18,5.9,4.77,0,2.44.28,4.2.56,4.81h11.18v-.84c-1.31,0-1.17-1.22-1.17-4.81,0-5.54-2.15-6.22-5.71-7.29,3.93-.88,5.66-3.55,5.66-6.72,0-5.34-3.7-7.83-14.92-7.83h-15.91v27.49h11.04v-9.58h3.37ZM167.89,168.71h-10.48c-.33-2.86-2.53-4.5-5.99-4.5-3.88,0-6.22,2.71-6.22,8.02,0,3.86,1.03,7.48,6.64,7.48,3.56,0,5.24-2.02,5.66-4.66h10.62c-.98,7.1-7.2,11.38-16.09,11.38-11.13,0-17.87-5.57-17.87-14.51s7.39-14.43,16.8-14.43c10.29,0,16.05,4.16,16.94,11.22h0ZM186.32,164.2c4.87-.06,6.74,3.86,6.74,7.6,0,4.54-1.87,7.9-6.64,7.9-5.29,0-6.6-4.39-6.6-7.9s1.5-7.54,6.5-7.6h0ZM186.41,157.48c-10.48,0-17.64,5.61-17.64,14.24,0,9.35,7.06,14.7,17.64,14.7,9.97,0,17.68-5.27,17.68-14.62,0-7.25-5.66-14.32-17.68-14.32Z"/>
        </g>
      </g>
    </g>
  </g>
</svg>