<?xml version="1.0" encoding="UTF-8"?>
<svg id="Capa_2" data-name="Capa 2" xmlns="http://www.w3.org/2000/svg" viewBox="0 0 200.49 42.93">
  <defs>
    <style>
      .cls-1 {
        fill: #2e2e2e;
        stroke-width: 0px;
      }
    </style>
  </defs>
  <g id="Capa_1-2" data-name="Capa 1">
    <path class="cls-1" d="M62.29,26.62c.13-.26.35-.69.43-.9l5.24-12.71,5.15,12.84c.08.21.26.56.39.86l-.64.13c-1.46.39-3.09.64-4.76.64s-3.22-.21-4.85-.64c-.3-.08-.73-.21-.95-.21M9.02,7.26c5.84,0,9.96,1.2,12.54,3.48,3.09,2.71,4.64,6.27,4.64,10.73s-1.5,7.77-4.47,10.52c-2.58,2.45-6.78,3.74-12.71,3.74h-1.89V7.26h1.89ZM189.33,10.9c2.92,2.83,4.34,6.4,4.34,10.56s-1.46,7.64-4.34,10.56c-2.87,2.88-6.35,4.33-10.43,4.33-8.2,0-14.73-6.74-14.73-14.9,0-4.12,1.46-7.68,4.34-10.6,2.83-2.87,6.35-4.29,10.39-4.29s7.51,1.46,10.43,4.34ZM120.17,13.39l5.19-4.47c-4.46-5.97-10.43-8.93-17.47-8.93-11.98,0-21.64,9.57-21.64,21.55s9.62,21.38,21.34,21.38c2.96,0,5.8-.64,8.54-1.89,2.66-1.2,4.98-2.88,6.87-5.07,1.8-2.01,2.96-4.33,3.65-6.87.56-2.11.9-4.68.73-7.77l-.09-1.25h-18.72v6.57h11.5c-.3,2.58-1.63,4.81-3.95,6.66-2.53,2.06-5.41,3.04-8.63,3.04-3.74,0-7.08-1.54-10.18-4.59-2.79-2.83-4.21-6.23-4.21-10.17,0-4.16,1.46-7.77,4.46-10.78,2.83-2.88,6.27-4.25,10.22-4.25,5.06,0,9.06,2.32,12.36,6.83ZM76.16,33.19l3.82,9.1h7.56L69.81.56h-3.43l-18.2,41.73h7.51l3.99-9.28c.08-.26.13-.43.17-.6.17.08.43.17.73.3,2.23.86,4.9,1.33,7.52,1.33s5.11-.51,6.61-1.03c.77-.26,1.03-.38,1.25-.51.04.17.17.56.21.69ZM8.8,42.29c7.64,0,13.52-1.72,17.47-5.28,4.51-4.03,6.78-9.19,6.78-15.5s-2.32-11.85-6.96-15.8C22.2,2.36,16.4.69,8.89.69H0v41.6h8.8ZM45.46.69h-6.83v41.6h6.83V.69ZM138.67,22.88h14.55v-6.52h-14.55V7.26h15.84V.69h-22.67v41.6h22.71v-6.57h-15.88v-12.84h0ZM163.65,6.31c-4.25,4.17-6.35,9.28-6.35,15.2,0,11.98,9.66,21.42,21.59,21.42s21.59-9.4,21.59-21.42c0-5.88-2.15-10.9-6.31-15.16-4.21-4.25-9.32-6.35-15.29-6.35s-11.03,2.1-15.24,6.31Z"/>
  </g>
</svg>