<?xml version="1.0" encoding="UTF-8"?>
<svg id="Capa_2" data-name="Capa 2" xmlns="http://www.w3.org/2000/svg" viewBox="0 0 292.97 81.81">
  <defs>
    <style>
      .cls-1 {
        fill: #e51e25;
        stroke-width: 0px;
      }
    </style>
  </defs>
  <g id="Capa_1-2" data-name="Capa 1">
    <g>
      <path class="cls-1" d="M188.6,40.71c0,8.18,0,16.36,0,24.55,0,2.35-.17,4.67-.81,6.94-1.18,4.15-3.8,6.97-7.9,8.27-4.64,1.47-9.41,1.75-14.18.76-5.46-1.13-8.75-4.77-9.52-10.37-.2-1.47-.31-2.97-.31-4.46-.02-17.19,0-34.38-.02-51.56,0-2.1.18-4.16.83-6.16,1.43-4.4,4.49-7.06,8.95-8.04,4.98-1.09,9.94-.73,14.77.84,4.59,1.5,7.05,4.88,7.79,9.55.26,1.67.37,3.38.38,5.07.04,8.21.02,16.42.02,24.62ZM177.37,40.86c0-7.98,0-15.95,0-23.93,0-.67,0-1.34-.06-2-.15-1.89-1.12-3.18-2.92-3.5-1.3-.23-2.67-.28-3.97-.14-1.89.21-2.94,1.45-3.16,3.34-.07.61-.11,1.23-.11,1.85,0,16.28,0,32.57,0,48.85,0,.62.04,1.23.11,1.85.22,1.86,1.3,3.09,3.14,3.28,1.28.13,2.62.09,3.9-.12,1.88-.31,2.87-1.56,3.02-3.48.05-.67.06-1.34.06-2,0-8,0-16,0-24Z"/>
      <path class="cls-1" d="M219.65,76.07c-4.35-14.34-8.66-28.55-12.97-42.76-.06.01-.12.03-.19.04.29,14.78.58,29.55.88,44.47-3.54.41-7.07.81-10.66,1.23V2.77c1.09.1,2.16.18,3.22.3,2.17.24,4.34.54,6.51.74.72.07.9.48,1.08,1.05,3.9,12.75,7.81,25.5,11.71,38.25.07.22.14.43.22.64.06,0,.13-.01.19-.02-.25-12.67-.5-25.34-.75-38.17,3.46.6,6.83,1.18,10.24,1.76,0,.39,0,.67,0,.95,0,21.72,0,43.44.02,65.16,0,.71-.14,1.01-.91,1.13-2.84.44-5.66.98-8.58,1.49Z"/>
      <path class="cls-1" d="M96.77,2.6c3.73-.31,7.34-.62,11.05-.93.02.3.05.57.05.83,0,20.77,0,41.53,0,62.3,0,2.23-.24,4.42-.98,6.53-1.63,4.71-5.03,7.3-9.88,7.93-4.57.59-9.02-.21-13.31-1.81-4.44-1.66-6.79-4.98-7.33-9.63-.12-1.02-.17-2.05-.17-3.08,0-19.58,0-39.17,0-58.75v-.93c3.53-.48,7.01-.94,10.63-1.43v1.03c0,19.09,0,38.19,0,57.28,0,.75,0,1.5.08,2.24.26,2.54,1.35,3.71,3.85,4.21.55.11,1.11.19,1.68.24,2.54.2,4.07-1.1,4.28-3.64.05-.61.05-1.23.05-1.85,0-19.79,0-39.58,0-59.37v-1.16Z"/>
      <path class="cls-1" d="M127.8,81.16c-3.8-.17-7.43-.34-11.1-.51V1.15c1.04-.06,2.06-.14,3.08-.17,4.75-.14,9.51-.37,14.26-.35,1.87,0,3.79.39,5.6.92,4.94,1.43,7.84,4.81,8.71,9.87.22,1.26.32,2.56.33,3.84.03,7.87.04,15.75,0,23.62-.01,1.66-.17,3.35-.51,4.98-1.06,5.13-4.28,8.28-9.32,9.46-1.98.47-4.06.62-6.1.77-1.61.12-3.23.02-4.95.02v27.04ZM127.77,11.69v1.01c0,3.03,0,6.07,0,9.1,0,6.84,0,13.68,0,20.52,0,.57.11.84.76.81,1.49-.07,2.98-.03,4.47-.1,2.81-.13,4.24-1.51,4.47-4.2.03-.36.03-.72.03-1.08,0-6.89,0-13.78,0-20.68,0-.39,0-.77-.03-1.16-.21-2.59-1.39-3.97-3.95-4.2-1.85-.17-3.74-.03-5.74-.03Z"/>
      <path class="cls-1" d="M37.56,40.88c0-8.7.01-17.4-.02-26.1,0-.77.19-1.1.96-1.33,4.66-1.36,9.3-2.84,14.15-3.37,1.95-.21,3.98-.21,5.91.08,5.29.81,8.82,4.63,9.45,9.96.11.97.18,1.95.18,2.92.01,11.89.03,23.78-.02,35.67,0,1.7-.2,3.47-.67,5.09-1.41,4.8-4.84,7.28-9.69,7.95-3.31.46-6.52-.17-9.7-.92-3.22-.77-6.4-1.7-9.61-2.53-.72-.18-.95-.5-.95-1.26.03-8.72.02-17.45.02-26.17ZM47.29,40.86v18.13c0,1.5-.01,1.56,1.49,1.87,1.73.36,3.48.74,5.24.84,2.57.14,4.03-1.36,4.13-3.93.01-.28.01-.57.01-.85,0-10.67,0-21.35,0-32.02,0-.36,0-.72-.02-1.08-.17-2.37-1.49-3.66-3.85-3.76-.38-.02-.78-.03-1.15.04-1.64.3-3.27.65-4.92.92-.78.13-.94.51-.94,1.24.03,6.2.02,12.4.02,18.6Z"/>
      <path class="cls-1" d="M260.94,25.27c-2.74-.74-5.38-1.46-8.15-2.21v1.09c0,14.56,0,29.13.02,43.69,0,.75-.22,1.07-.94,1.25-2.72.67-5.42,1.41-8.13,2.12-.25.06-.5.1-.87.18v-1.04c0-16.21,0-32.42.02-48.63,0-.79-.19-1.12-1-1.26-2.38-.42-4.73-.93-7.13-1.42v-10.52c1.33.29,2.62.56,3.91.84,7.25,1.61,14.43,3.5,21.46,5.91.6.2.84.45.83,1.12-.04,2.68-.02,5.35-.02,8.03v.85Z"/>
      <path class="cls-1" d="M273.08,20.34c2.26,1.23,4.43,2.34,6.52,3.58,3.34,1.96,6.47,4.22,9.05,7.14.76.86,1.49,1.78,2.1,2.76,2.93,4.63,2.97,9.36,0,13.94-1.19,1.83-2.71,3.51-4.31,5.01-3.89,3.63-8.51,6.17-13.36,8.52V20.34Z"/>
      <path class="cls-1" d="M19.9,20.55v40.61c-.09,0-.17.02-.23,0-4.65-2.23-9.11-4.78-13-8.21-2-1.76-3.78-3.72-5.04-6.09-2.51-4.72-2.06-9.26.92-13.61,2.3-3.35,5.36-5.9,8.76-8.03,2.74-1.72,5.58-3.25,8.38-4.87.07.07.14.14.21.21Z"/>
    </g>
  </g>
</svg>