<?xml version="1.0" encoding="UTF-8"?>
<svg id="Capa_2" data-name="Capa 2" xmlns="http://www.w3.org/2000/svg" viewBox="0 0 457.71 74.34">
  <defs>
    <style>
      .cls-1 {
        fill: #53a318;
        stroke-width: 0px;
      }
    </style>
  </defs>
  <g id="Capa_1-2" data-name="Capa 1">
    <g>
      <path class="cls-1" d="M52.84,32.73c6.32,0,12.64.03,18.96-.02,1.12,0,1.48.34,1.44,1.43-.05,1.49.15,2.98.03,4.46-.11,1.47-.55,2.96-.58,4.38-.03,1.33-.14,2.61-.43,3.88-1.27,5.6-3.86,10.55-7.68,14.8-2.74,3.05-5.79,5.77-9.43,7.78-5.92,3.25-12.2,4.96-18.98,4.9-9.28-.09-17.33-3.26-24.12-9.55-6.12-5.67-9.92-12.62-11.35-20.87-.72-4.15-.93-8.34-.34-12.47,1.04-7.31,4.08-13.78,9.08-19.29C14.85,6.18,21.51,2.32,29.45.77c3.71-.73,7.5-1.03,11.26-.51,4.18.58,8.26,1.52,12.09,3.53,2.94,1.54,5.72,3.23,8.16,5.46,4.37,3.98,7.59,8.75,9.88,14.18.37.89.39,1.26-.76,1.25-5.92-.04-11.83-.03-17.75,0-.89,0-1.47-.38-2.07-.99-2.95-3.05-6.46-5.01-10.74-5.66-3.65-.56-7.12-.07-10.45,1.32-2.22.93-4.17,2.39-5.82,4.18-2.91,3.15-4.66,6.83-5.13,11.14-.61,5.54,1.01,10.37,4.33,14.72,3.12,4.09,7.27,6.55,12.39,7.1,6.96.76,12.45-1.97,16.67-7.46.07-.1.14-.2.19-.31.25-.55,1.3-.83.83-1.53-.33-.49-1.2-.18-1.83-.18-5.67-.02-11.35-.03-17.02.01-1,0-1.3-.28-1.29-1.29.05-3.9.07-7.81,0-11.71-.02-1.11.37-1.33,1.38-1.32,6.36.04,12.72.02,19.08.02Z"/>
      <path class="cls-1" d="M440.23,39.76c0-12.19.01-24.38.02-36.57q0-1.71,1.69-1.71c4.83,0,9.66.03,14.49-.02,1,0,1.29.27,1.29,1.28-.03,22.97-.03,45.94,0,68.91,0,1-.27,1.3-1.28,1.29-4.39-.05-8.77-.04-13.16,0-.77,0-1.25-.24-1.67-.88-7.87-11.81-15.76-23.61-23.65-35.42-.68-1.01-1.26-2.09-2.27-3.14,0,.58,0,1,0,1.42,0,12.19-.02,24.38.03,36.57,0,1.18-.33,1.48-1.48,1.47-4.91-.06-9.82-.05-14.73,0-1,0-1.29-.29-1.29-1.29.03-22.97.03-45.94,0-68.91,0-1.02.32-1.29,1.31-1.28,4.47.04,8.93.04,13.4,0,.78,0,1.26.25,1.66.91,3.21,5.31,6.95,10.27,10.24,15.53,3.01,4.82,6.42,9.38,9.4,14.22,1.47,2.39,3.13,4.64,4.64,7,.25.39.42.89.94,1.05-.09.33.06.7.34.57.34-.16.16-.64.1-.98Z"/>
      <path class="cls-1" d="M358.55,74.27c-7.83.15-14.79-1.76-21.08-6-4.94-3.33-8.8-7.65-11.65-12.88-2.1-3.83-3.42-7.91-4.08-12.23-.61-3.97-.85-8-.17-11.89,1.99-11.42,7.94-20.29,17.98-26.27,4.52-2.69,9.45-4.11,14.66-4.59,10.41-.95,19.72,1.78,27.66,8.65,6.77,5.86,11.1,13.19,12.46,22.11.59,3.85.47,7.71-.1,11.59-.76,5.18-2.43,9.98-5.23,14.4-3.74,5.91-8.75,10.38-15.01,13.47-3.73,1.83-7.67,2.92-11.79,3.44-1.31.17-2.62.06-3.64.19ZM376.52,36.56c0-.88.12-1.79-.02-2.65-2.02-13.16-16.15-20.3-28.13-13.28-7.42,4.34-10.69,13.23-8.28,21.83,2.37,8.44,11.19,15.38,20.22,14.01,4.79-.73,8.79-2.93,11.82-6.61,3.13-3.81,4.63-8.3,4.39-13.3Z"/>
      <path class="cls-1" d="M168.54,74.31c-5.81.16-11.35-1.16-16.46-3.74-6.68-3.37-11.87-8.47-15.53-15.04-2.44-4.37-3.81-9.07-4.39-14.02-1.3-11.15,1.68-20.99,9.19-29.35,5.4-6.01,12.1-9.82,20.1-11.24,2.49-.44,4.99-.75,7.51-.7,9.82.22,18.3,3.62,25.34,10.57,5.37,5.3,8.96,11.55,10.34,18.97.65,3.49.86,7.02.47,10.62-.63,5.85-2.03,11.4-5.21,16.39-5.69,8.93-13.64,14.67-24.09,16.82-.9.18-1.8.4-2.71.48-1.52.13-3.05.17-4.58.25ZM187.21,36.51c.13-1.13-.06-2.57-.36-3.97-2.28-10.81-13.5-17.19-24.02-13.68-4.62,1.54-8.27,4.37-10.53,8.68-2.2,4.2-3.24,8.6-2.01,13.45.7,2.77,1.69,5.32,3.41,7.53,4.74,6.07,10.72,9.28,18.63,7.69,4.06-.82,7.47-2.8,10.15-5.95,3.29-3.86,4.79-8.37,4.72-13.75Z"/>
      <path class="cls-1" d="M95.2,50.36c0,1.77,0,3.37,0,4.97,0,5.43-.02,10.86.02,16.3,0,.95-.19,1.34-1.25,1.33-4.99-.05-9.98-.05-14.97,0-1.02,0-1.27-.33-1.27-1.31.02-22.94.02-45.87,0-68.81,0-.93.16-1.38,1.24-1.37,9.1.1,18.19-.19,27.29.19,2.9.12,5.83.38,8.62,1.41,2.93,1.09,5.45,2.72,7.69,4.96,1.97,1.98,3.58,4.14,4.59,6.69,2.07,5.22,2.57,10.57,1.46,16.15-.64,3.21-1.62,6.21-3.44,8.9-2.59,3.82-6.04,6.57-10.47,8.03-1.71.56-1.7.58-.64,2.06,5.18,7.27,10.37,14.54,15.55,21.82.22.31.69.62.49,1.02-.2.4-.72.21-1.1.21-6.32.01-12.64-.01-18.96.03-.9,0-1.36-.33-1.79-1.07-4.02-6.83-8.08-13.63-12.13-20.44-.2-.34-.32-.74-.9-1.08ZM95.22,25.95c0,2.49.02,4.99-.01,7.48-.01.77.22,1.06,1.02,1.05,2.21-.03,4.42-.01,6.63-.24,6.1-.63,8.48-3.16,8.51-9.11.02-3.65-1.91-6.09-5.7-7.02-3.19-.79-6.46-.61-9.71-.6-.81,0-.74.55-.74,1.08,0,2.45,0,4.91,0,7.36Z"/>
      <path class="cls-1" d="M244.97,26.81c0-9.03.02-16.43-.02-23.84,0-1.14.29-1.53,1.48-1.51,4.91.06,9.82.05,14.73,0,1.06-.01,1.37.32,1.36,1.38-.03,14.4.03,28.81-.05,43.21-.03,5.87-1.06,11.53-4.26,16.63-3.58,5.72-8.78,9.06-15.26,10.64-3.36.82-6.76.91-10.15.72-10.68-.58-18.89-7.36-21.66-17.75-.36-1.34-.92-2.71-.89-4.05.04-2.01-.41-3.96-.4-5.97.08-14.44.06-28.89.02-43.33,0-1.15.28-1.5,1.46-1.49,4.91.06,9.82.06,14.73,0,1.19-.02,1.46.38,1.46,1.51-.04,13.72.02,27.44-.08,41.16-.01,1.67-.06,3.37.19,4.98.32,2.12.84,4.27,2.27,6.05,1.04,1.3,2.46,1.91,3.95,2.38,4.65,1.5,10.01-2.24,10.63-7.08,1.08-8.42.07-16.86.49-23.66Z"/>
      <path class="cls-1" d="M267.54,37.16c0-11.38.02-22.76-.03-34.15,0-1.21.29-1.57,1.53-1.55,8.97.12,17.94-.16,26.91.18,3.09.12,6.18.39,9.08,1.56,2.76,1.11,5.18,2.7,7.34,4.84,3.29,3.25,5.22,7.11,6.03,11.55,1.31,7.18.5,14.03-3.62,20.27-3.48,5.26-8.41,8.38-14.54,9.52-4.47.83-9.02.53-13.54.56-1.91,0-1.68-.23-1.69,1.65-.01,6.68-.03,13.35.02,20.03,0,1.09-.32,1.34-1.36,1.33-4.87-.05-9.74-.06-14.6,0-1.2.02-1.56-.29-1.56-1.53.05-11.42.03-22.84.03-34.27ZM285.24,25.98c0,2.49,0,4.98,0,7.48,0,.56,0,1.02.79,1.02,2.81,0,5.62.09,8.39-.52,3.32-.74,5.93-2.27,6.68-5.91.2-1,.08-2,.09-3.01.05-3.53-2.34-6.31-5.8-6.97-3.02-.57-6.05-.57-9.09-.58-.87,0-1.08.33-1.07,1.14.04,2.45.02,4.9.02,7.36Z"/>
      <path class="cls-1" d="M440.23,39.76c.06.35.24.82-.1.98-.28.13-.43-.24-.34-.57.15-.14.29-.28.44-.42Z"/>
    </g>
  </g>
</svg>