<?xml version="1.0" encoding="UTF-8"?>
<svg id="Capa_2" data-name="Capa 2" xmlns="http://www.w3.org/2000/svg" viewBox="0 0 250.73 93.38">
  <defs>
    <style>
      .cls-1 {
        fill: #e20613;
        fill-rule: evenodd;
        stroke-width: 0px;
      }
    </style>
  </defs>
  <g id="Capa_1-2" data-name="Capa 1">
    <g>
      <path class="cls-1" d="M45.89,57.7v-.63c0-9.43,9.2-22.44,18.33-22.44,3.26,0,5.39,2.23,5.39,5.52,0,7.17-5.19,13.94-13.04,19.03.55.75,1.08.95,2.03.95,3.16,0,8.15-2.96,11.86-5.82l.1-.43c1.38-9.18,4.76-18.3,11.43-27.18,6.77-9,14.94-14.94,20.24-14.94,3.06,0,4.86,2.13,4.86,4.56,0,9.95-15.47,27.73-26.38,37.76l.12.55c.4,1.78,1.68,2.86,3.49,2.86,3.81,0,7.2-1.91,11.86-5.42l.1-.43c1.81-9.6,5.52-18.51,13.24-28.76,7.62-10.18,16.5-17.28,21.36-17.28,2.96,0,4.46,1.91,4.46,4.34,0,8.8-14.17,31.04-29.84,43.93v.43c.2,2.63,2.43,4.44,4.76,4.44,1.15,0,1.91-.2,3.49-1.15.2.43.2.73.2,1.28,0,5.92-5.39,10.48-9.63,10.48-4.97,0-7.3-3.18-8.15-7.95l-.43.33c-7.82,4.96-10.71,6.77-16.1,6.77-4.01,0-6.77-2.66-8.38-6.47l-.3.23c-6.57,4.44-9.65,6.24-15.37,6.24-4.24,0-5.92-1.38-8.15-4.24l-.3.1c-1.38.53-2.76.75-4.04.75-2.11,0-3.59-1.28-3.59-2.86s0-1.61,6.34-4.56h0ZM106.85,43l-.1.33c8.88-8.58,17.15-20.34,17.15-23.72,0-.65-.33-1.08-.75-1.08-4.01,0-13.24,15.15-16.3,24.47h0ZM80.67,45.04l-.1.53c9.53-8.8,16.07-20.34,16.07-21.82,0-.65-.4-1.08-.83-1.08-1.81,0-5.94,4.66-9.43,9.75-3.19,4.76-4.87,8.38-5.72,12.61h0ZM54.74,52.83v.55c2.66-1.61,7.52-6.67,7.52-9.93,0-.53-.2-.85-.95-.85-2.96,0-6.34,6.42-6.57,10.23h0Z"/>
      <path class="cls-1" d="M195.46,65.62l2.23-3.59-.33.2c-4.99,3.28-5.82,3.81-8.48,3.81-4.34,0-7.2-2.76-7.2-6.9,0-11.01,15.24-23.47,26.48-23.47,1.78,0,3.49.53,3.49,2.23,0,3.16-18.1,7.4-18.1,15.65,0,1.05.73,2.01,2.33,2.01,7.2,0,10.06-14.92,16.4-14.92,2.03,0,3.28,1.38,3.28,2.86,0,2.46-1.81,5.92-7.3,14.59l.2-.1c16-9.95,27.43-25.18,37.81-25.18,2.86,0,4.44,1.58,4.44,4.56,0,5.92-7.5,0-7.5,9.2,0,1.35.1,3.16.1,4.54,0,9.2-7.95,20.01-17.38,20.01-5.39,0-9.1-2.98-9.1-7.85,0-.85.2-2.01.85-3.91l-.33.2c-3.61,2.56-10.48,7.52-15.14,9.53-.85,1.28-3.06,5.32-4.86,7.95-1.81,2.66-3.71,5.09-5.72,7.2-5.09,5.42-11.23,9.13-15.67,9.13-3.08,0-5.84-2.66-5.84-6.14,0-4.14,3.18-9.65,9.55-13.99,4.24-2.96,7.62-3.59,15.77-7.62h0ZM235.48,45.11l-12.84,10.68c.75-.12,1.38-.23,1.8-.23,3.94,0,1.81,4.46,4.46,4.46,3.68,0,6.24-7.32,6.57-14.39v-.53h0ZM190.57,74.5l.2-.3c-5.19,2.63-11.66,6.02-11.66,9.4,0,.65.55,1.08,1.08,1.08,1.38,0,7.3-4.46,10.38-10.18h0Z"/>
      <path class="cls-1" d="M155.94,45.51h-.3c-4.89,0-6.7-.85-8.28-.85-2.43,0,0,5.59-7.1,15.87-4.54,6.67-9.3,9.33-14.49,9.33-6.24,0-9.53-4.14-9.53-9.85,0-10.48,10.48-23.17,20.64-23.17,1.9,0,3.38,1.05,3.38,2.63,0,1.81-12.29,7.72-12.29,15.77,0,1.68,1.18,2.96,3.08,2.96,8.68,0,6.77-20.09,13.67-20.09,2.73,0,6.24,2.11,10.78,2.11,6.67,0,12.61-4.04,16.2-4.04,2.23,0,3.41.75,3.41,2.33,0,3.28-15.67,8.25-15.67,16.6,0,1.08.73,1.81,2.21,1.81,8.15,0,9.96-19.66,19.48-19.66,1.48,0,2.98,1.15,2.98,3.39s-1.28,5.29-5.32,11.61c-3.59,5.84-4.34,6.27-6.97,10.91,3.16-1.05,6.02-5.07,7.4-5.07.53,0,.85.63.85,1.38,0,4.96-8.25,10.78-13.76,13.01-6.77,9.23-15.35,20.66-25.63,20.66-3.18,0-5.92-2.46-5.92-5.84,0-10.58,13.44-15.55,26.03-20.11l3.08-4.99-.32.23c-3.06,2.01-7.1,3.48-9.53,3.48-4.14,0-6.67-2.63-6.67-6.87,0-4.56,2.53-7.75,8.58-13.54h0ZM155.32,75.78l.23-.33c-3.71,1.15-11.46,5.19-11.46,8.15,0,.65.55,1.18,1.28,1.18,1.9,0,6.14-3.61,9.95-9h0Z"/>
      <path class="cls-1" d="M30.74,40.65c.65,1.48.95,2.23.95,3.51,0,4.74-6.14,12.46-6.14,22.62,0,6.04,3.94,11.03,10.08,11.03,3.39,0,6.77-2.13,7.1-4.56-2.98,0-4.56-2.33-4.56-5.09,0-6.24,4.34-16.93,4.34-23.27,0-2.33-.53-3.49-1.58-5.49l-.23-.33c11.66-6.14,19.71-12.71,26.38-18.96,6.34-5.94,9.1-10.06,9.1-14.29,0-3.81-1.91-5.82-5.29-5.82-9.33,0-17.9,25.5-36.21,34.3l-3.94,6.34h0Z"/>
      <path class="cls-1" d="M27.23,29.14c0,3.91-12.09,16.3-13.87,17.85C2.76,56.75,0,59.4,0,64.7c0,3.28,2.33,5.62,5.52,5.62,6.9,0,10.91-6.04,22.04-26.35,15.45-28.29,17.78-27.11,17.78-30.72,0-1.38-.95-2.11-2.01-2.11-4.04,0-7.32,4.24-22.57,12.16C7.1,30.39,2.03,34.1,2.03,39.39c0,2.98,1.81,5.19,4.54,5.19,8.18,0,14.62-16.1,20.04-16.1.4,0,.63.23.63.65h0Z"/>
      <path class="cls-1" d="M220.42,26.38c0,3.69,3.28,3.39,3.28,5.59,0,1.71-2.01,3.08-2.01,4.24,0,.65.75,1.08,1.6,1.08,5.17,0,10.06-7.62,10.06-11.66,0-3.29-2.86-5.92-6.14-5.92-3.71,0-6.8,3.16-6.8,6.67h0Z"/>
      <path class="cls-1" d="M247.14,62.79c1.38,0,2.66,1.05,2.66,2.53s-1.38,2.56-2.66,2.56c-1.38,0-2.63-1.08-2.63-2.56s1.25-2.53,2.63-2.53h0ZM247.12,63.22c-1.25,0-2.23.95-2.23,2.11s.98,2.13,2.23,2.13c1.05,0,2.23-.85,2.23-2.13,0-1.15-1.05-2.11-2.23-2.11h0ZM246.54,65.5v1.13h-.35v-2.66h1.23c.43,0,.85.15.85.73,0,.38-.2.53-.35.63.15.08.3.13.3.5l.02.48c0,.15.03.2.15.28v.05h-.45c-.05-.15-.05-.55-.05-.65,0-.23-.05-.48-.48-.48h-.88ZM246.54,64.27v.9h.83c.28,0,.55-.05.55-.45s-.3-.45-.48-.45h-.9Z"/>
    </g>
  </g>
</svg>