<?xml version="1.0" encoding="UTF-8"?>
<svg id="Capa_2" data-name="Capa 2" xmlns="http://www.w3.org/2000/svg" viewBox="0 0 229.14 170.74">
  <defs>
    <style>
      .cls-1 {
        fill: #001964;
        stroke-width: 0px;
      }
    </style>
  </defs>
  <g id="Capa_1-2" data-name="Capa 1">
    <g>
      <path class="cls-1" d="M150.08,96.02c-.7,2.41-1.28,4.86-2.16,7.2-.46,1.23-1.25,2.5-2.23,3.36-5.88,5.12-9.87,11.55-13.09,18.52-1.3,2.82-2.41,5.73-3.48,8.64-.59,1.59-1.52,2.36-3.25,2.32-2.54-.07-5.09.04-7.62-.06-.72-.03-1.88-.37-2.03-.83-.19-.58.27-1.59.75-2.14,2.53-2.93,5.16-5.77,7.75-8.65,5.83-6.48,9.87-13.96,12.26-22.32.38-1.33.63-2.74.66-4.12.15-5.92-4.88-9.18-9.92-6.1-2.44,1.49-4.26,1.04-6.63.38-2.89-.79-5.99-1.5-8.93-1.26-6.08.49-9.62,5.54-8.19,11.49,1.54,6.41,3.55,12.7,5.26,19.06,1,3.73,1.89,7.5,2.69,11.28.49,2.3-.35,3.21-2.66,3.25-2.1.03-4.19.01-6.29,0-2.7,0-2.85-.37-2.52-2.99.49-3.89,1.12-7.83.98-11.73-.32-9.28-4.18-16.84-11.83-22.37-1.23-.89-1.92-.71-2.56.41-1.38,2.42-2.94,4.77-3.99,7.33-3.49,8.55-5.91,17.4-6.8,26.64-.21,2.21-.78,2.71-3.03,2.71-2.29,0-4.58.01-6.86,0-2.26-.01-2.86-.87-1.84-2.97,1.21-2.51,2.65-4.91,3.93-7.39,3.69-7.14,6.79-14.5,7.66-22.57.33-3.01.41-6.11.09-9.12-.2-1.92-1.14-3.87-2.12-5.59-2.56-4.51-5.35-8.89-8.01-13.35-.78-1.31-1.35-2.73-2.11-4.05-1.67-2.9-4.09-4.58-7.57-4.59-3.26,0-6.77-2.67-7.53-5.83-.2-.85.14-1.99.6-2.8.65-1.15,1.68-2.06,2.44-3.16.61-.87,1.42-1.84,1.48-2.81.16-2.57,1.54-4.43,3.17-6.11,1.51-1.56,1.19-2.85-.02-4.31-3.52-4.24-4.99-9.2-4.96-14.65,0-.68.23-1.37.36-2.05.21-.04.43-.08.64-.12.44.92.92,1.82,1.31,2.76,4.39,10.63,14.96,16.23,25.98,13.33,3.16-.83,6-2.88,8.97-4.4.65-.33,1.22-.82,1.83-1.23.18.11.36.21.55.32-.35.91-.58,1.89-1.07,2.72-2.25,3.82-5.91,6.02-9.63,8.12-.92.52-1.82,1.05-3.33,1.92,2.38,1.09,4.2,2.01,6.1,2.77,16.95,6.75,34.46,9.32,52.64,7.17,5.48-.65,11-1.25,16.5-1.24,7.84.02,13.15,4.88,13.8,12.69.74,8.92,1.07,17.87,1.31,26.82.23,8.7.11,17.41.14,26.12,0,2.75-.19,2.93-2.89,2.94q-5.13.01-6.59,4.96c-.38,1.28-.67,2.58-1.01,3.87-.36,1.38-1.23,1.93-2.67,1.87-1.9-.08-3.81,0-5.72-.02-2.28-.02-2.79-.92-1.83-2.98,1.64-3.5,3.46-6.94,4.77-10.56,2.56-7.11,3.74-14.39,1.17-21.8-.58-1.68-1.54-3.22-2.33-4.82-.16.05-.33.1-.49.15ZM98.54,99.91c.26-.9.44-1.36.53-1.84,1.28-6.96,5.63-11.04,12.37-12.26,12.67-2.3,25.14-1.91,37.06,3.73,3.18,1.51,4.05,1.29,5.08-1.96,2.28-7.14,3.11-14.54,2.59-21.99-.3-4.31-3.31-6.12-7.61-5.21.39,1.66.91,3.29,1.13,4.97.52,3.94-2.5,7.6-6.31,7.82-2.09.12-2.78-.61-3.05-2.7-.24-1.87-.56-3.79-1.2-5.55-1.27-3.49-2.09-3.78-5.5-2.7.11,3.03.41,6,.26,8.95-.2,3.84-1.91,6.02-5.75,6.45-5.08.57-10.24.71-15.36.59-4.02-.09-5.22-1.56-5.58-5.54-.3-3.35-.45-6.72-.76-10.07-.05-.55-.46-1.37-.9-1.52-.97-.35-2.06-.35-2.99-.48-.75,2.7-1.31,5.24-2.17,7.68-1.06,2.98-2.6,5.74-5.75,6.98-2.41.95-5.02,1.37-7.26-.33-2.22-1.69-.65-3.84-.26-5.79.67-3.42,1.4-6.83,2.05-10.25.12-.6.2-1.37-.06-1.86-.77-1.44-4.94-1.63-5.85-.23-2.37,3.67-4.88,7.29-6.87,11.16-2.14,4.15-3.15,8.61-.8,13.15,1.93,3.73,5.02,6.29,8.47,8.54,4.24,2.77,8.39,5.66,12.56,8.53.6.41,1.08.99,1.91,1.76ZM69.89,74.78c1.38-5.22,3.58-9.82,6.34-14.17,1.05-1.66,2.16-3.28,3.17-4.96.6-1.01.74-2.13-.5-2.8-4.73-2.57-9.46-5.11-14.25-7.57-.64-.33-1.75-.4-2.34-.07-2.44,1.35-4.6,3.32-5.21,6.02-.56,2.47-1.67,4.44-3.13,6.36-1.75,2.3-1.85,2.43.22,4.36.81.75,2.24,1.2,3.38,1.17,4.02-.12,6.76,1.62,8.61,5.09,1.18,2.22,2.47,4.38,3.72,6.57ZM109.39,61.9c.36,3.66.61,7.31,1.16,10.92.12.81,1.21,1.97,1.99,2.09,4.85.74,9.73.79,14.56-.25,2.03-.44,3.31-1.67,3.43-3.76.12-2.14,0-4.29,0-6.43,0-1.57-.59-2.32-2.3-2.08-1.18.17-2.41.12-3.61.08-4.93-.16-9.86-.36-15.24-.56ZM161.35,78.27c-.21.07-.42.15-.62.22-2.22,7.62-1.36,26.59,1.55,29.49.22-.91.49-1.66.56-2.43.15-1.52.29-3.04.26-4.56-.15-6.59-.32-13.18-.61-19.77-.04-1-.74-1.96-1.14-2.95ZM92.83,58.06c-.96,4.44-1.9,8.58-2.74,12.73-.28,1.37.56,2.27,1.83,1.89,1.26-.37,2.67-1.08,3.43-2.09,2.41-3.14,3.21-6.92,3.84-10.83-2.24-.6-4.3-1.16-6.36-1.71ZM143.61,70.29c1.55-.23,2.8-1.17,3.27-2.94.61-2.31-.36-4.36-1.36-6.35-.12-.24-.63-.45-.94-.42-1.3.13-2.59.35-3.73.52.92,3.07,1.8,6,2.76,9.19Z"/>
      <path class="cls-1" d="M74.84,36.12c-9.95,0-18.1-8.07-18.16-17.96C56.61,8.28,64.91,0,74.87,0c9.99,0,18.17,8.23,18.11,18.19-.06,9.93-8.15,17.93-18.15,17.93ZM75.37,28.18c6.68-.01,12.04-5.3,12.05-11.9.01-6.69-5.42-12.13-12.1-12.11-6.58.02-12.04,5.43-12.08,11.97-.04,6.69,5.37,12.06,12.13,12.05Z"/>
      <path class="cls-1" d="M174.5,146.82c0-2.37,0-4.46,0-6.54,0-2.64.05-2.69,2.64-2.55.37.02.74.12,1.26.21.04.64.11,1.25.11,1.86,0,8.77-.03,17.54.04,26.3.01,1.65-.58,2.59-2.06,3.19-4.75,1.92-9.45,2.25-13.73-.98-4.16-3.14-5.37-10.9-2.77-16.11,2.73-5.46,7.45-7.48,13.32-5.69.29.09.6.16,1.2.32ZM174.5,158.36c0-2.41.08-4.82-.06-7.22-.04-.65-.61-1.53-1.19-1.84-2.65-1.42-6.03-.89-8,1.39-3.31,3.84-3.15,8.25-1.48,12.68,1.41,3.72,4.94,5.36,8.8,4.4,1.29-.32,1.96-.98,1.93-2.37-.05-2.34-.01-4.69-.01-7.03Z"/>
      <path class="cls-1" d="M120.83,158.25c.06-3.19.52-6.28,2.48-8.86,2.7-3.56,6.5-4.16,10.61-3.38,3.65.69,5.94,3,6.99,6.5,1.33,4.47,1.31,8.95-.75,13.18-1.79,3.69-6.19,5.59-10.48,4.91-4.45-.71-7.45-3.56-8.3-8.01-.27-1.43-.37-2.89-.54-4.33ZM137.89,158.18c-.51-2.35-.79-4.62-1.52-6.74-.78-2.29-2.75-3.2-5.11-3.19-2.38,0-4.28,1.06-5.07,3.3-1.57,4.43-1.59,8.97.06,13.39.81,2.16,2.65,3.13,4.96,3.15,2.36.01,4.35-.81,5.13-3.13.73-2.19,1.05-4.51,1.55-6.77Z"/>
      <path class="cls-1" d="M64.28,158.1c.13-3.38.6-6.62,2.94-9.25,2.8-3.16,6.44-3.58,10.29-2.81,3.47.69,5.74,2.9,6.77,6.25,1.39,4.51,1.4,9.06-.66,13.36-1.74,3.64-5.99,5.54-10.27,4.97-4.38-.58-7.4-3.25-8.42-7.64-.37-1.59-.44-3.26-.65-4.89ZM81.21,158.89c-.29-2.46-.38-4.18-.73-5.84-.58-2.75-2.55-4.56-4.97-4.8-2.59-.26-4.96.8-5.78,3.07-1.65,4.54-1.69,9.21.03,13.74.83,2.17,2.76,3.02,5.05,3.01,2.2-.02,4.13-.79,4.89-2.92.79-2.22,1.13-4.61,1.51-6.27Z"/>
      <path class="cls-1" d="M22.04,157.52c.37-1.66.58-4.05,1.45-6.18,1.67-4.07,5.56-6.07,10.05-5.6,4.73.49,7.75,2.95,8.83,7.34.94,3.83,1.01,7.71-.4,11.43-1.66,4.36-5.67,6.62-10.47,6.15-4.62-.45-7.93-3.45-8.83-8.1-.28-1.43-.36-2.89-.61-5.03ZM26.08,158.07c.37,2.08.59,4.1,1.12,6.03.73,2.66,2.63,3.96,5.34,3.97,2.81.02,4.69-1.31,5.5-4.04,1.19-3.99,1.19-8-.11-11.97-.8-2.45-2.74-3.81-5.29-3.83-2.57-.02-4.63,1.3-5.34,3.73-.58,1.99-.83,4.07-1.23,6.1Z"/>
      <path class="cls-1" d="M.04,158.71c0-2.98.1-5.97-.04-8.95-.07-1.63.56-2.54,2.01-2.97,3.83-1.14,7.73-1.51,11.65-.58,3.12.74,4.83,2.69,4.9,5.94.13,5.46.03,10.92.06,16.38.01,1.98-1.45,1.27-2.45,1.41-1.21.17-1.68-.31-1.67-1.58.06-4.89.01-9.78.03-14.67,0-2.13-.24-4.2-2.53-5.06-2.4-.9-4.9-.89-7.13.52-.51.32-.73,1.42-.74,2.16-.06,5.52-.1,11.05,0,16.57.03,1.74-.59,2.09-2.2,2.12-1.74.03-1.96-.7-1.92-2.15.09-3.05.03-6.09.03-9.14Z"/>
      <path class="cls-1" d="M117.04,169.76c-.18.05-.35.15-.53.16q-3.25.25-3.25-3.03c0-4.38.01-8.77,0-13.15,0-2.09-.15-4.22-2.48-5.09-2.4-.9-4.89-.95-7.12.51-.53.34-.82,1.39-.83,2.12-.07,5.14-.04,10.29-.04,15.43q0,3.53-3.82,3.08c-.05-.51-.14-1.05-.14-1.6-.01-6.22.05-12.45-.04-18.67-.02-1.51.61-2.28,1.87-2.67,4.08-1.24,8.23-1.64,12.38-.43,2.23.65,3.96,2.13,4.04,4.53.2,6.09.14,12.18.17,18.28,0,.18-.13.35-.21.55Z"/>
      <path class="cls-1" d="M43.85,146.39c.74-.04,1.32,0,1.86-.12,1.83-.39,2.57.6,3.11,2.15,1.77,5.15,3.63,10.28,5.64,15.96,1.06-2.98,1.96-5.49,2.83-8.01.89-2.58,1.74-5.17,2.63-7.75.9-2.61.91-2.61,4-2.12-.14.54-.23,1.08-.42,1.59-2.47,6.72-4.96,13.44-7.44,20.16-.33.9-.51,1.74-1.85,1.73-1.25,0-1.76-.5-2.17-1.59-2.56-6.83-5.18-13.63-7.78-20.44-.17-.45-.25-.94-.41-1.56Z"/>
      <path class="cls-1" d="M200.78,145.69c1.47.35,2.99.56,4.38,1.09,1.04.39,1.9,1.3,1.16,2.56-.68,1.16-1.71.82-2.65.26-1.55-.94-3.23-1.94-4.96-.87-1.02.63-2.14,1.82-2.29,2.89-.14.96.72,2.45,1.59,3.1,1.55,1.15,3.45,1.85,5.19,2.74,3.47,1.77,4.68,3.81,4.3,7.25-.3,2.69-2.4,4.8-5.69,5.66-2.97.77-5.8.27-8.48-1.13-1.08-.56-2.01-1.53-1.26-2.76.78-1.28,2.05-.76,2.98-.02,1.87,1.5,3.88,2.12,6.2,1.29,1.58-.56,2.5-1.74,2.73-3.36.22-1.57-.67-2.72-1.95-3.43-1.66-.92-3.45-1.6-5.12-2.5-3.6-1.94-4.91-4.45-4.11-7.69.71-2.89,3.43-4.73,7.16-4.84.25,0,.51,0,.76,0,.02-.08.04-.15.05-.23Z"/>
      <path class="cls-1" d="M214.74,169.84h-3.68v-32.11h3.68v32.11Z"/>
      <path class="cls-1" d="M144.88,158.71c0-3.18.06-6.35-.02-9.53-.04-1.54.6-2.58,2.03-2.72,2.88-.28,5.78-.36,8.68-.4.63,0,1.55.32,1.84.8.39.63.61,1.71.32,2.32-.21.45-1.39.73-2.06.62-.68-.11-1.22-.99-1.91-1.16-1.23-.29-2.63-.63-3.75-.28-.59.18-1.03,1.77-1.04,2.73-.1,5.65-.11,11.31-.01,16.96.03,1.74-.74,1.89-2.17,1.93-1.53.04-1.98-.45-1.94-1.95.1-3.11.03-6.22.03-9.34Z"/>
      <path class="cls-1" d="M215.62,157.35c3.99-2.7,6.76-6.06,8.45-10.32.16-.41,1.11-.62,1.72-.71.8-.12,1.63-.03,3.19-.03-1.54,2.35-2.65,4.36-4.06,6.12-1.41,1.76-3.13,3.28-4.86,5.05,2.98,3.96,6,7.97,9.07,12.06-3.43,1.02-4.58.64-6.33-1.87-2.35-3.37-4.7-6.73-7.19-10.3Z"/>
      <path class="cls-1" d="M187.92,169.87h-3.74v-23.45h3.74v23.45Z"/>
      <path class="cls-1" d="M188.51,139.83c-.11,1.29-.92,2.13-2.37,2.26-1.33.12-2.49-.98-2.47-2.3.02-1.51.86-2.32,2.35-2.42,1.39-.09,2.47.93,2.5,2.46Z"/>
      <path class="cls-1" d="M65.35,51.39c-1.09.93-2.08,2.05-3.32,2.69-.5.26-1.55-.54-2.34-.85.38-.67.62-1.73,1.18-1.95,1.24-.48,2.64-.55,3.97-.78.17.3.34.59.52.89Z"/>
    </g>
  </g>
</svg>