<?xml version="1.0" encoding="UTF-8"?>
<svg id="Capa_2" data-name="Capa 2" xmlns="http://www.w3.org/2000/svg" viewBox="0 0 315.17 72.74">
  <defs>
    <style>
      .cls-1 {
        fill: #ee732c;
      }

      .cls-1, .cls-2, .cls-3, .cls-4, .cls-5 {
        stroke-width: 0px;
      }

      .cls-2 {
        fill: #e30613;
      }

      .cls-3 {
        fill: #0090d2;
      }

      .cls-4 {
        fill: #00904a;
      }

      .cls-5 {
        fill: #004994;
      }
    </style>
  </defs>
  <g id="Capa_1-2" data-name="Capa 1">
    <g>
      <g>
        <path class="cls-5" d="M80.89,47.32h7.29c2.84,0,3.93.98,3.93,3.38s-1.08,3.3-3.93,3.3h-7.29v-6.68ZM69.59,71.63h11.3v-9.89h12.1c8.01,0,10.9-4.72,10.9-10.82,0-7.08-2.97-11.09-10.98-11.09h-23.32v31.79Z"/>
        <path class="cls-5" d="M107.62,39.83h30.42v7.75h-19.12v4.27h17.75v7.75h-17.75v4.27h19.12v7.75h-30.42v-31.79Z"/>
        <path class="cls-5" d="M154.07,47.32h7.29c2.85,0,3.93.98,3.93,3.38s-1.08,3.3-3.93,3.3h-7.29v-6.68ZM142.77,71.63h11.3v-9.89h12.1c8.02,0,10.9-4.72,10.9-10.82,0-7.08-2.97-11.09-10.98-11.09h-23.32v31.79Z"/>
        <path class="cls-5" d="M188.01,58.14c-5.53-.93-7.81-4.5-7.81-8.95,0-8.24,7.25-10.46,16.55-10.46,12.74,0,17.99,3.7,18.39,10.42h-13.14c0-1.29-.68-2.09-1.72-2.54-1-.49-2.28-.67-3.53-.67-3.37,0-4.53.93-4.53,2.27,0,.89.36,1.47,1.48,1.65l13.51,2.23c5.69.94,9.22,3.87,9.22,9.26,0,7.75-5.69,11.4-18.39,11.4-8.7,0-18.19-1.34-18.23-10.69h13.62c.04,1.07.4,1.78,1.2,2.27.84.45,2.08.67,3.85.67,3.53,0,4.49-1.07,4.49-2.58,0-.93-.52-1.87-2.04-2.14l-12.9-2.14Z"/>
        <path class="cls-5" d="M220.11,39.83h11.3v31.79h-11.3v-31.79Z"/>
        <path class="cls-5" d="M273.29,59.25c-.72,4.19-2,7.57-4.81,9.88-2.77,2.32-7.09,3.61-13.99,3.61s-19.56-.53-19.56-17.01,12.71-17.01,19.56-17.01,17.31.98,18.8,13.58h-12.74c-.32-2.27-1.68-5.57-6.05-5.57-4.61,0-7.53,2.54-7.53,8.99s2.84,8.99,6.97,8.99c3.57,0,5.69-1.65,6.61-5.48h12.74Z"/>
        <path class="cls-5" d="M288.08,55.73c0-6.46,2.93-8.99,7.54-8.99s7.53,2.54,7.53,8.99-2.93,8.99-7.53,8.99-7.54-2.54-7.54-8.99ZM276.06,55.73c0,16.48,12.7,17.01,19.56,17.01s19.56-.53,19.56-17.01-12.7-17.01-19.56-17.01-19.56.53-19.56,17.01Z"/>
      </g>
      <path class="cls-5" d="M52.52,40.15c.73-15.25-12.43-32.43-30.37-34.55l.03-.21c17.69,0,31.25,16.37,31.25,29.28-.02,2.69-.23,4.35-.61,5.56l-.3-.08ZM51.45,42.09c-1.18,1.44-2.66,2.89-4.39,4.26C43.86,28.01,30.38,11.98,20.85,7.3l-.2.14c9.58,7.86,21.02,23.13,25.47,39.63-2.13,1.57-4.59,3.01-7.3,4.18-9.05-10.31-17.48-30.2-20.2-42.81l-.28.08c.06,12.25,8.76,33.04,19.37,43.19-2.36.93-4.89,1.65-7.55,2.08-10.17-4.03-17.41-16.93-17.41-30.14,0-8.63,2.63-13.96,3.14-15.05l-.22-.09c-.62.93-4.47,6.26-4.47,15.58,0,14.94,7.37,26.35,17.16,29.95-3.35.36-6.87.25-10.48-.49l-.07.23c1.05.38,4.6,1.87,10.01,1.87,12.25,0,20.54-7.61,23.87-13.39l-.24-.16Z"/>
      <path class="cls-3" d="M26.59,0C17.3,0,6.41,6.7,6.41,12.82c0,2.37,2.17,4.37,6.66,4.37,10.42,0,20.1-7.16,20.1-12.72,0-2.93-2.81-4.48-6.57-4.48ZM30.3,4.31c0,4.69-9.01,10.42-16.54,10.42-3.33,0-5.13-1.31-5.13-3.47C8.63,6.5,17.74.87,24.81.87c4.61,0,5.49,2.34,5.49,3.44Z"/>
      <path class="cls-1" d="M2.71,15.66c-.26.45-1.31,2.5-1.31,4.59,0,3.89,3.93,7.5,11.16,7.5,13.91,0,29.98-10.23,29.98-19.73,0-4.26-4.04-6.58-6.84-7.06l-.05.17c.87.28,4.07,1.76,4.07,5.56,0,7.57-14.19,17.88-28.32,17.88-5.41,0-8.82-2.67-8.82-6.56,0-1.23.26-2.04.33-2.27l-.19-.07Z"/>
      <path class="cls-4" d="M48.28,8.73c.38.29,2.67,2.2,2.67,5.81,0,12.3-19.29,24.4-36.34,24.4C4.44,38.94-.2,33.92,0,29.47h.18c.4,2.31,3.7,6.45,12.6,6.45,17.08,0,36.14-12.52,36.14-23.49,0-1.88-.51-3.05-.8-3.57l.15-.13Z"/>
      <path class="cls-2" d="M54.73,20.22c.08.26.5,1.44.5,3.28,0,13.69-19.52,25.4-36.5,25.4-8.74,0-13.3-4.24-14.26-5.96l.16-.12c2.42,2.12,7.18,3.72,12.74,3.72,15,0,37.37-11.4,37.17-26.28l.21-.05Z"/>
    </g>
  </g>
</svg>