<?xml version="1.0" encoding="UTF-8"?>
<svg id="Capa_2" data-name="Capa 2" xmlns="http://www.w3.org/2000/svg" xmlns:xlink="http://www.w3.org/1999/xlink" viewBox="0 0 199.19 172.6">
  <defs>
    <style>
      .cls-1 {
        fill: url(#linear-gradient);
      }

      .cls-1, .cls-2, .cls-3, .cls-4 {
        stroke-width: 0px;
      }

      .cls-2 {
        fill: #f19223;
        fill-rule: evenodd;
      }

      .cls-3 {
        fill: #868789;
      }

      .cls-4 {
        fill: #56752e;
      }
    </style>
    <linearGradient id="linear-gradient" x1="64.76" y1="117.47" x2="133.53" y2="48.7" gradientUnits="userSpaceOnUse">
      <stop offset="0" stop-color="#f19223"/>
      <stop offset=".3" stop-color="#eb671f"/>
      <stop offset=".6" stop-color="#e6431d"/>
      <stop offset=".84" stop-color="#e32d1b"/>
      <stop offset="1" stop-color="#e2251b"/>
    </linearGradient>
  </defs>
  <g id="Capa_1-2" data-name="Capa 1">
    <g>
      <g>
        <path class="cls-4" d="M106.07,113c.41,0,.78.25.6.8-.69,2.02-.23.68-9.73,26.78,0,0-.2.56-.59.56h-4.22c-.38,0-.58-.56-.58-.56,0,0-9.48-26.07-9.73-26.78-.19-.55.18-.8.61-.8h3.61s.4-.05.54.36c.17.54,7.13,20.19,7.36,20.83.04.16.14.24.23.25.03.02.06,0,.06,0,.02,0,.05.02.06,0,.1-.02.18-.1.24-.25.22-.64,7.18-20.29,7.37-20.83.13-.41.52-.36.52-.36h3.62M14.16,112.28c7.75,0,14.09,6.34,14.09,14.82s-6.23,14.76-14.03,14.76c-3.27,0-6.36-1.28-8.55-3.46-.62-.62-1.19-.31-1.19.27v13.84c0,1.16-.1,1.16-1.17,1.16H1.15c-1.03,0-1.15,0-1.15-1.16v-25.4c0-8.3,6.18-14.82,14.16-14.82M14.16,137.59c5.19,0,9.45-4.6,9.45-10.49s-4.26-10.49-9.45-10.49-9.51,4.64-9.51,10.49,4.32,10.49,9.51,10.49M46.21,112.28c8.04,0,14.16,6.67,14.16,14.88s-6.12,14.7-14.16,14.7-14.15-6.62-14.15-14.7,6.19-14.88,14.15-14.88M46.21,137.37c5.25,0,9.52-4.58,9.52-10.22s-4.26-10.44-9.52-10.44-9.46,4.7-9.46,10.44,4.27,10.22,9.46,10.22M154.22,112.28c-6.72,0-11.76,4.66-11.76,11.76v16.13c0,.74.1.98,1.01.98h2.54c.78,0,1.06,0,1.06-.77v-16.5c0-4.21,2.77-7.27,7.15-7.27s7.1,3.05,7.1,7.27v16.5c0,.64.23.76.9.76h2.66c.99,0,1.05-.22,1.05-1.02v-16.08c0-7.1-4.98-11.76-11.71-11.76M123.43,112.3c6.19,0,11.83,3.65,13.55,10.73.15.57-.2.94-.72,1.14-.02,0-16.54,7.09-19.85,8.5-.44.18-.6.6-.28,1.16,1.13,1.92,4.63,3.72,7.58,3.72,3.45,0,6.45-1.73,8.3-4.72,0,0,.24-.45.8-.45h3.08c.72,0,.92.66.79.99-2.33,5.37-6.84,8.38-12.96,8.38-8.08,0-14.55-6.44-14.55-14.67,0-9.15,6.47-14.79,14.27-14.79M130.56,121.93c.4-.16.57-.58.33-1.01-2.01-3.6-6.94-5.57-11.66-3.25-5.62,2.77-5.45,8.83-4.98,10.28.2.61.79.61,1.13.48.35-.14,14.16-6.06,15.19-6.5M177.17,113h-2.76c-.6,0-.92.06-.92.7v26.79c0,.8.77.65.96.65h2.76c.59,0,.91-.07.91-.7v-26.79c0-.81-.76-.65-.96-.65M198.08,112.36c-6.87-.34-12.33,3.97-12.33,12.06,0,0,0,15.25,0,16.06s.76.67.96.67h2.73c.6,0,.91-.08.91-.71v-16.12c0-5.11,3.06-7.73,7.96-7.59.39,0,.9-.17.9-.83v-2.57c0-.72-.48-.98-1.11-.96M78.24,112.36c-6.88-.34-12.35,3.97-12.35,12.06v16.06c0,.8.75.67.95.67h2.74c.6,0,.91-.08.91-.71v-16.12c0-5.11,3.07-7.73,7.96-7.59.4,0,.89-.17.89-.83v-2.57c0-.72-.46-.98-1.1-.96"/>
        <g>
          <path class="cls-2" d="M184.73,94.8c0-.67-.4-1.25-.98-1.51h0s-.03-.03-.03-.03c-.01,0-.02,0-.03,0l-14.37-8.89,14.67-10.58h.02v-.02c.44-.3.72-.8.72-1.37,0-.84-.63-1.54-1.45-1.65v-.03s-18.09-1.83-18.09-1.83l15.83-19.41c.31-.3.5-.71.5-1.18,0-.9-.74-1.64-1.65-1.64-.04,0-.07,0-.11,0v-.02s-25.08,4.07-25.08,4.07l7.43-16.54v-.02c.06-.19.11-.39.11-.61,0-.94-.76-1.7-1.71-1.7-.18,0-.36.04-.54.1h-.02s-16.61,7.45-16.61,7.45l4-24.66h0c.02-.12.03-.24.03-.36,0-.94-.77-1.71-1.71-1.71-.34,0-.65.1-.92.27h0l-.02.02c-.1.06-.19.14-.27.22l-19.3,15.73-1.81-17.93h-.02c.01-.07.02-.14.02-.2,0-.9-.72-1.62-1.63-1.62-.63,0-1.2.37-1.45.91l-10.59,14.69L100.79,1.27h0c-.16-.73-.8-1.27-1.58-1.27s-1.41.54-1.57,1.27l-8.91,23.48-10.58-14.66h0c-.26-.56-.81-.94-1.46-.94-.9,0-1.63.72-1.63,1.62,0,.09.02.18.03.27h-.02s-1.82,17.87-1.82,17.87l-19.53-15.94c-.28-.18-.61-.3-.98-.3-.94,0-1.7.76-1.7,1.71,0,.14.02.28.05.41h0s3.98,24.61,3.98,24.61l-16.57-7.44h0c-.19-.06-.39-.11-.6-.11-.93,0-1.7.77-1.7,1.7,0,.25.06.48.14.69l7.41,16.49-25.03-4.06h-.01c-.06,0-.1,0-.16,0-.91,0-1.64.74-1.64,1.64,0,.47.19.9.52,1.2l15.82,19.38-18.09,1.83v.03c-.82.09-1.48.79-1.48,1.65,0,.59.31,1.11.77,1.4l14.66,10.57-14.45,8.85c-.08.02-.15.05-.23.09l-.06.02h.03c-.54.27-.92.83-.92,1.48h171.24Z"/>
          <path class="cls-1" d="M42.09,94.8h114.11c-.11-31.42-25.61-56.85-57.06-56.85s-56.94,25.43-57.05,56.85"/>
        </g>
      </g>
      <g>
        <path class="cls-3" d="M74.01,169.33c-.97,0-2.12-.4-2.94-.93-.2-.14-.28-.34-.28-.54,0-.46.54-.81,1.09-.44.58.42,1.37.64,2.2.64,1.23,0,2.36-.6,2.36-1.41,0-1.01-1.25-1.45-2.38-1.91-1.31-.51-3.31-1.37-3.31-3.15,0-1.59,1.64-2.78,3.49-2.78,1.07,0,2.08.38,2.8.95.18.16.26.36.26.54,0,.46-.58.81-1.05.46-.56-.44-1.29-.67-2-.67-1.19,0-2.22.69-2.22,1.53,0,.95,1.41,1.49,2.36,1.86,1.47.59,3.35,1.51,3.35,3.17,0,1.96-2.18,2.68-3.73,2.68Z"/>
        <path class="cls-3" d="M79.57,164.05c0-2.87,2.36-5.24,5.26-5.24s5.27,2.36,5.27,5.24-2.36,5.28-5.27,5.28-5.26-2.36-5.26-5.28ZM80.82,164.05c0,2.22,1.82,4.01,4.01,4.01s4.03-1.79,4.03-4.01-1.81-3.97-4.03-3.97-4.01,1.79-4.01,3.97ZM83.51,157.27c-.08.04-.14.06-.22.06-.22,0-.42-.24-.42-.46.02-.16.1-.28.2-.36l2.3-1.93c.12-.1.26-.14.4-.14.5,0,.87.46.87.93,0,.26-.12.51-.38.63l-2.76,1.25Z"/>
        <path class="cls-3" d="M92.51,167.84v-11.66c0-.2-.14-.26-.14-.26-.24-.1-.38-.34-.38-.58,0-.38.32-.64.67-.64.73,0,1.11.64,1.11,1.39v11.66c0,.2.14.26.14.26.24.1.38.34.38.57,0,.38-.32.64-.67.64-.73,0-1.11-.64-1.11-1.39Z"/>
        <path class="cls-3" d="M96.58,164.05c0-2.87,2.36-5.24,5.26-5.24s5.27,2.36,5.27,5.24-2.36,5.28-5.27,5.28-5.26-2.36-5.26-5.28ZM97.83,164.05c0,2.22,1.83,4.01,4.01,4.01s4.02-1.79,4.02-4.01-1.8-3.97-4.02-3.97-4.01,1.79-4.01,3.97Z"/>
        <path class="cls-3" d="M123.29,167.84v-4.4c0-1.88-.99-3.25-3.13-3.25-1.53,0-3.01,1.05-3.01,2.84v4.82c0,.71-.28,1.35-1.01,1.39-.54,0-.75-.34-.77-.64,0-.32.16-.47.38-.57,0,0,.14-.06.14-.26v-11.58c0-.2-.14-.26-.14-.26-.24-.1-.38-.34-.38-.58,0-.38.32-.64.68-.64.73,0,1.11.64,1.11,1.39v4.44c.12-.24,1.03-1.63,3.01-1.63,3.04,0,4.4,1.73,4.4,4.68v4.17c0,.2.14.26.14.26.24.1.38.34.38.57,0,.38-.32.64-.67.64-.73,0-1.11-.64-1.11-1.39Z"/>
        <path class="cls-3" d="M134.11,168.3c-.04-.16-.04-.39-.04-.59-.56,1.01-2,1.63-3.17,1.63-1.96,0-3.79-1.15-3.79-3.29,0-2.58,2.1-3.75,4.52-3.75.85,0,1.81.26,2.44.65v-.56c0-.45-.06-1.01-.12-1.17-.32-.87-1.45-1.13-2.6-1.13-.87,0-1.49.14-2.28.36-.08.02-.2.04-.28.04-.36,0-.61-.26-.61-.61,0-.26.18-.5.44-.6.73-.28,1.71-.46,2.66-.46,1.65,0,3.29.46,3.87,1.94.18.46.2,1.03.2,1.59v5.42c0,.2.14.26.14.26.24.1.38.34.38.57,0,.38-.32.74-.67.74-.57,0-.93-.5-1.07-1.03ZM134.07,164.17c-.89-.49-1.63-.61-2.5-.61-1.61,0-3.19.71-3.19,2.46,0,1.41,1.29,2.06,2.56,2.06,1.47,0,3.13-.95,3.13-2.58v-1.33Z"/>
        <path class="cls-3" d="M137.73,160.47c-.04-.14-.14-.22-.28-.24-.3-.06-.5-.32-.5-.63,0-.46.36-.67.77-.67.54,0,.93.36,1.11.83l2.44,6.35.49,1.73h.02l.51-1.71,2.5-6.37c.2-.5.59-.83,1.15-.83.4,0,.73.24.73.66,0,.32-.18.57-.49.63-.12.02-.22.12-.28.24l-3.47,8.87c-.4.99-.87,2.22-1.78,2.87-.42.3-.87.42-1.33.42-.51,0-1.03-.14-1.53-.32-.24-.1-.42-.38-.42-.64,0-.36.32-.63.65-.63.4,0,.81.28,1.25.28.22,0,.44-.04.61-.18,0,0,.62-.5,1.07-1.63.04-.08.08-.18.12-.28l-3.37-8.75Z"/>
        <path class="cls-3" d="M162.85,167.65c-.57,1.05-2.1,1.59-2.99,1.59-2.96,0-4.5-1.57-4.5-4.52v-4.32c0-.2-.14-.26-.14-.26-.24-.1-.38-.34-.38-.57,0-.38.32-.63.68-.63.73,0,1.11.63,1.11,1.39v4.4c0,2.24,1.03,3.25,3.27,3.25,1.69,0,2.96-1.09,2.96-2.74v-4.92c0-.75.38-1.39,1.11-1.39.36,0,.67.26.67.63,0,.24-.14.48-.38.57,0,0-.14.06-.14.26v7.38c0,.2.14.26.14.26.24.1.38.34.38.57,0,.38-.32.64-.67.64-.87,0-1.17-.83-1.11-1.59Z"/>
        <path class="cls-3" d="M175.16,167.84v-4.4c0-1.88-.83-3.25-3.13-3.25-1.71,0-3.01,1.21-3.01,2.96v4.7c0,.75-.38,1.39-1.11,1.39-.36,0-.67-.26-.67-.64,0-.24.14-.47.38-.57,0,0,.14-.06.14-.26v-7.34c0-.2-.14-.24-.14-.24-.24-.1-.38-.36-.38-.59,0-.38.3-.67.66-.67.69,0,1.13.48,1.13,1.29v.36c.1-.18,1.09-1.65,3.01-1.65,2.92,0,4.4,1.73,4.4,4.68v4.17c0,.2.14.26.14.26.24.1.38.34.38.57,0,.38-.32.64-.67.64-.73,0-1.11-.64-1.11-1.39Z"/>
        <path class="cls-3" d="M178.78,164.05c0-2.87,2.36-5.24,5.26-5.24s5.28,2.36,5.28,5.24-2.36,5.28-5.28,5.28-5.26-2.36-5.26-5.28ZM180.03,164.05c0,2.22,1.82,4.01,4.01,4.01s4.03-1.79,4.03-4.01-1.8-3.97-4.03-3.97-4.01,1.79-4.01,3.97Z"/>
      </g>
    </g>
  </g>
</svg>