<?xml version="1.0" encoding="UTF-8"?>
<svg id="Capa_2" data-name="Capa 2" xmlns="http://www.w3.org/2000/svg" viewBox="0 0 238.44 81.43">
  <defs>
    <style>
      .cls-1 {
        fill: #e2241b;
        stroke-width: 0px;
      }
    </style>
  </defs>
  <g id="Capa_1-2" data-name="Capa 1">
    <g>
      <path class="cls-1" d="M197.61,58.81c1.03,0,1.96.17,2.8-.03,3.43-.84,6.08-2.8,7.87-5.87.8-1.37,1.53-2.79,2.37-4.14,1.2-1.93,3.8-2.85,5.95-2.19,1.25.38,1.67,1.38,1.16,2.78-.17.47-.41.92-.4,1.67.65-.33,1.3-.64,1.94-.99,3.55-1.92,7.18-3.48,11.36-3.32,4.08.15,5.85,2.35,4.43,6.17-.86,2.32-2.19,4.5-3.56,6.58-2.04,3.1-4.33,6.02-6.44,9.07-.71,1.02-1.3,2.15-1.76,3.3-.45,1.12.01,1.71,1.22,1.58.83-.09,1.75-.34,2.41-.81,3.17-2.26,6.27-4.63,9.4-6.95.58-.43,1.19-1.39,1.91-.55.34.4.12,1.39-.05,2.07-.12.48-.52.93-.89,1.3-3.94,3.9-7.92,7.79-12.89,10.38-1.29.67-2.77,1.2-4.21,1.34-2.79.26-4.66-1.91-4.21-4.68.16-.98.44-2.02.95-2.85,2.16-3.52,4.44-6.98,6.67-10.46.88-1.38,1.85-2.72,2.57-4.18,1.25-2.56-.06-4.68-2.91-4.54-1.54.08-3.13.58-4.56,1.21-4.75,2.06-8.01,5.79-10.59,10.12-2.22,3.72-4.2,7.58-6.37,11.33-.59,1.03-1.41,1.96-2.23,2.82-.48.5-1.14.93-1.8,1.14-2.28.75-3.54-.33-2.8-2.59.71-2.18,1.75-4.27,2.83-6.29,1.59-2.96,3.35-5.83,5-8.68-2.05.1-4.03.13-6,.33-.32.03-.67.74-.83,1.19-1.89,5.38-5.25,9.71-9.45,13.44-2.2,1.95-4.79,3.07-7.78,2.94-5.24-.22-9.2-4.46-9.34-9.87-.09-3.34.62-6.5,2.05-9.51.2-.42.39-.84.61-1.33h-5.21c-.47,1.28-1.01,2.76-1.55,4.23-2.04,5.58-5.37,10.21-10.27,13.63-2.56,1.79-5.29,3.23-8.59,2.74-3.21-.48-5.11-2.54-5.41-5.82-.27-2.88.24-5.66,1.08-8.4.28-.91.56-1.83.85-2.76-1.53-.18-2.95-.41-4.38-.47-.33-.01-.85.53-.99.92-1.7,5.01-4.77,9.1-8.5,12.74-2.73,2.66-5.91,4.26-9.88,3.82-4.28-.48-7.91-4.42-8.24-9.1-.08-1.13-.01-2.28-.01-3.84-1.25,1.4-2.13,2.59-3.21,3.57-2.8,2.56-5.61,5.12-8.57,7.48-1.12.89-2.64,1.41-4.05,1.8-2.75.75-5.08-.6-6.07-3.29-.93-2.52-.52-5.03.08-7.53.19-.79.41-1.56.61-2.35-.18-.16-.35-.31-.53-.47-.21.41-.32.93-.63,1.22-2.91,2.73-5.66,5.69-8.83,8.08-4.71,3.56-10.16,5.25-16.13,4.58-2.92-.33-5.42-1.67-7.25-4.05-.79-1.03-1.04-2.17-.37-3.37,1.1-1.94,3.11-2.18,4.84-.54,1.03.97,1.77,2.62,3.43,2.27,1.69-.36,3.47-.93,4.88-1.9,3.5-2.42,5.54-5.97,6.61-10.05.65-2.47-.2-4.62-1.75-6.74-4.07,6.01-9.32,9.08-16.82,7.15-.21.5-.43,1.01-.64,1.53-2.16,5.47-5.6,9.99-10.31,13.47-3.26,2.41-6.97,3.03-10.62,1.15-3.65-1.88-5.23-5.26-5.33-9.3-.12-4.65,1.45-8.78,4.06-12.57,3.24-4.7,7.44-8.3,12.51-10.89,1.89-.96,3.92-1.3,6.03-1.1,3.36.31,5.83,2.8,5.94,6.16.06,1.92,0,3.86-.26,5.76-.18,1.37.32,1.83,1.54,1.97,4.13.47,7.45-1.14,10.23-4.02,1.65-1.7,2.96-3.6,3.57-6,.76-2.98,2.96-4.26,5.61-3.59.77.2,1.23.58,1.03,1.42-.39,1.68.32,3,1.28,4.27.46.61.93,1.23,1.38,1.85,1.21,1.64,1.57,3.43,1.2,5.46-1.15,6.3-4.77,10.93-9.74,14.67-.53.4-1.08.78-1.61,1.16.08.13.17.26.25.39,2.23-1.43,4.55-2.73,6.67-4.3,4.84-3.59,8.75-8.13,12.39-12.87,3.11-4.04,5.95-8.29,8.9-12.45.21-.3.33-.66.69-1.43-3.3.38-6.25.71-9.2,1.05-.29-2.34,2.26-5.49,4.53-5.86,2.37-.39,4.76-.65,7.15-.83.94-.07,1.41-.4,1.91-1.17,3.18-4.94,6.41-9.85,9.68-14.73,1.38-2.06,3.36-3.21,5.9-2.91.79.09,1.72.57,2.22,1.17.73.89.48,1.97-.18,2.94-2.31,3.38-4.59,6.78-6.87,10.18-.98,1.46-1.92,2.95-3.05,4.69h8.41c.36,2.6-1.62,5.41-4.24,5.77-1.98.27-4.03.06-6.04.17-.69.04-1.66.17-2.01.63-4.6,6-9.17,12.05-11.89,19.22-.49,1.3-.94,2.64-1.19,4-.35,1.9.74,3,2.65,2.71,2.49-.38,4.78-1.38,6.45-3.28,3.19-3.6,6.31-7.27,9.31-11.03,3.47-4.36,7.43-8.12,12.62-10.3,1.5-.63,3.27-.86,4.91-.85,3.74.04,6.34,2.69,6.43,6.41.05,1.87-.11,3.75-.31,5.61-.1.96.09,1.48,1.09,1.59.38.04.76.16,1.14.2,2.93.33,2.93.26,4.28-2.34,5.56-10.7,11.56-21.14,19.5-30.3,1.96-2.26,4.44-4.11,6.89-5.86,1.15-.82,2.75-1.2,4.2-1.35,3.1-.32,5.04,1.89,4.81,5-.33,4.47-2.11,8.35-4.54,12.01-3.45,5.18-8.01,9.35-12.33,13.75-3.65,3.71-7.28,7.45-12,9.88-.24.12-.46.37-.57.62-1.11,2.66-2.21,5.33-3.29,8.01-.09.22-.18.49-.13.7.2.89.18,2.15.75,2.56.58.42,1.86.26,2.66-.08,2.5-1.06,4.51-2.86,5.96-5.1,1.7-2.62,3.15-5.4,4.66-8.13.27-.48.35-1.09.43-1.65.19-1.42,2.07-3.69,3.47-3.93.38-.07.98.27,1.27.6,1.65,1.94,4.74,2.64,6.92,1.33,1.23-.73,2.36-1.66,3.42-2.63,2.72-2.49,5.58-4.75,9.02-6.15,2.39-.98,4.86-1.26,7.31-.23,2.27.95,3.68,2.68,3.81,5.17.1,1.96-.08,3.94-.15,5.91-.02.47-.07.94-.13,1.57ZM47.46,54.06c-1.21.86-2.62,1.7-3.85,2.75-2.96,2.52-5.61,5.31-6.47,9.3-.46,2.15-.14,4.21,1.67,5.63,1.8,1.41,3.82,1.03,5.73.08,4.28-2.15,6.99-5.78,9.13-9.9.15-.28.08-.88-.13-1.11-1.92-2.19-3.9-4.34-6.07-6.74ZM127.94,54.26c-3.27,1.77-6.24,4.31-8.38,7.69-.83,1.31-1.41,2.84-1.78,4.35-.52,2.08-.1,4.11,1.68,5.46,1.82,1.38,3.84,1,5.73.03,4.33-2.23,7.11-5.91,9.23-10.17.14-.28.06-.87-.15-1.09-2.03-2.08-4.11-4.11-6.33-6.29ZM186.3,54.22c-1.29.95-2.81,1.96-4.19,3.13-2.45,2.07-4.51,4.49-5.55,7.59-.93,2.79-.4,5.59,1.31,6.78,2.32,1.62,4.63.91,6.76-.4,3.71-2.28,6.27-5.62,8.16-9.49.15-.3.03-.93-.21-1.18-1.97-2.08-4-4.11-6.28-6.43ZM154.43,54.7c.12.11.25.22.37.33.4-.33.82-.64,1.2-.99,6.01-5.54,11.26-11.76,15.94-18.43,1.7-2.42,2.95-5.16,4.35-7.79.17-.31.14-1.07-.03-1.16-.36-.18-.96-.2-1.3,0-.87.51-1.7,1.1-2.44,1.77-5.05,4.59-8.69,10.29-12.23,16.03-2.07,3.34-3.91,6.82-5.86,10.24ZM194.69,56.79c.46-1.76.78-3.23-.38-4.14-.71-.56-1.97-.42-2.98-.59-.09.2-.19.39-.28.59,1.13,1.29,2.27,2.57,3.65,4.14ZM55.52,56.75c.55-1.72.82-3.13-.26-4.05-.65-.56-1.85-.48-2.8-.69-.1.19-.2.38-.29.58,1.05,1.3,2.1,2.6,3.35,4.16ZM132.56,52.45c1.27,1.51,2.37,2.81,3.6,4.27,1.01-3.69-.13-5.11-3.6-4.27Z"/>
      <path class="cls-1" d="M15.16,52.03c-2.61-.14-5.01-.26-7.4-.42-.52-.03-1.13-.06-1.53-.34-.65-.45-1.58-1.07-1.63-1.69-.05-.64.66-1.78,1.27-1.96,1.81-.55,3.72-.82,5.61-1.05,1.86-.22,3.75-.3,5.62-.33,1.14-.02,1.81-.44,2.4-1.43,4.42-7.4,8.89-14.77,13.36-22.14.55-.91,1.13-1.79,1.74-2.66,1.46-2.08,3.71-1.88,4.76.47.91,2.04.59,4.07-.5,5.96-1.28,2.21-2.64,4.37-3.95,6.56-1.94,3.22-3.87,6.44-5.8,9.66-.17.28-.3.58-.51,1,.33,0,.52.04.68,0,8.15-2.36,16.24-4.88,23.45-9.56,4.34-2.82,7.98-6.36,10.6-10.86,3.15-5.42,1.43-10.41-4.35-12.8-4.5-1.86-9.04-1.44-13.61-.3-7.3,1.82-14.07,4.93-20.62,8.56-7.85,4.35-15.25,9.39-22.3,14.95-.48.38-1.34.82-1.71.62-.43-.23-.77-1.13-.72-1.71.27-3.35.59-6.7,1.06-10.03.11-.76.67-1.69,1.31-2.11C14.63,12.46,27.11,4.9,41.49,1.25c5.63-1.43,11.35-1.73,17.03-.42,7.05,1.62,12.16,7.42,12.85,14.61.49,5.06-1.61,9.3-4.79,13.06-5.27,6.24-12.02,10.48-19.26,14-6.78,3.3-13.96,5.51-21.25,7.36-.96.24-1.6.64-2.08,1.54-2.77,5.18-5.6,10.33-8.38,15.5-.24.45-.37.98-.48,1.49-1.02,4.67-3.35,8.58-7.02,11.61-1.17.97-2.61,1.99-4.2,1.06-1.58-.93-1.82-2.74-1.37-4.25.86-2.88,1.82-5.79,3.23-8.43,2.79-5.22,5.92-10.26,8.91-15.37.16-.28.29-.58.48-.97Z"/>
      <path class="cls-1" d="M192.15,42.4c-1.82-.01-2.43-.85-1.55-2.09,1.79-2.54,3.66-5.04,5.71-7.37,1.49-1.68,3.63-1.81,5.76-1.44,1.87.33,2.38,1.58,1.04,2.93-1.72,1.73-3.6,3.32-5.52,4.83-1.31,1.03-2.8,1.85-4.24,2.71-.44.26-.97.35-1.2.43Z"/>
      <path class="cls-1" d="M122.02,44.03c-.02-.13.05-.19.18-.19-.06.06-.12.13-.18.19Z"/>
    </g>
  </g>
</svg>