<?xml version="1.0" encoding="UTF-8"?>
<svg id="Capa_2" data-name="Capa 2" xmlns="http://www.w3.org/2000/svg" viewBox="0 0 284.19 72.93">
  <defs>
    <style>
      .cls-1 {
        fill: #594294;
      }

      .cls-1, .cls-2 {
        fill-rule: evenodd;
        stroke-width: 0px;
      }

      .cls-2 {
        fill: #1d1d1b;
      }
    </style>
  </defs>
  <g id="Capa_1-2" data-name="Capa 1">
    <g>
      <path class="cls-2" d="M100.84,23.34c-6.77-2.57-13.14-3.8-20.22-3.8-15.5,0-26.38,10.37-26.38,26.68s9.44,26.69,26.17,26.69c6.77,0,13.34-1.13,20.42-4.11,1.64-.72,2.57-1.85,2.57-4.11V27.45c0-2.36-.92-3.49-2.57-4.1M90.07,56.9c0,1.54-.82,2.26-2.56,2.77-2.26.62-4.21.92-6.98.92-6.57,0-12.73-3.9-12.73-14.37s6.16-14.37,12.73-14.37c2.77,0,4.72.31,6.98.92,1.75.51,2.56,1.23,2.56,2.77v21.35ZM47.47,63.99c0,1.75-.2,4.11-.82,5.85-.51,1.54-1.13,2.05-2.67,2.05h-9.24c-1.03,0-1.54-.62-1.54-1.44,0-.21,0-.41.1-.62.41-1.33.61-2.26.61-3.8,0-15.09-33.05-6.67-33.05-28.43,0-11.09,8.83-18.47,22.58-18.47,7.29,0,14.88,1.74,21.25,5.44.82.41,1.23,1.23,1.23,2.05,0,.51-.11,1.11-.41,1.74l-3.18,6.78c-.41.92-1.33,1.44-2.26,1.44-.51,0-1.03-.11-1.54-.41-5.23-2.87-10.26-4.62-15.5-4.62s-8.62,1.99-8.62,5.13c0,9.61,33.05,4,33.05,27.3M162.63,38.84v31c0,1.23-.82,2.05-2.05,2.05h-9.24c-1.23,0-2.05-.82-2.05-2.05v-29.25c0-6.16-4.41-8.72-9.96-8.72-3.18,0-4.92.2-7.59.82-1.64.41-2.46,1.13-2.46,2.67v34.49c0,1.23-.82,2.05-2.05,2.05h-9.24c-1.23,0-2.05-.82-2.05-2.05V27.34c0-2.36,1.13-3.59,2.57-4.11,7.49-2.67,14.58-3.69,20.63-3.69,15.8,0,23.5,6.77,23.5,19.29M197.94,19.54c-15.4,0-25.46,11.19-25.46,26.68s10.06,26.69,26.17,26.69,25.45-11.19,25.45-26.69-10.06-26.68-26.17-26.68M198.66,60.6c-7.59,0-12.63-4.93-12.63-14.37s5.03-14.37,11.91-14.37c7.59,0,12.62,4.92,12.62,14.37s-5.03,14.37-11.91,14.37M283.34,22.62v47.21c0,1.23-.82,2.05-2.05,2.05h-9.24c-1.23,0-2.05-.82-2.05-2.05V22.62c0-1.23.82-2.05,2.05-2.05h9.24c1.23,0,2.05.82,2.05,2.05M263.63,2.81c0,.44-.11.86-.2,1.33l-1.03,5.34c-.2,1.23-.72,1.95-1.95,1.95-.76,0-2.98-.51-5.03-.51-5.65,0-8.11,2.87-8.11,8.52v1.13h13.04c1.34,0,2.05.82,2.05,2.15v7.08c0,1.23-.72,2.05-2.05,2.05h-13.04v37.97c0,1.23-.82,2.05-2.05,2.05h-9.13c-1.23,0-2.05-.82-2.05-2.05V21.6C234.07,6.81,242.38.04,255.11.04c2.19,0,4.41.21,6.47.72,1.44.31,2.05.91,2.05,2.05"/>
      <path class="cls-1" d="M277.11,14.37c4.21,0,7.08-2.77,7.08-7.19,0-4.52-2.87-7.19-7.39-7.19-4.31,0-7.08,2.67-7.08,7.19,0,4.41,2.77,7.18,7.39,7.19"/>
      <path class="cls-1" d="M6.98,58.77C2.77,58.77,0,61.44,0,65.85c0,4.31,2.77,7.08,7.29,7.08,4.21,0,6.98-2.77,6.98-7.08,0-4.41-2.77-7.08-7.29-7.08"/>
    </g>
  </g>
</svg>