<?xml version="1.0" encoding="UTF-8"?>
<svg id="Capa_2" data-name="Capa 2" xmlns="http://www.w3.org/2000/svg" viewBox="0 0 902.84 85.08">
  <defs>
    <style>
      .cls-1 {
        fill: #df0d20;
      }

      .cls-1, .cls-2 {
        stroke-width: 0px;
      }

      .cls-2 {
        fill: #ed0722;
      }
    </style>
  </defs>
  <g id="Capa_1-2" data-name="Capa 1">
    <g>
      <path class="cls-2" d="M16.96,42.34c-2.76-4.27-3.31-10.07-3.31-14.48C13.65,12.83,27.03,0,41.23,0h43.85l-17.1,17.24h-27.17c-10.9,0-24.13,11.03-23.86,25.1h0ZM33.79,30.06c1.65-4.14,4.41-7.86,7.86-10.62-6.34,0-13.52,3.03-19.03,10.62h11.17ZM42.61,21.51c-2.76,2.34-4.96,5.24-6.62,8.55h13.24c-1.79-3.31-4.04-6.2-6.62-8.55h0ZM21.79,32.27c-1.51,3.03-2.48,6.34-2.76,9.65h12.27c0-3.31.55-6.62,1.65-9.65h-11.17ZM35.17,32.27c-1.1,3.17-1.65,6.34-1.93,9.65h18.62c-.28-3.31-.83-6.48-1.93-9.65h-14.76ZM62.06,30.07c-5.24-7.58-12.44-10.62-18.62-10.62,3.45,2.89,6.2,6.48,7.86,10.62h10.76ZM52.13,32.27c1.1,3.03,1.65,6.34,1.65,9.65h12.44c-.13-3.45-1.1-6.73-2.76-9.65h-11.34ZM22.76,55.3c5.51,7.86,12.69,10.62,19.03,10.62-3.31-2.62-6.89-7.17-7.86-10.62h-11.17ZM42.61,64.13c2.76-2.48,4.96-5.51,6.62-8.83h-13.24c1.51,3.31,3.86,6.34,6.62,8.83h0ZM32.96,53.37c-1.1-3.03-1.65-6.34-1.65-9.65h-12.44c.28,3.31,1.24,6.62,2.76,9.65h11.34ZM49.92,53.37c1.1-3.17,1.65-6.34,1.93-9.65h-18.62c.28,3.31.83,6.48,1.93,9.65h14.76ZM51.27,55.3c-1.75,4.11-4.44,7.74-7.86,10.62,6.2,0,13.38-2.76,18.62-10.62h-10.76ZM63.27,53.37c1.65-2.89,2.62-6.2,2.76-9.65h-12.44c0,3.29-.56,6.55-1.65,9.65h11.34ZM67.82,42.61c.41,14.48-12.69,25.51-23.72,25.51h-27.17L0,85.08h43.85c13.93,0,27.44-12.69,27.44-27.58,0-4.41-.55-10.21-3.31-14.48v-.28l-.16-.14ZM159.53,63.03c-9.01,0-15.6-5.49-15.6-13.96s6.81-13.96,15.6-13.96,15.6,5.6,15.6,13.96-6.7,13.96-15.6,13.96ZM314.75,35.68v26.8h-9.01l-.11-2.75h-.22c-.99.87-3.08,3.3-8.9,3.3-6.59,0-12.19-5.6-12.19-13.96,0-7.8,5.05-13.96,12.78-13.96,5.27,0,7.4,2.31,8.13,3.08h.22l.11-2.42,9.2-.09ZM244.81,35.68v26.8h-9.01l-.11-2.75h-.2c-.99.87-3.08,3.3-8.9,3.3-6.48,0-12.19-5.6-12.19-13.96,0-7.8,5.05-13.96,12.78-13.96,5.27,0,7.4,2.31,8.13,3.08h.22l.11-2.42,9.18-.09ZM200.75,35.68h9.42v26.8h-9.42v-26.8ZM250.73,62.48V24.59h9.23v12.96h.11c2.4-1.64,5.23-2.52,8.13-2.53,7.25,0,12.63,5.82,12.63,13.51,0,9.67-5.93,14.5-12.63,14.5-5.05,0-7.69-2.42-8.24-3.08h-.11l-.11,2.42-9.01.1ZM159.56,56.22c3.7,0,5.93-3.3,5.93-7.25s-2.2-7.4-5.93-7.4c-3.95,0-5.93,3.3-5.93,7.4s2.08,7.25,5.93,7.25ZM196.36,55.12c-.87.22-1.68.44-2.52.44-2.08.11-3.84-1.32-4.04-3.41v-9.77h5.82v-6.7h-5.82v-8.68h-9.23v8.57h-4.17v6.81h4.17v10.55c0,5.82,2.75,10,9.67,10,1.76,0,3.41-.11,5.16-.44l.96-7.36ZM90.21,61.38c3.5,1,7.12,1.52,10.76,1.54,7.91,0,15.93-2.86,15.93-11.53,0-12.08-16.48-10.32-16.48-15.16,0-2.42,2.52-2.97,5.05-2.97,3.08.22,6.04.87,8.79,2.08l.87-8.35c-3.1-.9-6.33-1.31-9.56-1.21-7.91,0-15.6,3.08-15.6,10.88,0,11.86,16.48,9.34,16.48,15.49,0,2.42-2.42,3.3-5.38,3.3-4.17,0-8.02-2.08-9.78-2.86l-1.09,8.8ZM294.09,48.85c0,4.51,2.52,7.25,5.72,7.25,2.86,0,5.72-2.75,5.72-6.92s-2.52-7.06-5.72-7.06c-3.41,0-5.72,2.97-5.72,6.7v.03ZM224.15,48.85c0,4.51,2.52,7.25,5.72,7.25,2.86,0,5.72-2.75,5.72-6.92s-2.52-7.06-5.72-7.06-5.72,2.97-5.72,6.7v.03ZM141.52,36.16c-2.2-.66-4.4-.99-6.7-.99-8.35,0-14.72,5.27-14.72,13.96,0,7.91,5.6,13.96,14.28,13.96,2.42,0,4.72-.44,7.06-1.1l-.44-7.8c-1.43.87-3.08,1.32-4.72,1.32-3.41.22-6.37-2.52-6.48-5.93v-.55c0-3.51,2.75-6.37,6.26-6.37h.44c1.68.11,3.18.55,4.61,1.21l.41-7.7ZM354.41,62.52h9.34v-12.44h.11l8.24,12.44h10.32l-10-14.17,9.78-12.63h-10.32l-8.02,10.99h-.11v-21.97h-9.34v37.79ZM320.68,62.52h9.01v-13.84c0-3.18,2.2-5.49,4.94-5.49,3.08,0,4.94,2.08,4.94,5.49v13.84h9.01v-16.15c0-6.04-3.84-11.2-11.1-11.2-3.17-.02-6.2,1.3-8.35,3.63h-.22l-.11-2.97h-8.13v26.69ZM205.45,22.06c-2.97,0-5.27,2.31-5.27,5.27s2.31,5.27,5.27,5.27,5.27-2.31,5.27-5.27-2.31-5.16-5.27-5.27ZM271.25,49.08c0-3.51-2.08-6.81-5.6-6.81-3.08,0-5.6,2.64-5.6,6.81s2.08,6.81,5.6,6.81c3.18-.11,5.6-2.75,5.6-6.81Z"/>
      <path class="cls-2" d="M388.77,62.49c4.81,0,4.82-7.48,0-7.48s-4.82,7.48,0,7.48h0Z"/>
      <g>
        <path class="cls-1" d="M529.83,64.15c7.68-1.94,13.89-4.63,18.51-7.63-3.17.93-9.03,2.34-16.25,2.68-10.86.59-38.94-4.21-38.94-19.54,0-18.26,35.84-25.26,50.52-26.09,11.39-.67,25.7.44,28.01.61-9.18-3.69-20.21-5.86-32.1-5.86-24.34,0-45.15,9.07-53.57,21.89-2.57,3.93-3.98,8.2-3.98,12.67,0,9.8,6.8,18.65,17.73,24.95,11.08.82,30.07-3.68,30.07-3.68Z"/>
        <path class="cls-1" d="M597.16,42.9c0-9.75-6.75-18.56-17.58-24.86-11.03-.93-30.28,3.64-30.28,3.64-7.68,1.94-13.86,4.65-18.49,7.63,3.15-.93,9.03-2.34,16.22-2.71,10.88-.59,38.97,4.26,38.97,19.55,0,18.32-35.84,25.26-50.51,26.12-11.12.65-24.98-.39-27.83-.62,9.15,3.67,20.14,5.82,31.96,5.82,16.75,0,31.83-4.3,42.36-11.15,9.42-6.16,15.17-14.38,15.17-23.42Z"/>
        <path class="cls-1" d="M520.6,43c0,7.41,9.41,13.54,21.12,13.54,2.78,0,5.61-.42,8.27-1.13,5.68-4.11,8.56-8.64,8.56-12.6,0-7.41-9.4-13.49-21.12-13.49-2.81,0-5.61.4-8.27,1.13-5.69,4.09-8.57,8.62-8.57,12.55Z"/>
      </g>
      <path class="cls-1" d="M647.44,24.33c-2.91-1.31-5.93-2.06-9.31-2.06-5.7,0-11.83,2.48-16.45,6.59-4.47,3.99-7.38,9.35-8.24,14.9-.91,6.04.31,11.34,4.14,15.36,3.61,3.86,8.66,6,14.31,6,3.27,0,5.92-.81,9.59-1.89l1.93-12.68c-2.61,2.66-6.3,4.33-9.76,4.33-6.54,0-10.24-4.66-9.23-11.07.94-6.32,6.05-11.3,12.5-11.3,3.6,0,6.84,1.58,8.56,4.5l1.94-12.68ZM672.51,21.99c-11.64,0-23.71,8.64-25.59,20.94-2.01,13.18,5.95,22.48,18.98,22.48s23.81-9.3,25.83-22.48c1.88-12.3-7.56-20.94-19.22-20.94M670.97,32.25c6.27,0,10.65,5.13,9.79,10.73-1.07,7.03-7.01,12.16-13.29,12.16s-10.67-5.13-9.6-12.16c.86-5.6,6.8-10.73,13.1-10.73M708.52,23.36h-10.55l-6.22,40.69h23.14l1.39-8.96h-12.64l4.88-31.73ZM717.73,64.05h10.51l2.09-13.5h5.97c9.18,0,14.98-4.2,16.46-13.81,1.4-9.35-4-13.38-12.68-13.38h-16.11l-6.23,40.69ZM733.19,31.88h1.77c4.08,0,7.56.06,6.77,5.18-.73,4.97-4.5,4.97-8.34,4.97h-1.77l1.57-10.15ZM772.44,56.97l1.55,7.09h11.22l-9.01-40.69h-11.53l-21.79,40.69h11.15l3.9-7.09h14.51ZM770.82,48.88h-8.76l6.34-12.97,2.42,12.97ZM804.95,32.31h8.7l1.38-8.94h-27.94l-1.38,8.94h8.72l-4.89,31.75h10.55l4.86-31.75ZM835.53,47.38c5.9-1.02,9.75-5.89,10.64-11.51,1.32-8.68-4.17-12.5-12.17-12.5h-15.75l-6.23,40.69h10.54l2.4-15.67,7.64,15.67h13.11l-10.17-16.68ZM827.54,31.44h1.03c3.45,0,7.21.66,6.53,5.09-.69,4.42-4.65,5.06-8.08,5.06h-1.03l1.55-10.16ZM864.19,23.36h-10.53l-6.24,40.69h10.57l6.2-40.69ZM890.05,56.97l1.56,7.09h11.23l-9.04-40.69h-11.48l-21.82,40.69h11.17l3.89-7.09h14.5ZM888.44,48.88h-8.75l6.31-12.97,2.44,12.97Z"/>
    </g>
  </g>
</svg>