<?xml version="1.0" encoding="UTF-8"?>
<svg id="Capa_2" data-name="Capa 2" xmlns="http://www.w3.org/2000/svg" viewBox="0 0 221.48 44.39">
  <defs>
    <style>
      .cls-1 {
        fill: #e91b1e;
        stroke-width: 0px;
      }
    </style>
  </defs>
  <g id="Capa_1-2" data-name="Capa 1">
    <g>
      <path class="cls-1" d="M92.66,12.52c.34.16.62.39.89.64,0,.06.02.08.07.07.3.24.56.51.81.81-.01.06.01.08.07.07.56.66,1.02,1.4,1.37,2.19.13.3.23.41.49.06,1.63-2.13,3.7-3.67,6.2-4.63.16-.06.35-.06.53-.08.13.02.19-.08.26-.16,1.42-.27,2.85-.52,4.31-.41.07.07.13.16.26.13,1.92.07,3.6.79,5.04,2.01,1.79,1.52,2.87,3.46,3.32,5.79.24,1.25.26,2.5.26,3.76,0,5.16,0,10.31,0,15.47,0,.25-.03.5,0,.74.13,1.06.76,1.66,1.79,1.88.5.11.99.24,1.49.34.24.05.34.15.33.41-.02.54-.01,1.08,0,1.62,0,.22-.07.33-.3.31-.07,0-.15,0-.22,0-5.19,0-10.37,0-15.56,0-.41,0-.57-.09-.54-.52.04-.46.02-.93,0-1.4,0-.24.05-.37.31-.42.63-.12,1.25-.28,1.87-.43.13.03.14-.08.18-.16.75-.28,1.05-.88,1.13-1.62.03-.25.02-.5.02-.74,0-4.66,0-9.31,0-13.97,0-1.57-.1-3.11-.87-4.53.05-.12-.05-.17-.12-.24-.67-.99-1.56-1.7-2.76-1.94-1.22-.25-2.39.02-3.54.38-.69.22-1.33.56-1.97.89-.13.06-.27.11-.4.16-.06.02-.12.04-.17.07-.25.11-.39.29-.33.57.11.62.12,1.25.12,1.87.01,5.58.01,11.16,0,16.74,0,.48-.02.94.15,1.39.23.59.67.95,1.25,1.12.56.17,1.12.32,1.69.44.26.06.37.16.36.43-.02.51-.02,1.02,0,1.53.02.32-.11.4-.41.39-.41-.02-.82,0-1.23,0-4.68,0-9.35,0-14.03.01-.44,0-.61-.11-.55-.56.04-.32,0-.64,0-.96,0-.73,0-.72.71-.91.59-.16,1.2-.22,1.75-.52.65-.35,1.01-.9,1.02-1.62.07-5.18.03-10.37.03-15.55,0-.69-.13-1.36-.23-2.03-.02-.09,0-.16.02-.24.02-.13-.08-.19-.16-.26-.45-1.52-1.27-2.69-2.88-3.16-.63-.18-1.26-.2-1.89-.14-.21.02-.39-.05-.58-.03-.17-.07-.15.15-.26.18-.9.16-1.75.49-2.56.91-.35.17-.69.35-1.04.53-.06-.04-.07.01-.09.05-.37.07-.36.36-.36.64,0,2.8,0,5.6,0,8.4,0,3.25,0,6.51,0,9.76,0,.37-.05.73.03,1.11.15.74.53,1.27,1.22,1.57,0,.05.03.08.08.07.66.15,1.32.31,1.98.45.16.04.21.13.21.28,0,.58,0,1.17,0,1.75,0,.21-.08.29-.28.28-.09,0-.18,0-.26,0-5.11,0-10.23,0-15.34.01-.44,0-.6-.1-.56-.55.04-.45.02-.91,0-1.36,0-.25.05-.39.34-.45.47-.09.94-.22,1.4-.35,1.22-.34,1.6-.87,1.64-2.13.15-4.13.03-8.26.06-12.39.02-2.64,0-5.29,0-7.93,0-.07,0-.15,0-.22q0-.97-.87-1.32s-.02-.05-.04-.07c-.02.02-.03.04-.05.06-.17.03-.28-.13-.44-.16-.04-.07-.09-.11-.17-.07-.16.02-.3-.06-.44-.11-.04-.07-.09-.11-.17-.07q-1.02-.14-1.02-1.12c0-.28.04-.56,0-.83-.07-.46.16-.61.55-.69,1.35-.27,2.7-.54,4.05-.82,1.16-.24,2.31-.52,3.48-.72,1.25-.21,2.47-.68,3.77-.61.33.02.41.1.41.42-.02,1.34-.01,2.69,0,4.03,0,.13-.09.32.09.39.2.07.27-.13.36-.25.95-1.29,2.06-2.43,3.4-3.31,1.23-.81,2.55-1.37,4.01-1.62,1.09-.18,2.17-.27,3.28-.22.07.07.13.16.25.13,1.24,0,2.36.4,3.43.98,0,.05.02.09.08.06.12.07.23.14.35.21.02.04.04.08.09.06Z"/>
      <path class="cls-1" d="M2.76,31.4c.79,1.61,1.8,3.06,3.12,4.28,1.46,1.36,3.13,2.36,4.99,3.07,1.86.71,3.77.94,5.74.79,1.37-.1,2.62-.51,3.74-1.3,1.05-.75,1.74-1.7,1.99-3.04.37-2.02-.27-3.61-1.77-4.92-1.02-.89-2.2-1.53-3.39-2.12-2.58-1.29-5.22-2.48-7.78-3.83-2.89-1.54-5.52-3.38-7.11-6.37-.68-1.29-1.05-2.66-1.23-4.11-.11-.92-.15-1.85-.04-2.75.26-2.29,1.03-4.4,2.51-6.22,1.12-1.39,2.5-2.46,4.08-3.24,1.61-.79,3.32-1.31,5.12-1.47.9-.08,1.79-.19,2.69-.17,4.07.09,7.61,1.45,10.54,4.33.07.07.15.14.28.26.16-.68.31-1.31.46-1.94.19-.81.39-1.61.57-2.42.05-.21.16-.23.34-.23.6,0,1.2.02,1.8,0,.3-.01.36.11.36.38,0,2,0,4,0,6.01,0,1.65,0,3.3,0,4.95,0,.32-.07.43-.41.42-.66-.03-1.32-.02-1.97,0-.22,0-.33-.07-.42-.28-1.52-3.79-4.43-5.89-8.33-6.68-1.89-.38-3.81-.44-5.68.28-1.9.74-2.98,2.33-2.84,4.35.08,1.09.54,2.04,1.29,2.84,1.37,1.46,3.15,2.32,4.91,3.18,1.75.86,3.52,1.69,5.28,2.54,0,.05.02.09.08.06l.09.03s.02.09.08.06c.79.43,1.63.79,2.4,1.26,1.17.72,2.32,1.44,3.35,2.35,1.6,1.42,2.98,3.02,3.75,5.06.77,2.06,1.02,4.19.68,6.37-.18,1.13-.42,2.26-.91,3.29-.56,1.18-1.22,2.3-2.21,3.2-.7.64-1.3,1.38-2.15,1.84-.06-.02-.09.03-.11.07-1.38.98-2.92,1.61-4.53,2.08-.34.1-.68.25-1.06.2-.21-.14-.23.11-.35.16-1.28.23-2.57.35-3.88.36-1.6,0-3.15-.24-4.68-.67-3.21-.9-5.91-2.6-8.13-5.08-.07-.08-.12-.16-.2-.27-.16.18-.17.36-.21.52-.38,1.48-.75,2.97-1.11,4.46-.06.26-.16.36-.44.35-.54-.02-1.08-.03-1.62,0-.36.02-.47-.09-.47-.46.02-2.63,0-5.26,0-7.89,0-1.24,0-2.48,0-3.73,0-.31.06-.45.41-.43.64.03,1.29,0,1.93.01.12,0,.27-.05.35.1,0,.06.02.08.07.08Z"/>
      <path class="cls-1" d="M153.71,13.87c.83.01,1.59-.31,2.39-.45,1.78-.32,3.55-.71,5.32-1.07.98-.2,1.96-.38,2.94-.63.44-.11.9-.03,1.35-.05.3,0,.21.23.21.38,0,1.33,0,2.66,0,3.99,0,.16-.11.39.12.46.22.07.28-.17.38-.3,1.19-1.66,2.64-3.05,4.46-3.99,1-.52,2.09-.85,3.23-.98.91-.1,1.82-.17,2.74-.08,1.87.19,3.6.74,5.08,1.92,1.88,1.5,2.99,3.47,3.49,5.79.21.96.28,1.94.28,2.93,0,5.36,0,10.72,0,16.09,0,.24-.15.55.22.71.05.02.03.22.04.33.03.9.45,1.51,1.32,1.8.58.19,1.17.33,1.77.47.23.06.35.13.34.4-.02.55-.01,1.11,0,1.67,0,.2-.06.3-.27.28-.09,0-.18,0-.26,0-5.17,0-10.35,0-15.52.01-.45,0-.58-.12-.55-.56.04-.48.01-.96,0-1.45,0-.2.04-.29.27-.34.6-.12,1.2-.26,1.78-.45.85-.28,1.34-.83,1.4-1.79.05-.68.06-1.37.06-2.05,0-4.13-.01-8.27.02-12.4,0-1.13-.11-2.23-.3-3.33-.15-.93-.59-1.77-1.2-2.49-.63-.75-1.48-1.03-2.44-1.15-1.97-.25-3.63.56-5.27,1.46-.15.08-.31.16-.46.25-.06-.03-.08.01-.09.06-.14.1-.08.24-.08.36,0,6.41,0,12.83,0,19.24,0,.78.51,1.48,1.31,1.8.57.23,1.18.33,1.78.46.33.07.46.22.44.56-.03.47-.03.94,0,1.4.02.33-.09.42-.42.42-1.78-.02-3.57,0-5.35,0-3.45,0-6.9,0-10.35,0-.41,0-.52-.12-.5-.51.03-.48.02-.96,0-1.45,0-.23.05-.34.3-.39.44-.09.88-.21,1.32-.33,1.48-.38,1.8-.98,1.81-2.28.03-3.49.01-6.98.02-10.47,0-3.46,0-6.92.01-10.39,0-.47-.11-.7-.59-.8-.74-.16-1.45-.42-2.19-.61-.33-.08-.43-.24-.42-.57.03-.57,0-1.14,0-1.71.01-.06.02-.12.03-.17Z"/>
      <path class="cls-1" d="M150.55,40.85c.45,0,.9.09,1.34-.04.17-.05.21.04.21.18,0,.58,0,1.17,0,1.75,0,.14-.07.2-.2.25-1.31.51-2.64.92-4.05,1.05-1.46.13-2.91.17-4.33-.27-.54-.17-1.05-.37-1.54-.72-.42-.3-.86-.55-1.21-.93-.49-.51-.83-1.12-1.1-1.77.08-.03.09-.06,0-.09-.09-.13-.11-.34-.35-.33-.23,0-.26.2-.34.35-.58,1.1-1.4,1.94-2.48,2.56-.06-.02-.08.02-.1.06-.37.18-.72.41-1.12.54-.13-.01-.17.1-.25.16-.61.19-1.21.42-1.84.51-1.13.16-2.25.25-3.4.12-1.67-.19-3.17-.8-4.55-1.73-.13-.09-.26-.18-.36-.31v-.04s-.03.02-.03.02c-1.12-.84-1.89-1.95-2.47-3.2-.27-.59-.47-1.21-.61-1.85.08-.03.09-.07,0-.1-.24-1.04-.32-2.09-.26-3.15.09-.03.08-.1.07-.18-.18-.43-.03-.86.05-1.27.3-1.64,1.03-3.1,2.19-4.29.85-.87,1.88-1.52,2.97-2.06,2.15-1.06,4.44-1.69,6.77-2.19,1.75-.38,3.51-.71,5.26-1.05.31-.06.44-.16.43-.5-.07-1.42-.4-2.76-1.29-3.88-1.25-1.58-2.92-2.36-4.92-2.56-2.93-.29-5.59.43-8.04,2.02-.2.13-.29.09-.42-.09-.35-.49-.7-.97-1.07-1.44-.16-.2-.12-.3.06-.46,1.06-.95,2.2-1.78,3.43-2.49,3.28-1.89,6.8-2.85,10.6-2.61,2.56.17,4.92.9,6.93,2.57,2.08,1.74,3.27,3.99,3.76,6.64.28,1.5.29,3.01.29,4.52,0,4.35,0,8.71-.01,13.06,0,.48-.07.96.05,1.44-.07.16.06.13.14.16.12.79.99,1.55,1.64,1.55,0,.1.07.13.15.12ZM139.1,31.23c0-1.98,0-3.62,0-5.26,0-.18.05-.4-.28-.32-1.58.4-3.17.79-4.68,1.44-1.59.69-2.72,1.82-3.03,3.54-.27,1.53-.26,3.11.25,4.62.42,1.26,1.04,2.36,2.35,2.91,1.14.48,2.3.59,3.48.23,1.11-.34,1.88-1.32,1.9-2.35.04-1.72-.01-3.45.02-4.82Z"/>
      <path class="cls-1" d="M218.05,39.01c.02.53.25.95.66,1.27.75.57,1.62.65,2.52.6.06.09.13.17.19.26,0,.38,0,.75,0,1.13,0,.74-.02.76-.8.91-.06,0-.08.02-.08.07-.46.17-.9.4-1.41.35-.17-.06-.16.14-.26.17-1.28.28-2.58.39-3.89.36-1.12-.03-2.18-.3-3.19-.75-.4-.18-.75-.49-1.12-.75,0-.04.01-.1,0-.11-.07-.04-.08.03-.11.07-.7-.64-1.22-1.4-1.57-2.29-.06-.15-.06-.35-.3-.37-.25-.02-.27.18-.35.32-.95,1.77-2.46,2.84-4.3,3.48-1.53.53-3.15.74-4.75.54-1.43-.17-2.79-.63-4.07-1.4-1.86-1.11-3.06-2.69-3.79-4.67-.21-.57-.35-1.16-.4-1.79-.03-.41-.14-.85-.17-1.27-.14-1.72.09-3.39.84-4.94.81-1.65,2.12-2.83,3.7-3.74,1.97-1.14,4.13-1.74,6.3-2.32,1.44-.39,2.91-.63,4.36-.95.81-.18,1.65-.28,2.47-.47.06,0,.08-.03.07-.08-.04-2.07-.6-3.93-2.3-5.24-1.29-1-2.78-1.52-4.42-1.6-2.18-.1-4.24.38-6.21,1.28-.46.21-.87.51-1.29.8-.2.14-.31.13-.46-.07-.34-.49-.7-.97-1.06-1.45-.14-.18-.16-.32.03-.48,2.18-1.84,4.57-3.31,7.3-4.19,1.09-.35,2.21-.57,3.35-.73,1.15-.17,2.29-.25,3.43-.15,1.71.15,3.38.46,4.91,1.31.31.17.66.29.94.53.02.04.03.09.09.06,1.2.75,2.2,1.72,2.97,2.9.94,1.44,1.55,3.01,1.79,4.73.16,1.15.25,2.3.25,3.46,0,4.57,0,9.14,0,13.71,0,.45,0,.91,0,1.36.02.08.05.15.15.15ZM203.18,38.24c0,.05.03.08.08.07.2.04.4.07.6.13.89.25,1.78.26,2.65-.03,1.24-.42,1.9-1.19,1.91-2.35.05-3.39.02-6.77.02-10.16,0-.24-.05-.31-.3-.24-.52.15-1.05.26-1.57.4-1.24.33-2.47.69-3.61,1.3-1.28.68-2.11,1.7-2.47,3.12-.26,1.03-.09,2.08-.22,3.12.02.07.01.15.1.17.04.84.31,1.63.66,2.37.45.94,1.14,1.7,2.14,2.11Z"/>
      <path class="cls-1" d="M63.8,32.28c.33.46.64.92.98,1.37.14.18.17.32.08.55-.84,2.07-1.98,3.92-3.59,5.49-.78.76-1.59,1.45-2.49,2.05-1.71,1.14-3.57,1.88-5.57,2.29-1.32.27-2.66.33-3.99.26-.99-.06-1.97-.24-2.94-.5-2.51-.66-4.67-1.95-6.53-3.72-1-.95-1.81-2.08-2.52-3.27-1.17-1.95-1.84-4.08-2.26-6.28-.25-1.31-.27-2.66-.25-4,.04-2.64.61-5.16,1.72-7.56.7-1.52,1.66-2.87,2.84-4.07,1.93-1.96,4.28-3.18,6.96-3.7,1.53-.3,3.08-.32,4.65-.15,2.49.28,4.73,1.11,6.68,2.68,1.96,1.58,3.32,3.59,4.05,6.01.12.4.22.82.36,1.21.1.3,0,.43-.28.55-2.85,1.28-5.69,2.57-8.54,3.85-2.74,1.24-5.48,2.48-8.22,3.71-.48.22-.55.38-.32.84.7,1.41,1.6,2.68,2.71,3.8.02.03.05.06.07.09,1.31,1.15,2.74,2.09,4.45,2.5,2.59.62,5.08.27,7.46-.94,1.29-.65,2.47-1.44,3.54-2.41.25-.23.57-.39.78-.68.06,0,.12.01.18.02ZM47,14.57c-1.51-.09-2.56.63-3.35,1.81-.49.74-.78,1.58-.96,2.42-.35,1.67-.26,3.38-.09,5.06.09.84.38,1.66.54,2.5.07.34.18.35.45.2,1.52-.81,3.11-1.47,4.64-2.26,1.29-.68,2.62-1.28,3.94-1.92.17-.08.35-.12.27-.4-.15-.54-.24-1.1-.39-1.65-.41-1.48-.88-2.94-1.84-4.18-.81-1.05-1.85-1.69-3.21-1.59Z"/>
      <path class="cls-1" d="M221.43,41.13c-.06-.09-.13-.17-.19-.26.22-.03.31.04.19.26Z"/>
      <path class="cls-1" d="M20.74,44.03c.12-.05.14-.3.35-.16-.08.14-.21.16-.35.16Z"/>
      <path class="cls-1" d="M218.87,43.77c.1-.03.09-.24.26-.17-.05.11-.14.17-.26.17Z"/>
      <path class="cls-1" d="M81.79,17.73c.11-.03.09-.24.26-.18-.05.11-.14.17-.26.18Z"/>
      <path class="cls-1" d="M106.07,19.5c.06.07.16.12.12.24-.08-.06-.11-.15-.12-.24Z"/>
      <path class="cls-1" d="M135.04,43.6c.08-.07.12-.18.25-.16-.05.1-.14.15-.25.16Z"/>
      <path class="cls-1" d="M148.75,39.19c-.08-.02-.21,0-.14-.16.08.02.14.06.14.16Z"/>
      <path class="cls-1" d="M103.36,11.5c-.07.08-.13.18-.26.16.06-.11.15-.15.26-.16Z"/>
      <path class="cls-1" d="M87.4,20.88c.08.07.18.13.16.26-.11-.06-.15-.15-.16-.26Z"/>
      <path class="cls-1" d="M66.7,16.62c.08-.04.13,0,.17.07-.08.04-.13,0-.17-.07Z"/>
      <path class="cls-1" d="M153.71,13.87c-.01.06-.02.12-.03.17-.11-.08-.07-.13.03-.17Z"/>
      <path class="cls-1" d="M210.56,42.58s.05-.11.11-.07c.02.01,0,.07,0,.11-.04-.02-.08-.03-.12-.05Z"/>
      <path class="cls-1" d="M88.71,11.22c-.12.03-.18-.06-.25-.13.11,0,.19.04.25.13Z"/>
      <path class="cls-1" d="M150.55,40.85c-.09,0-.15-.02-.15-.12.09,0,.13.05.15.12Z"/>
      <path class="cls-1" d="M105.91,40.61c-.04.08-.05.19-.18.16.06-.05.12-.11.18-.16Z"/>
      <path class="cls-1" d="M66.08,16.45c.08-.04.13,0,.17.07-.08.04-.13,0-.17-.07Z"/>
      <path class="cls-1" d="M218.05,39.01c-.1,0-.13-.07-.15-.15.08.02.14.05.15.15Z"/>
      <path class="cls-1" d="M107.92,11.22c-.12.03-.18-.06-.26-.13.11,0,.19.04.26.13Z"/>
      <path class="cls-1" d="M63.8,32.28c-.06,0-.12-.01-.18-.02.07-.11.13-.08.18.02Z"/>
      <path class="cls-1" d="M121.59,33.68c.01.07.02.14-.07.18-.05-.09-.01-.14.07-.18Z"/>
      <path class="cls-1" d="M97.22,19.05c.06-.02.12-.04.17-.07-.04.08-.09.11-.17.07Z"/>
      <path class="cls-1" d="M47.4,33.78s-.05-.06-.07-.09c.02.03.05.06.07.09Z"/>
      <path class="cls-1" d="M67.31,16.85s.03-.04.05-.06c.01.02.02.05.04.07-.03,0-.06,0-.09,0Z"/>
      <path class="cls-1" d="M121.78,37.01c.09.03.08.07,0,.1,0-.03,0-.07,0-.1Z"/>
      <path class="cls-1" d="M92.22,12.26c-.06.03-.08,0-.08-.06.03.02.05.04.08.06Z"/>
      <path class="cls-1" d="M92.66,12.52c-.06.02-.08-.01-.09-.06.03.02.06.04.09.06Z"/>
      <path class="cls-1" d="M139.67,40.26c.09.03.08.06,0,.09,0-.03,0-.06,0-.09Z"/>
      <path class="cls-1" d="M208.59,22.64c0,.05,0,.08-.07.08.02-.03.05-.05.07-.08Z"/>
      <path class="cls-1" d="M79.06,40.77c-.06,0-.08-.02-.08-.07.03.02.06.05.08.07Z"/>
      <path class="cls-1" d="M21.7,18.05c-.06.03-.07,0-.08-.06.03.02.05.04.08.06Z"/>
      <path class="cls-1" d="M21.88,18.13c-.06.03-.08,0-.08-.06.03.02.05.04.08.06Z"/>
      <path class="cls-1" d="M94.5,14.12c-.05,0-.08-.02-.07-.07.02.02.04.05.07.07Z"/>
      <path class="cls-1" d="M26.68,41.59s.04-.09.11-.07c-.04.02-.07.05-.11.07Z"/>
      <polygon class="cls-1" points="124.86 42.17 124.89 42.15 124.89 42.19 124.86 42.17"/>
      <path class="cls-1" d="M166.59,19.3s.03-.08.09-.06c-.03.02-.06.04-.09.06Z"/>
      <path class="cls-1" d="M136.41,42.9s.04-.09.1-.06c-.03.02-.07.04-.1.06Z"/>
      <path class="cls-1" d="M220.55,43.24c0-.05.02-.08.08-.07-.03.02-.05.05-.08.07Z"/>
      <path class="cls-1" d="M78.09,19.21s.03-.09.09-.05c-.03.02-.06.03-.09.05Z"/>
      <path class="cls-1" d="M93.62,13.24c-.06.01-.08-.01-.07-.07.02.02.05.05.07.07Z"/>
      <path class="cls-1" d="M212.9,12.7c-.06.03-.08-.01-.09-.06.03.02.06.04.09.06Z"/>
      <path class="cls-1" d="M200.27,33.6c.08.03.14.07.1.17-.09-.02-.08-.1-.1-.17Z"/>
      <path class="cls-1" d="M203.18,38.24s.05.05.08.07c-.06,0-.08-.02-.08-.07Z"/>
    </g>
  </g>
</svg>