<?xml version="1.0" encoding="UTF-8"?>
<svg id="Capa_2" data-name="Capa 2" xmlns="http://www.w3.org/2000/svg" viewBox="0 0 192.76 192.76">
  <defs>
    <style>
      .cls-1 {
        fill: #209152;
      }

      .cls-1, .cls-2, .cls-3 {
        fill-rule: evenodd;
        stroke-width: 0px;
      }

      .cls-2 {
        fill: #fff;
      }

      .cls-3 {
        fill: #313a8a;
      }
    </style>
  </defs>
  <g id="Capa_1-2" data-name="Capa 1">
    <g>
      <polygon class="cls-2" points="0 0 192.76 0 192.76 192.76 0 192.76 0 0 0 0"/>
      <path class="cls-3" d="M19.67,95.13h-.52c-1.22-.77-2.28-1.25-3.17-1.44-.89-.19-1.67-.31-2.33-.34-.1,0-.24,0-.39.03-.16.02-.3.05-.45.08-.35.07-.66.23-.94.47-.28.24-.42.65-.42,1.21,0,.8.25,1.4.76,1.78.51.38,1.06.73,1.65,1.05.03,0,.07,0,.1.03.04.02.07.04.1.08.04,0,.06,0,.08.03.02.02.04.03.08.03.77.38,1.45.77,2.05,1.15.59.38,1.12.77,1.57,1.15,1.29,1.09,2.1,2.16,2.41,3.22.31,1.07.47,2.02.47,2.86,0,.21-.04.68-.13,1.42-.09.73-.35,1.54-.81,2.41-.52.98-1.41,1.86-2.65,2.65-1.24.79-3.06.94-5.43,1.18l-.52.05c-2.05.21-3.72-.17-4.98-.39-1.26-.23-2.38-.57-3.36-1.02v-6.45h.52c.14.07.44.22.89.45.45.23,1,.43,1.63.66.32.12.66.28,1.02.42.37.14.74.27,1.13.37.42.11.84.2,1.26.29.42.09.8.14,1.15.13.6-.02,1.04-.16,1.34-.37.3-.21.48-.45.6-.68.08-.15.17-.28.18-.42.02-.14.03-.26.03-.37,0-.59-.23-1.13-.68-1.6-.45-.47-.97-.86-1.52-1.18-.11-.06-.2-.13-.29-.18-.09-.05-.18-.12-.29-.18-1.92-1.16-3.35-2.19-4.27-3.12-.93-.93-1.53-1.83-1.86-2.7-.16-.42-.29-.83-.34-1.23-.05-.4-.08-.81-.08-1.23,0-2.38.81-4.14,2.44-5.3,1.63-1.15,3.42-1.85,5.37-2.15.35-.05.7-.11,1.05-.13.35-.02.7-.03,1.05-.03h.52c.52,0,1.09.03,1.7.1.61.07,1.23.16,1.86.26.42.07.83.15,1.23.24s.8.18,1.18.29v6.45h0ZM35.61,116.4c-.78,2.29-1.81,4-3.09,5.12-1.28,1.13-3.07,1.69-5.37,1.69-1.6,0-3.07-.18-4.4-.52v-5.77c1.18.38,2.16.58,2.93.58,2.37,0,4.05-1.45,5.04-4.35l-9.18-24.96h7.29l5.19,16.89,4.67-16.89h6.97l-10.06,28.22h0ZM55.62,90.86c2.43-1.95,4.77-3.02,7.03-3.21,4.85,0,7.28,2.83,7.28,8.5v17.61h-6.7v-15.93c0-3.11-.98-4.67-2.93-4.67-1.36,0-2.92.91-4.68,2.73v17.87h-6.76v-25.59h6.76v2.68h0ZM78.53,115.14c0,1.75,2.03,4.18,6.09,4.18,2.28,0,7.39-.6,7.39-3.71,0-.7-.44-1.11-1.3-1.26-.58-.11-2.33-.22-5.28-.31-2.94-.1-4.89-.2-5.86-.31-.7.4-1.05.87-1.05,1.41h0ZM90.66,89.38c2.55,2.1,3.87,4.04,3.87,7.66,0,1.6-.45,3.05-1.36,4.35-.91,1.3-2.1,2.32-3.57,3.05-1.47.73-2.99,1.09-4.57,1.09-.37,0-.94-.04-1.7-.1-.77-.07-1.34-.1-1.7-.1-.34,0-.69.12-1.07.38-.37.25-.56.54-.56.87,0,.14.03.26.1.38.31.51,1.24.8,2.81.85,1.56.05,3.66.15,6.29.29,2.64.14,4.69.67,6.18,1.61,1.49.93,2.23,2.52,2.23,4.75,0,5.25-4.42,9.25-13.26,9.25-4.32,0-11.27-2.53-11.27-7.77,0-1.5.93-2.81,2.79-3.93-1.33-1.14-2-2.32-2-3.52,0-1.73,1.1-3.34,3.3-4.83-2.1-2.28-3.15-4.53-3.15-6.76,0-1.88.46-3.52,1.4-4.92.94-1.41,2.19-2.47,3.78-3.21,1.59-.73,3.3-1.1,5.16-1.1,2.06,0,4.43.19,6.3,1.73h0ZM84.31,101.08c1.23,0,2.14-.43,2.74-1.29.59-.86.89-1.95.89-3.28,0-2.96-1.21-4.45-3.63-4.45-1.23,0-2.15.44-2.76,1.3-.61.87-.92,1.91-.92,3.15,0,3.05,1.22,4.57,3.68,4.57h0ZM111.33,92.74c-2.62,0-4.07,1.82-4.35,5.44h8.49c-.1-1.66-.44-2.98-1.01-3.97-.59-.99-1.63-1.48-3.12-1.48h0ZM106.75,102.54c0,1.71.39,3.23,1.18,4.56.8,1.32,1.99,2.13,3.59,2.21,1.97.09,4.18-.5,5.7-3.16l4.53,2.4c-1.81,3.61-6.97,5.74-10.55,5.74-2.49,0-4.59-.57-6.29-1.71-1.7-1.15-2.96-2.71-3.79-4.68-.82-1.98-1.23-4.22-1.23-6.71,0-2.35.42-4.56,1.26-6.63.83-2.06,2.1-3.72,3.78-4.99,1.7-1.27,3.73-1.91,6.12-1.91s4.22.38,5.72,1.16c1.49.77,2.65,1.83,3.45,3.17.8,1.34,1.37,2.88,1.69,4.63.31,1.74.47,3.71.47,5.92h-15.63ZM132.97,90.86c2.43-1.95,4.77-3.02,7.03-3.21,4.85,0,7.28,2.83,7.28,8.5v17.61h-6.7v-15.93c0-3.11-.98-4.67-2.93-4.67-1.36,0-2.92.91-4.68,2.73v17.87h-6.76v-25.59h6.76v2.68h0ZM160.18,88.18h5.31v5.66h-5.31v11.12c0,1.18.16,2.12.46,2.8.31.69.96,1.07,1.96,1.14.89,0,1.85-.17,2.88-.52v5.3c-1.55.38-2.81.59-3.78.63-2.07,0-3.72-.38-4.95-1.14-1.21-.75-2.08-1.84-2.59-3.26-.5-1.42-.75-3.17-.75-5.26v-10.79h-3.15v-5.66h3.15v-4.08l6.76-2.53v6.61h0ZM174.51,106.73c0,.66.18,1.19.56,1.6.38.41.89.63,1.54.66,2.17,0,4.06-1.01,5.66-3.03v-3.36c-2.1.27-3.92.69-5.45,1.26-1.54.56-2.31,1.52-2.31,2.88h0ZM189.92,113.77h-6.55c-.07-.17-.14-.37-.23-.6-.08-.24-.18-.55-.29-.93-.12-.38-.21-.66-.26-.83-1.37.99-2.55,1.72-3.55,2.18-.99.46-2.12.7-3.38.7-1.44,0-2.81-.3-4.09-.89-1.28-.59-2.32-1.44-3.11-2.54-.8-1.11-1.19-2.39-1.19-3.85,0-1.78.47-3.29,1.42-4.5.94-1.21,2.17-2.18,3.67-2.88,1.49-.7,3.01-1.22,4.54-1.57,1.53-.36,3.32-.69,5.36-1.01,0-1.42-.2-2.5-.59-3.22-.4-.72-1.27-1.07-2.6-1.07-1.15,0-2.07.23-2.74.68-.67.46-1.14,1.24-1.4,2.35l-6.5-1c.59-1.83,1.36-3.26,2.32-4.3.96-1.05,2.11-1.78,3.47-2.19,1.36-.42,3.03-.63,5.01-.63,1.63,0,3.19.24,4.68.74,1.49.5,2.69,1.28,3.6,2.35.97,1.21,1.46,3.29,1.46,6.24v10.85c0,2.22.31,4.19.94,5.93h0Z"/>
      <path class="cls-1" d="M103.27,84.91c3.53-4.19,4.46-11.12,6.38-15.86-7,1.1-19.28,4.58-19.18,13.6.02,1.8.11,4.35.37,5.74,4,.47,9.62-.14,12.43-3.48h0Z"/>
    </g>
  </g>
</svg>