<?xml version="1.0" encoding="UTF-8"?>
<svg id="Capa_2" data-name="Capa 2" xmlns="http://www.w3.org/2000/svg" viewBox="0 0 176.99 166.11">
  <defs>
    <style>
      .cls-1 {
        fill: #0046b4;
        stroke-width: 0px;
      }
    </style>
  </defs>
  <g id="Capa_1-2" data-name="Capa 1">
    <g>
      <path class="cls-1" d="M52.17,50.99c.03-3.8.55-7.56,1.49-11.65-4.02,1.84-7.66,3.49-11.29,5.17-2.55,1.18-3.96.39-4.44-2.41-.64-3.72.1-7.23,1.25-10.76,1.08-3.32,3.02-5.17,6.57-5.73,4.03-.64,7.97-1.77,11.97-2.64,1.39-.3,2.29-.98,2.86-2.36,1.8-4.33,4.31-8.3,7.06-12.05,2.83-3.86,6.79-6.32,11.47-7.56C81.22.44,83.33-.03,85.55,0c1.24.02,2.37.34,3.5.73,1.09.37,1.39,1,.41,1.91-4.36,4.03-7.91,8.7-10.94,13.79-.47.79-.78,1.66-1.48,2.35-.48.48-.42,1.39.67,1.18,3.16-.59,6.36-.18,9.55-.52,2.49-.26,5.04-.39,7.58.13,1.28.26,2.65.01,3.98.09,6.25.37,12.19,1.87,17.39,5.46,4.53,3.12,6.74,7.76,7.87,13.03.56,2.58,1.06,5.28.7,7.8-1.22,8.51-4.21,16.34-10.06,22.87-1.36,1.52-2.62,3.12-4.24,4.39-.87.68-.32,1.08.41,1.3,2.09.64,4.27.81,6.41.98,4.19.34,8.34-.14,12.43-1.15.86-.21,2.2-.61,2.52.27.31.86-.2,2-1.16,2.8-3.49,2.9-7.63,4.29-11.95,5.1-6.03,1.13-12.1,1.18-18.1-.28-2.29-.56-4.3.18-6.25,1.13-2.99,1.47-6.17,2.08-9.42,2.52-4.17.56-8.35.63-12.42-.42-6.64-1.72-12.61-4.54-16.13-10.95-2.85-5.2-4.6-10.69-4.64-16.66,0-2.29,0-4.57-.01-6.86ZM66.81,61.16c-.2,2.89.62,5.7,1.19,8.44.66,3.13,3.12,5.15,6.23,6.27,3.66,1.31,7.2.41,10.78-.31,1.13-.23,2.06-.4.66-1.66-.55-.5-.92-1.21-1.34-1.85-2.49-3.76-4.53-7.69-4.18-12.39.21-2.79,1.58-5.61,4.85-6.14,2.22-.36,4.36-.32,6.48.15,2.45.54,3.69,2.24,3.98,4.83.31,2.78,1.14,5.37,3,7.55.39.45.61.61,1.18.16,2.43-1.89,4.18-4.36,5.93-6.83,2.26-3.18,4.3-6.5,5.51-10.24,1.55-4.81,2.73-9.66.1-14.48-1.16-2.13-2.65-4.15-4.81-5.27-4.27-2.21-9.04-2.77-13.7-2.6-2.93.11-5.93-.06-8.92.77-6.7,1.85-11.45,5.8-14.24,12.02-2.09,4.65-2.44,9.72-2.7,14.75-.39,2.27-.42,4.55,0,6.82Z"/>
      <path class="cls-1" d="M78.17,117.77c0-2.83-.02-5.65,0-8.48.03-2.51.81-3.57,3.05-2.19,1.71,1.05,3.25-.1,4.77-.39,1.65-.32,3.05-.2,4.42.63.79.48,1.51.49,2.35.19,1.45-.51,2.9-1.02,4.48-1.06,4.4-.12,6.59,1.66,6.77,6.03.19,4.76.04,9.53.07,14.3.01,1.5-1.01,1.25-1.94,1.33-1.05.08-1.43-.23-1.42-1.36.07-4.16-.04-8.32.05-12.47.1-4.53-2.04-5.26-5.75-4.73-2.27.32-2.43.62-2.22,2.9.42,4.48.11,8.97.2,13.46,0,.38-.08.77-.15,1.15-.21,1.04-.87,1.41-1.91,1.39-1.1-.02-1.29-.83-1.35-1.56-.12-1.38-.07-2.77-.06-4.15,0-3.22.05-6.43.03-9.65-.01-2.79-.91-3.6-3.7-3.64-.91-.02-1.75.26-2.56.5-.98.29-1.55.95-1.53,2.21.09,4.77-.03,9.54.04,14.3.02,1.39-.54,1.7-1.77,1.67-1.21-.03-1.95-.13-1.86-1.72.16-2.87.04-5.76.04-8.65-.02,0-.03,0-.05,0Z"/>
      <path class="cls-1" d="M83.47,156.33c0,2.55-.04,5.1.02,7.64.02,1.12-.18,1.78-1.52,1.76-1.32-.02-1.86-.44-1.84-1.85.07-4.82-.02-9.64.04-14.46.02-1.59-.33-2.58-2.19-2.47-.56.03-1.17-.27-1.7-.52-.62-.29-.84-.9-.71-1.54.14-.71.79-.39,1.23-.49.05-.01.11,0,.17,0q3.17-.08,3.18-3.25c0-3.54,1.19-4.72,4.71-4.73.83,0,1.66-.06,2.49-.07.71,0,1.18.32,1.18,1.08,0,.73-.22,1.33-1.11,1.33-.72,0-1.48.15-2.15-.04-1.05-.3-1.37.3-1.6,1.04-.4,1.29-.21,2.63-.13,3.94.05.84.86.67,1.46.67,3.1-.01,6.21,0,9.31-.06,1.36-.03,1.85.45,1.82,1.84-.08,3.38-.12,6.76.03,10.14.11,2.48-.32,4.98.24,7.46.23,1.03-1.06,2.3-2.11,2.29-1.38-.02-1.55-.94-1.55-2.04,0-5.04-.02-10.08,0-15.12,0-.97-.14-1.36-1.28-1.56-2.38-.42-4.73-.1-7.1-.19-.95-.04-.85.63-.84,1.25,0,2.66,0,5.32,0,7.98h-.04Z"/>
      <path class="cls-1" d="M135.49,155.15c-.08,1.38.05,2.81-.28,4.13-1.07,4.28-2.98,6.32-8.29,6.73-2.2.17-4.36-.23-6.52-.65-1.12-.22-1.37-.81-1.37-1.84,0-2.23-.13-4.45-.03-6.7.25-5.86.07-11.74.06-17.61,0-.28.06-.57-.02-.83-.31-1.08-.4-1.94,1.15-1.98,1.97-.06,2.17.06,2.19,1.91.02,1.55.02,3.1-.02,4.65-.03,1.16.28,1.52,1.57,1.29,2.46-.43,4.97-.5,7.29.67,2.81,1.42,3.8,4,4.12,6.91.12,1.09.02,2.21.02,3.32.05,0,.09,0,.14,0ZM132.03,155.32c0-.77.01-1.55,0-2.32-.07-3.86-.91-4.99-4.53-5.85-.79-.19-1.64-.07-2.47-.11-.9-.05-1.83.14-2.51.57-.56.35.19,1.24.09,1.8-.51,2.91-.28,5.82-.19,8.72.05,1.61-.98,3.87.55,4.7,1.36.75,3.46.27,5.21.13,1.88-.15,3.03-1.34,3.54-3.2.41-1.47.29-2.96.3-4.44Z"/>
      <path class="cls-1" d="M156.2,156.05c-1.88,0-3.77.01-5.65,0-.9,0-1.29.32-1.27,1.28.03,1.77.41,3.39,1.73,4.66.74.71,1.59,1.09,2.68,1.07,2.49-.06,4.99-.03,7.48-.02.44,0,1.06-.23,1.13.57.05.59-.06,1.07-.63,1.41-3.31,2.02-11.17,1.14-13.73-1.62-1.13-1.22-1.85-2.74-1.92-4.42-.09-2.32-.05-4.65-.06-6.98-.02-3.19,2.27-6.98,6.11-7.73,3.06-.6,5.64-.14,7.98,1.56,2.32,1.68,2.95,4.27,2.91,7.06-.05,3.16,0,3.16-3.12,3.17-1.22,0-2.44,0-3.66,0h0ZM154.65,153.46s0-.01,0-.02c1.21,0,2.42,0,3.64,0,.37,0,.79.07,1.03-.34.82-1.47-.35-4.78-2.05-5.45-1.58-.61-3.23-.93-4.94-.33-1.78.62-3.26,2.75-3,4.57.13.92.52,1.66,1.7,1.59,1.21-.07,2.42-.01,3.64-.01Z"/>
      <path class="cls-1" d="M170.97,118.47c-2.29,0-4.57.01-6.86,0-.55,0-.79.15-.81.74-.14,3.29.7,6.16,4.9,6.43,2.28.15,4.54-.09,6.81-.16.62-.02,1.62-.38,1.57.84-.04.9-.46,1.33-1.53,1.51-2.23.37-4.43.68-6.7.63-4.82-.11-8.1-2.78-8.41-7.9-.14-2.36-.32-4.65.05-7.03.9-5.79,5.45-7.68,10.25-6.86,6.22,1.06,6.97,6.42,6.7,10.98-.05.79-.56.84-1.15.84-1.61,0-3.21,0-4.82,0,0,0,0,0,0,0ZM168.46,116.09s0,.02,0,.03c1.38,0,2.76,0,4.15,0,.64,0,1.06-.14,1.04-.92-.08-3.09-1.33-5.78-4.89-5.79-3.5-.02-5.62,2.12-5.48,5.56.04.91.4,1.14,1.2,1.12,1.33-.03,2.65,0,3.98,0Z"/>
      <path class="cls-1" d="M115.27,158.23c0,1.94,0,3.88,0,5.81,0,.84-.33,1.5-1.18,1.8-.8.28-1.54-.15-1.85-.68-.66-1.1-1.34-.62-2.09-.3-2.49,1.04-4.96,1.59-7.61.4-2.35-1.05-2.89-3.14-3.03-5.24-.35-5.23,2.56-6.43,6.68-6.95,1.15-.14,2.32,0,3.49-.03,1.43-.03,2.31-1.11,2.08-2.52-.45-2.75-1.39-3.55-4.32-3.57-1.83,0-3.65.06-5.48.11-.67.02-1.24-.02-1.19-.92.04-.7-.14-1.31.98-1.49,2.95-.47,5.86-.97,8.85-.25,2.32.56,4.19,2.85,4.53,5.31.38,2.84.2,5.67.16,8.51ZM111.73,158.57c0-.77,0-1.54,0-2.32,0-.5-.11-.89-.71-.86-1.76.07-3.53-.24-5.27.17-2.07.49-3.36,2.55-2.98,4.72.37,2.03,2.03,3.25,4.21,3.08,3.89-.31,4.77-1.2,4.75-4.78Z"/>
      <path class="cls-1" d="M117.59,118.46c-1.94,0-3.88.04-5.82-.01-1.3-.04-1.52.69-1.33,1.7.81,4.31,2.35,5.58,6.81,5.55,1.71-.01,3.43-.21,5.14-.28.51-.02,1.18-.24,1.32.59.11.66-.07,1.21-.68,1.55-.33.19-.69.52-1.02.51-2.89-.13-5.72.76-8.69.06-3.73-.88-5.88-4.19-6.03-7.38-.09-1.87.07-3.75.06-5.63-.04-7.37,6.01-9.78,11.55-8.17,3.77,1.1,5.19,3.81,5.46,7.96.23,3.54.09,3.55-3.46,3.55-1.11,0-2.22,0-3.32,0ZM115.54,116.13h0c1.27,0,2.54-.05,3.8,0,.97.04,1.4-.31,1.42-1.32.09-3.76-1.65-5.03-5.04-5.31-3.06-.25-5.64,2.69-5.32,5.83.08.83.63.78,1.17.79,1.32.02,2.65,0,3.97,0Z"/>
      <path class="cls-1" d="M18.97,117.76c-.04-2.64-.22-4.89.99-6.95,1.93-3.31,4.09-4.12,7.99-4.06,3.08.05,5.45,1.03,7.04,3.73.63,1.07.84,2.25,1.08,3.43.74,3.69.55,7.29-1.25,10.67-2.12,3.98-9.01,5.16-12.59,2.39-2.47-1.91-3.02-4.49-3.25-7.29-.07-.77,0-1.55,0-1.92ZM22.28,117.66c-.05,1.5-.06,2.94.35,4.34.8,2.66,2.73,3.77,5.99,3.45,2.1-.2,3.64-2.08,3.99-4.41.35-2.37.26-4.69,0-7.06-.26-2.32-1.95-4.3-4.13-4.51-3.1-.3-5.25,1.01-5.84,3.62-.34,1.52-.48,3.06-.36,4.57Z"/>
      <path class="cls-1" d="M66.52,119.66c0,2.33-.01,4.65,0,6.98,0,.8-.22,1.52-.98,1.74-.79.23-1.75.25-2.2-.66-.43-.86-.94-.7-1.61-.43-1.53.6-3.02,1.18-4.75,1.2-3.77.03-5.65-1.9-6.05-5.12-.54-4.38.4-6.46,5.19-7.56,1.8-.41,3.61-.36,5.43-.34,1.14.01,1.65-.38,1.64-1.65,0-3.43-1.11-4.59-4.6-4.49-1.77.05-3.54.11-5.31.18-.64.02-1.1-.18-1.1-.91,0-.62,0-1.29.8-1.43,2.84-.49,5.74-.65,8.57-.24,3.1.45,4.86,2.85,4.93,6.09.04,2.21,0,4.43,0,6.65,0,0,.01,0,.02,0ZM63.2,121.05c0-.77-.01-1.55,0-2.32.01-.59-.15-.96-.83-.94-1.65.04-3.33-.11-4.95.13-2.7.4-4.04,3.14-2.97,5.7.9,2.15,1.85,2.49,5.05,1.83q3.69-.75,3.69-4.41Z"/>
      <path class="cls-1" d="M54.8,155.37c.16,2.07-.34,4.09-1.06,6.07-1.07,2.9-5.71,5.24-8.79,4.48-5.17-1.28-6.79-3.34-7.4-8.74-.31-2.76-.15-5.43.67-8.03,1.14-3.59,4.23-5.31,8.72-5.07,3.64.19,6.45,2.45,7.25,5.86.41,1.76.76,3.54.61,5.44ZM51.43,155.33c0-.77.07-1.56-.02-2.32-.1-.86-.33-1.71-.55-2.56-.49-1.93-1.9-3.25-3.58-3.4-3.06-.27-4.95.41-5.7,2.53-1.28,3.63-1.23,7.43.12,10.97,1.23,3.2,6.46,3.46,8.48.66,1.29-1.78,1.3-3.82,1.25-5.88Z"/>
      <path class="cls-1" d="M127.41,117.67c0-2.88.01-5.76,0-8.64-.01-2.14.93-2.9,2.88-2.01,1.23.57,2.33.5,3.49.1,1.76-.6,3.55-.93,5.37-.49,3.03.73,4.72,3.12,4.82,7.05.11,4.32,0,8.64.06,12.96.02,1.39-.74,1.49-1.8,1.49-1.06,0-1.6-.23-1.58-1.49.08-3.88,0-7.76.05-11.63.01-1.06-.1-2.1-.36-3.1-.38-1.46-1.32-2.41-2.94-2.44-.61-.01-1.22-.01-1.83,0-3.7.11-4.47.92-4.45,4.51.02,4.15-.09,8.31,0,12.46.04,1.74-.93,1.63-2.11,1.69-1.3.07-1.69-.34-1.64-1.67.11-2.93.03-5.87.03-8.81h0Z"/>
      <path class="cls-1" d="M22.26,152.09c.15,1.76-.28,3.99.33,6.17.76,2.71,2.81,4.42,5.65,4.51,1.99.06,3.98-.03,5.98-.05.84,0,1.68-.15,1.71,1.17.03,1.24-.64,1.7-1.68,1.78-1.55.11-3.1.16-4.65.18-2.33.03-4.65-.12-6.62-1.51-1.49-1.05-2.7-2.43-3.31-4.19-.78-2.21-1.38-4.43-1.17-6.86.22-2.61-.19-5.29.2-7.87.62-4.18,2.83-7.94,7.73-8.71,2.9-.45,5.67.07,8.49.38,1.43.16.96,1.27.95,2.06,0,.97-.6.73-1.36.69-2.43-.15-4.89-.25-7.29,0-2.72.28-4.8,3.34-4.94,6.85-.06,1.66-.01,3.32-.01,5.42Z"/>
      <path class="cls-1" d="M57.91,157.34c0-3.65-.02-7.31.02-10.96,0-.65-.42-1.63.49-1.9.8-.23,1.87-.42,2.53.29.78.83,1.44.33,2.19.15,2.03-.48,3.96-1.37,6.18-.78,2.98.8,4.44,2.81,4.78,5.65.56,4.63.32,9.28.23,13.93-.02,1.25-.34,2.27-2.05,2.01-1.05-.16-1.4-.55-1.39-1.59.04-3.93,0-7.87,0-11.8,0-5.83-2.41-5.52-6.66-5.14-.65.06-1.27.38-1.91.54-.82.21-1.17.71-1.17,1.56,0,3.76-.45,7.52-.17,11.29.09,1.19-.18,2.4-.11,3.59.07,1.17-.34,1.52-1.49,1.54-1.27.03-1.29-.65-1.28-1.57.03-2.27,0-4.54,0-6.81h-.21Z"/>
      <path class="cls-1" d="M8.93,114.95c0-3.76-.04-7.53.03-11.29.02-1.17-.36-1.58-1.51-1.55-1.88.05-3.76.01-5.65,0-.98,0-1.81-.26-1.8-1.44.01-1.22.79-1.5,1.89-1.5,5.84.05,11.69.08,17.53.03,1.03,0,1.23.37,1.19,1.24-.04.83.13,1.74-1.18,1.71-1.88-.04-3.77.03-5.64-.09-1.27-.08-1.57.35-1.56,1.58.06,7.53,0,15.06.04,22.58,0,1.4-.35,2-1.87,1.93-1.17-.06-1.52-.47-1.51-1.58.05-3.87.02-7.75.02-11.62h.02Z"/>
      <path class="cls-1" d="M44.22,102.15c0,.95,0,2,0,3.04-.01,1.15.43,1.78,1.69,1.65.6-.06,1.22-.03,1.82,0,.68.03,1.46-.2,1.51.98.04,1.02-.17,1.72-1.25,1.94-.21.04-.44.05-.66.07-2.79.19-2.88.19-2.81,3.06.08,3.35-.21,6.7.22,10.07.38,3.03.22,3.12,3.24,3.18.57.01,1.42-.39,1.56.69.12.95-.52,1.25-1.26,1.42-1.97.45-4.01.53-5.74-.55-1.23-.77-1.6-2.31-1.61-3.76-.05-4.2-.07-8.41,0-12.61.02-1.38-.49-1.82-1.8-1.88-.93-.05-2.15.53-2.69-.89-.38-.99-.25-1.58.91-1.74,1.13-.15,2.55.57,3.33-.33.67-.78.18-2.13.2-3.23.01-.81.42-1.08,1.13-1.09.7,0,1.4,0,2.22,0Z"/>
      <path class="cls-1" d="M149.92,117.82c0-2.21-.05-4.43.02-6.64.04-1.21-.38-1.75-1.61-1.72-.95.02-1.85-.2-2.67-.74-.48-.31-.69-.65-.55-1.22.13-.54.52-.66.99-.67.11,0,.22-.02.33-.02,3.04-.2,3.1-.2,3.2-3.35.06-1.76,1.42-1.4,2.37-1.58,1.2-.22,1.27.66,1.29,1.58.05,3.24.06,3.28,3.35,3.33.92.02,1.55.27,1.63,1.21.08,1.02-.48,1.63-1.5,1.81-.11.02-.22,0-.33.01q-3.12.22-3.13,3.4c0,3.49.03,6.98,0,10.46-.02,1.54.59,2.28,2.17,2.15.55-.05,1.11-.02,1.66,0,.59.02,1.1.14,1.18.88.08.75-.22,1.34-.85,1.66-1.28.65-5.5-.2-6.52-1.18-.69-.67-.95-1.46-.95-2.37,0-2.32,0-4.65,0-6.97h-.07Z"/>
      <path class="cls-1" d="M74.16,113.64c0,4.1.02,8.2-.01,12.3,0,1,.5,2.3-1.44,2.26-1.82-.04-1.88-1.1-1.87-2.42.01-6.87,0-13.74,0-20.61,0-1.5.01-2.99,0-4.49,0-1.01.03-1.91,1.45-1.87,1.27.04,1.91.45,1.89,1.86-.06,4.32-.02,8.64-.02,12.97Z"/>
      <path class="cls-1" d="M142.33,140.8c.06,2.43-.37,4.83-.53,7.24-.18,2.8.07,5.62.18,8.43.09,2.53.22,5.06.38,7.58.1,1.54-.83,1.63-2,1.7-1.3.07-1.41-.61-1.36-1.63.3-5.79.61-11.59.31-17.38-.16-2.98-.17-5.96-.26-8.95-.03-1.05.3-1.5,1.42-1.42,1,.07,1.94.02,1.88,1.43-.04.99,0,1.99-.01,2.99Z"/>
      <path class="cls-1" d="M92.45,138.05c-.34-1.27.34-1.9,1.67-1.93,1.55-.04,2,.53,1.97,2.5-.02,1.16.05,2.44-1.69,2.44-1.6,0-1.96-.52-1.96-3.01Z"/>
      <path class="cls-1" d="M52.17,50.99c0,2.29,0,4.57.01,6.86-.41-2.29-.36-4.57-.01-6.86Z"/>
      <path class="cls-1" d="M66.82,54.34c0,2.28,0,4.55,0,6.82-.41-2.28-.38-4.55,0-6.82Z"/>
    </g>
  </g>
</svg>