<?xml version="1.0" encoding="UTF-8"?>
<svg id="Capa_2" data-name="Capa 2" xmlns="http://www.w3.org/2000/svg" viewBox="0 0 340.77 104.31">
  <defs>
    <style>
      .cls-1 {
        fill: #ed7f27;
        fill-rule: evenodd;
        stroke-width: 0px;
      }
    </style>
  </defs>
  <g id="Capa_1-2" data-name="Capa 1">
    <path class="cls-1" d="M0,0h58.65v19.3h-17.08v57.35c0,3.57,2.92,6.5,6.5,6.5h11.69v19.67h-19.24c-12.9,0-23.45-10.55-23.45-23.45V19.3H0V0h0ZM322.4,73.84c5.74,0,10.39,4.65,10.39,10.39s-4.65,10.39-10.39,10.39-10.39-4.65-10.39-10.39,4.65-10.39,10.39-10.39h0ZM218.41,41.2h0c-11.33,0-20.6,9.27-20.6,20.6h0c0,11.33,9.27,20.6,20.6,20.6h0c8.43,0,15.72-5.13,18.9-12.43l18.48,14.23c-7.8,12.04-21.66,20.1-37.38,20.1h0c-16.02,0-30.12-8.37-37.82-20.81.79-1.32,1.51-2.69,2.16-4.1l-18.99-7.6c-3.67,7.16-11.12,12.08-19.67,12.08h0c-10.02,0-17.76-6.77-20.43-15.96h62.49c.29-2,.45-4.05.45-6.13h0c0-7.91-2.19-15.34-6-21.7,7.71-12.43,21.8-20.8,37.82-20.8h0c15.7,0,29.55,8.04,37.35,20.06l-18.47,14.23c-3.19-7.28-10.47-12.39-18.88-12.39h0ZM125.6,49.74h36.95c-3.96-6.02-10.77-10.02-18.48-10.02h0c-7.7,0-14.52,4-18.47,10.02h0ZM298.27,19.3h0c-23.38,0-42.5,19.13-42.5,42.5h0c0,23.38,19.13,42.5,42.5,42.5h0c.07,0,.13,0,.2,0v-20.42c-.07,0-.13,0-.2,0h0c-10.02,0-17.81-6.77-20.49-15.96h62.54c.29-2,.45-4.05.45-6.13h0c0-23.38-19.13-42.5-42.5-42.5h0ZM279.79,49.74h36.95c-3.96-6.02-10.77-10.02-18.48-10.02h0c-7.7,0-14.52,4-18.48,10.02h0ZM67.56,19.67h23.76v8.19c4.84-5.62,11.75-7.93,19.96-8.19h5.49v22.25h-6.38c-12.79.5-18.39,7.02-19.07,17.64v43.26h-23.76V19.67h0Z"/>
  </g>
</svg>