<?xml version="1.0" encoding="UTF-8"?>
<svg id="Capa_2" data-name="Capa 2" xmlns="http://www.w3.org/2000/svg" viewBox="0 0 138.63 153.39">
  <defs>
    <style>
      .cls-1 {
        fill: #282979;
        stroke-width: 0px;
      }
    </style>
  </defs>
  <g id="Capa_1-2" data-name="Capa 1">
    <g>
      <path class="cls-1" d="M111.66,31.36c.55,4.01,6.63,9.41,8.27,9.29,1.1,0,1.52-5.23,1.52-9.29,0-2.32.13-4.14-1.1-4.56-1.94,3.93-7.05,4.73-8.7,4.56h0ZM112,29.59c4.39,0,8.4-3.5,8.4-6.59,0-1.44-.68-2.61-2.41-2.83.3.38.42.68.42,1.35,0,2.32-3.54,4.9-7.39,4.9-1.39,0-1.82.97-1.82,1.47,0,1.18,1.14,1.69,2.79,1.69h0ZM111.07,24.82c-.59,0-1.44,0-1.9-.93-.38-.76-.25-1.98-.97-2.53.72.21,1.48.21,2.07.21,1.9,0,3.72-1.31,5.11-1.31.93,0,1.22.59,1.22,1.18,0,1.86-3.75,3.38-5.53,3.38h0ZM16.65,57.91c1.43,0,1.14-8.78,3.46-8.78.55,0,.72.55.72,1.22,0,1.98-.97,4.9-.97,6.5,0,.8.21,1.06.59,1.06,1.01,0,2.79-9.67,4.52-9.67.55,0,.8.55.8,1.1,0,2.02-2.57,7.85-2.57,9.5,0,.25.08.46.29.46,1.06,0,3.17-4.56,3.84-6.84.38-1.18.89-1.82,1.35-1.82.42,0,.8.46.8,1.44,0,2.28-2.11,7.64-3.97,11.23-1.44,2.78-3.67,6.8-3.67,9.03,0,1.14.21,2.32,1.86,3.75-2.7-.17-3.8-.42-4.81-2.53-4.52,8.99,8.32,8.11,3.93,16.08-.8-1.43-7.13-2.91-7.13-11.27,0-7.22,6.33-11.44,6.33-14.44,0-.59-.21-1.1-.76-1.56-1.39-1.18-1.44-2.15-2.53-2.15-.8,0-1.77,1.86-.76,3.5.34.55.63.89.63,1.39,0,1.18-1.86,4.35-3.16,4.35s-2.32-3.25-2.32-8.48c0-4.64,1.05-9.33,2.36-9.33.38,0,.51.25.51.59,0,.55-.17,1.64-.17,3.5,0,1.99.46,2.15.85,2.15h0ZM81.31,16.42c.68,0,.8,1.65.93,2.62.08.51.17.55.38.55.51,0,1.31-1.94,1.86-1.94.8,0,2.96,2.24,6.54,2.24,5.11,0,9.92-3.59,9.92-9.92S96.64.25,90.68.25c-2.83,0-4.9,1.39-6,1.39-.68.04-1.69-1.64-2.2-1.64-.21,0-.42.42-.42,1.14,0,.46,0,1.94-.51,1.94-1.01,0-4.94-2.91-4.94-1.86,0,.97,2.62,3.93,2.62,4.69s-2.57,1.48-2.57,1.98c0,.93,2.74,1.1,2.74,2.28s-2.87,2.11-2.87,3c0,.72,2.87.21,2.87,1.1s-2.11,3.84-2.11,4.69c0,.21.04.21.21.21.8,0,3.21-2.75,3.8-2.75h0ZM27.16,78.81c-.04-.84.55-1.65,1.43-1.73.89-.13,1.69.55,1.77,1.43.09.89-.55,1.65-1.44,1.77-.88.04-1.69-.59-1.77-1.48h0ZM22.47,80.12c.17,1.44,1.52,2.53,3.04,2.36.55-.05,1.06-.21,1.39-.42.34,1.35,1.39,2.2,2.95,2.03,1.56-.13,2.66-1.43,2.49-2.99,0-.42-.13-.68-.25-.97l.3-.04c1.48-.17,2.62-1.52,2.49-3-.17-1.52-1.56-2.62-3-2.49-.55.13-1.01.29-1.35.59-.38-1.26-1.48-2.28-3.04-2.11-1.48.08-2.62,1.52-2.45,3.08,0,.21.08.55.21.85l-.3.04c-1.48.21-2.62,1.44-2.49,3.08h0ZM116.52,2.7c0,.59.46,1.06,1.06,1.06s1.06-.46,1.06-1.06-.47-1.06-1.06-1.06-1.06.47-1.06,1.06h0ZM92.97,42.72c0,.97.8,1.77,1.77,1.77s1.77-.8,1.77-1.77-.8-1.77-1.77-1.77-1.77.8-1.77,1.77h0ZM93.09,48.03c0,1.1.89,1.99,1.98,1.99s1.98-.89,1.98-1.99-.89-1.98-1.98-1.98-1.98.89-1.98,1.98h0ZM87.01,51.62c0,1.6,1.31,2.91,2.91,2.91s2.91-1.31,2.91-2.91-1.31-2.91-2.91-2.91-2.91,1.31-2.91,2.91h0ZM88.57,45.67c0,.93.76,1.69,1.69,1.69s1.69-.76,1.69-1.69-.76-1.69-1.69-1.69-1.69.76-1.69,1.69h0ZM83.04,49.05c0,.93.76,1.69,1.69,1.69s1.69-.76,1.69-1.69-.76-1.69-1.69-1.69-1.69.76-1.69,1.69h0ZM87.39,39.17c0,1.48,1.22,2.7,2.7,2.7s2.7-1.22,2.7-2.7-1.22-2.7-2.7-2.7-2.7,1.22-2.7,2.7h0ZM90.56,33.98c0,.89.72,1.61,1.6,1.61s1.6-.72,1.6-1.61-.72-1.6-1.6-1.6-1.6.72-1.6,1.6h0ZM82.92,38.03c0,.89.72,1.61,1.6,1.61s1.61-.72,1.61-1.61-.72-1.6-1.61-1.6-1.6.72-1.6,1.6h0ZM82.71,43.52c0,1.44,1.14,2.58,2.58,2.58s2.57-1.14,2.57-2.58-1.14-2.57-2.57-2.57-2.58,1.14-2.58,2.57h0ZM77.39,46.22c0,1.31,1.1,2.41,2.41,2.41s2.41-1.1,2.41-2.41-1.1-2.41-2.41-2.41-2.41,1.1-2.41,2.41h0ZM78.82,40.27c0,.93.76,1.69,1.69,1.69s1.69-.76,1.69-1.69-.76-1.69-1.69-1.69-1.69.76-1.69,1.69h0ZM73.21,102.49c0,.92.76,1.68,1.69,1.68s1.69-.76,1.69-1.68-.76-1.69-1.69-1.69-1.69.76-1.69,1.69h0ZM27.79,32.55c0,.93.76,1.69,1.69,1.69s1.69-.76,1.69-1.69-.76-1.69-1.69-1.69-1.69.76-1.69,1.69h0ZM25.59,28.75c0,.93.76,1.69,1.69,1.69s1.69-.76,1.69-1.69-.76-1.69-1.69-1.69-1.69.76-1.69,1.69h0ZM27.41,70.28c1.77,0,3.25-1.31,3.25-4.22v-4.3c0-1.65.13-3.51,1.22-4.81-.13.55-.13,1.14-.13,1.69,0,3.63,2.03,6.12,2.03,9.63,0,1.31-.38,2.02-1.39,2.02s-.89-.89-1.1-.89c-.17,0-.42.55-.42,1.14,0,.89.63,2.28,2.41,2.28,1.52,0,2.74-1.39,2.74-2.96,0-3.8-2.95-8.02-2.95-12.07,0-1.77.46-2.96.84-3.88,0,8.4,7.13,14.52,7.13,18.03,0,.8-.59,1.44-1.48,1.44-.97,0-1.43-.76-1.43-1.35,0-.3-.04-.38-.17-.38-.25,0-1.01.84-1.01,1.94,0,1.39,1.14,3.08,3.25,3.08,2.41,0,3.72-2.03,3.72-3.84,0-4.43-8.65-11.15-8.65-18.32,0-1.23.21-3.21,1.1-4.73-5.57,3.59-7.3,8.36-7.3,12.54,0,3.63-.13,5.44-1.98,5.44-.97,0-1.22-.89-1.56-.89-.25,0-.38.76-.38.97,0,1.56,1.14,2.45,2.28,2.45h0ZM100.56,28.11c1.86,0,3.25-.84,3.25-1.35,0-.17-.25-.29-.8-.29s-1.65-.04-3.72-.38c-1.77-.29-3.13-.97-3.63-.97-.17,0-.25.08-.25.21,0,1.1,2.02,2.78,5.15,2.78h0ZM91.36,22.75c.55-.34,2.91.21,5.99-1.31.38-.21.76-.29,1.1-.29,1.48,0,1.1,1.69,2.45,1.69,1.06,0,2.41-.89,3.21-.89,1.26,0,3.08,3.97,3.08,5.83,0,2.15-3.25,3.46-7.09,3.46-5.62,0-8.99-4.9-8.99-8.06,0-.25.13-.34.25-.42h0ZM28.29,86.19c-1.39.34-3.63,2.53-3.63,6,0,4.13,4.43,10.51,11.74,10.51,6.16,0,7.68-4.26,7.68-7.14,0-6.37-3.93-10.85-9.03-10.85-2.79,0-5.28,2.03-5.28,5.02,0,2.79,2.11,6.96,7.13,6.96,2.36,0,3.76-1.69,3.76-3.63s-1.73-4.51-4.26-4.51c-.76,0-1.31.51-1.31,1.31,0,1.01,1.39,2.03,3.13,2.03.42,0,.76-.08.93-.17.08.13.13.34.13.51,0,.97-.93,1.56-2.36,1.56-2.15,0-4.22-1.6-4.22-4.14,0-1.52,1.31-2.62,3.21-2.62,3.75,0,5.99,3.34,5.99,6.67,0,3-1.65,4.73-5.02,4.73-6.76,0-10.05-6.08-8.57-12.24h0ZM24.07,40.31c-.97.25-3,1.44-3,3.54,0,1.52,1.18,2.49,2.66,2.49.76,0,1.31-.17,1.65-.42-1.18-1.14-1.6-2.41-1.6-3.67,0-.89.13-1.44.3-1.94h0ZM13.73,40.9c-.04.21-.04.42-.04.63,0,1.98,1.06,3.08,2.45,3.08,1.05,0,2.28-.63,3.38-2.03-.46.08-1.01.13-1.52.13-1.56,0-3.25-.42-4.26-1.81h0ZM12.26,44.66c0,3.21.97,4.73,2.7,4.73,1.35,0,3.17-.97,5.32-2.83-1.65.38-2.91.63-4.05.63-1.52,0-2.7-.59-3.97-2.53h0ZM76.5,110.93c2.03,0,1.9-.17,2.54-.17s.67.38.67.63c0,.93-2.07,2.07-5.74,2.07-2.15,0-3.46-1.14-3.84-2.41-2.11,1.35-5.32,2.58-8.48,2.58-8.66,0-10.85-3.76-13.55-4.98-2.07-.93-5.23.89-9.67-4.05.59.13,1.39.17,2.02.17,3.88,0,5.95-1.9,5.95-4.93,0-.38-.04-.8-.08-1.18,1.18.46,3.88,2.49,4.52,6.08.08.42,1.82.8,2.91.8,1.52,0,3.46-.63,3.76-3.12,5.07-.42,8.48-3.42,9.2-7.22,1.82.59,3.88,2.24,4.39,3.08.72-.25,1.56-.38,2.53-.38,1.35,0,2.87.25,4.69.8.08-.55.17-1.23,1.01-1.23,1.26,0,.93,1.39,1.35,2.2.21.42,1.26.68,1.26,1.52s-.68,1.1-1.1,1.1c-.17,0-.38-.04-.51-.08-.84.3-.89,6.37-4.43,6.37-2.62,0-5.02-2.15-6.08-4.86-.29-.8-.93-1.31-1.52-1.31-.68,0-1.06.13-1.86,1.01-2.28,2.49-6.07,4.64-10.76,4.64-1.43,0-2.57-.12-2.87-.12-.17,0-.17.04-.17.08,0,.3,1.43,1.44,4.56,1.44,7.43,0,9.24-4.18,10.42-4.18.17,0,.68,0,.97.68,1.73,4.05,5.49,4.98,7.85,4.98h.04ZM52.53,26.09c2.78,0,4.05,2.41,4.05,5.11,0,1.18-.34,2.91-.89,2.91s-.47-.97-.55-1.86c-.08-1.14-.3-1.39-.67-1.39-.72,0-1.18,1.69-1.18,3.25,0,.97.17,2.07.93,2.07.42,0,.8-.21,1.05-.46-.17,1.94-1.6,3.63-3.63,3.63-3.72,0-5.11-4.35-5.53-6.88-2.23,2.37-4.3,4.09-8.02,4.09-3.46,0-5.02-2.53-5.02-4.94,0-.72.25-2.57,1.14-2.57,1.06,0,.13,3.46,2.2,3.46.51,0,1.43-.42,1.94-1.81.3-.84.46-1.73.46-2.49,0-1.14-.25-1.86-1.1-1.86-.72,0-1.6.55-1.9.84,1.01-3.04,3.46-4.6,6.16-4.6,3.34,0,5.11,2.96,5.11,6.25,0,.46-.04.97-.13,1.43,1.44-2.37,3.42-4.18,5.57-4.18h0ZM41.93.93c0-.25-1.27-.51-3-.51-2.74,0-2.36,2.28-4.47,2.28s-1.65-2.36-4.43-2.36c-1.69,0-3.25.29-3.25.67,0,.51,1.98.3,1.98,1.69,0,1.48-4.26,1.9-4.26,2.78,0,.3.34.42.76.42.93,0,2.41-.42,3.46-.42.59,0,1.14.13,1.14.68,0,1.06-2.28,2.96-2.28,3.8,0,.25.21.34.42.34.84,0,2.28-2.15,3.63-2.15,2.24,0,.76,4.77,1.98,4.77s.72-4.69,2.53-4.69c1.48,0,2.58,3.25,3.59,3.25.25,0,.46-.21.46-.51,0-.88-1.27-2.7-1.27-3.88,0-.72.51-1.06,1.18-1.06.97,0,2.28.59,3,.59.25,0,.51-.08.51-.38,0-1.01-3.76-2.11-3.76-3.42s2.07-1.31,2.07-1.9h0ZM102.08,84.04c-.89,0-5.79,6.54-8.95,6.54-.76,0-1.39-1.44-1.39-2.53,0-.59.38-1.02,1.73-1.31,7.26-1.65,5.65-7.09,11.86-7.09,3.42,0,7.22,2.32,7.22,7.56,0,5.57-7.94,12.5-9.12,12.5-.97,0-2.03-1.4-2.03-2.32,0-.3.13-.68.97-1.01,4.05-1.61,6.37-5.32,6.37-7.22,0-.42-.21-.84-.76-.84-.72,0-3.8,7.01-7.22,7.01-2.37,0-4.77-2.15-4.77-3.16,0-1.69,6.84-4.82,6.84-7.18,0-.89-.42-.93-.76-.93h0ZM106.64,81.43c-.59,0-1.23.47-1.23,1.6,0,1.27.97,2.07,1.52,2.32.3.17.76.34,1.23.34,1.22,0,2.2-.34,2.2-1.35,0-1.31-1.9-2.91-3.72-2.91h0ZM51.85,5.23c0,.76,2.66,2.41,3.88,2.41.72,0,.93-.97.93-1.99,0-1.26-.55-1.31-1.65-1.31-1.39,0-3.17.38-3.17.89h0ZM56.24,13.59c0-2.53-6.92-7.22-6.92-9.12,0-.08,0-.13.04-.21.51-1.39,6.25-2.37,6.25-3.51,0-.55-1.01-.55-1.52-.55-3.93,0-9.67,1.44-9.67,2.83s5.15,4.94,5.15,6.67c0,.46-.29.63-.76.63-1.43,0-4.56-1.73-6.04-1.73-.68,0-.93.46-.93,1.14,0,2.03,2.4,5.87,2.4,7.01,0,.13-.04.3-.21.3-.76,0-4.35-4.22-5.61-4.22-.46,0-.51.63-.51,1.56v1.44c0,.97-.04,1.56-.51,1.56-1.1,0-1.6-3.08-2.66-3.08s-1.31,5.49-2.36,5.49c-1.22,0-.17-6.04-1.35-6.04-1.31,0-2.79,4.01-3.71,4.01-.34,0-.42-.34-.42-.63,0-1.22.72-3.21.72-4.39,0-.59-.17-.93-.68-.93-1.31,0-4.18,2.11-5.28,2.11-.17,0-.38-.08-.38-.25,0-1.01,4.6-4.22,4.6-5.66s-6.33-.46-6.33-2.07c0-1.35,4.52-2.74,4.52-4.14C24.07.59,18.71.04,16.65.04c-2.49,0-3.84.29-3.84,1.01,0,1.1,5.66,1.44,5.66,2.41s-5.87,3.42-5.87,4.86c0,1.26,8.27.08,8.27,1.39,0,1.43-7.22,7.64-7.22,9.71,0,.47.34.68.8.68,2.2,0,7.9-4.18,9.46-4.18.55,0,.59.67.59,1.26,0,1.1-.38,2.79-.38,4.01,0,.97.25,1.64,1.1,1.64,1.56,0,3-2.66,4.05-2.66,1.35,0,.55,7.81,2.58,7.81,1.73,0,2.45-8.44,3.54-8.44s1.98,2.45,3,2.45c1.26,0,.67-4.26,2.02-4.26,1.48,0,5.7,5.07,7.6,5.07.59,0,.8-.47.8-1.06,0-2.24-3.12-7.3-3.12-8.9,0-.42.13-.55.59-.55,1.65,0,6.46,2.28,8.74,2.28.76,0,1.23-.42,1.23-.97h0ZM113.86,62.18c.68-2.11,1.52-3.59,2.91-5.87-1.39-.72-5.06-2.24-5.06-4.73,0-2.91,3.63-5.19,4.39-5.19.34,0,.42.3.42.84,0,1.52-.72,3.97-.72,5.27,0,1.18.76,2.32,1.43,2.32.72,0,2.7-2.53,2.7-5.02,0-4.47-3.93-5.82-5.15-5.82-1.14,0-3.21,1.86-8.07,1.86-9.07,0-11.14-8.99-11.14-12.92,0-.17.04-.21.08-.21.21,0,1.1,1.1,3.97,1.1,1.48,0,2.83-.38,4.98-.38,5.06,0,7.3,3.5,10.43,7.98,1.89,1.18,6.41,3.08,6.41,8.44,0,4.73-5.03,7.34-6.25,12.41,1.94-.21,3.08-3.68,5.07-3.68,1.01,0,1.48.81,1.48,2.07,0,1.86-1.06,4.65-3.08,6.38.04-.17.04-.38.04-.63,0-1.18-.47-2.87-1.82-2.87-2.11,0-2.78,2.28-3.97,4.18-1.22-4.3-2.87-8.19-5.82-10.55-3-2.41-8.15-1.1-8.15-5.49,0-1.18.76-2.87.76-4.22,0-.46-.08-.89-.34-1.22,4.05,1.52,2.62,4.22,5.11,7,1.56,1.77,5.87,3.46,8.36,10.76.04-.21.08-.76.08-1.14,0-6.25-8.27-12.37-8.99-14.9,4.81.55,5.65,1.73,7.93,8.06.46,1.31,1.98,4.56,1.98,6.17h0ZM23.19,27.77c.21-.68.38-1.52.38-2.45,0-2.03-.93-5.11-3.8-5.11-1.65,0-2.83,1.31-2.83,2.87,0,3.34,3.33,4.69,6.25,4.69h0ZM19.6,38.41c-1.39,0-2.91-1.73-2.91-3.29,0-.85.63-1.9,1.09-1.9.17,0,.25.13.3.42.25,2.07,1.6,3.25,2.87,3.84.13.08.21.13.21.21,0,.3-.8.72-1.56.72h0ZM24.58,34.45c0,.59-.34,1.35-1.01,1.35-1.48,0-2.66-2.24-2.66-3.51,0-.8.46-.88,1.1-.88.29,0,.42.04.63.17.38.21.38,1.05.84,1.69.25.42,1.1.89,1.1,1.18h0ZM23.1,30.01c-.25-.04-.59-.04-.93-.04-1.39,0-3.25.25-4.9,1.35-3.72,2.41-3.13,6.2-3.72,7.18-.08.12-.13.3-.13.47,0,.38.42.8.8.8.34,0,.55-.08.72-.08,1.01,0,2.15.72,3.8.72.97,0,2.11-.3,3.55-1.01,3.04-1.52,4.22-5.28,4.22-5.91,0-.8-.63-.68-1.18-1.43-.59-.89-.3-1.22-.68-1.73-.25-.21-.8-.21-1.56-.29h0ZM27.58,36.81c-.93,1.1-1.9,2.95-1.9,4.86,0,2.28,1.39,4.18,3.55,4.18s3.04-1.77,3.04-3.59c0-2.83-2.58-4.82-4.69-5.45h0ZM18.54,28.7s-1.22.93-2.74.93c-1.81,0-3.25-1.35-3.25-3.25,0-1.31.67-2.66,2.24-3.34-.04.25-.04.46-.04.72,0,2.41,1.35,4.22,3.8,4.94h0ZM93.64,53.27c0-.84.76-1.56,1.6-1.56.93,0,1.65.72,1.65,1.56,0,.97-.72,1.65-1.65,1.65-.85,0-1.6-.68-1.6-1.65h0ZM94.73,101.82c.21,0,.46.13.46.89,0,.93-.42,2.15-1.94,3.12-1.06.72-2.49,1.31-4.6,1.35.34-1.01.59-2.07.59-3.08,0-.34-.04-.59-.08-.97h.55c3.34,0,4.77-1.31,5.02-1.31h0ZM95.07,97.63c.34-.3.42-.76.42-1.22v-.97c0-1.22-1.85-1.94-4.39-1.94-3.08,0-4.73,1.39-4.73,1.99v1.94c0,.8,1.86,1.6,4.14,1.6,1.81,0,3.46-.46,4.56-1.39h0ZM97.27,98.1c-1.1.84-3.67,2.74-7.93,2.74-2.28,0-3.29-.72-3.63-.72-.42,0-.89.42-1.35.97-1.01,1.18-2.32,3.38-2.32,5.78,0,1.69,1.31,3.38,3.76,3.38,7.89,0,13.8-4.94,13.8-8.95,0-2.28-1.35-3.21-2.32-3.21h0ZM98.74,62.6c0,1.05.34,2.28,1.39,2.28.89,0,1.65-1.35,1.65-2.83,0-1.69-.3-3-.3-3.68,0-.29.13-.42.3-.42.63.04,1.22,1.77,1.9,1.77.76,0,1.9-1.39,2.36-1.39.13,0,.17.17.17.21,0,.63-.97,2.03-.97,2.57,0,.46,2.45.55,2.45.97,0,.63-2.58.63-3.8,1.18-1.18.51-1.9,1.14-1.9,1.98s.84,1.01,2.03,1.01c2.83,0,4.81-1.52,5.44-1.52.13,0,.21.08.21.21,0,.42-1.43,1.82-1.43,2.45,0,.72,2.62,1.56,2.58,1.98-.04.13-.21.17-.51.17-.46,0-1.18-.12-1.73-.12-.34,0-.63.04-.76.21-.3.34.08,2.58-.51,2.58-.55,0-1.99-4.98-5.23-4.98-.46,0-.8.38-.8,1.01,0,1.69,1.65,3.63,3.21,4.56.71.47,1.9.93,1.9,1.18,0,.5-2.7.04-2.7.88,0,.76.34,1.9.34,2.58,0,.21-.04.46-.3.46-.5,0-1.73-2.32-2.32-2.32-.5,0-1.6,1.39-2.07,1.39-.13,0-.21-.13-.21-.25,0-.97,1.56-3.17,1.56-5.32,0-1.01-.13-3.21-1.35-3.21-1.01,0-2.15,1.6-2.66,3.21-.3.93-.08,4.52-.76,4.52-.63,0-.47-2.41-1.31-2.41-.63,0-1.98,1.14-2.44,1.14-.08,0-.17-.04-.17-.13,0-.5,1.22-2.15,1.22-2.49,0-.63-2.79-.72-2.79-1.23,0-.3,1.1-.51,2.11-.68,2.15-.38,5.32-1.94,5.32-4.14,0-2.45-2.37-3.5-3.92-4.52-.8-.51-1.69-.93-1.69-1.27s1.01-.34,1.43-.34c.63,0,1.26-.04,1.26-.55,0-.38-.09-1.14-.09-1.73,0-.42.04-.76.21-.76.63,0,1.52,2.07,1.94,2.07.67,0,1.6-1.69,2.24-1.69.21,0,.29.13.29.51,0,1.56-.8,3.33-.8,4.85h0ZM78.61,50.23c.47,3.59,5.28,1.77,5.28,6.12,0,.63-.17,1.56-.17,2.36,0,.93.08,1.73.8,1.73s.89-.51.89-1.18-.17-1.52-.17-1.98c0-1.48,1.06-1.82,1.69-1.82,1.6,0,2.83,1.65,5.24,1.65-.55,2.7-6.12,1.98-6.12,4.94,0,1.48,1.48,1.81,2.45,1.81.89,0,1.18-.13,1.18-.89,0-.42-.08-.89-.08-1.18,0-.17.13-.34.34-.34.93,0,5.49,3.46,5.49,4.52,0,.97-4.81,1.94-6.21,1.94-.42,0-.51-.29-.51-.46,0-.3.72-1.18.72-1.69,0-.38-.63-.63-2.32-.63-.8,0-1.39.08-1.39.72,0,1.14,1.86,2.53,1.86,3.59,0,.84-.51,1.35-1.86,1.35-1.14,0-2.87-.89-2.87-2.36,0-1.18,1.23-2.37,1.23-3.08,0-.21-.17-.55-.68-.55-1.56,0-1.98,4.14-7.52,4.6.89-.8,1.65-1.69,1.65-3.5,0-.89-.21-1.6-.21-2.57,0-1.27.59-1.9,1.44-1.9,1.56,0,2.32,2.19,3.33,2.19.55,0,1.14-.5,1.14-1.26,0-3.21-6.16-2.74-6.16-7.26,0-1.23.42-2.74,1.56-4.85h0ZM86.63,77.67c0,.59.42,1.06,1.01,1.06.68,0,1.1-.59,1.1-1.27,0-.89-.8-2.11-1.56-2.11-.34,0-.21.51-.3,1.06-.04.42-.25.93-.25,1.27h0ZM84.44,72.05c4.43.84,6.84,4.18,6.84,7.3,0,2.15-1.35,4.13-3.72,4.13-2.15,0-3.72-1.48-3.72-3.84,0-1.77,1.39-3.63,1.39-5.45,0-.72-.21-1.43-.8-2.15h0ZM78.82,79.23c.42.42.55.84.55,1.27,0,.63-.3,1.31-.3,2.02,0,1.01.76,1.9,1.86,1.9,1.18,0,1.98-.93,1.98-2.03,0-1.6-1.65-3.16-4.09-3.16h0ZM92.79,76.53c.3.46.42.93.42,1.35,0,1.18-.8,2.28-.8,3.5,0,1.39,1.06,2.53,2.66,2.53,1.73,0,2.91-1.39,2.91-3.04,0-2.24-2.03-4.14-5.19-4.35h0ZM79.83,74.29c1.94.25,2.41.93,2.41,1.48,0,.93-.84,1.23-1.65,1.23-.59,0-1.26-.13-1.98-.13-.93,0-1.86.21-2.62,1.1.55.08,1.35.46,1.35,1.31,0,2.45-6.8.42-6.8,6.71,0,3.34,3.46,6.96,8.7,6.96,2.7,0,4.43-.88,4.43-1.9,0-.8-1.43-.25-1.43-.93,0-.3.51-.85.51-1.31,0-.21-.17-.59-.51-.59-.76,0-2.19,1.22-5.11,1.22-2.28,0-4.52-1.31-4.52-3.08,0-.38.17-.59.42-.59s.59.17.89.17c.25,0,.29-.17.29-.63s0-1.77.8-1.77,2.32,2.96,8.15,2.96c1.94,0,5.7-.38,7.09-1.65-.04,4.65-3.67,10.76-11.27,10.76s-12.11-6.33-12.11-12.16c0-6.46,5.27-12.32,12.5-12.32,1.85,0,3.42.63,3.42,1.43,0,1.1-2.74.42-2.96,1.73h0ZM49.28,31.07c0-.72-.17-.89-.34-.89-.42,0-.89.51-1.56,1.64.08,1.52.34,2.2.76,2.2.47,0,1.14-1.48,1.14-2.95h0ZM43.49,32.8c.47,0,1.06-.51,2.15-1.73.08-.55.08-1.06.08-1.69,0-.85-.34-1.77-.85-1.77-1.26,0-1.9,3.38-1.9,4.26,0,.51.26.93.51.93h0ZM50.37,36.55c1.06,0,2.24-4.05,2.24-6.58,0-.55-.08-1.14-.34-1.14-.89,0-2.37,4.18-2.37,6.46,0,.89.21,1.26.47,1.26h0ZM40.03,34.23c1.44,0,3.08-7.77,3.08-9.07,0-.34-.13-.59-.42-.59-1.31,0-3.13,7.39-3.13,9.03,0,.3.08.63.46.63h0ZM44.63,37.44c-1.81,0-1.9,2.2-1.9,6.63-1.35-2.91-3.59-6.04-6.21-6.04-1.77,0-2.45,1.18-2.45,3.25,0,.42.04,1.06.13,1.43.21-.72.89-1.01,1.73-1.01,1.82,0,4.01,1.39,5.44,3.29-1.65-.29-3.25-.59-4.6-.59-.84,0-1.61.08-2.24.38-1.22.55-2.87,2.36-2.87,5.11,0,.42.04.88.13,1.39,1.48-3.29,5.4-4.77,7.93-4.77.5,0,.89.04,1.18.08-1.31,1.18-1.6,3.25-1.69,4.64-.04.67-.3.72-.76.72,0,1.39,1.09,3.46,1.09,4.52,0,.38-.21.72-.42.8,0,1.86,1.86,3.21,1.86,4.39,0,.3-.08.55-.21.68.13.76,2.15,2.07,2.41,2.62.42.89.72.97.93.97.72,0,1.86-.84,1.86-1.6,0-.25-.21-.55-.38-.68-.8-.59-1.23-1.86-1.56-2.7-.3,0-.68-.17-.8-.59-.17-.55-.26-2.53-.59-3.5-.55-.13-.8-.34-.8-1.48,0-.55.34-2.7.34-3.46-.25,0-.59-.17-.59-.67,0-1.35,1.35-2.41,1.73-4.14,2.41,1.77,3,3.59,3,5.19,0,.84-.13,1.64-.3,2.41,1.77-.89,4.43-2.19,4.43-4.85,0-1.56-.72-3.29-5.49-3.97,1.48-.55,3.34-.84,4.9-.84,2.7,0,4.26.84,4.6,2.74.55-.84.97-1.81.97-2.7,0-2.07-1.73-3.42-3.92-3.42-2.57,0-4.85,1.35-7.3,3,1.1-2.28,1.86-3.63,3.21-3.63.21,0,.42.04.63.08-.51-1.86-2.41-3.67-3.42-3.67h0ZM17.7,11.14c0,.84-3.21,3.67-4.35,3.67-.42,0-.55-.51-.55-.97,0-.85.38-2.03.84-2.41.55-.51,1.82-.76,2.79-.76.59,0,1.26.12,1.26.46h0ZM115.76,67.88c2.11,0,3.8,2.74,3.8,5.95,0,3.42-1.6,7.13-4.47,9.66-.04-5.7-7.01-3.88-7.01-8.02,0-1.77,1.27-2.95,2.79-2.95,1.35,0,2.41.38,3.17,1.14-.76-.72-1.14-1.73-1.14-2.7,0-1.6,1.02-3.08,2.87-3.08h0ZM84.44,24.69c-.34-.55-1.61-.85-2.2-.85-1.86,0-3.12,1.31-3.38,2.49-.17-.42-.3-.93-.3-1.43,0-1.86,1.27-4.14,4.35-4.14,2.7,0,3.76,1.43,4.14,1.43.42,0,.84-.42,1.18-.42.46,0,.46.72.46,1.22,0,1.69-.76,4.6-2.66,5.66-.34-.72-1.01-1.52-2.11-2.03-.3-.12-.42-.38-.42-.63,0-.46.42-1.06.93-1.31h0ZM78.06,27.77c1.1,1.06,2.07,1.52,3.25,1.52.46,0,1.01-.13,1.31-.13.38,0,.63.17.63.47,0,.46-.42,1.22-.93,1.65.51.21,1.06.3,1.65.3,2.41,0,5.15-1.52,5.15-5.32.51.67.8,2.07.8,2.7,0,4.6-3.38,6.37-6.5,6.37-2.03,0-3.04-.68-3.29-.68-.8,0-.76,1.6-1.31,1.56-.97-.17-1.86-2.32-1.86-4.6,0-1.35.34-2.79,1.1-3.84h0ZM48.73,15.49c0,1.48,5.28,8.7,6.29,8.7.84,0,1.48-1.48,1.48-2.75,0-.33-.08-.67-.25-.93-.76-1.05-6.12-5.28-7.3-5.28-.13,0-.21.13-.21.25h0ZM109.64,12.03c0-2.99-7.17-3.75-7.17-4.43,0-.55,4.01-1.48,6.08-1.52-3.17-4.05-7.68-3.63-7.68-4.35,0-.42,3.38-1.27,6.5-1.27,2.62,0,5.07.59,5.07,2.58,0,1.1-.89,2.24-.89,3.92,0,.93.47,1.73,1.69,1.73,1.31,0,1.61-1.39,1.61-2.87,0-1.22-.21-2.15-.21-2.74,0-1.77,1.22-2.96,2.95-2.96,1.43,0,1.77.63,3.88.63-1.14.68-1.56,1.9-1.56,2.49,0,1.77,1.14,3,1.14,6.63,0,6.67-6.25,9.03-13.89,9.03-2.11,0-4.35-.17-6.54-.51-.34-.04-.42-.13-.42-.34,0-.55,3-.85,3-3.55,0-1.06-.34-2.07-.34-2.45,0-.21.17-.34.34-.34.63,0,1.9,2.45,4.26,2.45.63,0,2.2-.21,2.2-2.16h0ZM116.77,7.76c0,3.76-2.74,6.63-7.68,7.43.55.04,1.06.04,1.56.04,5.78,0,7.89-2.62,7.89-4.81,0-1.23-.68-2.32-1.78-2.66h0ZM112.76,41.71c0-.89-2.24-.97-2.45-3.46-.04-.38-.17-1.06-.63-1.06-.76,0-.17,2.32-1.01,2.32-1.94,0-2.58-3.8-3.29-3.8-.17,0-.38.13-.38.63,0,.46.08.76.08,1.31s-.13.93-.63.93c-1.14,0-2.15-2.66-3.13-2.66-.21,0-.42.13-.42.34,0,.51.84,1.43.84,1.9,0,1.02-2.75.46-2.75,1.31,0,.38.38.51.89.51.89,0,2.28-.38,3-.38.42,0,1.06.09,1.06.63,0,.59-1.52,1.35-1.52,1.9,0,.25.25.38.46.38,1.14,0,3.16-1.98,4.6-1.98.26,0,.89.12.89.51,0,.55-1.44,1.52-1.44,2.32,0,.21.13.47.38.47.76,0,1.77-1.98,3.21-1.98.55,0,1.35.21,1.77.21.34,0,.47-.21.47-.34h0ZM82.54,9.5c0-.46-1.64-1.35-1.64-1.86,0-.08.08-.13.21-.13.46,0,1.26.17,1.9.17.55,0,.63-2.36,1.06-2.36.29,0,.8,2.24,1.27,2.24.55,0,1.56-.63,1.98-.63.08,0,.17.04.17.13,0,.3-1.06,1.44-1.06,1.77,0,.38,2.37.84,2.37,1.18,0,.42-2.41.38-2.41.76,0,.3.89,1.48.89,1.86,0,.08-.04.13-.13.13-.34,0-1.64-.59-2.02-.59-.46,0-1.23,1.73-1.6,1.73-.13,0-.21-.17-.21-.38l-.09-1.69c0-.17-.08-.34-.29-.34-.51,0-1.48-.04-1.77-.04-.21,0-.29-.04-.29-.13,0-.34,1.69-1.52,1.69-1.81h0ZM90.77,17.52c-2.96,0-4.9-1.48-4.9-2.24,0-.38.25-.63.59-.63.93,0,2.96,1.43,3.63,1.43.17,0,.29-.08.29-.34,0-.76-.72-2.03-.72-2.66,0-.17.13-.29.38-.29,1.14,0,2.83.46,3.72.46.3,0,.38-.17.38-.34,0-.93-2.74-2.74-2.74-3.29,0-.51,3.42-1.26,3.42-2.07,0-.84-4.64-.25-4.64-1.06,0-.59.89-1.6.89-2.07,0-.21-.17-.3-.46-.3-.38,0-2.41.8-3.25.8-.42,0-.93-.08-.93-.68,0-.97,1.65-2.03,4.22-2.03,4.18,0,6.67,2.87,6.67,7.69,0,6.08-4.26,7.6-6.54,7.6h0ZM62.19,90.55c0,.38-.13.8-.46,1.22-.46-.84-1.77-1.27-2.36-1.27-4.35,0-2.7,6.29-7.35,6.29-1.94,0-2.11-.25-2.83-.25-.3,0-.47.13-.47.38,0,1.1,1.56,3.8,5.91,3.8s8.53-2.66,8.53-5.96c0-.55-.13-1.14-.38-1.73.17-.25.59-.42.97-.42.68,0,1.06.76,1.69.76.67,0,1.18-.51,1.18-1.18,0-.55-.3-.93-.8-1.18.34-.25.59-.67.59-1.14,0-.72-.51-1.39-1.35-1.39-.38,0-.63.13-.93.42-.08-.76-.51-1.48-1.31-1.48-.63,0-1.1.46-1.1,1.18,0,.67.46,1.22.46,1.94h0ZM50.84,92.15c-1.27,0-3.16-1.35-3.16-2.11,0-.63.59-.97,1.06-.97,1.05,0,2.95,1.31,2.95,2.41,0,.29-.21.68-.84.68h0ZM39.06,82.69c3.38.84,5.07,2.66,5.4,4.81.34,2.07.76,3.76,1.56,4.6,1.06,1.18,3.13,2.23,4.94,2.23,1.52,0,2.75-.5,2.75-1.9,0-1.52-2.07-4.94-5.11-4.94-.29,0-.68.04-1.1.04-.38,0-.93-.08-1.27-.38-.68-.59-.89-3.76-2.15-5.65-1.39-2.11-2.91-2.7-4.98-2.7-1.48,0-3.12.8-3.12,1.98,0,.72.38,1.22,3.08,1.9h0ZM60.25,77.54c0-1.9-3.92-1.94-3.92-4.81,0-.72.46-1.94,1.39-3.25.38,2.2,1.27,3.34,3.16,4.05,3.75,1.39,4.26,3.5,4.26,5.74,0,3.79-2.66,8.53-9.5,8.53-5.49,0-9.41-4.9-9.41-9.03,0-1.14.3-2.41,1.01-2.41.63,0,.84.51,1.35,1.01,1.9,1.9,3.97,2.41,6.96,2.41,2.7,0,4.69-1.1,4.69-2.24h0ZM60.42,80.58c-1.48.59-2.02.55-2.02,2.02,0,.55-.13,1.27-.13,1.65,0,.51.08.8.68.8,1.52,0,3.92-2.58,3.92-4.77,0-.59-.34-.84-.72-.84-.34,0-.72.68-1.73,1.14h0ZM46.95,59.26c0-2.7,6.42-4.14,6.42-7.47,0-.55-.21-1.52-.59-2.24,2.24,1.22,3.88,3.29,3.88,4.98,0,2.91-3.04,4.26-3.04,6.08,0,2.11,3.25,2.45,3.25,5.07,0,2.15-3.08,4.64-3.08,7.43,0,2.15,1.52,3.92,3.84,4.22-.76.17-1.44.3-2.15.3-4.26,0-8.65-3.51-8.65-7.68,0-2.07.89-3.88,2.24-5.19,1.18,1.01,2.36,1.69,3.12,1.69.68,0,.97-.34.97-.84,0-1.56-6.21-3-6.21-6.33h0Z"/>
      <path class="cls-1" d="M55.66,149.57c1.19,0,3.24-.39,4.86-2.97-.92-2.05-1.58-6.19-1.68-7.7-.47-7.71,2.5-14.96,5.75-15.16,2.38-.14,4.29,2.11,4.51,5.76.59,9.61-2.62,13.62-4.21,17.08.27,1.35,2.54,3.63,4.69,3.63.79,0,1.75-.4,1.99-.72-.16-.55-.32-1.27-.32-2.3,0-5.57,3.59-10.26,6.69-10.26,2.47,0,3.89,3.26,3.89,5.42,0,2.54-2.15,4.61-5.33,6.6.56.55,1.59.95,2.47.95,4.53,0,6.92-5.49,8.67-10.5.32-.95.88-2.31,1.99-2.31,1.91,0,2.71,12.57,5.89,12.57,1.36,0,2.47-2.78,2.47-4.93,0-1.59-.56-1.75-.56-4.06,0-2.54,1.35-4.69,3.19-4.69,1.11,0,1.51,1.11,1.51,2.46,0,5.09-3.66,14.56-9.07,14.56-4.06,0-3.75-7.01-5.17-7.01-1.6,0-3.83,7.09-11.7,7.09-1.28,0-2.63-.64-3.74-1.92-1.91,1.28-3.51,1.84-5.34,1.84-2.94,0-4.21-3.03-5.4-3.03-1.43,0-3.02,3.11-7.8,3.11-3.82,0-4.46-5.09-5.81-5.09-1.19,0-3.02,5.09-5.01,5.09-3.35,0-4.06-8.83-7-8.83-2.31,0-9.6,8.97-11.58,8.76-.8-.08-1.13-.68-1.05-1.48.11-1.1,1.06-4.05,1.44-5.44.64-2.41,1.23-5.07,1.56-5.92.33-.85,1.21-1.46,1.92-1.39.36.03.46.7.58,1.25.4,1.97.96,3.98,1.6,3.98,1.12,0,4.81-7.08,6.95-7.08,2.63,0,2.94,11.14,6.52,11.14,1.19,0,2.07-1.43,2.87-3.18.08-2.95.87-7.16,3.26-7.16,1.68,0,2.47,3.73,1.27,7,0,3.89,2.54,4.85,4.22,4.85h0ZM115.01,142.09c0-1.99-1.83-4.78-4.53-4.78-3.58,0-7.08,3.9-7.08,9.31,0,4.85,3.02,6.45,6.04,6.45,5.25,0,8.44-4.3,10.1-7.88.8,2.39,1.27,7.88,3.26,7.88.8,0,1.35-.4,2.31-2.55,2.38-5.33,4.69-11.46,7.87-11.46,1.19,0,.48,2.15,3.34,2.15,1.35,0,2.3-1.11,2.3-2.39,0-1.83-1.67-3.26-4.22-3.26-7.47,0-9.06,11.22-10.26,11.22-1.99,0-1.35-8.99-2.79-8.99-1.27,0-1.91,1.51-2.07,2.22-1.04,4.14-3.98,10.11-8.43,10.11-1.03,0-2.86-.4-2.86-1.43,0-1.11,7-1.27,7-6.6h0ZM66.52,131.65c-.14-2.22-.68-3.22-1.87-3.14-1.59.1-2.32,5.08-2,10.32.21,3.42.72,3.94,1.19,3.91.88-.05,2.98-6.16,2.67-11.09h0ZM53.59,126.98c-.08-1.28-1.11-2.15-2.46-2.15-1.51,0-2.95,1.59-2.78,3.58,0,1.19.87,2.39,2.39,2.39,1.75,0,3.02-1.98,2.86-3.81h0ZM78.33,143.21c0-1.35-.72-2.47-1.59-2.47-.72,0-2.39.8-2.39,3.34,0,1.99.71,2.94,1.04,3.34,2.3-.72,2.94-2.63,2.94-4.22h0ZM109.44,140.51c1.67,0,2.15,1.98,1.75,3.18-.4,1.19-1.83,2.54-4.06,2.94-.48-1.2-.72-6.12,2.3-6.12h0ZM.02,141.78c-.08-3.27.08-6.53,1.43-11.14.71-2.46,1.35-3.34,3.58-3.81,1.75-.32,1.59,1.51,1.2,3.66-.87,4.77-1.28,7.08-.96,12.49.31,5.73,2.94,7.95,5.8,7.95,4.3.08,6.21-3.5,7-8.67.63-4.14.16-6.13-.24-7.4-.24-.72-.87-2.31-1.11-3.5-.32-3.02,1.11-4.45,2.31-4.85,1.43-.4,1.99.32,2.54,1.99.72,2.55.8,5.88.56,10.65-.32,6.52-3.58,14.41-11.69,14.24-7-.15-10.1-4.69-10.42-11.61H.02Z"/>
    </g>
  </g>
</svg>